<?xml version="1.0" encoding="UTF-8" standalone="no"?>
<!-- Created with Inkscape (http://www.inkscape.org/) -->

<svg
   width="87.3125mm"
   height="116.68125mm"
   viewBox="0 0 87.3125 116.68125"
   version="1.1"
   id="svg1"
   xml:space="preserve"
   inkscape:version="1.4.2 (f4327f4, 2025-05-13)"
   sodipodi:docname="bugblug.svg"
   xmlns:inkscape="http://www.inkscape.org/namespaces/inkscape"
   xmlns:sodipodi="http://sodipodi.sourceforge.net/DTD/sodipodi-0.dtd"
   xmlns="http://www.w3.org/2000/svg"
   xmlns:svg="http://www.w3.org/2000/svg"><sodipodi:namedview
     id="namedview1"
     pagecolor="#ffffff"
     bordercolor="#000000"
     borderopacity="0.25"
     inkscape:showpageshadow="2"
     inkscape:pageopacity="0.0"
     inkscape:pagecheckerboard="0"
     inkscape:deskcolor="#d1d1d1"
     inkscape:document-units="mm"
     inkscape:zoom="1.1313833"
     inkscape:cx="34.913014"
     inkscape:cy="373.43667"
     inkscape:window-width="2560"
     inkscape:window-height="1377"
     inkscape:window-x="1912"
     inkscape:window-y="522"
     inkscape:window-maximized="1"
     inkscape:current-layer="layer1" /><defs
     id="defs1" /><g
     inkscape:label="Layer 1"
     inkscape:groupmode="layer"
     id="layer1"
     transform="translate(-202.93541,111.25729)"><path
       style="fill:#000000"
       d="m 203.55409,4.167187 c 0.29653,-2.0276476 0.5076,-2.6914581 0.99651,-3.1339127 0.27581,-0.24960692 0.50148,-0.59939276 0.50148,-0.77730184 0,-0.17790907 0.17612,-0.46964044 0.39138,-0.64829192 0.4793,-0.39778561 1.19612,-1.79511564 1.19612,-2.33166574 0,-0.2165494 0.35718,-0.7350738 0.79375,-1.1522763 0.43656,-0.4172026 0.79375,-0.9361083 0.79375,-1.1531238 0,-0.2170155 0.11906,-0.3945737 0.26458,-0.3945737 0.14552,0 0.26458,-0.2094849 0.26458,-0.465522 0,-0.2560371 0.23813,-0.6142335 0.52917,-0.795992 0.29104,-0.1817586 0.53039,-0.4782893 0.53189,-0.6589572 0.001,-0.1806679 0.59681,-0.952139 1.32291,-1.7143802 0.72611,-0.7622412 1.3202,-1.4672416 1.3202,-1.5666666 0,-0.09943 0.19779,-0.399328 0.43953,-0.66645 0.24174,-0.267122 0.57128,-0.752747 0.7323,-1.079167 0.16103,-0.326419 0.55122,-0.707865 0.8671,-0.847656 0.31588,-0.139791 0.64309,-0.437447 0.72714,-0.661458 0.23337,-0.622029 0.80384,-1.540192 1.29232,-2.07995 0.24174,-0.267122 0.43953,-0.606676 0.43953,-0.754565 0,-0.147889 0.23812,-0.484389 0.52916,-0.747778 0.29104,-0.263389 0.52917,-0.73428 0.52917,-1.046424 0,-0.312144 0.1325,-0.700035 0.29445,-0.86198 0.34073,-0.340736 0.0966,-0.869721 -0.40135,-0.869721 -0.18714,0 -0.55575,-0.238125 -0.81914,-0.529167 -0.26339,-0.291041 -0.62727,-0.529166 -0.80862,-0.529166 -0.71643,0 -3.29242,-5.008139 -3.29242,-6.400976 0,-0.554047 -0.11907,-1.007358 -0.26459,-1.007358 -0.16161,0 -0.26458,-1.229517 -0.26458,-3.159385 0,-1.820853 0.1121,-3.228664 0.26458,-3.322906 0.34353,-0.21231 0.34353,-1.639774 0,-1.852084 -1.34211,-0.82947 2.87551,-9.128125 4.63918,-9.128125 0.85132,0 1.66398,-1.468842 0.92026,-1.66333 -0.28929,-0.07565 -0.63281,-0.416959 -0.76339,-0.758462 -0.13057,-0.341504 -0.49843,-0.856091 -0.81747,-1.143527 -0.52491,-0.47292 -1.58868,-2.442661 -1.60321,-2.968602 -0.003,-0.117125 -0.23871,-0.51061 -0.52328,-0.874412 -0.28457,-0.363802 -0.52005,-0.857728 -0.52329,-1.097612 -0.003,-0.239885 -0.36307,-1.115178 -0.79963,-1.945097 -0.43656,-0.829918 -0.79375,-1.727951 -0.79375,-1.995627 0,-0.267677 -0.11906,-0.560269 -0.26458,-0.650206 -0.14552,-0.08994 -0.26459,-0.39462 -0.26459,-0.677073 0,-0.282454 -0.11906,-0.513552 -0.26458,-0.513552 -0.15187,0 -0.26458,-0.810973 -0.26458,-1.903752 0,-2.610769 1.32415,-4.173011 2.46682,-2.910373 0.23769,0.262648 0.85146,0.642058 1.36392,0.843133 0.51247,0.201076 0.93176,0.499688 0.93176,0.663583 0,0.163894 0.35718,0.640197 0.79375,1.058451 0.43656,0.418253 0.79375,0.896024 0.79375,1.061714 0,0.165689 0.30534,0.588112 0.67855,0.938717 0.3732,0.350606 0.86941,1.055969 1.10269,1.567475 0.23327,0.511506 0.59525,1.131774 0.8044,1.378373 0.64693,0.762795 2.17686,3.988044 2.17686,4.589047 0,0.685923 0.65459,2.058353 1.19611,2.507772 0.21526,0.178651 0.40079,0.518601 0.41227,0.755444 0.0133,0.274194 0.0694,0.310482 0.15434,0.09989 0.0734,-0.181901 0.48072,-0.330729 0.90516,-0.330729 0.42443,0 0.7717,-0.119062 0.7717,-0.264583 0,-0.354382 6.52785,-0.354382 6.74687,0 0.0899,0.145521 0.44713,0.264583 0.79375,0.264583 0.34663,0 0.69687,0.107823 0.77832,0.239606 0.41789,0.676164 1.46653,-0.381176 1.46858,-1.480762 0.001,-0.609875 0.12113,-1.182449 0.26665,-1.272386 0.14552,-0.08994 0.26458,-0.439572 0.26458,-0.776968 0,-0.337395 0.18449,-0.766557 0.40997,-0.953693 0.22549,-0.187136 0.63631,-0.837088 0.91295,-1.444339 0.27663,-0.60725 0.68746,-1.257202 0.91294,-1.444338 0.22549,-0.187136 0.40997,-0.483508 0.40997,-0.658605 0,-0.175096 0.30535,-0.605216 0.67855,-0.955822 0.37321,-0.350605 0.86778,-1.055969 1.09906,-1.567474 0.47836,-1.057961 3.45672,-4.237302 3.96944,-4.237302 0.1861,0 0.33837,-0.160141 0.33837,-0.355868 0,-1.484877 2.28555,-1.336668 3.05461,0.19808 0.4442,0.886446 0.5429,4.920288 0.12039,4.920288 -0.14552,0 -0.26458,0.238125 -0.26458,0.529166 0,0.291042 -0.11907,0.529167 -0.26459,0.529167 -0.14552,0 -0.26458,0.238125 -0.26458,0.529167 0,0.291041 -0.11906,0.529166 -0.26458,0.529166 -0.14552,0 -0.26459,0.15456 -0.26459,0.343466 0,0.188905 -0.41901,0.754452 -0.93115,1.25677 -0.51213,0.502318 -1.15675,1.389556 -1.43248,1.971639 -0.27574,0.582084 -0.80922,1.346979 -1.18552,1.699767 -0.3763,0.352788 -0.68056,0.769507 -0.67613,0.926041 0.004,0.156535 0.1294,0.07625 0.27773,-0.178412 0.14832,-0.254661 0.41412,-0.463021 0.59067,-0.463021 0.17654,0 0.43852,-0.265777 0.58216,-0.590615 0.14365,-0.324839 0.52825,-0.722362 0.85467,-0.883386 0.32642,-0.161023 0.80267,-0.470598 1.05834,-0.687943 0.25566,-0.217346 0.88334,-0.586037 1.39485,-0.819315 0.5115,-0.233278 1.21687,-0.729488 1.56747,-1.102691 0.35061,-0.373202 0.84275,-0.67855 1.09365,-0.67855 0.25089,0 1.1352,-0.357187 1.96512,-0.79375 0.82992,-0.436562 1.84701,-0.79375 2.26021,-0.79375 0.4132,0 0.82485,-0.119062 0.91479,-0.264583 0.21889,-0.354173 8.24777,-0.354173 8.46666,0 0.0899,0.145521 0.51007,0.264583 0.93361,0.264583 0.42355,0 1.16067,0.218916 1.63803,0.486479 1.27556,0.714946 2.40329,0.890688 2.1796,0.339662 -0.0958,-0.236096 -0.23884,-1.712684 -0.31777,-3.281306 -0.0789,-1.568622 -0.24555,-2.915102 -0.37026,-2.992178 -0.12471,-0.07707 -0.22675,-0.542802 -0.22675,-1.034948 0,-0.492147 -0.11906,-0.968397 -0.26458,-1.058334 -0.14552,-0.08994 -0.26458,-0.74478 -0.26458,-1.455208 0,-0.710428 -0.11907,-1.365272 -0.26459,-1.455208 -0.14552,-0.08994 -0.26458,-0.447125 -0.26458,-0.79375 0,-0.346626 -0.11906,-0.703814 -0.26458,-0.793751 -0.14552,-0.08994 -0.26459,-0.668463 -0.26459,-1.285614 0,-0.617152 -0.13773,-1.25983 -0.30608,-1.428173 -0.19169,-0.19169 -0.30202,-1.274446 -0.29523,-2.897188 0.006,-1.425109 -0.0928,-2.720379 -0.21941,-2.878377 -0.33913,-0.423077 -0.32068,-30.294871 0.0189,-30.634461 0.14995,-0.14995 0.27264,-0.48695 0.27264,-0.74889 0,-0.37054 0.21171,-0.47625 0.95383,-0.47625 0.95383,0 0.95383,0 0.75598,1.12448 -0.51117,2.90522 -0.12863,34.945943 0.42392,35.507078 0.13614,0.138244 0.24752,0.73951 0.24752,1.336145 0,0.596636 0.12704,1.211839 0.28232,1.367119 0.15528,0.155279 0.35135,1.194894 0.4357,2.310254 0.0844,1.11536 0.25496,2.090715 0.37913,2.167455 0.12417,0.07674 0.22576,0.482661 0.22576,0.902048 0,0.419386 0.11907,0.836104 0.26459,0.926041 0.14552,0.08994 0.26458,1.1615 0.26458,2.38125 0,1.219751 0.11906,2.291313 0.26458,2.38125 0.14552,0.08994 0.26459,1.264233 0.26459,2.609546 0,2.450712 0.81776,4.137329 2.00601,4.137329 0.14356,0 0.9118,0.665445 1.70719,1.478765 0.79539,0.813321 1.71406,1.584281 2.04148,1.713244 0.45775,0.180292 0.59532,0.446379 0.59532,1.151453 0,0.504336 0.11906,0.99056 0.26458,1.080497 0.14552,0.08994 0.26458,0.390998 0.26458,0.669025 0,0.278028 0.22535,0.906709 0.50077,1.397071 0.27542,0.490362 0.56673,1.476249 0.64736,2.19086 0.24201,2.144981 0.48441,3.280272 0.73319,3.434028 0.32923,0.203472 0.30155,7.450414 -0.0292,7.654849 -0.14552,0.08994 -0.26459,0.68525 -0.26459,1.322917 0,0.637667 -0.11906,1.23298 -0.26458,1.322917 -0.14552,0.08994 -0.26458,0.390998 -0.26458,0.669025 0,0.278028 -0.23813,0.929466 -0.52917,1.447641 -0.8156,1.452115 -0.71334,1.984375 0.38126,1.984375 0.50073,0 0.98401,0.119063 1.07395,0.264584 0.0899,0.145521 0.44712,0.264583 0.79375,0.264583 0.34662,0 0.70381,0.119063 0.79375,0.264583 0.0899,0.145521 0.45415,0.264584 0.80936,0.264584 0.35522,0 0.64585,0.119062 0.64585,0.264583 0,0.145521 0.23812,0.264583 0.52916,0.264583 0.29104,0 0.52917,0.119063 0.52917,0.264584 0,0.145521 0.21184,0.264583 0.47076,0.264583 0.25891,0 0.64239,0.238125 0.85216,0.529167 0.20977,0.291041 0.53912,0.529166 0.73189,0.529166 1.42079,0 2.70282,10.165608 1.38477,10.980209 -0.14552,0.08994 -0.26458,0.447124 -0.26458,0.79375 0,0.346626 -0.11906,0.703813 -0.26458,0.79375 -0.14552,0.08994 -0.26459,0.447124 -0.26459,0.79375 0,0.3466256 -0.11906,0.7038131 -0.26458,0.79375 -0.14552,0.089937 -0.26458,0.3637995 -0.26458,0.6085837 0,0.5860363 -1.76715,4.1509211 -2.2607,4.560532 -0.21182,0.1758 -0.38514,0.4628973 -0.38514,0.6379939 0,0.3697864 -1.10535,1.4689321 -1.47722,1.4689321 -0.13887,0 -1.43865,1.19062505 -2.8884,2.6458334 -1.70883,1.7152616 -2.83618,2.6458334 -3.20533,2.6458334 -0.3469,0 -0.62349,0.2067864 -0.70779,0.5291666 -0.0935,0.3575798 -0.3609,0.5291667 -0.82461,0.5291667 -0.37743,0 -0.68623,0.1190625 -0.68623,0.2645834 0,0.1611764 -1.05992,0.2525879 -2.71198,0.2338913 -1.49159,-0.016881 -2.47385,-0.084555 -2.18281,-0.1503873 0.87064,-0.1969351 3.22864,-1.3897208 3.57692,-1.8093728 0.17838,-0.2149389 0.46989,-0.3907979 0.6478,-0.3907979 0.17791,0 0.53897,-0.238125 0.80236,-0.5291667 0.26339,-0.2910417 0.73068,-0.5291667 1.03842,-0.5291667 0.35624,0 1.47086,-0.92125334 3.06785,-2.53563732 1.37957,-1.39460058 2.76653,-2.63813278 3.08213,-2.76340498 0.31561,-0.1252722 0.73232,-0.5160585 0.92605,-0.868414 1.2048,-2.1913889 2.33659,-4.6106783 2.33659,-4.9946543 0,-0.2465795 0.11907,-0.5219111 0.26459,-0.6118475 0.14552,-0.08994 0.26458,-0.447125 0.26458,-0.79375 0,-0.346626 0.11906,-0.703814 0.26458,-0.79375 0.14552,-0.08994 0.26459,-0.447125 0.26459,-0.79375 0,-0.346626 0.11906,-0.703814 0.26458,-0.79375 1.04454,-0.645561 0.13753,-8.598959 -0.98062,-8.598959 -0.15263,0 -0.42367,-0.176123 -0.60232,-0.391385 -0.46046,-0.554817 -1.82802,-1.196115 -2.5507,-1.196115 -0.33702,0 -1.03673,-0.238125 -1.5549,-0.529167 -0.51818,-0.291041 -1.28868,-0.529166 -1.71223,-0.529166 -0.42354,0 -0.84367,-0.119063 -0.93361,-0.264584 -0.24075,-0.389543 -0.92604,-0.32199 -0.92604,0.09128 0,0.195727 -0.24094,0.573914 -0.53542,0.840415 -0.36518,0.330488 -0.4493,0.570657 -0.26458,0.755382 0.67439,0.674392 0.30931,2.790004 -0.64639,3.745696 -1.03038,1.030381 -2.92848,1.306213 -3.58069,0.520348 -0.18116,-0.218282 -0.43386,-0.396875 -0.56156,-0.396875 -0.12771,0 -0.23219,0.178593 -0.23219,0.396875 0,0.218281 -0.16014,0.396875 -0.35587,0.396875 -0.19573,0 -0.57137,0.238125 -0.83476,0.529166 -0.84278,0.931269 -2.73933,0.735075 -3.83645,-0.396875 -1.24032,-1.279678 -1.858,-1.211725 -2.67171,0.293919 -0.36262,0.670978 -0.74327,1.206759 -0.84589,1.190625 -0.10261,-0.01614 -0.66577,-0.02933 -1.25145,-0.02933 -0.87363,0 -1.10725,-0.111424 -1.30076,-0.620401 -0.48166,-1.266874 -0.97371,-1.496266 -3.20951,-1.496266 -1.79798,0 -2.09777,0.06428 -2.09777,0.449792 0,0.349837 0.0706,0.379236 0.3175,0.132291 0.51153,-0.511529 2.70255,-0.398101 3.21337,0.166354 0.78545,0.867914 0.56152,1.36823 -0.6124,1.36823 -0.57766,0 -1.47425,0.238125 -1.99243,0.529166 -0.51817,0.291042 -1.35161,0.529167 -1.85208,0.529167 -0.50047,0 -1.33391,0.238125 -1.85208,0.529167 -1.48892,0.836276 -2.77813,0.414597 -2.77813,-0.908681 0,-1.930682 -1.51855,-2.100417 -2.52244,-0.281944 -0.58461,1.058997 -0.62603,1.230544 -0.20758,0.859895 0.69956,-0.61965 2.00274,-0.591313 2.58881,0.05629 0.55245,0.610443 0.36872,1.332771 -0.339,1.332771 -0.6237,0 -2.00542,0.678792 -2.43476,1.196115 -0.19618,0.236385 -0.78351,0.391385 -1.48305,0.391385 -0.63702,0 -1.15823,0.119062 -1.15823,0.264583 0,0.145521 -0.35718,0.264584 -0.79375,0.264584 -0.43656,0 -0.79375,0.119062 -0.79375,0.264583 0,0.145521 -0.39826,0.264583 -0.88503,0.264583 -0.54902,0 -1.06685,0.200908 -1.36393,0.529167 -0.26338,0.291042 -0.73963,0.529167 -1.05833,0.529167 -0.31869,0 -0.79494,0.238125 -1.05833,0.5291663 -0.2863,0.3163566 -0.81491,0.5291667 -1.31442,0.5291667 -0.58299,0 -1.06539,0.2399139 -1.596,0.79375 -0.41825,0.4365625 -0.89832,0.79375 -1.06683,0.79375 -0.1685,0 -0.53318,0.2507944 -0.81039,0.5573209 -1.28901,1.4253057 -3.81132,1.9591583 -3.81132,0.8066755 0,-0.4995583 1.03219,-1.6285798 1.48891,-1.6285798 0.14529,0 0.60638,-0.3571875 1.02463,-0.79375 0.41825,-0.4365625 0.8945,-0.79375 1.05833,-0.79375 0.16383,0 0.64008,-0.3571876 1.05834,-0.7937496 0.53061,-0.553836 1.013,-0.79375 1.59599,-0.79375 0.49952,0 1.02813,-0.21281 1.31442,-0.529167 0.26339,-0.291042 0.73964,-0.529167 1.05834,-0.529167 0.31869,0 0.79494,-0.238125 1.05833,-0.529166 0.29381,-0.324652 0.81491,-0.529167 1.34831,-0.529167 0.47818,0 0.943,-0.119063 1.03294,-0.264583 0.0899,-0.145521 0.45937,-0.264584 0.82096,-0.264584 0.64629,0 0.65611,-0.03216 0.57969,-1.897065 -0.0962,-2.347226 -0.73919,-2.945727 -0.73919,-0.688026 0,3.258039 -3.14049,3.899753 -4.60695,0.941364 -0.31729,-0.640102 -2.27222,-1.060741 -2.27222,-0.488911 0,0.154305 -0.42786,0.280555 -0.95081,0.280555 -0.7283,0 -0.9832,0.123839 -1.08919,0.529167 -0.0761,0.291041 -0.24356,0.529166 -0.37211,0.529166 -0.12854,0 -0.23372,0.238125 -0.23372,0.529167 0,0.291042 -0.11906,0.529167 -0.26458,0.529167 -0.14552,0 -0.26459,0.16014 -0.26459,0.355867 0,1.255622 -2.73034,1.739719 -3.17757,0.563394 -0.13974,-0.367531 -0.43445,-0.737457 -0.65491,-0.822057 -0.23026,-0.08836 -0.40085,-0.479574 -0.40085,-0.919262 0,-0.420993 -0.11906,-0.765442 -0.26458,-0.765442 -0.14552,0 -0.26459,-0.187099 -0.26459,-0.415774 0,-0.897339 -1.55196,-1.606806 -1.98437,-0.907143 -0.0899,0.145521 -0.42592,0.264583 -0.74663,0.264583 -0.34403,0 -0.69018,0.237532 -0.84428,0.57935 -0.36315,0.805558 -1.65886,1.494986 -2.85289,1.517979 -0.94038,0.01811 -2.29931,0.919317 -2.30507,1.528666 -10e-4,0.115755 -0.53687,0.735786 -1.19062,1.377846 -0.65375,0.642061 -1.18864,1.3013801 -1.18864,1.4651547 0,0.1637746 -0.59531,0.8841329 -1.32291,1.6007963 -0.72761,0.7166634 -1.32292,1.4417496 -1.32292,1.6113028 0,0.1695532 -0.18449,0.4613896 -0.40997,0.6485254 -0.22549,0.1871358 -0.63198,0.8267925 -0.90332,1.4214594 -0.27134,0.5946668 -0.80123,1.3698573 -1.17753,1.7226455 -0.3763,0.3527882 -0.68418,0.8405113 -0.68418,1.0838292 0,0.5775822 -0.69826,1.96714846 -1.19612,2.38033559 -0.21526,0.17865148 -0.39138,0.47038281 -0.39138,0.64829191 0,0.1779091 -0.23813,0.5389712 -0.52917,0.8023603 -0.61542,0.5569534 -0.71543,1.7197917 -0.1479,1.7197917 0.20969,0 0.45484,-0.1190625 0.54478,-0.2645833 0.0921,-0.149054 1.36976,-0.2645834 2.92603,-0.2645834 1.66528,0 2.76251,-0.1050883 2.76251,-0.2645833 0,-0.1673159 1.89098,-0.2645833 5.14376,-0.2645833 3.14377,0 5.20734,0.1028749 5.30728,0.2645833 0.0899,0.1455208 0.56619,0.2645833 1.05833,0.2645833 0.49215,0 0.9684,0.1190625 1.05834,0.2645834 0.0899,0.1455208 0.37444,0.2645833 0.63223,0.2645833 0.25779,0 1.05444,0.2971579 1.77032,0.660351 1.30161,0.6603509 1.30161,0.6603509 -1.79162,0.6614583 -1.77802,6.365e-4 -3.16277,-0.1113918 -3.25677,-0.2634759 -0.0982,-0.1589671 -1.89372,-0.2645834 -4.49791,-0.2645834 -2.6042,0 -4.39967,0.1056163 -4.49792,0.2645834 -0.58134,0.9406301 -9.97467,0.2455147 -9.83236,-0.7276042 z m 29.747,-22.291146 c 0.19846,-0.317788 0.62022,-0.530785 1.05583,-0.533218 0.49026,-0.0027 0.61254,-0.0756 0.37727,-0.224787 -0.89135,-0.565221 -1.5061,-3.197512 -0.84253,-3.60762 0.14552,-0.08994 0.26458,-0.447125 0.26458,-0.79375 0,-0.346626 0.11907,-0.703813 0.26459,-0.79375 0.14552,-0.08994 0.26458,-0.439573 0.26458,-0.776968 0,-0.337396 0.17612,-0.759616 0.39138,-0.938268 0.5029,-0.417362 1.19612,-1.80487 1.19612,-2.394059 0,-0.250866 0.18079,-0.606163 0.40176,-0.789549 0.22096,-0.183386 0.5969,-0.763512 0.83541,-1.289168 1.02293,-2.254415 2.35922,-3.204697 4.50646,-3.204697 1.92929,0 1.92929,0 1.92929,-1.772708 0,-1.378773 -0.0706,-1.702153 -0.3175,-1.455208 -0.17463,0.174625 -0.57059,0.3175 -0.87992,0.3175 -0.30934,0 -0.84928,0.305347 -1.19989,0.678549 -0.35061,0.373203 -1.05597,0.869414 -1.56748,1.102691 -0.5115,0.233278 -1.13918,0.601969 -1.39485,0.819315 -0.50036,0.425366 -1.11978,0.794422 -2.57786,1.53591 -0.50933,0.259008 -1.24171,0.803481 -1.62751,1.209938 -0.38581,0.406457 -0.86554,0.739013 -1.06607,0.739013 -0.20053,0 -0.53624,0.238125 -0.74601,0.529167 -0.20977,0.291042 -0.58332,0.529167 -0.83011,0.529167 -0.24679,0 -0.48839,0.0893 -0.5369,0.198437 -0.41352,0.930419 -5.24757,1.966287 -5.24757,1.124479 0,-0.14552 -0.2282,-0.264583 -0.50712,-0.264583 -0.27891,0 -0.5468,-0.09367 -0.59531,-0.208165 -0.0485,-0.11449 -0.7605,-0.533944 -1.5822,-0.932118 -0.8217,-0.398175 -1.63995,-0.899814 -1.81833,-1.114752 -0.17838,-0.214939 -0.4699,-0.390798 -0.64781,-0.390798 -0.1779,0 -0.53897,-0.238125 -0.80236,-0.529167 -1.32601,-1.465229 -0.89566,0.735383 0.4552,2.327698 0.21017,0.247735 0.57849,0.880509 0.81848,1.406165 0.23999,0.525657 0.61714,1.105782 0.83811,1.289168 0.22097,0.183386 0.40176,0.482866 0.40176,0.665511 0,0.182644 0.18079,0.482124 0.40175,0.66551 0.85446,0.709137 1.24868,2.055638 1.14404,3.907579 -0.15948,2.82239 7.74591,5.361103 9.24072,2.967536 z m 17.90755,-2.14671 c 0.13824,-0.128997 0.51817,-0.23454 0.84428,-0.23454 0.32611,0 0.66651,-0.119063 0.75645,-0.264584 0.0899,-0.14552 0.391,-0.264583 0.66902,-0.264583 0.27803,0 0.92947,-0.238125 1.44764,-0.529167 0.51818,-0.291041 1.15283,-0.529166 1.41034,-0.529166 0.98576,0 1.71378,-3.560166 0.83862,-4.101042 -0.14552,-0.08994 -0.26458,-0.923374 -0.26458,-1.852083 0,-0.928709 -0.11906,-1.762147 -0.26458,-1.852084 -0.14552,-0.08994 -0.26459,-0.447124 -0.26459,-0.79375 0,-0.346625 -0.11906,-0.703813 -0.26458,-0.79375 -0.14552,-0.08994 -0.26458,-0.508394 -0.26458,-0.929906 0,-0.421512 -0.29766,-1.205007 -0.66146,-1.741099 -0.3638,-0.536092 -0.66146,-1.237301 -0.66146,-1.558243 0,-0.320941 -0.23813,-0.799029 -0.52917,-1.062418 -0.29104,-0.263389 -0.52916,-0.680269 -0.52916,-0.926399 0,-0.667453 -0.69217,-1.928637 -1.44838,-2.639059 -0.36756,-0.345304 -0.66829,-0.767212 -0.66829,-0.937573 0,-0.170361 -0.21489,-0.504223 -0.47754,-0.741916 -0.26265,-0.237693 -0.63141,-0.824308 -0.81946,-1.303589 -0.33533,-0.854628 -1.28315,-1.521256 -2.16294,-1.521256 -0.24421,0 -0.59339,-0.17998 -0.77595,-0.399956 -0.18256,-0.219975 -0.82222,-0.639389 -1.42146,-0.93203 -1.49047,-0.727876 -2.19024,-1.150467 -2.76218,-1.668067 -0.26712,-0.241742 -0.68628,-0.439531 -0.93146,-0.439531 -0.24517,0 -0.66651,-0.137853 -0.9363,-0.30634 -0.57417,-0.358571 -1.44672,-0.106709 -1.29094,0.372625 0.0591,0.181825 0.61853,0.587747 1.24319,0.90205 1.23727,0.622542 3.19129,2.391729 3.19129,2.889424 0,0.170929 0.17612,0.456951 0.39138,0.635602 0.98476,0.817278 1.63256,3.672342 0.93154,4.105598 -0.14552,0.08994 -0.26459,0.447124 -0.26459,0.79375 0,0.346626 0.11907,0.703813 0.26459,0.79375 0.15016,0.0928 0.26458,1.408654 0.26458,3.042708 0,1.634055 0.11442,2.949904 0.26458,3.042709 0.42066,0.259981 0.30886,0.900645 -0.26458,1.516161 -0.29104,0.312397 -0.52917,0.931442 -0.52917,1.375656 0,0.863389 -1.62009,4.391481 -2.26069,4.923132 -0.21183,0.1758 -0.38514,0.462897 -0.38514,0.637994 0,0.175096 -0.29766,0.597991 -0.66146,0.939765 -0.3638,0.341774 -0.66146,0.743814 -0.66146,0.89342 0,0.149607 -0.38695,0.674678 -0.85989,1.166825 -0.8291,0.862767 9.84661,1.151221 10.76854,0.290962 z m 21.3575,-0.407839 c 0.65215,-0.590187 0.6277,-1.995759 -0.0453,-2.604826 -0.71359,-0.645788 -0.66601,-1.151697 0.13703,-1.457013 0.36641,-0.139309 0.7705,-0.523315 0.89797,-0.853347 0.12747,-0.330031 0.54206,-0.888702 0.9213,-1.24149 0.37924,-0.352788 0.68953,-0.855182 0.68953,-1.116432 0,-0.261249 0.23812,-0.89896 0.52917,-1.417135 0.29104,-0.518175 0.52916,-1.169614 0.52916,-1.447641 0,-0.278027 0.11907,-0.579089 0.26459,-0.669026 0.14552,-0.08994 0.26458,-0.685249 0.26458,-1.322916 0,-0.637668 0.11906,-1.23298 0.26458,-1.322917 0.14751,-0.09117 0.26459,-1.320459 0.26459,-2.778125 0,-1.457666 -0.11708,-2.68696 -0.26459,-2.778125 -0.14552,-0.08994 -0.26458,-0.566187 -0.26458,-1.058333 0,-0.492147 -0.11906,-0.968397 -0.26458,-1.058334 -0.14552,-0.08994 -0.26459,-0.811338 -0.26459,-1.603115 0,-0.791776 -0.11906,-1.439593 -0.26458,-1.439593 -0.14552,0 -0.26458,-0.238125 -0.26458,-0.529167 0,-0.291042 -0.11907,-0.529167 -0.26459,-0.529167 -0.14552,0 -0.26458,-0.357187 -0.26458,-0.79375 0,-0.436562 -0.11906,-0.79375 -0.26458,-0.79375 -0.14552,0 -0.26459,-0.416718 -0.26459,-0.926041 0,-0.578864 -0.12772,-0.926042 -0.34067,-0.926042 -0.18737,0 -0.92704,-0.595312 -1.6437,-1.322917 -0.71667,-0.727604 -1.43821,-1.322916 -1.60343,-1.322916 -0.37405,0 -3.29136,-3.031272 -3.29136,-3.419942 0,-0.156324 -0.36217,-0.284225 -0.80482,-0.284225 -0.44264,0 -1.06041,-0.238125 -1.3728,-0.529167 -0.33091,-0.308283 -0.93372,-0.529166 -1.44415,-0.529166 -0.48188,0 -0.87615,-0.119063 -0.87615,-0.264584 0,-0.162758 -1.31771,-0.264583 -3.42397,-0.264583 -1.99724,0 -3.4921,0.110249 -3.58749,0.264583 -0.0899,0.145521 -0.50159,0.264584 -0.91479,0.264584 -0.4132,0 -1.43029,0.357187 -2.26021,0.79375 -0.82992,0.436562 -1.71422,0.79375 -1.96512,0.79375 -0.2509,0 -0.74482,0.307881 -1.09761,0.684181 -0.35279,0.3763 -1.12798,0.906188 -1.72265,1.177528 -0.59466,0.27134 -1.23432,0.677833 -1.42146,0.903318 -0.18713,0.225485 -0.47603,0.409973 -0.64198,0.409973 -0.16596,0 -0.41927,0.265777 -0.56292,0.590615 -0.14365,0.324839 -0.55883,0.737611 -0.92263,0.917272 -0.79448,0.392343 -0.84657,0.843126 -0.14347,1.241402 0.2849,0.16138 0.6774,0.439297 0.87224,0.617591 0.19483,0.178295 0.79517,0.529279 1.33409,0.779965 0.53891,0.250685 1.03938,0.534994 1.11214,0.631796 0.0728,0.0968 0.87661,0.561654 1.78635,1.033002 1.26321,0.654492 1.75938,1.085059 2.09977,1.822156 0.44003,0.952825 1.18454,2.019817 2.17263,3.113662 0.63068,0.698187 1.34958,2.066369 1.34958,2.568461 0,0.20769 0.17859,0.525837 0.39687,0.706995 0.21829,0.181157 0.39688,0.53463 0.39688,0.785496 0,0.589189 0.69322,1.976697 1.19611,2.39406 0.21527,0.178651 0.39139,0.719934 0.39139,1.202851 0,0.482916 0.11906,0.951614 0.26458,1.041551 0.14552,0.08994 0.26459,0.447124 0.26459,0.79375 0,0.346626 0.11906,0.703813 0.26458,0.79375 0.14552,0.08994 0.26458,0.923374 0.26458,1.852083 0,0.928709 0.11907,1.762147 0.26459,1.852084 0.50783,0.313861 0.3302,5.624028 -0.19844,5.931932 -0.33902,0.19746 0.19242,0.27184 1.98437,0.277731 1.46058,0.0048 2.4474,-0.09864 2.4474,-0.256538 0,-0.145521 0.52875,-0.264584 1.17501,-0.264584 0.64626,0 1.24859,-0.119062 1.33853,-0.264583 0.0899,-0.145521 0.56619,-0.264583 1.05833,-0.264583 0.49215,0 0.9684,-0.119063 1.05834,-0.264584 0.0899,-0.14552 0.5494,-0.264583 1.02103,-0.264583 0.47163,0 0.98421,-0.126699 1.13906,-0.281553 0.67662,-0.676616 2.60241,-0.174578 2.60241,0.678428 0,0.60974 -0.13138,0.812481 -0.56671,0.87455 -0.41603,0.05932 -0.53094,0.217602 -0.43216,0.595312 0.16412,0.627624 0.29124,0.638307 0.91189,0.07663 z m -42.99896,-9.760313 c 1.04385,-0.515778 2.04175,-1.111091 2.21755,-1.322917 0.1758,-0.211826 0.4652,-0.385138 0.64311,-0.385138 0.17791,0 0.544,-0.243682 0.81354,-0.541515 0.26953,-0.297834 0.91306,-0.738249 1.43007,-0.978701 0.517,-0.240452 1.13256,-0.651614 1.36791,-0.913693 0.23535,-0.262079 0.59602,-0.476508 0.80149,-0.476508 0.20546,0 0.54521,-0.238125 0.75498,-0.529166 0.20977,-0.291042 0.59324,-0.529167 0.85216,-0.529167 0.25891,0 0.47075,-0.119063 0.47075,-0.264583 0,-0.145521 0.16094,-0.264584 0.35764,-0.264584 0.19669,0 0.73139,-0.357187 1.18821,-0.79375 0.45682,-0.436562 1.05134,-0.79375 1.32115,-0.79375 1.0659,0 2.29807,-2.302163 1.77014,-3.307291 -1.47896,-2.815827 -4.54317,-5.292055 -5.90295,-4.770258 -0.55586,0.213301 -1.38002,-0.09183 -1.38002,-0.510931 0,-0.412419 -0.73011,-0.777545 -1.391,-0.69564 -0.25573,0.03169 -0.65119,-0.128603 -0.8788,-0.356212 -0.22761,-0.227609 -0.75549,-0.413835 -1.17307,-0.413835 -0.41758,0 -0.83282,-0.119062 -0.92276,-0.264583 -0.0899,-0.145521 -1.22103,-0.264583 -2.51354,-0.264583 -1.29251,0 -2.4236,0.119062 -2.51354,0.264583 -0.0899,0.145521 -0.44712,0.264583 -0.79375,0.264583 -0.34662,0 -0.70381,0.119063 -0.79375,0.264584 -0.0899,0.145521 -0.72759,0.264583 -1.41701,0.264583 -1.36352,0 -1.69056,0.184223 -3.87504,2.182813 -0.75551,0.691224 -1.48763,1.256771 -1.62692,1.256771 -3.95908,0 -4.03331,7.596245 -0.0925,9.464883 0.50933,0.241508 1.22248,0.711021 1.5848,1.043361 0.36231,0.332341 0.74076,0.604256 0.841,0.604256 0.10023,0 0.34465,0.16241 0.54315,0.360912 0.1985,0.198501 1.32813,0.8589 2.51029,1.467551 1.18215,0.608652 2.29298,1.279679 2.46851,1.491171 0.49374,0.594922 1.2773,0.46506 3.33819,-0.553246 z m -2.02552,-41.399146 c 0,-0.293016 -0.1477,-0.769266 -0.32823,-1.058333 -0.26469,-0.423835 -0.25732,-0.639115 0.0381,-1.112093 0.22405,-0.358766 0.35496,-1.251377 0.33711,-2.298696 -0.0161,-0.941698 0.10522,-1.874118 0.26948,-2.072043 0.16427,-0.197925 0.27322,-1.06492 0.24212,-1.926656 -0.11631,-3.223308 1.64965,-4.822874 4.19861,-3.802985 1.07142,0.428698 1.15932,0.559211 1.07735,1.599646 -0.0247,0.313523 0.0812,0.647972 0.23529,0.74322 1.51716,0.937656 -0.90009,4.37528 -3.07658,4.37528 -0.77314,0 -1.40571,0.110343 -1.40571,0.245205 0,0.448497 1.65274,1.077712 2.8308,1.077712 2.06999,0 3.48622,2.981192 2.08289,4.384524 -0.67474,0.674741 -6.50119,0.536025 -6.50119,-0.154781 z m -21.68621,-3.292111 c -0.36783,-0.443205 -0.15539,-0.937632 0.40287,-0.937632 0.31985,0 0.38126,-0.894889 0.38126,-5.55625 0,-5.259078 -0.0266,-5.55625 -0.49677,-5.55625 -0.59587,0 -1.20466,-0.659945 -0.96561,-1.046743 0.26963,-0.436258 6.2754,-0.355848 7.1457,0.09567 1.49119,0.773636 2.08544,4.352712 0.92738,5.585413 -0.53305,0.567405 -0.53305,0.567405 0,1.182016 2.53542,2.923366 0.0463,6.61906 -4.45805,6.61906 -1.96848,0 -2.69627,-0.09548 -2.93678,-0.385284 z m 14.55388,-0.3978 c -0.80517,-0.752139 -0.80517,-0.752139 -0.80517,-4.21786 0,-3.465722 0,-3.465722 -0.64584,-3.465722 -0.80008,0 -1.09386,-0.423854 -0.65788,-0.949168 1.68379,-2.028842 3.55378,-0.184314 3.62638,3.576998 0.0827,4.282011 0.28264,4.894802 1.28893,3.949446 0.90773,-0.852774 0.96595,-6.425548 0.0696,-6.659956 -1.11165,-0.290704 -0.4954,-1.099873 0.90585,-1.189427 1.98326,-0.126751 2.02758,-0.02998 2.02758,4.426587 0,2.588686 0.10212,3.985554 0.30629,4.189723 1.31148,1.311476 -4.71695,1.646011 -6.1157,0.339379 z"
       id="path1"
       sodipodi:nodetypes="sssssssssscssssssssssssssssssssssscscssssssssssssscssscsscsccsssssssssssssssssssscssssssssssscssccsssssssssccssssssscssssssssssssssssssssscscssssssssssssssssssssssssssssscsssssssssssssssssssssssssssscssssssssssssssssssssssssssssssssscsssssssssssssssscssscsssssssssssssssscscssscssssscssssssssssscssssssssscsssssssssssssssscssssssssssssssssssssssssssssssssssssssssssssssssssssssssssssssssssssssscsssssssssssscssssssssssssssssscscsssssssssssssssssssssssssscscscssssssssssscsccscsscsssscccssscssssccssccscssscc" /></g></svg>
