%TF.GenerationSoftware,KiCad,Pcbnew,10.0.5*%
%TF.CreationDate,2026-08-14T15:53:09-04:00*%
%TF.ProjectId,sedsna,73656473-6e61-42e6-9b69-6361645f7063,rev?*%
%TF.SameCoordinates,Original*%
%TF.FileFunction,Copper,L4,Bot*%
%TF.FilePolarity,Positive*%
%FSLAX46Y46*%
G04 Gerber Fmt 4.6, Leading zero omitted, Abs format (unit mm)*
G04 Created by KiCad (PCBNEW 10.0.5) date 2026-08-14 15:53:09*
%MOMM*%
%LPD*%
G01*
G04 APERTURE LIST*
G04 Aperture macros list*
%AMRoundRect*
0 Rectangle with rounded corners*
0 $1 Rounding radius*
0 $2 $3 $4 $5 $6 $7 $8 $9 X,Y pos of 4 corners*
0 Add a 4 corners polygon primitive as box body*
4,1,4,$2,$3,$4,$5,$6,$7,$8,$9,$2,$3,0*
0 Add four circle primitives for the rounded corners*
1,1,$1+$1,$2,$3*
1,1,$1+$1,$4,$5*
1,1,$1+$1,$6,$7*
1,1,$1+$1,$8,$9*
0 Add four rect primitives between the rounded corners*
20,1,$1+$1,$2,$3,$4,$5,0*
20,1,$1+$1,$4,$5,$6,$7,0*
20,1,$1+$1,$6,$7,$8,$9,0*
20,1,$1+$1,$8,$9,$2,$3,0*%
G04 Aperture macros list end*
%TA.AperFunction,ComponentPad*%
%ADD10R,2.775000X2.775000*%
%TD*%
%TA.AperFunction,ComponentPad*%
%ADD11C,2.775000*%
%TD*%
%TA.AperFunction,ComponentPad*%
%ADD12C,1.800000*%
%TD*%
%TA.AperFunction,ComponentPad*%
%ADD13C,5.700000*%
%TD*%
%TA.AperFunction,ComponentPad*%
%ADD14O,1.800000X1.000000*%
%TD*%
%TA.AperFunction,ComponentPad*%
%ADD15O,2.100000X1.000000*%
%TD*%
%TA.AperFunction,ComponentPad*%
%ADD16C,0.650000*%
%TD*%
%TA.AperFunction,ComponentPad*%
%ADD17RoundRect,0.250000X0.600000X-0.600000X0.600000X0.600000X-0.600000X0.600000X-0.600000X-0.600000X0*%
%TD*%
%TA.AperFunction,ComponentPad*%
%ADD18C,1.700000*%
%TD*%
%TA.AperFunction,ComponentPad*%
%ADD19C,2.325000*%
%TD*%
%TA.AperFunction,ComponentPad*%
%ADD20C,2.625000*%
%TD*%
%TA.AperFunction,ComponentPad*%
%ADD21C,1.955800*%
%TD*%
%TA.AperFunction,ComponentPad*%
%ADD22C,2.159000*%
%TD*%
%TA.AperFunction,SMDPad,CuDef*%
%ADD23RoundRect,0.237500X0.250000X0.237500X-0.250000X0.237500X-0.250000X-0.237500X0.250000X-0.237500X0*%
%TD*%
%TA.AperFunction,SMDPad,CuDef*%
%ADD24R,0.605600X0.500000*%
%TD*%
%TA.AperFunction,SMDPad,CuDef*%
%ADD25R,0.500000X0.605600*%
%TD*%
%TA.AperFunction,SMDPad,CuDef*%
%ADD26RoundRect,0.237500X0.237500X-0.250000X0.237500X0.250000X-0.237500X0.250000X-0.237500X-0.250000X0*%
%TD*%
%TA.AperFunction,SMDPad,CuDef*%
%ADD27RoundRect,0.250000X-0.250000X-0.475000X0.250000X-0.475000X0.250000X0.475000X-0.250000X0.475000X0*%
%TD*%
%TA.AperFunction,SMDPad,CuDef*%
%ADD28RoundRect,0.225000X-0.225000X-0.250000X0.225000X-0.250000X0.225000X0.250000X-0.225000X0.250000X0*%
%TD*%
%TA.AperFunction,SMDPad,CuDef*%
%ADD29RoundRect,0.237500X-0.250000X-0.237500X0.250000X-0.237500X0.250000X0.237500X-0.250000X0.237500X0*%
%TD*%
%TA.AperFunction,SMDPad,CuDef*%
%ADD30RoundRect,0.225000X0.250000X-0.225000X0.250000X0.225000X-0.250000X0.225000X-0.250000X-0.225000X0*%
%TD*%
%TA.AperFunction,SMDPad,CuDef*%
%ADD31RoundRect,0.250000X0.325000X0.650000X-0.325000X0.650000X-0.325000X-0.650000X0.325000X-0.650000X0*%
%TD*%
%TA.AperFunction,SMDPad,CuDef*%
%ADD32R,1.285000X1.470000*%
%TD*%
%TA.AperFunction,ViaPad*%
%ADD33C,0.600000*%
%TD*%
%TA.AperFunction,ViaPad*%
%ADD34C,0.400000*%
%TD*%
%TA.AperFunction,Conductor*%
%ADD35C,0.200000*%
%TD*%
%TA.AperFunction,Conductor*%
%ADD36C,0.250000*%
%TD*%
%TA.AperFunction,Conductor*%
%ADD37C,0.500000*%
%TD*%
G04 APERTURE END LIST*
D10*
%TO.P,J7,1,Pin_1_1*%
%TO.N,Earth*%
X102000000Y-111750000D03*
D11*
%TO.P,J7,2,Pin_2_2*%
%TO.N,unconnected-(J7-Pin_2-Pad2)*%
X102000000Y-105400000D03*
%TO.P,J7,3,Pin_3_3*%
%TO.N,/CTR_Prop*%
X102000000Y-99050000D03*
%TD*%
D12*
%TO.P,RESET1,1,1_1*%
%TO.N,Earth*%
X105762500Y-74700000D03*
%TO.P,RESET1,2,2_2*%
%TO.N,Net-(U2-CHIP_EN)*%
X112162500Y-74700000D03*
%TD*%
D13*
%TO.P,H1,1*%
%TO.N,N/C*%
X99800000Y-52800000D03*
%TD*%
D14*
%TO.P,J5,13,SHELL_13*%
%TO.N,Earth*%
X134808400Y-88820002D03*
%TO.P,J5,14,SHELL_14*%
X134808400Y-80179998D03*
D15*
%TO.P,J5,15,SHELL_15*%
X130628400Y-88832651D03*
%TO.P,J5,16,SHELL_16*%
X130631750Y-80142349D03*
D16*
%TO.P,J5,17*%
%TO.N,N/C*%
X131120000Y-87390000D03*
%TO.P,J5,18*%
X131120000Y-81610000D03*
%TD*%
D17*
%TO.P,J1,1*%
%TO.N,Earth*%
X104780000Y-56290000D03*
D18*
%TO.P,J1,2*%
%TO.N,+6.6V*%
X104780000Y-53750000D03*
%TO.P,J1,3*%
%TO.N,/Channel_1*%
X104780000Y-51210000D03*
D17*
%TO.P,J1,4*%
%TO.N,Earth*%
X107320000Y-56290000D03*
D18*
%TO.P,J1,5*%
%TO.N,+6.6V*%
X107320000Y-53750000D03*
%TO.P,J1,6*%
%TO.N,/Channel_2*%
X107320000Y-51210000D03*
D17*
%TO.P,J1,7*%
%TO.N,Earth*%
X109860000Y-56290000D03*
D18*
%TO.P,J1,8*%
%TO.N,+6.6V*%
X109860000Y-53750000D03*
%TO.P,J1,9*%
%TO.N,/Channel_3*%
X109860000Y-51210000D03*
D17*
%TO.P,J1,10*%
%TO.N,Earth*%
X112400000Y-56290000D03*
D18*
%TO.P,J1,11*%
%TO.N,+6.6V*%
X112400000Y-53750000D03*
%TO.P,J1,12*%
%TO.N,/Channel_4*%
X112400000Y-51210000D03*
%TD*%
D10*
%TO.P,J11,1,Pin_1_1*%
%TO.N,+6.6V*%
X122850000Y-84500000D03*
D11*
%TO.P,J11,2,Pin_2_2*%
%TO.N,Earth*%
X116500000Y-84500000D03*
%TO.P,J11,3,Pin_3_3*%
%TO.N,unconnected-(J11-Pin_3-Pad3)*%
X110150000Y-84500000D03*
%TD*%
D10*
%TO.P,J6,1,Pin_1_1*%
%TO.N,Earth*%
X131000000Y-111750000D03*
D11*
%TO.P,J6,2,Pin_2_2*%
%TO.N,+6.6V*%
X131000000Y-105400000D03*
%TO.P,J6,3,Pin_3_3*%
%TO.N,/CTR_R_Ail*%
X131000000Y-99050000D03*
%TD*%
D13*
%TO.P,H2,1*%
%TO.N,N/C*%
X133300000Y-52800000D03*
%TD*%
D19*
%TO.P,AE1,1*%
%TO.N,Net-(AE1-Pad1)*%
X131940000Y-60490000D03*
D20*
%TO.P,AE1,G1*%
%TO.N,Earth*%
X129400000Y-57950000D03*
%TO.P,AE1,G2*%
X134480000Y-57950000D03*
%TO.P,AE1,G3*%
X129400000Y-63030000D03*
%TO.P,AE1,G4*%
X134480000Y-63030000D03*
%TD*%
D21*
%TO.P,J3,1,Pin_1_1*%
%TO.N,/CTR_Elevator*%
X110000000Y-120000000D03*
%TO.P,J3,2,Pin_2_2*%
%TO.N,+6.6V*%
X116500000Y-120000000D03*
%TO.P,J3,3,Pin_3_3*%
%TO.N,Earth*%
X122999999Y-120000000D03*
%TO.P,J3,4,Pin_4_4*%
X110000000Y-126550000D03*
%TO.P,J3,5,Pin_5_5*%
%TO.N,+6.6V*%
X116500000Y-126550000D03*
%TO.P,J3,6,Pin_6_6*%
%TO.N,/CTR_Rudder*%
X122999999Y-126550000D03*
D22*
%TO.P,J3,9*%
%TO.N,N/C*%
X105795000Y-134810001D03*
%TO.P,J3,10*%
X127205000Y-134810001D03*
%TD*%
D10*
%TO.P,J4,1,Pin_1_1*%
%TO.N,Earth*%
X116500000Y-111750000D03*
D11*
%TO.P,J4,2,Pin_2_2*%
%TO.N,+6.6V*%
X116500000Y-105400000D03*
%TO.P,J4,3,Pin_3_3*%
%TO.N,/CTR_L_Ail*%
X116500000Y-99050000D03*
%TD*%
D13*
%TO.P,H3,1*%
%TO.N,N/C*%
X99700000Y-137300000D03*
%TD*%
%TO.P,H4,1*%
%TO.N,N/C*%
X133300000Y-137300000D03*
%TD*%
D23*
%TO.P,R18,1*%
%TO.N,+3.3V*%
X122862500Y-60650000D03*
%TO.P,R18,2*%
%TO.N,/I2C_SCL*%
X121037500Y-60650000D03*
%TD*%
D24*
%TO.P,C19,1*%
%TO.N,+3.3V*%
X122552800Y-62500000D03*
%TO.P,C19,2*%
%TO.N,Earth*%
X121447200Y-62500000D03*
%TD*%
D25*
%TO.P,C24,1*%
%TO.N,+3.3V*%
X109700000Y-64652800D03*
%TO.P,C24,2*%
%TO.N,Earth*%
X109700000Y-63547200D03*
%TD*%
D26*
%TO.P,R12,1*%
%TO.N,Net-(B1-SDO)*%
X113250000Y-61562500D03*
%TO.P,R12,2*%
%TO.N,Earth*%
X113250000Y-59737500D03*
%TD*%
D27*
%TO.P,C5,1*%
%TO.N,Earth*%
X117700000Y-77950000D03*
%TO.P,C5,2*%
%TO.N,+6.6V*%
X119600000Y-77950000D03*
%TD*%
D28*
%TO.P,C15,1*%
%TO.N,Earth*%
X108187500Y-74700000D03*
%TO.P,C15,2*%
%TO.N,Net-(U2-CHIP_EN)*%
X109737500Y-74700000D03*
%TD*%
D29*
%TO.P,R19,1*%
%TO.N,+3.3V*%
X117187500Y-60650000D03*
%TO.P,R19,2*%
%TO.N,/I2C_SDA*%
X119012500Y-60650000D03*
%TD*%
D26*
%TO.P,R17,1*%
%TO.N,Net-(STAT1-K)*%
X129400000Y-75612500D03*
%TO.P,R17,2*%
%TO.N,Earth*%
X129400000Y-73787500D03*
%TD*%
D30*
%TO.P,C3,1*%
%TO.N,/VBUS*%
X127250000Y-77925000D03*
%TO.P,C3,2*%
%TO.N,Earth*%
X127250000Y-76375000D03*
%TD*%
D25*
%TO.P,C4,1*%
%TO.N,+6.6V*%
X121250000Y-77947200D03*
%TO.P,C4,2*%
%TO.N,Earth*%
X121250000Y-79052800D03*
%TD*%
%TO.P,C23,1*%
%TO.N,Earth*%
X111800000Y-63547200D03*
%TO.P,C23,2*%
%TO.N,+3.3V*%
X111800000Y-64652800D03*
%TD*%
%TO.P,C17,1*%
%TO.N,+3.3V*%
X115100000Y-58402800D03*
%TO.P,C17,2*%
%TO.N,Earth*%
X115100000Y-57297200D03*
%TD*%
D26*
%TO.P,R16,1*%
%TO.N,Net-(PWR1-K)*%
X125500000Y-75612500D03*
%TO.P,R16,2*%
%TO.N,Earth*%
X125500000Y-73787500D03*
%TD*%
D24*
%TO.P,C18,1*%
%TO.N,+3.3V*%
X117652800Y-58400000D03*
%TO.P,C18,2*%
%TO.N,Earth*%
X116547200Y-58400000D03*
%TD*%
D25*
%TO.P,C7,1*%
%TO.N,Earth*%
X108362500Y-68297200D03*
%TO.P,C7,2*%
%TO.N,+3.3V*%
X108362500Y-69402800D03*
%TD*%
D31*
%TO.P,C6,1*%
%TO.N,Earth*%
X121250000Y-71550000D03*
%TO.P,C6,2*%
%TO.N,+3.3V*%
X118300000Y-71550000D03*
%TD*%
D26*
%TO.P,R8,1*%
%TO.N,Net-(B1-CSB)*%
X111500000Y-61562500D03*
%TO.P,R8,2*%
%TO.N,+3.3V*%
X111500000Y-59737500D03*
%TD*%
D32*
%TO.P,FB1,1*%
%TO.N,/VBUS*%
X125173000Y-77950000D03*
%TO.P,FB1,2*%
%TO.N,+6.6V*%
X123227000Y-77950000D03*
%TD*%
D29*
%TO.P,R7,1*%
%TO.N,+3.3V*%
X108037500Y-76750000D03*
%TO.P,R7,2*%
%TO.N,Net-(U2-CHIP_EN)*%
X109862500Y-76750000D03*
%TD*%
D33*
%TO.N,/I2C_SCL*%
X120833742Y-55667627D03*
X117200000Y-55600000D03*
X121875000Y-60632239D03*
X114200000Y-65950000D03*
X122300878Y-56515094D03*
X112550000Y-65900000D03*
%TO.N,/I2C_SDA*%
X114700000Y-59850000D03*
X114775000Y-63275000D03*
X118806545Y-59072879D03*
D34*
%TO.N,Earth*%
X126210000Y-60320000D03*
D33*
X116500000Y-76600000D03*
D34*
X127776396Y-68753604D03*
D33*
X110200000Y-62550000D03*
D34*
X124981802Y-60382982D03*
X128940000Y-59870000D03*
X128511388Y-61030000D03*
X127950000Y-67930000D03*
X125258743Y-60858173D03*
X129390000Y-59870000D03*
X128482556Y-59870000D03*
X123130662Y-63580662D03*
D33*
X108500000Y-67000000D03*
X114150000Y-58550000D03*
D34*
X127529644Y-61124910D03*
X124920000Y-66420000D03*
X126667108Y-60251330D03*
X125310292Y-63207942D03*
X126821446Y-69778554D03*
X126220000Y-69470000D03*
X125097698Y-61384069D03*
X125661867Y-62735071D03*
X128015475Y-59871789D03*
D33*
X123150000Y-67900000D03*
D34*
X127450000Y-67500000D03*
D33*
X114750000Y-54070000D03*
D34*
X128970000Y-61030000D03*
X130260000Y-59870000D03*
X123692532Y-64659280D03*
X124400000Y-64740000D03*
X126100000Y-66250000D03*
X127552033Y-59920492D03*
X125310000Y-64510000D03*
X126463361Y-62037118D03*
X126874723Y-61839479D03*
X124051801Y-62490054D03*
X129910000Y-61030000D03*
X124367371Y-62114395D03*
X125427957Y-70447957D03*
X125844472Y-60033335D03*
X124823454Y-61826684D03*
X123437285Y-63239850D03*
X127083350Y-61360842D03*
X129450000Y-61030000D03*
D33*
X127500000Y-74000000D03*
D34*
X128070073Y-61030897D03*
D33*
X116400000Y-57550000D03*
D34*
X126840000Y-66840000D03*
X123676311Y-62832698D03*
X124075906Y-64275906D03*
X124430000Y-66930000D03*
X125583127Y-63685502D03*
X126094443Y-62423791D03*
X129830000Y-59870000D03*
X125392789Y-60017480D03*
D33*
X121150000Y-69500000D03*
D34*
X125400000Y-65950000D03*
X125890000Y-70050000D03*
X127075830Y-60053689D03*
X123342569Y-65008980D03*
X130350000Y-61030000D03*
D33*
%TO.N,+3.3V*%
X124150000Y-72700000D03*
X115057772Y-59134456D03*
X116600000Y-66650000D03*
X119050000Y-75150000D03*
X117600000Y-61850000D03*
X118600000Y-58300000D03*
X123200000Y-61700000D03*
X123800000Y-66820000D03*
X106500000Y-78000000D03*
X109500000Y-70000000D03*
X118700000Y-56200000D03*
X121887054Y-59557584D03*
X110500000Y-64500000D03*
X111550000Y-65600000D03*
%TO.N,/CTR_Prop*%
X108833058Y-59183058D03*
X102826981Y-65176839D03*
%TO.N,Net-(U2-CHIP_EN)*%
X101525000Y-61800000D03*
X121526369Y-56314753D03*
%TO.N,+6.6V*%
X121250000Y-76450000D03*
%TO.N,Net-(PWR1-K)*%
X124180000Y-75690000D03*
%TO.N,/VBUS*%
X127500000Y-82000000D03*
%TO.N,/USB_D+*%
X120200000Y-69600000D03*
X131351100Y-84223800D03*
%TO.N,/USB_D-*%
X128768400Y-84718400D03*
X119250000Y-69600000D03*
%TO.N,Net-(B1-SDO)*%
X113800000Y-62850000D03*
%TO.N,Net-(B1-CSB)*%
X112250000Y-62400000D03*
%TO.N,/CTR_L_Ail*%
X103364791Y-65769093D03*
X120050000Y-57500000D03*
%TO.N,/CTR_R_Ail*%
X115950000Y-67150000D03*
X119716942Y-59616942D03*
%TO.N,/CTR_Rudder*%
X115600000Y-64900000D03*
X116100000Y-60800000D03*
%TO.N,/CTR_Elevator*%
X115314579Y-60450000D03*
X113000000Y-97350000D03*
X114950000Y-64200000D03*
%TO.N,Net-(STAT1-K)*%
X130750000Y-75900000D03*
%TD*%
%TO.N,/I2C_SCL*%
D35*
X114200000Y-67200000D02*
X114200000Y-65950000D01*
X121857239Y-60650000D02*
X121875000Y-60632239D01*
X119158058Y-55591942D02*
X119150000Y-55600000D01*
X112550000Y-65900000D02*
X112500000Y-65900000D01*
X120250000Y-62350000D02*
X120250000Y-63850000D01*
X121037500Y-60650000D02*
X121857239Y-60650000D01*
X114800000Y-67800000D02*
X114200000Y-67200000D01*
X120758057Y-55591942D02*
X119158058Y-55591942D01*
X121037500Y-60650000D02*
X121037500Y-57778472D01*
X121037500Y-61562500D02*
X120250000Y-62350000D01*
X112550000Y-65900000D02*
X114150000Y-65900000D01*
X121037500Y-60650000D02*
X121037500Y-61562500D01*
X114150000Y-65900000D02*
X114200000Y-65950000D01*
X120250000Y-63850000D02*
X116300000Y-67800000D01*
X120833742Y-55667627D02*
X120758057Y-55591942D01*
X116300000Y-67800000D02*
X114800000Y-67800000D01*
X119150000Y-55600000D02*
X117200000Y-55600000D01*
X121037500Y-57778472D02*
X122300878Y-56515094D01*
%TO.N,/I2C_SDA*%
X114700000Y-63200000D02*
X114775000Y-63275000D01*
D36*
X118450000Y-59800000D02*
X119012500Y-60362500D01*
D35*
X114700000Y-59850000D02*
X114700000Y-63200000D01*
D36*
X118450000Y-59429424D02*
X118450000Y-59800000D01*
X119012500Y-60362500D02*
X119012500Y-60650000D01*
X118806545Y-59072879D02*
X118450000Y-59429424D01*
%TO.N,Earth*%
X115352800Y-57550000D02*
X115100000Y-57297200D01*
X125500000Y-73787500D02*
X123662500Y-73787500D01*
X112400000Y-56290000D02*
X112530000Y-56290000D01*
X108187500Y-74700000D02*
X105762500Y-74700000D01*
X108362500Y-67137500D02*
X108500000Y-67000000D01*
X127250000Y-75937500D02*
X127250000Y-76375000D01*
X127250000Y-75937500D02*
X127250000Y-74250000D01*
X104780000Y-56290000D02*
X107320000Y-56290000D01*
D35*
X109700000Y-63547200D02*
X109700000Y-63050000D01*
D36*
X127287500Y-73787500D02*
X127500000Y-74000000D01*
X108362500Y-68297200D02*
X108362500Y-67137500D01*
X116500000Y-76600000D02*
X116500000Y-76750000D01*
X125500000Y-73787500D02*
X127287500Y-73787500D01*
D35*
X121447200Y-66197200D02*
X123150000Y-67900000D01*
X111197200Y-63547200D02*
X110200000Y-62550000D01*
D36*
X127712500Y-73787500D02*
X127500000Y-74000000D01*
D35*
X114300000Y-58050000D02*
X115052800Y-57297200D01*
D36*
X109860000Y-56290000D02*
X112400000Y-56290000D01*
D35*
X121447200Y-62500000D02*
X121447200Y-66197200D01*
D36*
X116547200Y-58400000D02*
X116547200Y-57697200D01*
X123662500Y-73787500D02*
X121425000Y-71550000D01*
D35*
X111800000Y-63547200D02*
X111197200Y-63547200D01*
X115052800Y-57297200D02*
X115100000Y-57297200D01*
D36*
X118802800Y-79052800D02*
X117700000Y-77950000D01*
D35*
X114300000Y-58400000D02*
X114300000Y-58050000D01*
X113250000Y-59737500D02*
X113250000Y-59450000D01*
D36*
X107320000Y-56290000D02*
X109860000Y-56290000D01*
X112530000Y-56290000D02*
X114750000Y-54070000D01*
D35*
X113250000Y-59450000D02*
X114150000Y-58550000D01*
X114150000Y-58550000D02*
X114300000Y-58400000D01*
D36*
X127250000Y-74250000D02*
X127500000Y-74000000D01*
X116547200Y-57697200D02*
X116400000Y-57550000D01*
X121250000Y-79052800D02*
X118802800Y-79052800D01*
X116400000Y-57550000D02*
X115352800Y-57550000D01*
X127250000Y-76375000D02*
X127250000Y-75537500D01*
X116500000Y-76750000D02*
X117700000Y-77950000D01*
D35*
X109700000Y-63050000D02*
X110200000Y-62550000D01*
D36*
X129400000Y-73787500D02*
X127712500Y-73787500D01*
%TO.N,+3.3V*%
D35*
X121960494Y-59631024D02*
X121960494Y-59747994D01*
D36*
X107750000Y-76750000D02*
X106500000Y-78000000D01*
X108362500Y-69402800D02*
X108902800Y-69402800D01*
D35*
X110500000Y-64500000D02*
X109852800Y-64500000D01*
D36*
X118300000Y-71550000D02*
X118300000Y-74400000D01*
D35*
X117187500Y-60087500D02*
X117187500Y-60650000D01*
D36*
X123200000Y-61950000D02*
X122650000Y-62500000D01*
D35*
X114100000Y-60141722D02*
X113716722Y-60525000D01*
X115002800Y-58402800D02*
X114955600Y-58450000D01*
X115100000Y-59092228D02*
X115100000Y-58402800D01*
X115057772Y-59134456D02*
X116234456Y-59134456D01*
X113716722Y-60525000D02*
X112287500Y-60525000D01*
X122552800Y-60959700D02*
X122862500Y-60650000D01*
X117187500Y-60650000D02*
X117187500Y-61437500D01*
X109852800Y-64500000D02*
X109700000Y-64652800D01*
X112287500Y-60525000D02*
X111500000Y-59737500D01*
X111800000Y-64652800D02*
X111800000Y-65350000D01*
X115042228Y-59150000D02*
X114551471Y-59150000D01*
X115057772Y-59134456D02*
X115100000Y-59092228D01*
D36*
X123200000Y-61700000D02*
X123200000Y-61950000D01*
D35*
X115100000Y-58402800D02*
X115002800Y-58402800D01*
X115057772Y-59134456D02*
X115042228Y-59150000D01*
X111800000Y-65350000D02*
X111550000Y-65600000D01*
X116234456Y-59134456D02*
X117187500Y-60087500D01*
D36*
X118300000Y-74400000D02*
X119050000Y-75150000D01*
D35*
X121960494Y-59747994D02*
X122862500Y-60650000D01*
X117652800Y-58400000D02*
X118500000Y-58400000D01*
X118500000Y-58400000D02*
X118600000Y-58300000D01*
X114100000Y-59601471D02*
X114100000Y-60141722D01*
X121887054Y-59557584D02*
X121960494Y-59631024D01*
D36*
X122650000Y-62500000D02*
X122552800Y-62500000D01*
D35*
X114551471Y-59150000D02*
X114100000Y-59601471D01*
D36*
X108902800Y-69402800D02*
X109500000Y-70000000D01*
D35*
X117187500Y-61437500D02*
X117600000Y-61850000D01*
%TO.N,/CTR_Prop*%
D36*
X103073161Y-65176839D02*
X103936396Y-64313604D01*
X102826981Y-65176839D02*
X103073161Y-65176839D01*
X108833058Y-59430546D02*
X108833058Y-59183058D01*
X103950000Y-64313604D02*
X108833058Y-59430546D01*
X103936396Y-64313604D02*
X103950000Y-64313604D01*
%TO.N,Net-(U2-CHIP_EN)*%
X103605000Y-54808604D02*
X103605000Y-53263299D01*
X110112500Y-76750000D02*
X112162500Y-74700000D01*
X118625000Y-52575000D02*
X121526369Y-55476369D01*
X103605000Y-53263299D02*
X104293299Y-52575000D01*
X101525000Y-56888604D02*
X103605000Y-54808604D01*
X104293299Y-52575000D02*
X118625000Y-52575000D01*
X101525000Y-61800000D02*
X101525000Y-56888604D01*
X109862500Y-76750000D02*
X110112500Y-76750000D01*
X112162500Y-74700000D02*
X109737500Y-74700000D01*
X121526369Y-55476369D02*
X121526369Y-56314753D01*
%TO.N,+6.6V*%
D37*
X120500000Y-122550000D02*
X120500000Y-116000000D01*
D36*
X121252800Y-77950000D02*
X121250000Y-77947200D01*
X104780000Y-54270000D02*
X104780000Y-53750000D01*
X121727000Y-76450000D02*
X121250000Y-76450000D01*
X122850000Y-78327000D02*
X123227000Y-77950000D01*
X107112500Y-86212500D02*
X102150000Y-81250000D01*
X104780000Y-53750000D02*
X112400000Y-53750000D01*
D37*
X122700000Y-113800000D02*
X122700000Y-99200000D01*
D36*
X121137500Y-86212500D02*
X107112500Y-86212500D01*
X123227000Y-77950000D02*
X121727000Y-76450000D01*
D37*
X128900000Y-105400000D02*
X122700000Y-99200000D01*
X122700000Y-99200000D02*
X122850000Y-99050000D01*
D36*
X123227000Y-77950000D02*
X121500000Y-77950000D01*
D37*
X116500000Y-105400000D02*
X122700000Y-99200000D01*
X120500000Y-116000000D02*
X122700000Y-113800000D01*
X122850000Y-99050000D02*
X122850000Y-84500000D01*
D36*
X122850000Y-84500000D02*
X121137500Y-86212500D01*
X122850000Y-84500000D02*
X122850000Y-78327000D01*
X121500000Y-77950000D02*
X119600000Y-77950000D01*
X102150000Y-56900000D02*
X104780000Y-54270000D01*
X102150000Y-81250000D02*
X102150000Y-56900000D01*
D37*
X116500000Y-126550000D02*
X120500000Y-122550000D01*
X116500000Y-120000000D02*
X120500000Y-116000000D01*
D36*
X121500000Y-77950000D02*
X121252800Y-77950000D01*
D37*
X131000000Y-105400000D02*
X128900000Y-105400000D01*
%TO.N,Net-(PWR1-K)*%
D36*
X125500000Y-75612500D02*
X124257500Y-75612500D01*
X124257500Y-75612500D02*
X124180000Y-75690000D01*
%TO.N,/VBUS*%
X125198000Y-77925000D02*
X125173000Y-77950000D01*
X127250000Y-77925000D02*
X125198000Y-77925000D01*
X127500000Y-82000000D02*
X127250000Y-81750000D01*
X127250000Y-81750000D02*
X127250000Y-77925000D01*
%TO.N,/USB_D+*%
D35*
X132050000Y-83524900D02*
X132050000Y-74300000D01*
X120900000Y-68900000D02*
X120200000Y-69600000D01*
X131351100Y-84223800D02*
X132050000Y-83524900D01*
X126650000Y-68900000D02*
X120900000Y-68900000D01*
X132050000Y-74300000D02*
X126650000Y-68900000D01*
%TO.N,/USB_D-*%
X128768400Y-84718400D02*
X129000000Y-84950000D01*
X120350000Y-68500000D02*
X119250000Y-69600000D01*
X132450000Y-74134314D02*
X126815685Y-68500000D01*
X131500000Y-84950000D02*
X132450000Y-84000000D01*
X126815685Y-68500000D02*
X120350000Y-68500000D01*
X132450000Y-84000000D02*
X132450000Y-74134314D01*
X129000000Y-84950000D02*
X131500000Y-84950000D01*
%TO.N,Net-(B1-SDO)*%
X113250000Y-62300000D02*
X113800000Y-62850000D01*
X113250000Y-61562500D02*
X113250000Y-62300000D01*
%TO.N,Net-(B1-CSB)*%
X111500000Y-61650000D02*
X112250000Y-62400000D01*
X111500000Y-61562500D02*
X111500000Y-61650000D01*
%TO.N,/CTR_L_Ail*%
D36*
X103364791Y-65769093D02*
X103364791Y-65521605D01*
X114680600Y-56669400D02*
X115330600Y-56669400D01*
X110550000Y-58350000D02*
X113000000Y-58350000D01*
X115330600Y-56669400D02*
X115700000Y-56300000D01*
X117450000Y-56300000D02*
X118650000Y-57500000D01*
X104136396Y-64763604D02*
X110550000Y-58350000D01*
X118650000Y-57500000D02*
X120050000Y-57500000D01*
X104122792Y-64763604D02*
X104136396Y-64763604D01*
X115700000Y-56300000D02*
X117450000Y-56300000D01*
X103364791Y-65521605D02*
X104122792Y-64763604D01*
X113000000Y-58350000D02*
X114680600Y-56669400D01*
%TO.N,/CTR_R_Ail*%
X119825000Y-59725000D02*
X119716942Y-59616942D01*
X115950000Y-67150000D02*
X115975000Y-67125000D01*
X115975000Y-67125000D02*
X115975000Y-66225000D01*
X119825000Y-62375000D02*
X119825000Y-59725000D01*
X115975000Y-66225000D02*
X119825000Y-62375000D01*
%TO.N,/CTR_Rudder*%
D35*
X116100000Y-60800000D02*
X116100000Y-64400000D01*
X116100000Y-64400000D02*
X115600000Y-64900000D01*
%TO.N,/CTR_Elevator*%
X115375000Y-63775000D02*
X115375000Y-60510421D01*
X113000000Y-97350000D02*
X110000000Y-100350000D01*
X110000000Y-100350000D02*
X110000000Y-120000000D01*
X115375000Y-60510421D02*
X115314579Y-60450000D01*
X114950000Y-64200000D02*
X115375000Y-63775000D01*
%TO.N,Net-(STAT1-K)*%
X130462500Y-75612500D02*
X130750000Y-75900000D01*
X129400000Y-75612500D02*
X130462500Y-75612500D01*
%TD*%
%TA.AperFunction,Conductor*%
%TO.N,Earth*%
G36*
X131150258Y-50020185D02*
G01*
X131196013Y-50072989D01*
X131205957Y-50142147D01*
X131176932Y-50205703D01*
X131161884Y-50220353D01*
X131047222Y-50314453D01*
X130814453Y-50547222D01*
X130605611Y-50801696D01*
X130605601Y-50801710D01*
X130422718Y-51075414D01*
X130422707Y-51075432D01*
X130267535Y-51365741D01*
X130267528Y-51365755D01*
X130141552Y-51669887D01*
X130099701Y-51807853D01*
X130056733Y-51949500D01*
X130045990Y-51984914D01*
X130045984Y-51984933D01*
X129981768Y-52307781D01*
X129981765Y-52307798D01*
X129957462Y-52554559D01*
X129950024Y-52630086D01*
X129949500Y-52635403D01*
X129949500Y-52964596D01*
X129981765Y-53292201D01*
X129981768Y-53292218D01*
X130045984Y-53615066D01*
X130045987Y-53615077D01*
X130141552Y-53930112D01*
X130267528Y-54234244D01*
X130267531Y-54234251D01*
X130315030Y-54323117D01*
X130422707Y-54524567D01*
X130422718Y-54524585D01*
X130605601Y-54798289D01*
X130605611Y-54798303D01*
X130814453Y-55052777D01*
X131047222Y-55285546D01*
X131047227Y-55285550D01*
X131047228Y-55285551D01*
X131301702Y-55494393D01*
X131575421Y-55677286D01*
X131865749Y-55832469D01*
X132169889Y-55958448D01*
X132484913Y-56054010D01*
X132484919Y-56054011D01*
X132484922Y-56054012D01*
X132484933Y-56054015D01*
X132665361Y-56089903D01*
X132807787Y-56118233D01*
X133135400Y-56150500D01*
X133135403Y-56150500D01*
X133464594Y-56150500D01*
X133464600Y-56150500D01*
X133504788Y-56146541D01*
X133573431Y-56159559D01*
X133624142Y-56207623D01*
X133640818Y-56275474D01*
X133618163Y-56341569D01*
X133578941Y-56377331D01*
X133470876Y-56439722D01*
X133470861Y-56439732D01*
X133387359Y-56503804D01*
X133387359Y-56503805D01*
X134061100Y-57177546D01*
X133922220Y-57270343D01*
X133800343Y-57392220D01*
X133707546Y-57531100D01*
X133033805Y-56857359D01*
X133033804Y-56857359D01*
X132969732Y-56940861D01*
X132969723Y-56940875D01*
X132850931Y-57146628D01*
X132850924Y-57146643D01*
X132760009Y-57366133D01*
X132698511Y-57595643D01*
X132667501Y-57831191D01*
X132667500Y-57831208D01*
X132667500Y-58068791D01*
X132667501Y-58068808D01*
X132698511Y-58304356D01*
X132760009Y-58533866D01*
X132850924Y-58753356D01*
X132850931Y-58753371D01*
X132915975Y-58866030D01*
X132932448Y-58933930D01*
X132909595Y-58999957D01*
X132854674Y-59043148D01*
X132785121Y-59049789D01*
X132746589Y-59035418D01*
X132731402Y-59026650D01*
X132677104Y-58995301D01*
X132677102Y-58995300D01*
X132677092Y-58995295D01*
X132475699Y-58911876D01*
X132377973Y-58885690D01*
X132265131Y-58855455D01*
X132209919Y-58848186D01*
X132049006Y-58827000D01*
X132048999Y-58827000D01*
X131831001Y-58827000D01*
X131830993Y-58827000D01*
X131638883Y-58852293D01*
X131614869Y-58855455D01*
X131583363Y-58863897D01*
X131404300Y-58911876D01*
X131202907Y-58995295D01*
X131202897Y-58995300D01*
X131133410Y-59035418D01*
X131065509Y-59051889D01*
X130999483Y-59029037D01*
X130956293Y-58974115D01*
X130949652Y-58904561D01*
X130964024Y-58866030D01*
X131029068Y-58753370D01*
X131029075Y-58753356D01*
X131119990Y-58533866D01*
X131181488Y-58304356D01*
X131212498Y-58068808D01*
X131212500Y-58068791D01*
X131212500Y-57831208D01*
X131212498Y-57831191D01*
X131181488Y-57595643D01*
X131119990Y-57366133D01*
X131029075Y-57146643D01*
X131029068Y-57146628D01*
X130910272Y-56940868D01*
X130846194Y-56857359D01*
X130846193Y-56857359D01*
X130172453Y-57531099D01*
X130079657Y-57392220D01*
X129957780Y-57270343D01*
X129818899Y-57177546D01*
X130492639Y-56503805D01*
X130492639Y-56503804D01*
X130409129Y-56439727D01*
X130409122Y-56439721D01*
X130203371Y-56320931D01*
X130203356Y-56320924D01*
X129983866Y-56230009D01*
X129754356Y-56168511D01*
X129518808Y-56137501D01*
X129518791Y-56137500D01*
X129281209Y-56137500D01*
X129281191Y-56137501D01*
X129045643Y-56168511D01*
X128816133Y-56230009D01*
X128596643Y-56320924D01*
X128596628Y-56320931D01*
X128390875Y-56439723D01*
X128390861Y-56439732D01*
X128307359Y-56503804D01*
X128307359Y-56503805D01*
X128981100Y-57177546D01*
X128842220Y-57270343D01*
X128720343Y-57392220D01*
X128627546Y-57531100D01*
X127953805Y-56857359D01*
X127953804Y-56857359D01*
X127889732Y-56940861D01*
X127889723Y-56940875D01*
X127770931Y-57146628D01*
X127770924Y-57146643D01*
X127680009Y-57366133D01*
X127618511Y-57595643D01*
X127587501Y-57831191D01*
X127587500Y-57831208D01*
X127587500Y-58068791D01*
X127587501Y-58068808D01*
X127618511Y-58304356D01*
X127680009Y-58533866D01*
X127770924Y-58753356D01*
X127770931Y-58753371D01*
X127889721Y-58959122D01*
X127889727Y-58959129D01*
X127953805Y-59042639D01*
X128627545Y-58368899D01*
X128720343Y-58507780D01*
X128842220Y-58629657D01*
X128981099Y-58722453D01*
X128307359Y-59396193D01*
X128307359Y-59396194D01*
X128390868Y-59460272D01*
X128596628Y-59579068D01*
X128596643Y-59579075D01*
X128816133Y-59669990D01*
X129045643Y-59731488D01*
X129281191Y-59762498D01*
X129281209Y-59762500D01*
X129518791Y-59762500D01*
X129518808Y-59762498D01*
X129754356Y-59731488D01*
X129983866Y-59669990D01*
X130203356Y-59579075D01*
X130203370Y-59579068D01*
X130316030Y-59514024D01*
X130383930Y-59497551D01*
X130449957Y-59520403D01*
X130493147Y-59575324D01*
X130499789Y-59644878D01*
X130485418Y-59683410D01*
X130445300Y-59752897D01*
X130445295Y-59752907D01*
X130361876Y-59954300D01*
X130305455Y-60164870D01*
X130277000Y-60380993D01*
X130277000Y-60599006D01*
X130294202Y-60729660D01*
X130305455Y-60815131D01*
X130335690Y-60927973D01*
X130361876Y-61025699D01*
X130445295Y-61227092D01*
X130445300Y-61227102D01*
X130485418Y-61296589D01*
X130501890Y-61364489D01*
X130479037Y-61430516D01*
X130424115Y-61473706D01*
X130354562Y-61480347D01*
X130316030Y-61465975D01*
X130203371Y-61400931D01*
X130203356Y-61400924D01*
X129983866Y-61310009D01*
X129754356Y-61248511D01*
X129518808Y-61217501D01*
X129518791Y-61217500D01*
X129281209Y-61217500D01*
X129281191Y-61217501D01*
X129045643Y-61248511D01*
X128816133Y-61310009D01*
X128596643Y-61400924D01*
X128596628Y-61400931D01*
X128390875Y-61519723D01*
X128390861Y-61519732D01*
X128307359Y-61583804D01*
X128307359Y-61583805D01*
X128981100Y-62257546D01*
X128842220Y-62350343D01*
X128720343Y-62472220D01*
X128627546Y-62611100D01*
X127953805Y-61937359D01*
X127953804Y-61937359D01*
X127889732Y-62020861D01*
X127889723Y-62020875D01*
X127770931Y-62226628D01*
X127770924Y-62226643D01*
X127680009Y-62446133D01*
X127618511Y-62675643D01*
X127587501Y-62911191D01*
X127587500Y-62911208D01*
X127587500Y-63148791D01*
X127587501Y-63148808D01*
X127618511Y-63384356D01*
X127680009Y-63613866D01*
X127770924Y-63833356D01*
X127770931Y-63833371D01*
X127889721Y-64039122D01*
X127889727Y-64039129D01*
X127953805Y-64122639D01*
X128627545Y-63448899D01*
X128720343Y-63587780D01*
X128842220Y-63709657D01*
X128981099Y-63802453D01*
X128307359Y-64476193D01*
X128307359Y-64476194D01*
X128390868Y-64540272D01*
X128596628Y-64659068D01*
X128596643Y-64659075D01*
X128816133Y-64749990D01*
X129045643Y-64811488D01*
X129281191Y-64842498D01*
X129281209Y-64842500D01*
X129518791Y-64842500D01*
X129518808Y-64842498D01*
X129754356Y-64811488D01*
X129983866Y-64749990D01*
X130203356Y-64659075D01*
X130203370Y-64659068D01*
X130409125Y-64540275D01*
X130409132Y-64540270D01*
X130492639Y-64476193D01*
X129818899Y-63802453D01*
X129957780Y-63709657D01*
X130079657Y-63587780D01*
X130172453Y-63448899D01*
X130846193Y-64122639D01*
X130910270Y-64039132D01*
X130910275Y-64039125D01*
X131029068Y-63833370D01*
X131029075Y-63833356D01*
X131119990Y-63613866D01*
X131181488Y-63384356D01*
X131212498Y-63148808D01*
X131212500Y-63148791D01*
X131212500Y-62911208D01*
X131212498Y-62911191D01*
X131181488Y-62675643D01*
X131119990Y-62446133D01*
X131029075Y-62226643D01*
X131029068Y-62226629D01*
X130964024Y-62113969D01*
X130947551Y-62046069D01*
X130970404Y-61980042D01*
X131025325Y-61936851D01*
X131094878Y-61930210D01*
X131133409Y-61944581D01*
X131162728Y-61961508D01*
X131202892Y-61984697D01*
X131202907Y-61984704D01*
X131290232Y-62020875D01*
X131404299Y-62068123D01*
X131614869Y-62124545D01*
X131831001Y-62153000D01*
X131831008Y-62153000D01*
X132048992Y-62153000D01*
X132048999Y-62153000D01*
X132265131Y-62124545D01*
X132475701Y-62068123D01*
X132677104Y-61984699D01*
X132746590Y-61944581D01*
X132814488Y-61928109D01*
X132880515Y-61950961D01*
X132923705Y-62005882D01*
X132930347Y-62075436D01*
X132915976Y-62113968D01*
X132850929Y-62226633D01*
X132850924Y-62226643D01*
X132760009Y-62446133D01*
X132698511Y-62675643D01*
X132667501Y-62911191D01*
X132667500Y-62911208D01*
X132667500Y-63148791D01*
X132667501Y-63148808D01*
X132698511Y-63384356D01*
X132760009Y-63613866D01*
X132850924Y-63833356D01*
X132850931Y-63833371D01*
X132969721Y-64039122D01*
X132969727Y-64039129D01*
X133033805Y-64122639D01*
X133707545Y-63448899D01*
X133800343Y-63587780D01*
X133922220Y-63709657D01*
X134061099Y-63802453D01*
X133387359Y-64476193D01*
X133387359Y-64476194D01*
X133470868Y-64540272D01*
X133676628Y-64659068D01*
X133676643Y-64659075D01*
X133896133Y-64749990D01*
X134125643Y-64811488D01*
X134361191Y-64842498D01*
X134361209Y-64842500D01*
X134598791Y-64842500D01*
X134598808Y-64842498D01*
X134834356Y-64811488D01*
X135063866Y-64749990D01*
X135283356Y-64659075D01*
X135283370Y-64659068D01*
X135489125Y-64540275D01*
X135489132Y-64540270D01*
X135572639Y-64476193D01*
X134898899Y-63802453D01*
X135037780Y-63709657D01*
X135159657Y-63587780D01*
X135252453Y-63448899D01*
X135963181Y-64159627D01*
X135996666Y-64220950D01*
X135999500Y-64247308D01*
X135999500Y-79273915D01*
X135979815Y-79340954D01*
X135927011Y-79386709D01*
X135857853Y-79396653D01*
X135806609Y-79377017D01*
X135682084Y-79293812D01*
X135682071Y-79293805D01*
X135500093Y-79218428D01*
X135500081Y-79218425D01*
X135306895Y-79179998D01*
X135058400Y-79179998D01*
X135058400Y-79879998D01*
X134558400Y-79879998D01*
X134558400Y-79179998D01*
X134309904Y-79179998D01*
X134116718Y-79218425D01*
X134116706Y-79218428D01*
X133934728Y-79293805D01*
X133934715Y-79293812D01*
X133770937Y-79403246D01*
X133770933Y-79403249D01*
X133631651Y-79542531D01*
X133631648Y-79542535D01*
X133522214Y-79706313D01*
X133522207Y-79706326D01*
X133446830Y-79888305D01*
X133446830Y-79888307D01*
X133438538Y-79929998D01*
X134241412Y-79929998D01*
X134224195Y-79939938D01*
X134168340Y-79995793D01*
X134128844Y-80064202D01*
X134108400Y-80140502D01*
X134108400Y-80219494D01*
X134128844Y-80295794D01*
X134168340Y-80364203D01*
X134224195Y-80420058D01*
X134241412Y-80429998D01*
X133438538Y-80429998D01*
X133446830Y-80471688D01*
X133446830Y-80471690D01*
X133522207Y-80653669D01*
X133522214Y-80653682D01*
X133631648Y-80817460D01*
X133631651Y-80817464D01*
X133770933Y-80956746D01*
X133770937Y-80956749D01*
X133934715Y-81066183D01*
X133934728Y-81066190D01*
X134116706Y-81141567D01*
X134116718Y-81141570D01*
X134309904Y-81179997D01*
X134309908Y-81179998D01*
X134558400Y-81179998D01*
X134558400Y-80479998D01*
X135058400Y-80479998D01*
X135058400Y-81179998D01*
X135306892Y-81179998D01*
X135306895Y-81179997D01*
X135500081Y-81141570D01*
X135500093Y-81141567D01*
X135682071Y-81066190D01*
X135682084Y-81066183D01*
X135806609Y-80982978D01*
X135873286Y-80962100D01*
X135940666Y-80980584D01*
X135987357Y-81032563D01*
X135999500Y-81086080D01*
X135999500Y-87913919D01*
X135979815Y-87980958D01*
X135927011Y-88026713D01*
X135857853Y-88036657D01*
X135806609Y-88017021D01*
X135682084Y-87933816D01*
X135682071Y-87933809D01*
X135500093Y-87858432D01*
X135500081Y-87858429D01*
X135306895Y-87820002D01*
X135058400Y-87820002D01*
X135058400Y-88520002D01*
X134558400Y-88520002D01*
X134558400Y-87820002D01*
X134309904Y-87820002D01*
X134116718Y-87858429D01*
X134116706Y-87858432D01*
X133934728Y-87933809D01*
X133934715Y-87933816D01*
X133770937Y-88043250D01*
X133770933Y-88043253D01*
X133631651Y-88182535D01*
X133631648Y-88182539D01*
X133522214Y-88346317D01*
X133522207Y-88346330D01*
X133446830Y-88528309D01*
X133446830Y-88528311D01*
X133438538Y-88570002D01*
X134241412Y-88570002D01*
X134224195Y-88579942D01*
X134168340Y-88635797D01*
X134128844Y-88704206D01*
X134108400Y-88780506D01*
X134108400Y-88859498D01*
X134128844Y-88935798D01*
X134168340Y-89004207D01*
X134224195Y-89060062D01*
X134241412Y-89070002D01*
X133438538Y-89070002D01*
X133446830Y-89111692D01*
X133446830Y-89111694D01*
X133522207Y-89293673D01*
X133522214Y-89293686D01*
X133631648Y-89457464D01*
X133631651Y-89457468D01*
X133770933Y-89596750D01*
X133770937Y-89596753D01*
X133934715Y-89706187D01*
X133934728Y-89706194D01*
X134116706Y-89781571D01*
X134116718Y-89781574D01*
X134309904Y-89820001D01*
X134309908Y-89820002D01*
X134558400Y-89820002D01*
X134558400Y-89120002D01*
X135058400Y-89120002D01*
X135058400Y-89820002D01*
X135306892Y-89820002D01*
X135306895Y-89820001D01*
X135500081Y-89781574D01*
X135500093Y-89781571D01*
X135682071Y-89706194D01*
X135682084Y-89706187D01*
X135806609Y-89622982D01*
X135873286Y-89602104D01*
X135940666Y-89620588D01*
X135987357Y-89672567D01*
X135999500Y-89726084D01*
X135999500Y-134961825D01*
X135979815Y-135028864D01*
X135927011Y-135074619D01*
X135857853Y-135084563D01*
X135794297Y-135055538D01*
X135787839Y-135049244D01*
X135787704Y-135049380D01*
X135552777Y-134814453D01*
X135298303Y-134605611D01*
X135298302Y-134605610D01*
X135298298Y-134605607D01*
X135024579Y-134422714D01*
X135024574Y-134422711D01*
X135024567Y-134422707D01*
X134734258Y-134267535D01*
X134734251Y-134267531D01*
X134579645Y-134203491D01*
X134430112Y-134141552D01*
X134115077Y-134045987D01*
X134115066Y-134045984D01*
X133792218Y-133981768D01*
X133792213Y-133981767D01*
X133792211Y-133981766D01*
X133792201Y-133981765D01*
X133551522Y-133958061D01*
X133464600Y-133949500D01*
X133135400Y-133949500D01*
X133055540Y-133957365D01*
X132807798Y-133981765D01*
X132807781Y-133981768D01*
X132484933Y-134045984D01*
X132484922Y-134045987D01*
X132169887Y-134141552D01*
X131865755Y-134267528D01*
X131865741Y-134267535D01*
X131575432Y-134422707D01*
X131575414Y-134422718D01*
X131301710Y-134605601D01*
X131301696Y-134605611D01*
X131047222Y-134814453D01*
X130814453Y-135047222D01*
X130605611Y-135301696D01*
X130605601Y-135301710D01*
X130422718Y-135575414D01*
X130422707Y-135575432D01*
X130267535Y-135865741D01*
X130267528Y-135865755D01*
X130141552Y-136169887D01*
X130045987Y-136484922D01*
X130045984Y-136484933D01*
X129981768Y-136807781D01*
X129981765Y-136807798D01*
X129977596Y-136850133D01*
X129949500Y-137135400D01*
X129949500Y-137464600D01*
X129958120Y-137552116D01*
X129981765Y-137792201D01*
X129981768Y-137792218D01*
X130045984Y-138115066D01*
X130045987Y-138115077D01*
X130141552Y-138430112D01*
X130267528Y-138734244D01*
X130267535Y-138734258D01*
X130422707Y-139024567D01*
X130422718Y-139024585D01*
X130605601Y-139298289D01*
X130605611Y-139298303D01*
X130814453Y-139552777D01*
X131049380Y-139787704D01*
X131048263Y-139788820D01*
X131081538Y-139843173D01*
X131080011Y-139913026D01*
X131040962Y-139970965D01*
X130976787Y-139998594D01*
X130961826Y-139999500D01*
X124172150Y-139999500D01*
X124105111Y-139979815D01*
X124059356Y-139927011D01*
X124049412Y-139857853D01*
X124078437Y-139794297D01*
X124096664Y-139777124D01*
X124148446Y-139737389D01*
X124189302Y-139706040D01*
X124356139Y-139539203D01*
X124499772Y-139352016D01*
X124617744Y-139147684D01*
X124708036Y-138929700D01*
X124769102Y-138701797D01*
X124799899Y-138467872D01*
X124799899Y-138231928D01*
X124769102Y-137998003D01*
X124708036Y-137770100D01*
X124617744Y-137552116D01*
X124499772Y-137347784D01*
X124356139Y-137160597D01*
X124356134Y-137160591D01*
X124189307Y-136993764D01*
X124189300Y-136993758D01*
X124002123Y-136850133D01*
X124002121Y-136850132D01*
X124002115Y-136850127D01*
X123797783Y-136732155D01*
X123797779Y-136732153D01*
X123579808Y-136641866D01*
X123579801Y-136641864D01*
X123579799Y-136641863D01*
X123351896Y-136580797D01*
X123312802Y-136575650D01*
X123117978Y-136550000D01*
X123117971Y-136550000D01*
X122882027Y-136550000D01*
X122882019Y-136550000D01*
X122659362Y-136579314D01*
X122648102Y-136580797D01*
X122420199Y-136641863D01*
X122420189Y-136641866D01*
X122202218Y-136732153D01*
X122202214Y-136732155D01*
X121997883Y-136850127D01*
X121997874Y-136850133D01*
X121810697Y-136993758D01*
X121810690Y-136993764D01*
X121643863Y-137160591D01*
X121643857Y-137160598D01*
X121500232Y-137347775D01*
X121500226Y-137347784D01*
X121382254Y-137552115D01*
X121382252Y-137552119D01*
X121291965Y-137770090D01*
X121291962Y-137770100D01*
X121230897Y-137998000D01*
X121230895Y-137998011D01*
X121200099Y-138231920D01*
X121200099Y-138467879D01*
X121225749Y-138662703D01*
X121230896Y-138701797D01*
X121239592Y-138734251D01*
X121291962Y-138929699D01*
X121291965Y-138929709D01*
X121382252Y-139147680D01*
X121382254Y-139147684D01*
X121500226Y-139352016D01*
X121500231Y-139352022D01*
X121500232Y-139352024D01*
X121643857Y-139539201D01*
X121643863Y-139539208D01*
X121810690Y-139706035D01*
X121810697Y-139706041D01*
X121903334Y-139777124D01*
X121944537Y-139833552D01*
X121948692Y-139903298D01*
X121914480Y-139964218D01*
X121852763Y-139996971D01*
X121827848Y-139999500D01*
X111172151Y-139999500D01*
X111105112Y-139979815D01*
X111059357Y-139927011D01*
X111049413Y-139857853D01*
X111078438Y-139794297D01*
X111096665Y-139777124D01*
X111148447Y-139737389D01*
X111189303Y-139706040D01*
X111356140Y-139539203D01*
X111499773Y-139352016D01*
X111617745Y-139147684D01*
X111708037Y-138929700D01*
X111769103Y-138701797D01*
X111799900Y-138467872D01*
X111799900Y-138231928D01*
X111769103Y-137998003D01*
X111708037Y-137770100D01*
X111617745Y-137552116D01*
X111499773Y-137347784D01*
X111356140Y-137160597D01*
X111356135Y-137160591D01*
X111189308Y-136993764D01*
X111189301Y-136993758D01*
X111002124Y-136850133D01*
X111002122Y-136850132D01*
X111002116Y-136850127D01*
X110797784Y-136732155D01*
X110797780Y-136732153D01*
X110579809Y-136641866D01*
X110579802Y-136641864D01*
X110579800Y-136641863D01*
X110351897Y-136580797D01*
X110312803Y-136575650D01*
X110117979Y-136550000D01*
X110117972Y-136550000D01*
X109882028Y-136550000D01*
X109882020Y-136550000D01*
X109659363Y-136579314D01*
X109648103Y-136580797D01*
X109420200Y-136641863D01*
X109420190Y-136641866D01*
X109202219Y-136732153D01*
X109202215Y-136732155D01*
X108997884Y-136850127D01*
X108997875Y-136850133D01*
X108810698Y-136993758D01*
X108810691Y-136993764D01*
X108643864Y-137160591D01*
X108643858Y-137160598D01*
X108500233Y-137347775D01*
X108500227Y-137347784D01*
X108382255Y-137552115D01*
X108382253Y-137552119D01*
X108291966Y-137770090D01*
X108291963Y-137770100D01*
X108230898Y-137998000D01*
X108230896Y-137998011D01*
X108200100Y-138231920D01*
X108200100Y-138467879D01*
X108225750Y-138662703D01*
X108230897Y-138701797D01*
X108239593Y-138734251D01*
X108291963Y-138929699D01*
X108291966Y-138929709D01*
X108382253Y-139147680D01*
X108382255Y-139147684D01*
X108500227Y-139352016D01*
X108500232Y-139352022D01*
X108500233Y-139352024D01*
X108643858Y-139539201D01*
X108643864Y-139539208D01*
X108810691Y-139706035D01*
X108810698Y-139706041D01*
X108903335Y-139777124D01*
X108944538Y-139833552D01*
X108948693Y-139903298D01*
X108914481Y-139964218D01*
X108852764Y-139996971D01*
X108827849Y-139999500D01*
X102038174Y-139999500D01*
X101971135Y-139979815D01*
X101925380Y-139927011D01*
X101915436Y-139857853D01*
X101944461Y-139794297D01*
X101950767Y-139787851D01*
X101950620Y-139787704D01*
X102185546Y-139552777D01*
X102185551Y-139552772D01*
X102394393Y-139298298D01*
X102577286Y-139024579D01*
X102732469Y-138734251D01*
X102858448Y-138430111D01*
X102954010Y-138115087D01*
X102954012Y-138115077D01*
X102954015Y-138115066D01*
X102982916Y-137969760D01*
X103018233Y-137792213D01*
X103050500Y-137464600D01*
X103050500Y-137135400D01*
X103018233Y-136807787D01*
X102973083Y-136580798D01*
X102954015Y-136484933D01*
X102954012Y-136484922D01*
X102954011Y-136484919D01*
X102954010Y-136484913D01*
X102858448Y-136169889D01*
X102732469Y-135865749D01*
X102577286Y-135575421D01*
X102394393Y-135301702D01*
X102185551Y-135047228D01*
X102185550Y-135047227D01*
X102185546Y-135047222D01*
X101952777Y-134814453D01*
X101906693Y-134776633D01*
X101795833Y-134685652D01*
X104215000Y-134685652D01*
X104215000Y-134934350D01*
X104229970Y-135028864D01*
X104253905Y-135179986D01*
X104330754Y-135416508D01*
X104330755Y-135416511D01*
X104443665Y-135638105D01*
X104589837Y-135839295D01*
X104589841Y-135839300D01*
X104765700Y-136015159D01*
X104765705Y-136015163D01*
X104941194Y-136142662D01*
X104966899Y-136161338D01*
X105111754Y-136235145D01*
X105188489Y-136274245D01*
X105188492Y-136274246D01*
X105306753Y-136312670D01*
X105425016Y-136351096D01*
X105670651Y-136390001D01*
X105670652Y-136390001D01*
X105919348Y-136390001D01*
X105919349Y-136390001D01*
X106164984Y-136351096D01*
X106401510Y-136274245D01*
X106623101Y-136161338D01*
X106824301Y-136015158D01*
X107000157Y-135839302D01*
X107146337Y-135638102D01*
X107259244Y-135416511D01*
X107336095Y-135179985D01*
X107375000Y-134934350D01*
X107375000Y-134685652D01*
X125625000Y-134685652D01*
X125625000Y-134934350D01*
X125639970Y-135028864D01*
X125663905Y-135179986D01*
X125740754Y-135416508D01*
X125740755Y-135416511D01*
X125853665Y-135638105D01*
X125999837Y-135839295D01*
X125999841Y-135839300D01*
X126175700Y-136015159D01*
X126175705Y-136015163D01*
X126351194Y-136142662D01*
X126376899Y-136161338D01*
X126521754Y-136235145D01*
X126598489Y-136274245D01*
X126598492Y-136274246D01*
X126716753Y-136312670D01*
X126835016Y-136351096D01*
X127080651Y-136390001D01*
X127080652Y-136390001D01*
X127329348Y-136390001D01*
X127329349Y-136390001D01*
X127574984Y-136351096D01*
X127811510Y-136274245D01*
X128033101Y-136161338D01*
X128234301Y-136015158D01*
X128410157Y-135839302D01*
X128556337Y-135638102D01*
X128669244Y-135416511D01*
X128746095Y-135179985D01*
X128785000Y-134934350D01*
X128785000Y-134685652D01*
X128746095Y-134440017D01*
X128669244Y-134203491D01*
X128669244Y-134203490D01*
X128630144Y-134126755D01*
X128556337Y-133981900D01*
X128532797Y-133949500D01*
X128410162Y-133780706D01*
X128410158Y-133780701D01*
X128234299Y-133604842D01*
X128234294Y-133604838D01*
X128033104Y-133458666D01*
X128033103Y-133458665D01*
X128033101Y-133458664D01*
X127962109Y-133422491D01*
X127811510Y-133345756D01*
X127811507Y-133345755D01*
X127574985Y-133268906D01*
X127452166Y-133249453D01*
X127329349Y-133230001D01*
X127080651Y-133230001D01*
X126998772Y-133242969D01*
X126835014Y-133268906D01*
X126598492Y-133345755D01*
X126598489Y-133345756D01*
X126376895Y-133458666D01*
X126175705Y-133604838D01*
X126175700Y-133604842D01*
X125999841Y-133780701D01*
X125999837Y-133780706D01*
X125853665Y-133981896D01*
X125740755Y-134203490D01*
X125740754Y-134203493D01*
X125663905Y-134440015D01*
X125663905Y-134440017D01*
X125625000Y-134685652D01*
X107375000Y-134685652D01*
X107336095Y-134440017D01*
X107259244Y-134203491D01*
X107259244Y-134203490D01*
X107220144Y-134126755D01*
X107146337Y-133981900D01*
X107122797Y-133949500D01*
X107000162Y-133780706D01*
X107000158Y-133780701D01*
X106824299Y-133604842D01*
X106824294Y-133604838D01*
X106623104Y-133458666D01*
X106623103Y-133458665D01*
X106623101Y-133458664D01*
X106552109Y-133422491D01*
X106401510Y-133345756D01*
X106401507Y-133345755D01*
X106164985Y-133268906D01*
X106042166Y-133249453D01*
X105919349Y-133230001D01*
X105670651Y-133230001D01*
X105588772Y-133242969D01*
X105425014Y-133268906D01*
X105188492Y-133345755D01*
X105188489Y-133345756D01*
X104966895Y-133458666D01*
X104765705Y-133604838D01*
X104765700Y-133604842D01*
X104589841Y-133780701D01*
X104589837Y-133780706D01*
X104443665Y-133981896D01*
X104330755Y-134203490D01*
X104330754Y-134203493D01*
X104253905Y-134440015D01*
X104253905Y-134440017D01*
X104215000Y-134685652D01*
X101795833Y-134685652D01*
X101698303Y-134605611D01*
X101698302Y-134605610D01*
X101698298Y-134605607D01*
X101424579Y-134422714D01*
X101424574Y-134422711D01*
X101424567Y-134422707D01*
X101134258Y-134267535D01*
X101134251Y-134267531D01*
X100979645Y-134203491D01*
X100830112Y-134141552D01*
X100515077Y-134045987D01*
X100515066Y-134045984D01*
X100192218Y-133981768D01*
X100192213Y-133981767D01*
X100192211Y-133981766D01*
X100192201Y-133981765D01*
X99951522Y-133958061D01*
X99864600Y-133949500D01*
X99535400Y-133949500D01*
X99455540Y-133957365D01*
X99207798Y-133981765D01*
X99207781Y-133981768D01*
X98884933Y-134045984D01*
X98884922Y-134045987D01*
X98569887Y-134141552D01*
X98265755Y-134267528D01*
X98265741Y-134267535D01*
X97975432Y-134422707D01*
X97975414Y-134422718D01*
X97701710Y-134605601D01*
X97701696Y-134605611D01*
X97447222Y-134814453D01*
X97212296Y-135049380D01*
X97211261Y-135048345D01*
X97156355Y-135081663D01*
X97086509Y-135079862D01*
X97028724Y-135040584D01*
X97001348Y-134976301D01*
X97000500Y-134961825D01*
X97000500Y-126433687D01*
X108522100Y-126433687D01*
X108522100Y-126666312D01*
X108558491Y-126896077D01*
X108630374Y-127117314D01*
X108735989Y-127324591D01*
X108793161Y-127403282D01*
X108793162Y-127403283D01*
X109342397Y-126854048D01*
X109358488Y-126892895D01*
X109437710Y-127011460D01*
X109538540Y-127112290D01*
X109657105Y-127191512D01*
X109695950Y-127207602D01*
X109146715Y-127756836D01*
X109225411Y-127814012D01*
X109432685Y-127919625D01*
X109653922Y-127991508D01*
X109883688Y-128027900D01*
X110116312Y-128027900D01*
X110346077Y-127991508D01*
X110567314Y-127919625D01*
X110774580Y-127814016D01*
X110774586Y-127814012D01*
X110853282Y-127756836D01*
X110853283Y-127756836D01*
X110304048Y-127207602D01*
X110342895Y-127191512D01*
X110461460Y-127112290D01*
X110562290Y-127011460D01*
X110641512Y-126892895D01*
X110657602Y-126854049D01*
X111206836Y-127403283D01*
X111206836Y-127403282D01*
X111264012Y-127324586D01*
X111264016Y-127324580D01*
X111369625Y-127117314D01*
X111441508Y-126896077D01*
X111477900Y-126666312D01*
X111477900Y-126433687D01*
X111441508Y-126203922D01*
X111369625Y-125982685D01*
X111264012Y-125775411D01*
X111206836Y-125696716D01*
X111206836Y-125696715D01*
X110657602Y-126245950D01*
X110641512Y-126207105D01*
X110562290Y-126088540D01*
X110461460Y-125987710D01*
X110342895Y-125908488D01*
X110304048Y-125892397D01*
X110853283Y-125343162D01*
X110853282Y-125343161D01*
X110774591Y-125285989D01*
X110567314Y-125180374D01*
X110346077Y-125108491D01*
X110116312Y-125072100D01*
X109883688Y-125072100D01*
X109653922Y-125108491D01*
X109432685Y-125180374D01*
X109225415Y-125285985D01*
X109146716Y-125343162D01*
X109695951Y-125892397D01*
X109657105Y-125908488D01*
X109538540Y-125987710D01*
X109437710Y-126088540D01*
X109358488Y-126207105D01*
X109342397Y-126245951D01*
X108793162Y-125696716D01*
X108735985Y-125775415D01*
X108630374Y-125982685D01*
X108558491Y-126203922D01*
X108522100Y-126433687D01*
X97000500Y-126433687D01*
X97000500Y-119883641D01*
X108521600Y-119883641D01*
X108521600Y-120116358D01*
X108558002Y-120346193D01*
X108629914Y-120567513D01*
X108735561Y-120774854D01*
X108872333Y-120963106D01*
X108872337Y-120963111D01*
X109036888Y-121127662D01*
X109036893Y-121127666D01*
X109145862Y-121206836D01*
X109225149Y-121264441D01*
X109357266Y-121331758D01*
X109432486Y-121370085D01*
X109432488Y-121370085D01*
X109432491Y-121370087D01*
X109551122Y-121408632D01*
X109653806Y-121441997D01*
X109883642Y-121478400D01*
X109883647Y-121478400D01*
X110116358Y-121478400D01*
X110346193Y-121441997D01*
X110347698Y-121441508D01*
X110567509Y-121370087D01*
X110774851Y-121264441D01*
X110963113Y-121127661D01*
X111127661Y-120963113D01*
X111264441Y-120774851D01*
X111370087Y-120567509D01*
X111441997Y-120346193D01*
X111463385Y-120211154D01*
X111478400Y-120116358D01*
X111478400Y-119883641D01*
X111441997Y-119653806D01*
X111404544Y-119538540D01*
X111370087Y-119432491D01*
X111370085Y-119432488D01*
X111370085Y-119432486D01*
X111304576Y-119303919D01*
X111264441Y-119225149D01*
X111207456Y-119146715D01*
X111127666Y-119036893D01*
X111127662Y-119036888D01*
X110963111Y-118872337D01*
X110963106Y-118872333D01*
X110774852Y-118735559D01*
X110668204Y-118681218D01*
X110617409Y-118633243D01*
X110600500Y-118570734D01*
X110600500Y-110314655D01*
X114612500Y-110314655D01*
X114612500Y-111500000D01*
X115606606Y-111500000D01*
X115575000Y-111658895D01*
X115575000Y-111841105D01*
X115606606Y-112000000D01*
X114612500Y-112000000D01*
X114612500Y-113185344D01*
X114618901Y-113244872D01*
X114618903Y-113244879D01*
X114669145Y-113379586D01*
X114669149Y-113379593D01*
X114755309Y-113494687D01*
X114755312Y-113494690D01*
X114870406Y-113580850D01*
X114870413Y-113580854D01*
X115005120Y-113631096D01*
X115005127Y-113631098D01*
X115064655Y-113637499D01*
X115064672Y-113637500D01*
X116250000Y-113637500D01*
X116250000Y-112643394D01*
X116408895Y-112675000D01*
X116591105Y-112675000D01*
X116750000Y-112643394D01*
X116750000Y-113637500D01*
X117935328Y-113637500D01*
X117935344Y-113637499D01*
X117994872Y-113631098D01*
X117994879Y-113631096D01*
X118129586Y-113580854D01*
X118129593Y-113580850D01*
X118244687Y-113494690D01*
X118244690Y-113494687D01*
X118330850Y-113379593D01*
X118330854Y-113379586D01*
X118381096Y-113244879D01*
X118381098Y-113244872D01*
X118387499Y-113185344D01*
X118387500Y-113185327D01*
X118387500Y-112000000D01*
X117393394Y-112000000D01*
X117425000Y-111841105D01*
X117425000Y-111658895D01*
X117393394Y-111500000D01*
X118387500Y-111500000D01*
X118387500Y-110314672D01*
X118387499Y-110314655D01*
X118381098Y-110255127D01*
X118381096Y-110255120D01*
X118330854Y-110120413D01*
X118330850Y-110120406D01*
X118244690Y-110005312D01*
X118244687Y-110005309D01*
X118129593Y-109919149D01*
X118129586Y-109919145D01*
X117994879Y-109868903D01*
X117994872Y-109868901D01*
X117935344Y-109862500D01*
X116750000Y-109862500D01*
X116750000Y-110856605D01*
X116591105Y-110825000D01*
X116408895Y-110825000D01*
X116250000Y-110856605D01*
X116250000Y-109862500D01*
X115064655Y-109862500D01*
X115005127Y-109868901D01*
X115005120Y-109868903D01*
X114870413Y-109919145D01*
X114870406Y-109919149D01*
X114755312Y-110005309D01*
X114755309Y-110005312D01*
X114669149Y-110120406D01*
X114669145Y-110120413D01*
X114618903Y-110255120D01*
X114618901Y-110255127D01*
X114612500Y-110314655D01*
X110600500Y-110314655D01*
X110600500Y-100650097D01*
X110620185Y-100583058D01*
X110636819Y-100562416D01*
X111780118Y-99419117D01*
X112272975Y-98926260D01*
X114612000Y-98926260D01*
X114612000Y-99173739D01*
X114612001Y-99173756D01*
X114644303Y-99419117D01*
X114708361Y-99658184D01*
X114803069Y-99886829D01*
X114803074Y-99886840D01*
X114926812Y-100101159D01*
X114926823Y-100101175D01*
X115077479Y-100297514D01*
X115077485Y-100297521D01*
X115252478Y-100472514D01*
X115252484Y-100472519D01*
X115448833Y-100623183D01*
X115448840Y-100623187D01*
X115663159Y-100746925D01*
X115663164Y-100746927D01*
X115663167Y-100746929D01*
X115891820Y-100841640D01*
X116130879Y-100905696D01*
X116376254Y-100938000D01*
X116376261Y-100938000D01*
X116623739Y-100938000D01*
X116623746Y-100938000D01*
X116869121Y-100905696D01*
X117108180Y-100841640D01*
X117336833Y-100746929D01*
X117551167Y-100623183D01*
X117747516Y-100472519D01*
X117922519Y-100297516D01*
X118073183Y-100101167D01*
X118196929Y-99886833D01*
X118291640Y-99658180D01*
X118355696Y-99419121D01*
X118388000Y-99173746D01*
X118388000Y-98926254D01*
X118355696Y-98680879D01*
X118291640Y-98441820D01*
X118196929Y-98213167D01*
X118196927Y-98213164D01*
X118196925Y-98213159D01*
X118073187Y-97998840D01*
X118073183Y-97998833D01*
X117966877Y-97860292D01*
X117922520Y-97802485D01*
X117922514Y-97802478D01*
X117747521Y-97627485D01*
X117747514Y-97627479D01*
X117551175Y-97476823D01*
X117551173Y-97476821D01*
X117551167Y-97476817D01*
X117551162Y-97476814D01*
X117551159Y-97476812D01*
X117336840Y-97353074D01*
X117336829Y-97353069D01*
X117108184Y-97258361D01*
X116869117Y-97194303D01*
X116623756Y-97162001D01*
X116623751Y-97162000D01*
X116623746Y-97162000D01*
X116376254Y-97162000D01*
X116376248Y-97162000D01*
X116376243Y-97162001D01*
X116130882Y-97194303D01*
X115891815Y-97258361D01*
X115663170Y-97353069D01*
X115663159Y-97353074D01*
X115448840Y-97476812D01*
X115448824Y-97476823D01*
X115252485Y-97627479D01*
X115252478Y-97627485D01*
X115077485Y-97802478D01*
X115077479Y-97802485D01*
X114926823Y-97998824D01*
X114926812Y-97998840D01*
X114803074Y-98213159D01*
X114803069Y-98213170D01*
X114708361Y-98441815D01*
X114644303Y-98680882D01*
X114612001Y-98926243D01*
X114612000Y-98926260D01*
X112272975Y-98926260D01*
X113014664Y-98184571D01*
X113075985Y-98151088D01*
X113078152Y-98150637D01*
X113078841Y-98150500D01*
X113078842Y-98150500D01*
X113233497Y-98119737D01*
X113379179Y-98059394D01*
X113510289Y-97971789D01*
X113621789Y-97860289D01*
X113709394Y-97729179D01*
X113769737Y-97583497D01*
X113800500Y-97428842D01*
X113800500Y-97271158D01*
X113800500Y-97271155D01*
X113800499Y-97271153D01*
X113769737Y-97116503D01*
X113769735Y-97116498D01*
X113709397Y-96970827D01*
X113709390Y-96970814D01*
X113621789Y-96839711D01*
X113621786Y-96839707D01*
X113510292Y-96728213D01*
X113510288Y-96728210D01*
X113379185Y-96640609D01*
X113379172Y-96640602D01*
X113233501Y-96580264D01*
X113233489Y-96580261D01*
X113078845Y-96549500D01*
X113078842Y-96549500D01*
X112921158Y-96549500D01*
X112921155Y-96549500D01*
X112766510Y-96580261D01*
X112766498Y-96580264D01*
X112620827Y-96640602D01*
X112620814Y-96640609D01*
X112489711Y-96728210D01*
X112489707Y-96728213D01*
X112378213Y-96839707D01*
X112378210Y-96839711D01*
X112290609Y-96970814D01*
X112290602Y-96970827D01*
X112230264Y-97116498D01*
X112230261Y-97116508D01*
X112199362Y-97271848D01*
X112166977Y-97333759D01*
X112165426Y-97335337D01*
X109631286Y-99869478D01*
X109519481Y-99981282D01*
X109519479Y-99981285D01*
X109469361Y-100068094D01*
X109469359Y-100068096D01*
X109440425Y-100118209D01*
X109440424Y-100118210D01*
X109440423Y-100118215D01*
X109399499Y-100270943D01*
X109399499Y-100270945D01*
X109399499Y-100439046D01*
X109399500Y-100439059D01*
X109399500Y-118570734D01*
X109379815Y-118637773D01*
X109331796Y-118681218D01*
X109225147Y-118735559D01*
X109036893Y-118872333D01*
X109036888Y-118872337D01*
X108872337Y-119036888D01*
X108872333Y-119036893D01*
X108735561Y-119225145D01*
X108629914Y-119432486D01*
X108558002Y-119653806D01*
X108521600Y-119883641D01*
X97000500Y-119883641D01*
X97000500Y-110314655D01*
X100112500Y-110314655D01*
X100112500Y-111500000D01*
X101106606Y-111500000D01*
X101075000Y-111658895D01*
X101075000Y-111841105D01*
X101106606Y-112000000D01*
X100112500Y-112000000D01*
X100112500Y-113185344D01*
X100118901Y-113244872D01*
X100118903Y-113244879D01*
X100169145Y-113379586D01*
X100169149Y-113379593D01*
X100255309Y-113494687D01*
X100255312Y-113494690D01*
X100370406Y-113580850D01*
X100370413Y-113580854D01*
X100505120Y-113631096D01*
X100505127Y-113631098D01*
X100564655Y-113637499D01*
X100564672Y-113637500D01*
X101750000Y-113637500D01*
X101750000Y-112643394D01*
X101908895Y-112675000D01*
X102091105Y-112675000D01*
X102250000Y-112643394D01*
X102250000Y-113637500D01*
X103435328Y-113637500D01*
X103435344Y-113637499D01*
X103494872Y-113631098D01*
X103494879Y-113631096D01*
X103629586Y-113580854D01*
X103629593Y-113580850D01*
X103744687Y-113494690D01*
X103744690Y-113494687D01*
X103830850Y-113379593D01*
X103830854Y-113379586D01*
X103881096Y-113244879D01*
X103881098Y-113244872D01*
X103887499Y-113185344D01*
X103887500Y-113185327D01*
X103887500Y-112000000D01*
X102893394Y-112000000D01*
X102925000Y-111841105D01*
X102925000Y-111658895D01*
X102893394Y-111500000D01*
X103887500Y-111500000D01*
X103887500Y-110314672D01*
X103887499Y-110314655D01*
X103881098Y-110255127D01*
X103881096Y-110255120D01*
X103830854Y-110120413D01*
X103830850Y-110120406D01*
X103744690Y-110005312D01*
X103744687Y-110005309D01*
X103629593Y-109919149D01*
X103629586Y-109919145D01*
X103494879Y-109868903D01*
X103494872Y-109868901D01*
X103435344Y-109862500D01*
X102250000Y-109862500D01*
X102250000Y-110856605D01*
X102091105Y-110825000D01*
X101908895Y-110825000D01*
X101750000Y-110856605D01*
X101750000Y-109862500D01*
X100564655Y-109862500D01*
X100505127Y-109868901D01*
X100505120Y-109868903D01*
X100370413Y-109919145D01*
X100370406Y-109919149D01*
X100255312Y-110005309D01*
X100255309Y-110005312D01*
X100169149Y-110120406D01*
X100169145Y-110120413D01*
X100118903Y-110255120D01*
X100118901Y-110255127D01*
X100112500Y-110314655D01*
X97000500Y-110314655D01*
X97000500Y-105276260D01*
X100112000Y-105276260D01*
X100112000Y-105523739D01*
X100112001Y-105523756D01*
X100144303Y-105769117D01*
X100208361Y-106008184D01*
X100303069Y-106236829D01*
X100303074Y-106236840D01*
X100426812Y-106451159D01*
X100426823Y-106451175D01*
X100577479Y-106647514D01*
X100577485Y-106647521D01*
X100752478Y-106822514D01*
X100752484Y-106822519D01*
X100948833Y-106973183D01*
X100948840Y-106973187D01*
X101163159Y-107096925D01*
X101163164Y-107096927D01*
X101163167Y-107096929D01*
X101391820Y-107191640D01*
X101630879Y-107255696D01*
X101876254Y-107288000D01*
X101876261Y-107288000D01*
X102123739Y-107288000D01*
X102123746Y-107288000D01*
X102369121Y-107255696D01*
X102608180Y-107191640D01*
X102836833Y-107096929D01*
X103051167Y-106973183D01*
X103247516Y-106822519D01*
X103422519Y-106647516D01*
X103573183Y-106451167D01*
X103696929Y-106236833D01*
X103791640Y-106008180D01*
X103855696Y-105769121D01*
X103888000Y-105523746D01*
X103888000Y-105276254D01*
X103855696Y-105030879D01*
X103791640Y-104791820D01*
X103696929Y-104563167D01*
X103696927Y-104563164D01*
X103696925Y-104563159D01*
X103573187Y-104348840D01*
X103573183Y-104348833D01*
X103422519Y-104152484D01*
X103422514Y-104152478D01*
X103247521Y-103977485D01*
X103247514Y-103977479D01*
X103051175Y-103826823D01*
X103051173Y-103826821D01*
X103051167Y-103826817D01*
X103051162Y-103826814D01*
X103051159Y-103826812D01*
X102836840Y-103703074D01*
X102836829Y-103703069D01*
X102608184Y-103608361D01*
X102369117Y-103544303D01*
X102123756Y-103512001D01*
X102123751Y-103512000D01*
X102123746Y-103512000D01*
X101876254Y-103512000D01*
X101876248Y-103512000D01*
X101876243Y-103512001D01*
X101630882Y-103544303D01*
X101391815Y-103608361D01*
X101163170Y-103703069D01*
X101163159Y-103703074D01*
X100948840Y-103826812D01*
X100948824Y-103826823D01*
X100752485Y-103977479D01*
X100752478Y-103977485D01*
X100577485Y-104152478D01*
X100577479Y-104152485D01*
X100426823Y-104348824D01*
X100426812Y-104348840D01*
X100303074Y-104563159D01*
X100303069Y-104563170D01*
X100208361Y-104791815D01*
X100144303Y-105030882D01*
X100112001Y-105276243D01*
X100112000Y-105276260D01*
X97000500Y-105276260D01*
X97000500Y-98926260D01*
X100112000Y-98926260D01*
X100112000Y-99173739D01*
X100112001Y-99173756D01*
X100144303Y-99419117D01*
X100208361Y-99658184D01*
X100303069Y-99886829D01*
X100303074Y-99886840D01*
X100426812Y-100101159D01*
X100426823Y-100101175D01*
X100577479Y-100297514D01*
X100577485Y-100297521D01*
X100752478Y-100472514D01*
X100752484Y-100472519D01*
X100948833Y-100623183D01*
X100948840Y-100623187D01*
X101163159Y-100746925D01*
X101163164Y-100746927D01*
X101163167Y-100746929D01*
X101391820Y-100841640D01*
X101630879Y-100905696D01*
X101876254Y-100938000D01*
X101876261Y-100938000D01*
X102123739Y-100938000D01*
X102123746Y-100938000D01*
X102369121Y-100905696D01*
X102608180Y-100841640D01*
X102836833Y-100746929D01*
X103051167Y-100623183D01*
X103247516Y-100472519D01*
X103422519Y-100297516D01*
X103573183Y-100101167D01*
X103696929Y-99886833D01*
X103791640Y-99658180D01*
X103855696Y-99419121D01*
X103888000Y-99173746D01*
X103888000Y-98926254D01*
X103855696Y-98680879D01*
X103791640Y-98441820D01*
X103696929Y-98213167D01*
X103696927Y-98213164D01*
X103696925Y-98213159D01*
X103573187Y-97998840D01*
X103573183Y-97998833D01*
X103466877Y-97860292D01*
X103422520Y-97802485D01*
X103422514Y-97802478D01*
X103247521Y-97627485D01*
X103247514Y-97627479D01*
X103051175Y-97476823D01*
X103051173Y-97476821D01*
X103051167Y-97476817D01*
X103051162Y-97476814D01*
X103051159Y-97476812D01*
X102836840Y-97353074D01*
X102836829Y-97353069D01*
X102608184Y-97258361D01*
X102369117Y-97194303D01*
X102123756Y-97162001D01*
X102123751Y-97162000D01*
X102123746Y-97162000D01*
X101876254Y-97162000D01*
X101876248Y-97162000D01*
X101876243Y-97162001D01*
X101630882Y-97194303D01*
X101391815Y-97258361D01*
X101163170Y-97353069D01*
X101163159Y-97353074D01*
X100948840Y-97476812D01*
X100948824Y-97476823D01*
X100752485Y-97627479D01*
X100752478Y-97627485D01*
X100577485Y-97802478D01*
X100577479Y-97802485D01*
X100426823Y-97998824D01*
X100426812Y-97998840D01*
X100303074Y-98213159D01*
X100303069Y-98213170D01*
X100208361Y-98441815D01*
X100144303Y-98680882D01*
X100112001Y-98926243D01*
X100112000Y-98926260D01*
X97000500Y-98926260D01*
X97000500Y-55016781D01*
X97020185Y-54949742D01*
X97072989Y-54903987D01*
X97142147Y-54894043D01*
X97205703Y-54923068D01*
X97220353Y-54938116D01*
X97314453Y-55052777D01*
X97547222Y-55285546D01*
X97547227Y-55285550D01*
X97547228Y-55285551D01*
X97801702Y-55494393D01*
X98075421Y-55677286D01*
X98365749Y-55832469D01*
X98669889Y-55958448D01*
X98984913Y-56054010D01*
X98984919Y-56054011D01*
X98984922Y-56054012D01*
X98984933Y-56054015D01*
X99165361Y-56089903D01*
X99307787Y-56118233D01*
X99635400Y-56150500D01*
X99635403Y-56150500D01*
X99964597Y-56150500D01*
X99964600Y-56150500D01*
X100292213Y-56118233D01*
X100469760Y-56082916D01*
X100615066Y-56054015D01*
X100615077Y-56054012D01*
X100615077Y-56054011D01*
X100615087Y-56054010D01*
X100930111Y-55958448D01*
X101234251Y-55832469D01*
X101490156Y-55695685D01*
X101558555Y-55681444D01*
X101623799Y-55706444D01*
X101665170Y-55762749D01*
X101669532Y-55832482D01*
X101636287Y-55892725D01*
X101378513Y-56150500D01*
X101126270Y-56402743D01*
X101126267Y-56402746D01*
X101095524Y-56433489D01*
X101039141Y-56489871D01*
X101026942Y-56508127D01*
X101026943Y-56508128D01*
X100970686Y-56592321D01*
X100970685Y-56592322D01*
X100937347Y-56672810D01*
X100937347Y-56672811D01*
X100923537Y-56706152D01*
X100923535Y-56706158D01*
X100918592Y-56731005D01*
X100918593Y-56731006D01*
X100918593Y-56731007D01*
X100906739Y-56790609D01*
X100904750Y-56800607D01*
X100904749Y-56800612D01*
X100899500Y-56826997D01*
X100899500Y-61257650D01*
X100879815Y-61324689D01*
X100878626Y-61326503D01*
X100857802Y-61357668D01*
X100815609Y-61420815D01*
X100815602Y-61420828D01*
X100755264Y-61566498D01*
X100755261Y-61566510D01*
X100724500Y-61721153D01*
X100724500Y-61878846D01*
X100755261Y-62033489D01*
X100755264Y-62033501D01*
X100815602Y-62179172D01*
X100815609Y-62179185D01*
X100903210Y-62310288D01*
X100903213Y-62310292D01*
X101014707Y-62421786D01*
X101014711Y-62421789D01*
X101145814Y-62509390D01*
X101145827Y-62509397D01*
X101291498Y-62569735D01*
X101291503Y-62569737D01*
X101401987Y-62591713D01*
X101424691Y-62596230D01*
X101486602Y-62628615D01*
X101521176Y-62689330D01*
X101524500Y-62717847D01*
X101524500Y-81311606D01*
X101546763Y-81423535D01*
X101546764Y-81423539D01*
X101546763Y-81423539D01*
X101548536Y-81432449D01*
X101548537Y-81432454D01*
X101595685Y-81546281D01*
X101595688Y-81546286D01*
X101621776Y-81585328D01*
X101621777Y-81585331D01*
X101621778Y-81585331D01*
X101664141Y-81648733D01*
X101755586Y-81740178D01*
X101755608Y-81740198D01*
X106623516Y-86608106D01*
X106623545Y-86608137D01*
X106713763Y-86698355D01*
X106713771Y-86698361D01*
X106789246Y-86748792D01*
X106789247Y-86748792D01*
X106816215Y-86766812D01*
X106866473Y-86787629D01*
X106866474Y-86787630D01*
X106866475Y-86787630D01*
X106930048Y-86813963D01*
X106990471Y-86825981D01*
X107050893Y-86838000D01*
X121199107Y-86838000D01*
X121259529Y-86825981D01*
X121319952Y-86813963D01*
X121319955Y-86813961D01*
X121319958Y-86813961D01*
X121353287Y-86800154D01*
X121353286Y-86800154D01*
X121353292Y-86800152D01*
X121433786Y-86766812D01*
X121485009Y-86732584D01*
X121536233Y-86698358D01*
X121623358Y-86611233D01*
X121623358Y-86611231D01*
X121633566Y-86601024D01*
X121633568Y-86601021D01*
X121810271Y-86424318D01*
X121871594Y-86390833D01*
X121897952Y-86387999D01*
X121975500Y-86387999D01*
X122042539Y-86407684D01*
X122088294Y-86460488D01*
X122099500Y-86511999D01*
X122099500Y-98687769D01*
X122079815Y-98754808D01*
X122063181Y-98775450D01*
X117253098Y-103585532D01*
X117191775Y-103619017D01*
X117122083Y-103614033D01*
X117117967Y-103612413D01*
X117108194Y-103608365D01*
X117108182Y-103608361D01*
X117108183Y-103608361D01*
X117108180Y-103608360D01*
X116869121Y-103544304D01*
X116869120Y-103544303D01*
X116869117Y-103544303D01*
X116623756Y-103512001D01*
X116623751Y-103512000D01*
X116623746Y-103512000D01*
X116376254Y-103512000D01*
X116376248Y-103512000D01*
X116376243Y-103512001D01*
X116130882Y-103544303D01*
X115891815Y-103608361D01*
X115663170Y-103703069D01*
X115663159Y-103703074D01*
X115448840Y-103826812D01*
X115448824Y-103826823D01*
X115252485Y-103977479D01*
X115252478Y-103977485D01*
X115077485Y-104152478D01*
X115077479Y-104152485D01*
X114926823Y-104348824D01*
X114926812Y-104348840D01*
X114803074Y-104563159D01*
X114803069Y-104563170D01*
X114708361Y-104791815D01*
X114644303Y-105030882D01*
X114612001Y-105276243D01*
X114612000Y-105276260D01*
X114612000Y-105523739D01*
X114612001Y-105523756D01*
X114644303Y-105769117D01*
X114708361Y-106008184D01*
X114803069Y-106236829D01*
X114803074Y-106236840D01*
X114926812Y-106451159D01*
X114926823Y-106451175D01*
X115077479Y-106647514D01*
X115077485Y-106647521D01*
X115252478Y-106822514D01*
X115252484Y-106822519D01*
X115448833Y-106973183D01*
X115448840Y-106973187D01*
X115663159Y-107096925D01*
X115663164Y-107096927D01*
X115663167Y-107096929D01*
X115891820Y-107191640D01*
X116130879Y-107255696D01*
X116376254Y-107288000D01*
X116376261Y-107288000D01*
X116623739Y-107288000D01*
X116623746Y-107288000D01*
X116869121Y-107255696D01*
X117108180Y-107191640D01*
X117336833Y-107096929D01*
X117551167Y-106973183D01*
X117747516Y-106822519D01*
X117922519Y-106647516D01*
X118073183Y-106451167D01*
X118196929Y-106236833D01*
X118291640Y-106008180D01*
X118355696Y-105769121D01*
X118388000Y-105523746D01*
X118388000Y-105276254D01*
X118355696Y-105030879D01*
X118291640Y-104791820D01*
X118287587Y-104782037D01*
X118280116Y-104712570D01*
X118311388Y-104650090D01*
X118314438Y-104646928D01*
X121737819Y-101223548D01*
X121799142Y-101190063D01*
X121868834Y-101195047D01*
X121924767Y-101236919D01*
X121949184Y-101302383D01*
X121949500Y-101311229D01*
X121949500Y-113437770D01*
X121929815Y-113504809D01*
X121913181Y-113525451D01*
X119917046Y-115521586D01*
X116920596Y-118518035D01*
X116859273Y-118551520D01*
X116813517Y-118552827D01*
X116616358Y-118521600D01*
X116616353Y-118521600D01*
X116383647Y-118521600D01*
X116383642Y-118521600D01*
X116153806Y-118558002D01*
X115932486Y-118629914D01*
X115725145Y-118735561D01*
X115536893Y-118872333D01*
X115536888Y-118872337D01*
X115372337Y-119036888D01*
X115372333Y-119036893D01*
X115235561Y-119225145D01*
X115129914Y-119432486D01*
X115058002Y-119653806D01*
X115021600Y-119883641D01*
X115021600Y-120116358D01*
X115058002Y-120346193D01*
X115129914Y-120567513D01*
X115235561Y-120774854D01*
X115372333Y-120963106D01*
X115372337Y-120963111D01*
X115536888Y-121127662D01*
X115536893Y-121127666D01*
X115645862Y-121206836D01*
X115725149Y-121264441D01*
X115857266Y-121331758D01*
X115932486Y-121370085D01*
X115932488Y-121370085D01*
X115932491Y-121370087D01*
X116051122Y-121408632D01*
X116153806Y-121441997D01*
X116383642Y-121478400D01*
X116383647Y-121478400D01*
X116616358Y-121478400D01*
X116846193Y-121441997D01*
X116847698Y-121441508D01*
X117067509Y-121370087D01*
X117274851Y-121264441D01*
X117463113Y-121127661D01*
X117627661Y-120963113D01*
X117764441Y-120774851D01*
X117870087Y-120567509D01*
X117941997Y-120346193D01*
X117963385Y-120211154D01*
X117978400Y-120116358D01*
X117978400Y-119883641D01*
X117947172Y-119686480D01*
X117956126Y-119617187D01*
X117981961Y-119579404D01*
X119537820Y-118023545D01*
X119599142Y-117990062D01*
X119668834Y-117995046D01*
X119724767Y-118036918D01*
X119749184Y-118102382D01*
X119749500Y-118111228D01*
X119749500Y-122187770D01*
X119729815Y-122254809D01*
X119713181Y-122275451D01*
X116920596Y-125068035D01*
X116859273Y-125101520D01*
X116813517Y-125102827D01*
X116616358Y-125071600D01*
X116616353Y-125071600D01*
X116383647Y-125071600D01*
X116383642Y-125071600D01*
X116153806Y-125108002D01*
X115932486Y-125179914D01*
X115725145Y-125285561D01*
X115536893Y-125422333D01*
X115536888Y-125422337D01*
X115372337Y-125586888D01*
X115372333Y-125586893D01*
X115235561Y-125775145D01*
X115129914Y-125982486D01*
X115058002Y-126203806D01*
X115021600Y-126433641D01*
X115021600Y-126666358D01*
X115058002Y-126896193D01*
X115129914Y-127117513D01*
X115235561Y-127324854D01*
X115372333Y-127513106D01*
X115372337Y-127513111D01*
X115536888Y-127677662D01*
X115536893Y-127677666D01*
X115645862Y-127756836D01*
X115725149Y-127814441D01*
X115857266Y-127881758D01*
X115932486Y-127920085D01*
X115932488Y-127920085D01*
X115932491Y-127920087D01*
X116051122Y-127958632D01*
X116153806Y-127991997D01*
X116383642Y-128028400D01*
X116383647Y-128028400D01*
X116616358Y-128028400D01*
X116846193Y-127991997D01*
X116847698Y-127991508D01*
X117067509Y-127920087D01*
X117274851Y-127814441D01*
X117463113Y-127677661D01*
X117627661Y-127513113D01*
X117764441Y-127324851D01*
X117870087Y-127117509D01*
X117941997Y-126896193D01*
X117963385Y-126761154D01*
X117978400Y-126666358D01*
X117978400Y-126438313D01*
X117978400Y-126433647D01*
X117978399Y-126433641D01*
X121521599Y-126433641D01*
X121521599Y-126666358D01*
X121558001Y-126896193D01*
X121629913Y-127117513D01*
X121735560Y-127324854D01*
X121872332Y-127513106D01*
X121872336Y-127513111D01*
X122036887Y-127677662D01*
X122036892Y-127677666D01*
X122145861Y-127756836D01*
X122225148Y-127814441D01*
X122357265Y-127881758D01*
X122432485Y-127920085D01*
X122432487Y-127920085D01*
X122432490Y-127920087D01*
X122551121Y-127958632D01*
X122653805Y-127991997D01*
X122883641Y-128028400D01*
X122883646Y-128028400D01*
X123116357Y-128028400D01*
X123346192Y-127991997D01*
X123347697Y-127991508D01*
X123567508Y-127920087D01*
X123774850Y-127814441D01*
X123963112Y-127677661D01*
X124127660Y-127513113D01*
X124264440Y-127324851D01*
X124370086Y-127117509D01*
X124441996Y-126896193D01*
X124463384Y-126761154D01*
X124478399Y-126666358D01*
X124478399Y-126433641D01*
X124441996Y-126203806D01*
X124404543Y-126088540D01*
X124370086Y-125982491D01*
X124370084Y-125982488D01*
X124370084Y-125982486D01*
X124304575Y-125853919D01*
X124264440Y-125775149D01*
X124207455Y-125696715D01*
X124127665Y-125586893D01*
X124127661Y-125586888D01*
X123963110Y-125422337D01*
X123963105Y-125422333D01*
X123774853Y-125285561D01*
X123774852Y-125285560D01*
X123774850Y-125285559D01*
X123710100Y-125252567D01*
X123567512Y-125179914D01*
X123346192Y-125108002D01*
X123116357Y-125071600D01*
X123116352Y-125071600D01*
X122883646Y-125071600D01*
X122883641Y-125071600D01*
X122653805Y-125108002D01*
X122432485Y-125179914D01*
X122225144Y-125285561D01*
X122036892Y-125422333D01*
X122036887Y-125422337D01*
X121872336Y-125586888D01*
X121872332Y-125586893D01*
X121735560Y-125775145D01*
X121629913Y-125982486D01*
X121558001Y-126203806D01*
X121521599Y-126433641D01*
X117978399Y-126433641D01*
X117947103Y-126236043D01*
X117951682Y-126201576D01*
X117956126Y-126167187D01*
X117956281Y-126166959D01*
X117956305Y-126166782D01*
X117956810Y-126166185D01*
X117981961Y-126129404D01*
X121082951Y-123028416D01*
X121165084Y-122905495D01*
X121221658Y-122768913D01*
X121250500Y-122623918D01*
X121250500Y-122476083D01*
X121250500Y-119883687D01*
X121522099Y-119883687D01*
X121522099Y-120116312D01*
X121558490Y-120346077D01*
X121630373Y-120567314D01*
X121735988Y-120774591D01*
X121793160Y-120853282D01*
X121793161Y-120853283D01*
X122342396Y-120304048D01*
X122358487Y-120342895D01*
X122437709Y-120461460D01*
X122538539Y-120562290D01*
X122657104Y-120641512D01*
X122695949Y-120657602D01*
X122146714Y-121206836D01*
X122225410Y-121264012D01*
X122432684Y-121369625D01*
X122653921Y-121441508D01*
X122883687Y-121477900D01*
X123116311Y-121477900D01*
X123346076Y-121441508D01*
X123567313Y-121369625D01*
X123774579Y-121264016D01*
X123774585Y-121264012D01*
X123853281Y-121206836D01*
X123853282Y-121206836D01*
X123304047Y-120657602D01*
X123342894Y-120641512D01*
X123461459Y-120562290D01*
X123562289Y-120461460D01*
X123641511Y-120342895D01*
X123657601Y-120304049D01*
X124206835Y-120853283D01*
X124206835Y-120853282D01*
X124264011Y-120774586D01*
X124264015Y-120774580D01*
X124369624Y-120567314D01*
X124441507Y-120346077D01*
X124477899Y-120116312D01*
X124477899Y-119883687D01*
X124441507Y-119653922D01*
X124369624Y-119432685D01*
X124264011Y-119225411D01*
X124206835Y-119146716D01*
X124206835Y-119146715D01*
X123657601Y-119695950D01*
X123641511Y-119657105D01*
X123562289Y-119538540D01*
X123461459Y-119437710D01*
X123342894Y-119358488D01*
X123304047Y-119342397D01*
X123853282Y-118793162D01*
X123853281Y-118793161D01*
X123774590Y-118735989D01*
X123567313Y-118630374D01*
X123346076Y-118558491D01*
X123116311Y-118522100D01*
X122883687Y-118522100D01*
X122653921Y-118558491D01*
X122432684Y-118630374D01*
X122225414Y-118735985D01*
X122146715Y-118793162D01*
X122695950Y-119342397D01*
X122657104Y-119358488D01*
X122538539Y-119437710D01*
X122437709Y-119538540D01*
X122358487Y-119657105D01*
X122342396Y-119695951D01*
X121793161Y-119146716D01*
X121735984Y-119225415D01*
X121630373Y-119432685D01*
X121558490Y-119653922D01*
X121522099Y-119883687D01*
X121250500Y-119883687D01*
X121250500Y-116362230D01*
X121270185Y-116295191D01*
X121286819Y-116274549D01*
X122039784Y-115521584D01*
X123282952Y-114278416D01*
X123332186Y-114204729D01*
X123365084Y-114155495D01*
X123421658Y-114018913D01*
X123450500Y-113873918D01*
X123450500Y-110314655D01*
X129112500Y-110314655D01*
X129112500Y-111500000D01*
X130106606Y-111500000D01*
X130075000Y-111658895D01*
X130075000Y-111841105D01*
X130106606Y-112000000D01*
X129112500Y-112000000D01*
X129112500Y-113185344D01*
X129118901Y-113244872D01*
X129118903Y-113244879D01*
X129169145Y-113379586D01*
X129169149Y-113379593D01*
X129255309Y-113494687D01*
X129255312Y-113494690D01*
X129370406Y-113580850D01*
X129370413Y-113580854D01*
X129505120Y-113631096D01*
X129505127Y-113631098D01*
X129564655Y-113637499D01*
X129564672Y-113637500D01*
X130750000Y-113637500D01*
X130750000Y-112643394D01*
X130908895Y-112675000D01*
X131091105Y-112675000D01*
X131250000Y-112643394D01*
X131250000Y-113637500D01*
X132435328Y-113637500D01*
X132435344Y-113637499D01*
X132494872Y-113631098D01*
X132494879Y-113631096D01*
X132629586Y-113580854D01*
X132629593Y-113580850D01*
X132744687Y-113494690D01*
X132744690Y-113494687D01*
X132830850Y-113379593D01*
X132830854Y-113379586D01*
X132881096Y-113244879D01*
X132881098Y-113244872D01*
X132887499Y-113185344D01*
X132887500Y-113185327D01*
X132887500Y-112000000D01*
X131893394Y-112000000D01*
X131925000Y-111841105D01*
X131925000Y-111658895D01*
X131893394Y-111500000D01*
X132887500Y-111500000D01*
X132887500Y-110314672D01*
X132887499Y-110314655D01*
X132881098Y-110255127D01*
X132881096Y-110255120D01*
X132830854Y-110120413D01*
X132830850Y-110120406D01*
X132744690Y-110005312D01*
X132744687Y-110005309D01*
X132629593Y-109919149D01*
X132629586Y-109919145D01*
X132494879Y-109868903D01*
X132494872Y-109868901D01*
X132435344Y-109862500D01*
X131250000Y-109862500D01*
X131250000Y-110856605D01*
X131091105Y-110825000D01*
X130908895Y-110825000D01*
X130750000Y-110856605D01*
X130750000Y-109862500D01*
X129564655Y-109862500D01*
X129505127Y-109868901D01*
X129505120Y-109868903D01*
X129370413Y-109919145D01*
X129370406Y-109919149D01*
X129255312Y-110005309D01*
X129255309Y-110005312D01*
X129169149Y-110120406D01*
X129169145Y-110120413D01*
X129118903Y-110255120D01*
X129118901Y-110255127D01*
X129112500Y-110314655D01*
X123450500Y-110314655D01*
X123450500Y-101311229D01*
X123470185Y-101244190D01*
X123522989Y-101198435D01*
X123592147Y-101188491D01*
X123655703Y-101217516D01*
X123662181Y-101223548D01*
X128317049Y-105878416D01*
X128421584Y-105982951D01*
X128421585Y-105982952D01*
X128544498Y-106065080D01*
X128544511Y-106065087D01*
X128681082Y-106121656D01*
X128681087Y-106121658D01*
X128681091Y-106121658D01*
X128681092Y-106121659D01*
X128826079Y-106150500D01*
X128826082Y-106150500D01*
X128826083Y-106150500D01*
X128973917Y-106150500D01*
X129184456Y-106150500D01*
X129251495Y-106170185D01*
X129297250Y-106222989D01*
X129299016Y-106227046D01*
X129303063Y-106236818D01*
X129303069Y-106236829D01*
X129303071Y-106236833D01*
X129426817Y-106451167D01*
X129426822Y-106451173D01*
X129426823Y-106451175D01*
X129577479Y-106647514D01*
X129577485Y-106647521D01*
X129752478Y-106822514D01*
X129752484Y-106822519D01*
X129948833Y-106973183D01*
X129948840Y-106973187D01*
X130163159Y-107096925D01*
X130163164Y-107096927D01*
X130163167Y-107096929D01*
X130391820Y-107191640D01*
X130630879Y-107255696D01*
X130876254Y-107288000D01*
X130876261Y-107288000D01*
X131123739Y-107288000D01*
X131123746Y-107288000D01*
X131369121Y-107255696D01*
X131608180Y-107191640D01*
X131836833Y-107096929D01*
X132051167Y-106973183D01*
X132247516Y-106822519D01*
X132422519Y-106647516D01*
X132573183Y-106451167D01*
X132696929Y-106236833D01*
X132791640Y-106008180D01*
X132855696Y-105769121D01*
X132888000Y-105523746D01*
X132888000Y-105276254D01*
X132855696Y-105030879D01*
X132791640Y-104791820D01*
X132696929Y-104563167D01*
X132696927Y-104563164D01*
X132696925Y-104563159D01*
X132573187Y-104348840D01*
X132573183Y-104348833D01*
X132422519Y-104152484D01*
X132422514Y-104152478D01*
X132247521Y-103977485D01*
X132247514Y-103977479D01*
X132051175Y-103826823D01*
X132051173Y-103826821D01*
X132051167Y-103826817D01*
X132051162Y-103826814D01*
X132051159Y-103826812D01*
X131836840Y-103703074D01*
X131836829Y-103703069D01*
X131608184Y-103608361D01*
X131369117Y-103544303D01*
X131123756Y-103512001D01*
X131123751Y-103512000D01*
X131123746Y-103512000D01*
X130876254Y-103512000D01*
X130876248Y-103512000D01*
X130876243Y-103512001D01*
X130630882Y-103544303D01*
X130391815Y-103608361D01*
X130163170Y-103703069D01*
X130163159Y-103703074D01*
X129948840Y-103826812D01*
X129948824Y-103826823D01*
X129752485Y-103977479D01*
X129752478Y-103977485D01*
X129577485Y-104152478D01*
X129577479Y-104152485D01*
X129426823Y-104348824D01*
X129426817Y-104348833D01*
X129318521Y-104536406D01*
X129267954Y-104584621D01*
X129199346Y-104597843D01*
X129134482Y-104571875D01*
X129123453Y-104562086D01*
X123636819Y-99075451D01*
X123622115Y-99048523D01*
X123605523Y-99022705D01*
X123604631Y-99016504D01*
X123603334Y-99014128D01*
X123600500Y-98987770D01*
X123600500Y-98926260D01*
X129112000Y-98926260D01*
X129112000Y-99173739D01*
X129112001Y-99173756D01*
X129144303Y-99419117D01*
X129208361Y-99658184D01*
X129303069Y-99886829D01*
X129303074Y-99886840D01*
X129426812Y-100101159D01*
X129426823Y-100101175D01*
X129577479Y-100297514D01*
X129577485Y-100297521D01*
X129752478Y-100472514D01*
X129752484Y-100472519D01*
X129948833Y-100623183D01*
X129948840Y-100623187D01*
X130163159Y-100746925D01*
X130163164Y-100746927D01*
X130163167Y-100746929D01*
X130391820Y-100841640D01*
X130630879Y-100905696D01*
X130876254Y-100938000D01*
X130876261Y-100938000D01*
X131123739Y-100938000D01*
X131123746Y-100938000D01*
X131369121Y-100905696D01*
X131608180Y-100841640D01*
X131836833Y-100746929D01*
X132051167Y-100623183D01*
X132247516Y-100472519D01*
X132422519Y-100297516D01*
X132573183Y-100101167D01*
X132696929Y-99886833D01*
X132791640Y-99658180D01*
X132855696Y-99419121D01*
X132888000Y-99173746D01*
X132888000Y-98926254D01*
X132855696Y-98680879D01*
X132791640Y-98441820D01*
X132696929Y-98213167D01*
X132696927Y-98213164D01*
X132696925Y-98213159D01*
X132573187Y-97998840D01*
X132573183Y-97998833D01*
X132466877Y-97860292D01*
X132422520Y-97802485D01*
X132422514Y-97802478D01*
X132247521Y-97627485D01*
X132247514Y-97627479D01*
X132051175Y-97476823D01*
X132051173Y-97476821D01*
X132051167Y-97476817D01*
X132051162Y-97476814D01*
X132051159Y-97476812D01*
X131836840Y-97353074D01*
X131836829Y-97353069D01*
X131608184Y-97258361D01*
X131369117Y-97194303D01*
X131123756Y-97162001D01*
X131123751Y-97162000D01*
X131123746Y-97162000D01*
X130876254Y-97162000D01*
X130876248Y-97162000D01*
X130876243Y-97162001D01*
X130630882Y-97194303D01*
X130391815Y-97258361D01*
X130163170Y-97353069D01*
X130163159Y-97353074D01*
X129948840Y-97476812D01*
X129948824Y-97476823D01*
X129752485Y-97627479D01*
X129752478Y-97627485D01*
X129577485Y-97802478D01*
X129577479Y-97802485D01*
X129426823Y-97998824D01*
X129426812Y-97998840D01*
X129303074Y-98213159D01*
X129303069Y-98213170D01*
X129208361Y-98441815D01*
X129144303Y-98680882D01*
X129112001Y-98926243D01*
X129112000Y-98926260D01*
X123600500Y-98926260D01*
X123600500Y-88582651D01*
X129108538Y-88582651D01*
X129911412Y-88582651D01*
X129894195Y-88592591D01*
X129838340Y-88648446D01*
X129798844Y-88716855D01*
X129778400Y-88793155D01*
X129778400Y-88872147D01*
X129798844Y-88948447D01*
X129838340Y-89016856D01*
X129894195Y-89072711D01*
X129911412Y-89082651D01*
X129108538Y-89082651D01*
X129116830Y-89124341D01*
X129116830Y-89124343D01*
X129192207Y-89306322D01*
X129192214Y-89306335D01*
X129301648Y-89470113D01*
X129301651Y-89470117D01*
X129440933Y-89609399D01*
X129440937Y-89609402D01*
X129604715Y-89718836D01*
X129604728Y-89718843D01*
X129786706Y-89794220D01*
X129786718Y-89794223D01*
X129979904Y-89832650D01*
X129979908Y-89832651D01*
X130378400Y-89832651D01*
X130378400Y-89132651D01*
X130878400Y-89132651D01*
X130878400Y-89832651D01*
X131276892Y-89832651D01*
X131276895Y-89832650D01*
X131470081Y-89794223D01*
X131470093Y-89794220D01*
X131652071Y-89718843D01*
X131652084Y-89718836D01*
X131815862Y-89609402D01*
X131815866Y-89609399D01*
X131955148Y-89470117D01*
X131955151Y-89470113D01*
X132064585Y-89306335D01*
X132064592Y-89306322D01*
X132139969Y-89124343D01*
X132139969Y-89124341D01*
X132148262Y-89082651D01*
X131345388Y-89082651D01*
X131362605Y-89072711D01*
X131418460Y-89016856D01*
X131457956Y-88948447D01*
X131478400Y-88872147D01*
X131478400Y-88793155D01*
X131457956Y-88716855D01*
X131418460Y-88648446D01*
X131362605Y-88592591D01*
X131345388Y-88582651D01*
X132148263Y-88582651D01*
X132139970Y-88540962D01*
X132139969Y-88540958D01*
X132064592Y-88358979D01*
X132064585Y-88358966D01*
X131955151Y-88195188D01*
X131955148Y-88195184D01*
X131815866Y-88055902D01*
X131811155Y-88052036D01*
X131812061Y-88050931D01*
X131771854Y-88002821D01*
X131763145Y-87933496D01*
X131782447Y-87884438D01*
X131791374Y-87871078D01*
X131851548Y-87781021D01*
X131913776Y-87630789D01*
X131945500Y-87471305D01*
X131945500Y-87308695D01*
X131945500Y-87308692D01*
X131913777Y-87149216D01*
X131913776Y-87149215D01*
X131913776Y-87149211D01*
X131913774Y-87149206D01*
X131851549Y-86998980D01*
X131851547Y-86998976D01*
X131761211Y-86863779D01*
X131761205Y-86863771D01*
X131646227Y-86748793D01*
X131646220Y-86748788D01*
X131511023Y-86658452D01*
X131511019Y-86658450D01*
X131360793Y-86596225D01*
X131360783Y-86596222D01*
X131201307Y-86564500D01*
X131201305Y-86564500D01*
X131038695Y-86564500D01*
X131038693Y-86564500D01*
X130879216Y-86596222D01*
X130879206Y-86596225D01*
X130728980Y-86658450D01*
X130728976Y-86658452D01*
X130593779Y-86748788D01*
X130593773Y-86748793D01*
X130478794Y-86863771D01*
X130478788Y-86863779D01*
X130388452Y-86998976D01*
X130388450Y-86998980D01*
X130326225Y-87149206D01*
X130326222Y-87149216D01*
X130294500Y-87308692D01*
X130294500Y-87308695D01*
X130294500Y-87471305D01*
X130294500Y-87471307D01*
X130294499Y-87471307D01*
X130326222Y-87630783D01*
X130326224Y-87630789D01*
X130338820Y-87661198D01*
X130346289Y-87730668D01*
X130315014Y-87793147D01*
X130254925Y-87828799D01*
X130224259Y-87832651D01*
X129979904Y-87832651D01*
X129786718Y-87871078D01*
X129786706Y-87871081D01*
X129604728Y-87946458D01*
X129604715Y-87946465D01*
X129440937Y-88055899D01*
X129440933Y-88055902D01*
X129301651Y-88195184D01*
X129301648Y-88195188D01*
X129192214Y-88358966D01*
X129192207Y-88358979D01*
X129116830Y-88540958D01*
X129116830Y-88540960D01*
X129108538Y-88582651D01*
X123600500Y-88582651D01*
X123600500Y-86511999D01*
X123620185Y-86444960D01*
X123672989Y-86399205D01*
X123724500Y-86387999D01*
X124285371Y-86387999D01*
X124285372Y-86387999D01*
X124344983Y-86381591D01*
X124479831Y-86331296D01*
X124595046Y-86245046D01*
X124681296Y-86129831D01*
X124731591Y-85994983D01*
X124738000Y-85935373D01*
X124737999Y-83064628D01*
X124731591Y-83005017D01*
X124729837Y-83000315D01*
X124681297Y-82870171D01*
X124681293Y-82870164D01*
X124595047Y-82754955D01*
X124595044Y-82754952D01*
X124479835Y-82668706D01*
X124479828Y-82668702D01*
X124344982Y-82618408D01*
X124344983Y-82618408D01*
X124285383Y-82612001D01*
X124285381Y-82612000D01*
X124285373Y-82612000D01*
X124285365Y-82612000D01*
X123599500Y-82612000D01*
X123532461Y-82592315D01*
X123486706Y-82539511D01*
X123475500Y-82488000D01*
X123475500Y-79309499D01*
X123495185Y-79242460D01*
X123547989Y-79196705D01*
X123599500Y-79185499D01*
X123917371Y-79185499D01*
X123917372Y-79185499D01*
X123976983Y-79179091D01*
X124111831Y-79128796D01*
X124125691Y-79118419D01*
X124191150Y-79094003D01*
X124259423Y-79108853D01*
X124274294Y-79118409D01*
X124288169Y-79128796D01*
X124288173Y-79128797D01*
X124288174Y-79128798D01*
X124423017Y-79179091D01*
X124423016Y-79179091D01*
X124429944Y-79179835D01*
X124482627Y-79185500D01*
X125863372Y-79185499D01*
X125922983Y-79179091D01*
X126057831Y-79128796D01*
X126173046Y-79042546D01*
X126259296Y-78927331D01*
X126309591Y-78792483D01*
X126311676Y-78773083D01*
X126338411Y-78708536D01*
X126395803Y-78668687D01*
X126465628Y-78666191D01*
X126522645Y-78698657D01*
X126546956Y-78722968D01*
X126565596Y-78734465D01*
X126612321Y-78786412D01*
X126624500Y-78840004D01*
X126624500Y-81811611D01*
X126648535Y-81932444D01*
X126648540Y-81932461D01*
X126690061Y-82032702D01*
X126698050Y-82072865D01*
X126698903Y-82072782D01*
X126699500Y-82078846D01*
X126730261Y-82233489D01*
X126730264Y-82233501D01*
X126790602Y-82379172D01*
X126790609Y-82379185D01*
X126878210Y-82510288D01*
X126878213Y-82510292D01*
X126989707Y-82621786D01*
X126989711Y-82621789D01*
X127120814Y-82709390D01*
X127120827Y-82709397D01*
X127266498Y-82769735D01*
X127266503Y-82769737D01*
X127421153Y-82800499D01*
X127421156Y-82800500D01*
X127421158Y-82800500D01*
X127578844Y-82800500D01*
X127578845Y-82800499D01*
X127733497Y-82769737D01*
X127879179Y-82709394D01*
X128010289Y-82621789D01*
X128121789Y-82510289D01*
X128209394Y-82379179D01*
X128269737Y-82233497D01*
X128300500Y-82078842D01*
X128300500Y-81921158D01*
X128300500Y-81921155D01*
X128300499Y-81921153D01*
X128286503Y-81850793D01*
X128269737Y-81766503D01*
X128258833Y-81740178D01*
X128209397Y-81620827D01*
X128209390Y-81620814D01*
X128121789Y-81489711D01*
X128121786Y-81489707D01*
X128010292Y-81378213D01*
X128010288Y-81378210D01*
X127930609Y-81324970D01*
X127885804Y-81271358D01*
X127875500Y-81221868D01*
X127875500Y-78840004D01*
X127895185Y-78772965D01*
X127934403Y-78734465D01*
X127953044Y-78722968D01*
X128072968Y-78603044D01*
X128162003Y-78458697D01*
X128215349Y-78297708D01*
X128225500Y-78198345D01*
X128225499Y-77651656D01*
X128222348Y-77620814D01*
X128215349Y-77552292D01*
X128215348Y-77552289D01*
X128194612Y-77489711D01*
X128162003Y-77391303D01*
X128161999Y-77391297D01*
X128161998Y-77391294D01*
X128072970Y-77246959D01*
X128072967Y-77246955D01*
X128063339Y-77237327D01*
X128029854Y-77176004D01*
X128034838Y-77106312D01*
X128063345Y-77061959D01*
X128072573Y-77052731D01*
X128161542Y-76908492D01*
X128161547Y-76908481D01*
X128214855Y-76747606D01*
X128224999Y-76648322D01*
X128225000Y-76648309D01*
X128225000Y-76625000D01*
X127374000Y-76625000D01*
X127306961Y-76605315D01*
X127261206Y-76552511D01*
X127250000Y-76501000D01*
X127250000Y-76375000D01*
X127124000Y-76375000D01*
X127056961Y-76355315D01*
X127011206Y-76302511D01*
X127000000Y-76251000D01*
X127000000Y-75425000D01*
X126999999Y-75424999D01*
X126951693Y-75425000D01*
X126951675Y-75425001D01*
X126852392Y-75435144D01*
X126691518Y-75488452D01*
X126691513Y-75488454D01*
X126664596Y-75505058D01*
X126597204Y-75523498D01*
X126530540Y-75502576D01*
X126485770Y-75448934D01*
X126475499Y-75399519D01*
X126475499Y-75313330D01*
X126475498Y-75313313D01*
X126465174Y-75212247D01*
X126458003Y-75190606D01*
X126410908Y-75048484D01*
X126320340Y-74901650D01*
X126206017Y-74787327D01*
X126172532Y-74726004D01*
X126177516Y-74656312D01*
X126206017Y-74611964D01*
X126319948Y-74498033D01*
X126410448Y-74351311D01*
X126410453Y-74351300D01*
X126464680Y-74187652D01*
X126474999Y-74086654D01*
X126475000Y-74086641D01*
X126475000Y-74037500D01*
X124525001Y-74037500D01*
X124525001Y-74086654D01*
X124535319Y-74187652D01*
X124589546Y-74351300D01*
X124589551Y-74351311D01*
X124680052Y-74498034D01*
X124680055Y-74498038D01*
X124793982Y-74611965D01*
X124827467Y-74673288D01*
X124822483Y-74742980D01*
X124793983Y-74787327D01*
X124679657Y-74901653D01*
X124671785Y-74914416D01*
X124619836Y-74961140D01*
X124550873Y-74972360D01*
X124518796Y-74963878D01*
X124413501Y-74920264D01*
X124413489Y-74920261D01*
X124258845Y-74889500D01*
X124258842Y-74889500D01*
X124101158Y-74889500D01*
X124101155Y-74889500D01*
X123946510Y-74920261D01*
X123946498Y-74920264D01*
X123800827Y-74980602D01*
X123800814Y-74980609D01*
X123669711Y-75068210D01*
X123669707Y-75068213D01*
X123558213Y-75179707D01*
X123558210Y-75179711D01*
X123470609Y-75310814D01*
X123470602Y-75310827D01*
X123410264Y-75456498D01*
X123410261Y-75456510D01*
X123379500Y-75611153D01*
X123379500Y-75768846D01*
X123410261Y-75923489D01*
X123410263Y-75923497D01*
X123470602Y-76069172D01*
X123470609Y-76069185D01*
X123558210Y-76200288D01*
X123558213Y-76200292D01*
X123669707Y-76311786D01*
X123669711Y-76311789D01*
X123800814Y-76399390D01*
X123800827Y-76399397D01*
X123946498Y-76459735D01*
X123946503Y-76459737D01*
X124073312Y-76484961D01*
X124101153Y-76490499D01*
X124101156Y-76490500D01*
X124101158Y-76490500D01*
X124258844Y-76490500D01*
X124258845Y-76490499D01*
X124413497Y-76459737D01*
X124559179Y-76399394D01*
X124592372Y-76377214D01*
X124659048Y-76356336D01*
X124726428Y-76374820D01*
X124748943Y-76392634D01*
X124801648Y-76445338D01*
X124801650Y-76445340D01*
X124865888Y-76484962D01*
X124912611Y-76536909D01*
X124923834Y-76605872D01*
X124895990Y-76669954D01*
X124837922Y-76708810D01*
X124800790Y-76714500D01*
X124482630Y-76714500D01*
X124482623Y-76714501D01*
X124423016Y-76720908D01*
X124288171Y-76771202D01*
X124288168Y-76771204D01*
X124274311Y-76781578D01*
X124208846Y-76805995D01*
X124140573Y-76791143D01*
X124125689Y-76781578D01*
X124111831Y-76771204D01*
X124111828Y-76771202D01*
X123976982Y-76720908D01*
X123976983Y-76720908D01*
X123917383Y-76714501D01*
X123917381Y-76714500D01*
X123917373Y-76714500D01*
X123917365Y-76714500D01*
X122927453Y-76714500D01*
X122860414Y-76694815D01*
X122839772Y-76678181D01*
X122219928Y-76058338D01*
X122219925Y-76058334D01*
X122219925Y-76058335D01*
X122212858Y-76051268D01*
X122212858Y-76051267D01*
X122125733Y-75964142D01*
X122125732Y-75964141D01*
X122125731Y-75964140D01*
X122064904Y-75923497D01*
X122059274Y-75919735D01*
X122023286Y-75895688D01*
X121935663Y-75859394D01*
X121935661Y-75859392D01*
X121909458Y-75848539D01*
X121909454Y-75848537D01*
X121909452Y-75848537D01*
X121909448Y-75848536D01*
X121909444Y-75848535D01*
X121846074Y-75835930D01*
X121846073Y-75835930D01*
X121788611Y-75824500D01*
X121782546Y-75823903D01*
X121782764Y-75821685D01*
X121725311Y-75804815D01*
X121723459Y-75803602D01*
X121629184Y-75740609D01*
X121629172Y-75740602D01*
X121483501Y-75680264D01*
X121483489Y-75680261D01*
X121328845Y-75649500D01*
X121328842Y-75649500D01*
X121171158Y-75649500D01*
X121171155Y-75649500D01*
X121016510Y-75680261D01*
X121016498Y-75680264D01*
X120870827Y-75740602D01*
X120870814Y-75740609D01*
X120739711Y-75828210D01*
X120739707Y-75828213D01*
X120628213Y-75939707D01*
X120628210Y-75939711D01*
X120540609Y-76070814D01*
X120540602Y-76070827D01*
X120480264Y-76216498D01*
X120480261Y-76216510D01*
X120449500Y-76371153D01*
X120449500Y-76528846D01*
X120480261Y-76683489D01*
X120480264Y-76683501D01*
X120499549Y-76730059D01*
X120507018Y-76799528D01*
X120475742Y-76862007D01*
X120415653Y-76897659D01*
X120345828Y-76895165D01*
X120319892Y-76883050D01*
X120169340Y-76790189D01*
X120169335Y-76790187D01*
X120169334Y-76790186D01*
X120002797Y-76735001D01*
X120002795Y-76735000D01*
X119900010Y-76724500D01*
X119299998Y-76724500D01*
X119299980Y-76724501D01*
X119197203Y-76735000D01*
X119197200Y-76735001D01*
X119030668Y-76790185D01*
X119030663Y-76790187D01*
X118881342Y-76882289D01*
X118757288Y-77006343D01*
X118757283Y-77006349D01*
X118755241Y-77009661D01*
X118753247Y-77011453D01*
X118752807Y-77012011D01*
X118752711Y-77011935D01*
X118703291Y-77056383D01*
X118634328Y-77067602D01*
X118570247Y-77039755D01*
X118544168Y-77009656D01*
X118542319Y-77006659D01*
X118542316Y-77006655D01*
X118418345Y-76882684D01*
X118269124Y-76790643D01*
X118269119Y-76790641D01*
X118102697Y-76735494D01*
X118102690Y-76735493D01*
X117999986Y-76725000D01*
X117950000Y-76725000D01*
X117950000Y-79174999D01*
X117999972Y-79174999D01*
X117999986Y-79174998D01*
X118102697Y-79164505D01*
X118269119Y-79109358D01*
X118269124Y-79109356D01*
X118418345Y-79017315D01*
X118542318Y-78893342D01*
X118544165Y-78890348D01*
X118545969Y-78888724D01*
X118546798Y-78887677D01*
X118546976Y-78887818D01*
X118596110Y-78843621D01*
X118665073Y-78832396D01*
X118729156Y-78860236D01*
X118755243Y-78890341D01*
X118757288Y-78893656D01*
X118881344Y-79017712D01*
X119030666Y-79109814D01*
X119197203Y-79164999D01*
X119299991Y-79175500D01*
X119900008Y-79175499D01*
X119900016Y-79175498D01*
X119900019Y-79175498D01*
X119956302Y-79169748D01*
X120002797Y-79164999D01*
X120169334Y-79109814D01*
X120318656Y-79017712D01*
X120442712Y-78893656D01*
X120454041Y-78875289D01*
X120462420Y-78861705D01*
X120514367Y-78814979D01*
X120567959Y-78802800D01*
X121126000Y-78802800D01*
X121193039Y-78822485D01*
X121238794Y-78875289D01*
X121250000Y-78926800D01*
X121250000Y-79052800D01*
X121376000Y-79052800D01*
X121443039Y-79072485D01*
X121488794Y-79125289D01*
X121500000Y-79176800D01*
X121500000Y-79855600D01*
X121547828Y-79855600D01*
X121547844Y-79855599D01*
X121607372Y-79849198D01*
X121607379Y-79849196D01*
X121742086Y-79798954D01*
X121742093Y-79798950D01*
X121857187Y-79712790D01*
X121857190Y-79712787D01*
X121943350Y-79597693D01*
X121943354Y-79597686D01*
X121984318Y-79487857D01*
X122026189Y-79431923D01*
X122091653Y-79407506D01*
X122159926Y-79422358D01*
X122209332Y-79471763D01*
X122224500Y-79531190D01*
X122224500Y-82488000D01*
X122204815Y-82555039D01*
X122152011Y-82600794D01*
X122100500Y-82612000D01*
X121414629Y-82612000D01*
X121414623Y-82612001D01*
X121355016Y-82618408D01*
X121220171Y-82668702D01*
X121220164Y-82668706D01*
X121104955Y-82754952D01*
X121104952Y-82754955D01*
X121018706Y-82870164D01*
X121018702Y-82870171D01*
X120968408Y-83005017D01*
X120962001Y-83064616D01*
X120962001Y-83064623D01*
X120962000Y-83064635D01*
X120962000Y-85452046D01*
X120942315Y-85519085D01*
X120925685Y-85539723D01*
X120914732Y-85550677D01*
X120853411Y-85584165D01*
X120827047Y-85587000D01*
X118266692Y-85587000D01*
X118199653Y-85567315D01*
X118153898Y-85514511D01*
X118143954Y-85445353D01*
X118159305Y-85400999D01*
X118196479Y-85336611D01*
X118196481Y-85336607D01*
X118291162Y-85108028D01*
X118291165Y-85108018D01*
X118355202Y-84869025D01*
X118355204Y-84869014D01*
X118387499Y-84623720D01*
X118387500Y-84623706D01*
X118387500Y-84376293D01*
X118387499Y-84376279D01*
X118355204Y-84130985D01*
X118355202Y-84130974D01*
X118291165Y-83891981D01*
X118291162Y-83891971D01*
X118196481Y-83663392D01*
X118196476Y-83663381D01*
X118072770Y-83449118D01*
X118072764Y-83449110D01*
X117999683Y-83353869D01*
X117308501Y-84045050D01*
X117218495Y-83910347D01*
X117089653Y-83781505D01*
X116954948Y-83691497D01*
X117646129Y-83000315D01*
X117550889Y-82927235D01*
X117550881Y-82927229D01*
X117336618Y-82803523D01*
X117336607Y-82803518D01*
X117108028Y-82708837D01*
X117108018Y-82708834D01*
X116869025Y-82644797D01*
X116869014Y-82644795D01*
X116623720Y-82612500D01*
X116376279Y-82612500D01*
X116130985Y-82644795D01*
X116130974Y-82644797D01*
X115891981Y-82708834D01*
X115891971Y-82708837D01*
X115663392Y-82803518D01*
X115663381Y-82803523D01*
X115449118Y-82927229D01*
X115449101Y-82927240D01*
X115353869Y-83000314D01*
X115353869Y-83000315D01*
X116045051Y-83691497D01*
X115910347Y-83781505D01*
X115781505Y-83910347D01*
X115691497Y-84045051D01*
X115000315Y-83353869D01*
X115000314Y-83353869D01*
X114927240Y-83449101D01*
X114927229Y-83449118D01*
X114803523Y-83663381D01*
X114803518Y-83663392D01*
X114708837Y-83891971D01*
X114708834Y-83891981D01*
X114644797Y-84130974D01*
X114644795Y-84130985D01*
X114612500Y-84376279D01*
X114612500Y-84623720D01*
X114644795Y-84869014D01*
X114644797Y-84869025D01*
X114708834Y-85108018D01*
X114708837Y-85108028D01*
X114803518Y-85336607D01*
X114803520Y-85336611D01*
X114840695Y-85400999D01*
X114857168Y-85468899D01*
X114834316Y-85534926D01*
X114779395Y-85578117D01*
X114733308Y-85587000D01*
X111917270Y-85587000D01*
X111850231Y-85567315D01*
X111804476Y-85514511D01*
X111794532Y-85445353D01*
X111809883Y-85401000D01*
X111846925Y-85336840D01*
X111846925Y-85336839D01*
X111846929Y-85336833D01*
X111941640Y-85108180D01*
X112005696Y-84869121D01*
X112038000Y-84623746D01*
X112038000Y-84376254D01*
X112005696Y-84130879D01*
X111941640Y-83891820D01*
X111846929Y-83663167D01*
X111846927Y-83663164D01*
X111846925Y-83663159D01*
X111723187Y-83448840D01*
X111723183Y-83448833D01*
X111650315Y-83353869D01*
X111572520Y-83252485D01*
X111572514Y-83252478D01*
X111397521Y-83077485D01*
X111397514Y-83077479D01*
X111201175Y-82926823D01*
X111201173Y-82926821D01*
X111201167Y-82926817D01*
X111201162Y-82926814D01*
X111201159Y-82926812D01*
X110986840Y-82803074D01*
X110986829Y-82803069D01*
X110758184Y-82708361D01*
X110519117Y-82644303D01*
X110273756Y-82612001D01*
X110273751Y-82612000D01*
X110273746Y-82612000D01*
X110026254Y-82612000D01*
X110026248Y-82612000D01*
X110026243Y-82612001D01*
X109780882Y-82644303D01*
X109541815Y-82708361D01*
X109313170Y-82803069D01*
X109313159Y-82803074D01*
X109098840Y-82926812D01*
X109098824Y-82926823D01*
X108902485Y-83077479D01*
X108902478Y-83077485D01*
X108727485Y-83252478D01*
X108727479Y-83252485D01*
X108576823Y-83448824D01*
X108576812Y-83448840D01*
X108453074Y-83663159D01*
X108453069Y-83663170D01*
X108358361Y-83891815D01*
X108294303Y-84130882D01*
X108262001Y-84376243D01*
X108262000Y-84376260D01*
X108262000Y-84623739D01*
X108262001Y-84623756D01*
X108294303Y-84869117D01*
X108358361Y-85108184D01*
X108453069Y-85336829D01*
X108453074Y-85336840D01*
X108490117Y-85401000D01*
X108506590Y-85468900D01*
X108483737Y-85534927D01*
X108428816Y-85578118D01*
X108382730Y-85587000D01*
X107422952Y-85587000D01*
X107355913Y-85567315D01*
X107335271Y-85550681D01*
X102811819Y-81027229D01*
X102778334Y-80965906D01*
X102775500Y-80939548D01*
X102775500Y-79403444D01*
X120500000Y-79403444D01*
X120506401Y-79462972D01*
X120506403Y-79462979D01*
X120556645Y-79597686D01*
X120556649Y-79597693D01*
X120642809Y-79712787D01*
X120642812Y-79712790D01*
X120757906Y-79798950D01*
X120757913Y-79798954D01*
X120892620Y-79849196D01*
X120892627Y-79849198D01*
X120952155Y-79855599D01*
X120952172Y-79855600D01*
X121000000Y-79855600D01*
X121000000Y-79302800D01*
X120500000Y-79302800D01*
X120500000Y-79403444D01*
X102775500Y-79403444D01*
X102775500Y-74589818D01*
X104362500Y-74589818D01*
X104362500Y-74810181D01*
X104396973Y-75027835D01*
X104465067Y-75237410D01*
X104565111Y-75433756D01*
X104611432Y-75497513D01*
X105197887Y-74911058D01*
X105203389Y-74931591D01*
X105282381Y-75068408D01*
X105394092Y-75180119D01*
X105530909Y-75259111D01*
X105551439Y-75264612D01*
X104964985Y-75851065D01*
X104964985Y-75851066D01*
X105028743Y-75897388D01*
X105225089Y-75997432D01*
X105434664Y-76065526D01*
X105652319Y-76100000D01*
X105872681Y-76100000D01*
X106090335Y-76065526D01*
X106299910Y-75997432D01*
X106496260Y-75897386D01*
X106560013Y-75851066D01*
X106560014Y-75851066D01*
X105973559Y-75264612D01*
X105994091Y-75259111D01*
X106130908Y-75180119D01*
X106242619Y-75068408D01*
X106321611Y-74931591D01*
X106327112Y-74911060D01*
X106913566Y-75497514D01*
X106913566Y-75497513D01*
X106959886Y-75433760D01*
X107059933Y-75237407D01*
X107061797Y-75232910D01*
X107063524Y-75233625D01*
X107098447Y-75182533D01*
X107162800Y-75155322D01*
X107231649Y-75167223D01*
X107283134Y-75214457D01*
X107294665Y-75239507D01*
X107300952Y-75258481D01*
X107300957Y-75258492D01*
X107389924Y-75402728D01*
X107389927Y-75402732D01*
X107509766Y-75522571D01*
X107604578Y-75581052D01*
X107651302Y-75633000D01*
X107662525Y-75701963D01*
X107634681Y-75766045D01*
X107578486Y-75804296D01*
X107473492Y-75839088D01*
X107473481Y-75839093D01*
X107326648Y-75929661D01*
X107204661Y-76051648D01*
X107114093Y-76198481D01*
X107114091Y-76198486D01*
X107096690Y-76251000D01*
X107059826Y-76362247D01*
X107059826Y-76362248D01*
X107059825Y-76362248D01*
X107049500Y-76463315D01*
X107049500Y-76514547D01*
X107029815Y-76581586D01*
X107013181Y-76602228D01*
X106441203Y-77174205D01*
X106379880Y-77207690D01*
X106377714Y-77208141D01*
X106266508Y-77230261D01*
X106266498Y-77230264D01*
X106120827Y-77290602D01*
X106120814Y-77290609D01*
X105989711Y-77378210D01*
X105989707Y-77378213D01*
X105878213Y-77489707D01*
X105878210Y-77489711D01*
X105790609Y-77620814D01*
X105790602Y-77620827D01*
X105730264Y-77766498D01*
X105730261Y-77766510D01*
X105699500Y-77921153D01*
X105699500Y-78078846D01*
X105730261Y-78233489D01*
X105730264Y-78233501D01*
X105790602Y-78379172D01*
X105790609Y-78379185D01*
X105878210Y-78510288D01*
X105878213Y-78510292D01*
X105989707Y-78621786D01*
X105989711Y-78621789D01*
X106120814Y-78709390D01*
X106120827Y-78709397D01*
X106220060Y-78750500D01*
X106266503Y-78769737D01*
X106421153Y-78800499D01*
X106421156Y-78800500D01*
X106421158Y-78800500D01*
X106578844Y-78800500D01*
X106578845Y-78800499D01*
X106733497Y-78769737D01*
X106879179Y-78709394D01*
X107010289Y-78621789D01*
X107121789Y-78510289D01*
X107145378Y-78474986D01*
X116700001Y-78474986D01*
X116710494Y-78577697D01*
X116765641Y-78744119D01*
X116765643Y-78744124D01*
X116857684Y-78893345D01*
X116981654Y-79017315D01*
X117130875Y-79109356D01*
X117130880Y-79109358D01*
X117297302Y-79164505D01*
X117297309Y-79164506D01*
X117400019Y-79174999D01*
X117449999Y-79174998D01*
X117450000Y-79174998D01*
X117450000Y-78200000D01*
X116700001Y-78200000D01*
X116700001Y-78474986D01*
X107145378Y-78474986D01*
X107209394Y-78379179D01*
X107269737Y-78233497D01*
X107291858Y-78122282D01*
X107324240Y-78060376D01*
X107325737Y-78058851D01*
X107624769Y-77759819D01*
X107686090Y-77726336D01*
X107725051Y-77724144D01*
X107738323Y-77725500D01*
X108336676Y-77725499D01*
X108336684Y-77725498D01*
X108336687Y-77725498D01*
X108408570Y-77718155D01*
X108437753Y-77715174D01*
X108601516Y-77660908D01*
X108748350Y-77570340D01*
X108862319Y-77456371D01*
X108923642Y-77422886D01*
X108993334Y-77427870D01*
X109037681Y-77456371D01*
X109151650Y-77570340D01*
X109298484Y-77660908D01*
X109462247Y-77715174D01*
X109563323Y-77725500D01*
X110161676Y-77725499D01*
X110161684Y-77725498D01*
X110161687Y-77725498D01*
X110233570Y-77718155D01*
X110262753Y-77715174D01*
X110426516Y-77660908D01*
X110573350Y-77570340D01*
X110695340Y-77448350D01*
X110709734Y-77425013D01*
X116700000Y-77425013D01*
X116700000Y-77700000D01*
X117450000Y-77700000D01*
X117450000Y-76725000D01*
X117449999Y-76724999D01*
X117400029Y-76725000D01*
X117400011Y-76725001D01*
X117297302Y-76735494D01*
X117130880Y-76790641D01*
X117130875Y-76790643D01*
X116981654Y-76882684D01*
X116857684Y-77006654D01*
X116765643Y-77155875D01*
X116765641Y-77155880D01*
X116710494Y-77322302D01*
X116710493Y-77322309D01*
X116700000Y-77425013D01*
X110709734Y-77425013D01*
X110785908Y-77301516D01*
X110840174Y-77137753D01*
X110850500Y-77036677D01*
X110850499Y-76947950D01*
X110870183Y-76880913D01*
X110886813Y-76860275D01*
X111664982Y-76082106D01*
X111726303Y-76048623D01*
X111790978Y-76051857D01*
X111834549Y-76066015D01*
X112052278Y-76100500D01*
X112052279Y-76100500D01*
X112272721Y-76100500D01*
X112272722Y-76100500D01*
X112490451Y-76066015D01*
X112700106Y-75997895D01*
X112896522Y-75897815D01*
X113074865Y-75768242D01*
X113230742Y-75612365D01*
X113360315Y-75434022D01*
X113460395Y-75237606D01*
X113528515Y-75027951D01*
X113563000Y-74810222D01*
X113563000Y-74589778D01*
X113528515Y-74372049D01*
X113480204Y-74223360D01*
X113460396Y-74162396D01*
X113460395Y-74162393D01*
X113421803Y-74086654D01*
X113360315Y-73965978D01*
X113302690Y-73886663D01*
X113230747Y-73787641D01*
X113230743Y-73787636D01*
X113074863Y-73631756D01*
X113074858Y-73631752D01*
X112896525Y-73502187D01*
X112896524Y-73502186D01*
X112896522Y-73502185D01*
X112832836Y-73469735D01*
X112700106Y-73402104D01*
X112700103Y-73402103D01*
X112490452Y-73333985D01*
X112381586Y-73316742D01*
X112272722Y-73299500D01*
X112052278Y-73299500D01*
X111979701Y-73310995D01*
X111834547Y-73333985D01*
X111624896Y-73402103D01*
X111624893Y-73402104D01*
X111428474Y-73502187D01*
X111250141Y-73631752D01*
X111250136Y-73631756D01*
X111094256Y-73787636D01*
X111094252Y-73787641D01*
X110964687Y-73965973D01*
X110952733Y-73989433D01*
X110948741Y-73997271D01*
X110943888Y-74006795D01*
X110895914Y-74057591D01*
X110833403Y-74074500D01*
X110652504Y-74074500D01*
X110585465Y-74054815D01*
X110546965Y-74015596D01*
X110535468Y-73996956D01*
X110415544Y-73877032D01*
X110415540Y-73877029D01*
X110271205Y-73788001D01*
X110271199Y-73787998D01*
X110271197Y-73787997D01*
X110203601Y-73765598D01*
X110110209Y-73734651D01*
X110010846Y-73724500D01*
X109464162Y-73724500D01*
X109464144Y-73724501D01*
X109364792Y-73734650D01*
X109364789Y-73734651D01*
X109203805Y-73787996D01*
X109203794Y-73788001D01*
X109059459Y-73877029D01*
X109059453Y-73877033D01*
X109049824Y-73886663D01*
X108988500Y-73920146D01*
X108918808Y-73915159D01*
X108874465Y-73886660D01*
X108865232Y-73877427D01*
X108865228Y-73877424D01*
X108720992Y-73788457D01*
X108720981Y-73788452D01*
X108560106Y-73735144D01*
X108460822Y-73725000D01*
X108437500Y-73725000D01*
X108437500Y-74576000D01*
X108417815Y-74643039D01*
X108365011Y-74688794D01*
X108313500Y-74700000D01*
X108061500Y-74700000D01*
X107994461Y-74680315D01*
X107948706Y-74627511D01*
X107937500Y-74576000D01*
X107937500Y-73724999D01*
X107914193Y-73725000D01*
X107914174Y-73725001D01*
X107814892Y-73735144D01*
X107654018Y-73788452D01*
X107654007Y-73788457D01*
X107509771Y-73877424D01*
X107509767Y-73877427D01*
X107389927Y-73997267D01*
X107389924Y-73997271D01*
X107300957Y-74141507D01*
X107300951Y-74141522D01*
X107294664Y-74160494D01*
X107254891Y-74217938D01*
X107190375Y-74244760D01*
X107121599Y-74232444D01*
X107070400Y-74184900D01*
X107062245Y-74166904D01*
X107061797Y-74167090D01*
X107059933Y-74162592D01*
X106959888Y-73966243D01*
X106913566Y-73902485D01*
X106913565Y-73902485D01*
X106327112Y-74488939D01*
X106321611Y-74468409D01*
X106242619Y-74331592D01*
X106130908Y-74219881D01*
X105994091Y-74140889D01*
X105973557Y-74135387D01*
X106560013Y-73548932D01*
X106496256Y-73502611D01*
X106299910Y-73402567D01*
X106090335Y-73334473D01*
X105872681Y-73300000D01*
X105652319Y-73300000D01*
X105434664Y-73334473D01*
X105225089Y-73402567D01*
X105028733Y-73502616D01*
X104964985Y-73548931D01*
X104964985Y-73548932D01*
X105551440Y-74135387D01*
X105530909Y-74140889D01*
X105394092Y-74219881D01*
X105282381Y-74331592D01*
X105203389Y-74468409D01*
X105197887Y-74488940D01*
X104611432Y-73902485D01*
X104611431Y-73902485D01*
X104565116Y-73966233D01*
X104465067Y-74162589D01*
X104396973Y-74372164D01*
X104362500Y-74589818D01*
X102775500Y-74589818D01*
X102775500Y-70849983D01*
X117224500Y-70849983D01*
X117224500Y-72250001D01*
X117224501Y-72250018D01*
X117235000Y-72352796D01*
X117235001Y-72352799D01*
X117272682Y-72466510D01*
X117290186Y-72519334D01*
X117382288Y-72668656D01*
X117506344Y-72792712D01*
X117615597Y-72860099D01*
X117662321Y-72912047D01*
X117674500Y-72965638D01*
X117674500Y-74461606D01*
X117696763Y-74573535D01*
X117696764Y-74573539D01*
X117696763Y-74573539D01*
X117698536Y-74582449D01*
X117698537Y-74582454D01*
X117745685Y-74696281D01*
X117745688Y-74696287D01*
X117748170Y-74700001D01*
X117771431Y-74734812D01*
X117771432Y-74734815D01*
X117771433Y-74734815D01*
X117814141Y-74798732D01*
X117814144Y-74798736D01*
X117905586Y-74890178D01*
X117905608Y-74890198D01*
X118224205Y-75208795D01*
X118257690Y-75270118D01*
X118258141Y-75272285D01*
X118280261Y-75383489D01*
X118280264Y-75383501D01*
X118340602Y-75529172D01*
X118340609Y-75529185D01*
X118428210Y-75660288D01*
X118428213Y-75660292D01*
X118539707Y-75771786D01*
X118539711Y-75771789D01*
X118670814Y-75859390D01*
X118670827Y-75859397D01*
X118797042Y-75911676D01*
X118816503Y-75919737D01*
X118971153Y-75950499D01*
X118971156Y-75950500D01*
X118971158Y-75950500D01*
X119128844Y-75950500D01*
X119128845Y-75950499D01*
X119283497Y-75919737D01*
X119429179Y-75859394D01*
X119560289Y-75771789D01*
X119671789Y-75660289D01*
X119759394Y-75529179D01*
X119819737Y-75383497D01*
X119850500Y-75228842D01*
X119850500Y-75071158D01*
X119850500Y-75071155D01*
X119850499Y-75071153D01*
X119841906Y-75027952D01*
X119819737Y-74916503D01*
X119808552Y-74889500D01*
X119759397Y-74770827D01*
X119759390Y-74770814D01*
X119671789Y-74639711D01*
X119671786Y-74639707D01*
X119560292Y-74528213D01*
X119560288Y-74528210D01*
X119429185Y-74440609D01*
X119429172Y-74440602D01*
X119283501Y-74380264D01*
X119283489Y-74380261D01*
X119172285Y-74358141D01*
X119110374Y-74325756D01*
X119108795Y-74324205D01*
X118961819Y-74177229D01*
X118928334Y-74115906D01*
X118925500Y-74089548D01*
X118925500Y-72965638D01*
X118945185Y-72898599D01*
X118984401Y-72860100D01*
X119093656Y-72792712D01*
X119217712Y-72668656D01*
X119309814Y-72519334D01*
X119364999Y-72352797D01*
X119375500Y-72250009D01*
X119375500Y-72249986D01*
X120175001Y-72249986D01*
X120185494Y-72352697D01*
X120240641Y-72519119D01*
X120240643Y-72519124D01*
X120332684Y-72668345D01*
X120456654Y-72792315D01*
X120605875Y-72884356D01*
X120605880Y-72884358D01*
X120772302Y-72939505D01*
X120772309Y-72939506D01*
X120875019Y-72949999D01*
X120999999Y-72949999D01*
X121500000Y-72949999D01*
X121624972Y-72949999D01*
X121624986Y-72949998D01*
X121727697Y-72939505D01*
X121894119Y-72884358D01*
X121894124Y-72884356D01*
X122043345Y-72792315D01*
X122167315Y-72668345D01*
X122196424Y-72621153D01*
X123349500Y-72621153D01*
X123349500Y-72778846D01*
X123380261Y-72933489D01*
X123380264Y-72933501D01*
X123440602Y-73079172D01*
X123440609Y-73079185D01*
X123528210Y-73210288D01*
X123528213Y-73210292D01*
X123639707Y-73321786D01*
X123639711Y-73321789D01*
X123770814Y-73409390D01*
X123770827Y-73409397D01*
X123916498Y-73469735D01*
X123916503Y-73469737D01*
X124010132Y-73488361D01*
X124071153Y-73500499D01*
X124071156Y-73500500D01*
X124071158Y-73500500D01*
X124228844Y-73500500D01*
X124304507Y-73485449D01*
X124379997Y-73470433D01*
X124449588Y-73476660D01*
X124491869Y-73504369D01*
X124525000Y-73537500D01*
X125250000Y-73537500D01*
X125750000Y-73537500D01*
X126474999Y-73537500D01*
X126474999Y-73488361D01*
X126474998Y-73488345D01*
X128425000Y-73488345D01*
X128425000Y-73537500D01*
X129150000Y-73537500D01*
X129150000Y-72800000D01*
X129113361Y-72800000D01*
X129113343Y-72800001D01*
X129012347Y-72810319D01*
X128848699Y-72864546D01*
X128848688Y-72864551D01*
X128701965Y-72955052D01*
X128701961Y-72955055D01*
X128580055Y-73076961D01*
X128580052Y-73076965D01*
X128489551Y-73223688D01*
X128489546Y-73223699D01*
X128435319Y-73387347D01*
X128425000Y-73488345D01*
X126474998Y-73488345D01*
X126474998Y-73488344D01*
X126464680Y-73387347D01*
X126410453Y-73223699D01*
X126410448Y-73223688D01*
X126319947Y-73076965D01*
X126319944Y-73076961D01*
X126198038Y-72955055D01*
X126198034Y-72955052D01*
X126051311Y-72864551D01*
X126051300Y-72864546D01*
X125887652Y-72810319D01*
X125786654Y-72800000D01*
X125750000Y-72800000D01*
X125750000Y-73537500D01*
X125250000Y-73537500D01*
X125250000Y-72800000D01*
X125213361Y-72800000D01*
X125213343Y-72800001D01*
X125112343Y-72810319D01*
X125105726Y-72811736D01*
X125105401Y-72810217D01*
X125043656Y-72812332D01*
X124983620Y-72776590D01*
X124952438Y-72714064D01*
X124950500Y-72692229D01*
X124950500Y-72621155D01*
X124950499Y-72621153D01*
X124919737Y-72466503D01*
X124872639Y-72352797D01*
X124859397Y-72320827D01*
X124859390Y-72320814D01*
X124771789Y-72189711D01*
X124771786Y-72189707D01*
X124660292Y-72078213D01*
X124660288Y-72078210D01*
X124529185Y-71990609D01*
X124529172Y-71990602D01*
X124383501Y-71930264D01*
X124383489Y-71930261D01*
X124228845Y-71899500D01*
X124228842Y-71899500D01*
X124071158Y-71899500D01*
X124071155Y-71899500D01*
X123916510Y-71930261D01*
X123916498Y-71930264D01*
X123770827Y-71990602D01*
X123770814Y-71990609D01*
X123639711Y-72078210D01*
X123639707Y-72078213D01*
X123528213Y-72189707D01*
X123528210Y-72189711D01*
X123440609Y-72320814D01*
X123440602Y-72320827D01*
X123380264Y-72466498D01*
X123380261Y-72466510D01*
X123349500Y-72621153D01*
X122196424Y-72621153D01*
X122240331Y-72549969D01*
X122259356Y-72519124D01*
X122259358Y-72519119D01*
X122314505Y-72352697D01*
X122314506Y-72352690D01*
X122324999Y-72249986D01*
X122325000Y-72249973D01*
X122325000Y-71800000D01*
X121500000Y-71800000D01*
X121500000Y-72949999D01*
X120999999Y-72949999D01*
X121000000Y-72949998D01*
X121000000Y-71800000D01*
X120175001Y-71800000D01*
X120175001Y-72249986D01*
X119375500Y-72249986D01*
X119375499Y-71300000D01*
X119375499Y-70849998D01*
X119375498Y-70849981D01*
X119364999Y-70747203D01*
X119364998Y-70747200D01*
X119352469Y-70709390D01*
X119309814Y-70580666D01*
X119306602Y-70575459D01*
X119288160Y-70508069D01*
X119309080Y-70441405D01*
X119362720Y-70396633D01*
X119387948Y-70388743D01*
X119483497Y-70369737D01*
X119629179Y-70309394D01*
X119629184Y-70309390D01*
X119629187Y-70309389D01*
X119656108Y-70291401D01*
X119722785Y-70270522D01*
X119790165Y-70289006D01*
X119793892Y-70291401D01*
X119820812Y-70309389D01*
X119820827Y-70309397D01*
X119966498Y-70369735D01*
X119966503Y-70369737D01*
X120121153Y-70400499D01*
X120121156Y-70400500D01*
X120130113Y-70400500D01*
X120197152Y-70420185D01*
X120242907Y-70472989D01*
X120252851Y-70542147D01*
X120242496Y-70576904D01*
X120240641Y-70580881D01*
X120185494Y-70747302D01*
X120185493Y-70747309D01*
X120175000Y-70850013D01*
X120175000Y-71300000D01*
X121000000Y-71300000D01*
X121500000Y-71300000D01*
X122324999Y-71300000D01*
X122324999Y-70850028D01*
X122324998Y-70850013D01*
X122314505Y-70747302D01*
X122259358Y-70580880D01*
X122259356Y-70580875D01*
X122167315Y-70431654D01*
X122043345Y-70307684D01*
X121894124Y-70215643D01*
X121894119Y-70215641D01*
X121727697Y-70160494D01*
X121727690Y-70160493D01*
X121624986Y-70150000D01*
X121500000Y-70150000D01*
X121500000Y-71300000D01*
X121000000Y-71300000D01*
X121000000Y-70161747D01*
X120951238Y-70126251D01*
X120932026Y-70101290D01*
X120911422Y-70077511D01*
X120910892Y-70073831D01*
X120908623Y-70070882D01*
X120905958Y-70039510D01*
X120901478Y-70008353D01*
X120902877Y-70003250D01*
X120902709Y-70001263D01*
X120904192Y-69998456D01*
X120909653Y-69978552D01*
X120969737Y-69833497D01*
X120989113Y-69736085D01*
X121000638Y-69678150D01*
X121033023Y-69616239D01*
X121034467Y-69614767D01*
X121112418Y-69536816D01*
X121173740Y-69503334D01*
X121200097Y-69500500D01*
X126349903Y-69500500D01*
X126416942Y-69520185D01*
X126437584Y-69536819D01*
X129613681Y-72712916D01*
X129647166Y-72774239D01*
X129650000Y-72800597D01*
X129650000Y-73537500D01*
X130386903Y-73537500D01*
X130453942Y-73557185D01*
X130474584Y-73573819D01*
X131413181Y-74512416D01*
X131446666Y-74573739D01*
X131449500Y-74600097D01*
X131449500Y-75172649D01*
X131429815Y-75239688D01*
X131377011Y-75285443D01*
X131307853Y-75295387D01*
X131256609Y-75275751D01*
X131129185Y-75190609D01*
X131129172Y-75190602D01*
X130983501Y-75130264D01*
X130983489Y-75130261D01*
X130828845Y-75099500D01*
X130828842Y-75099500D01*
X130808184Y-75099500D01*
X130746196Y-75082894D01*
X130744415Y-75081866D01*
X130744416Y-75081862D01*
X130744400Y-75081858D01*
X130694285Y-75052923D01*
X130541557Y-75011999D01*
X130383443Y-75011999D01*
X130375847Y-75011999D01*
X130375831Y-75012000D01*
X130357611Y-75012000D01*
X130290572Y-74992315D01*
X130264071Y-74969402D01*
X130257404Y-74961741D01*
X130220340Y-74901650D01*
X130102974Y-74784284D01*
X130100158Y-74781048D01*
X130087296Y-74753043D01*
X130072532Y-74726004D01*
X130072848Y-74721582D01*
X130070998Y-74717554D01*
X130075318Y-74687045D01*
X130077516Y-74656312D01*
X130080278Y-74652012D01*
X130080794Y-74648375D01*
X130087938Y-74640094D01*
X130106017Y-74611964D01*
X130219948Y-74498033D01*
X130310448Y-74351311D01*
X130310453Y-74351300D01*
X130364680Y-74187652D01*
X130374999Y-74086654D01*
X130375000Y-74086641D01*
X130375000Y-74037500D01*
X128425001Y-74037500D01*
X128425001Y-74086654D01*
X128435319Y-74187652D01*
X128489546Y-74351300D01*
X128489551Y-74351311D01*
X128580052Y-74498034D01*
X128580055Y-74498038D01*
X128693982Y-74611965D01*
X128727467Y-74673288D01*
X128722483Y-74742980D01*
X128693983Y-74787327D01*
X128579659Y-74901651D01*
X128489093Y-75048481D01*
X128489091Y-75048486D01*
X128472781Y-75097708D01*
X128434826Y-75212247D01*
X128434826Y-75212248D01*
X128434825Y-75212248D01*
X128424500Y-75313315D01*
X128424500Y-75866635D01*
X128404815Y-75933674D01*
X128352011Y-75979429D01*
X128282853Y-75989373D01*
X128219297Y-75960348D01*
X128182794Y-75905638D01*
X128161548Y-75841520D01*
X128161542Y-75841507D01*
X128072575Y-75697271D01*
X128072572Y-75697267D01*
X127952732Y-75577427D01*
X127952728Y-75577424D01*
X127808492Y-75488457D01*
X127808481Y-75488452D01*
X127647606Y-75435144D01*
X127548322Y-75425000D01*
X127500000Y-75425000D01*
X127500000Y-76125000D01*
X128224999Y-76125000D01*
X128234543Y-76115455D01*
X128244684Y-76080921D01*
X128297488Y-76035166D01*
X128366646Y-76025222D01*
X128430202Y-76054247D01*
X128466704Y-76108955D01*
X128472021Y-76125000D01*
X128489091Y-76176513D01*
X128489093Y-76176518D01*
X128523395Y-76232129D01*
X128579660Y-76323350D01*
X128701650Y-76445340D01*
X128848484Y-76535908D01*
X129012247Y-76590174D01*
X129113323Y-76600500D01*
X129686676Y-76600499D01*
X129686684Y-76600498D01*
X129686687Y-76600498D01*
X129742030Y-76594844D01*
X129787753Y-76590174D01*
X129951516Y-76535908D01*
X130055049Y-76472047D01*
X130122441Y-76453607D01*
X130189105Y-76474529D01*
X130207828Y-76489906D01*
X130239707Y-76521786D01*
X130239711Y-76521789D01*
X130370814Y-76609390D01*
X130370827Y-76609397D01*
X130464802Y-76648322D01*
X130516503Y-76669737D01*
X130642578Y-76694815D01*
X130671153Y-76700499D01*
X130671156Y-76700500D01*
X130671158Y-76700500D01*
X130828844Y-76700500D01*
X130828845Y-76700499D01*
X130983497Y-76669737D01*
X131129179Y-76609394D01*
X131237660Y-76536909D01*
X131256609Y-76524248D01*
X131323286Y-76503370D01*
X131390666Y-76521854D01*
X131437357Y-76573833D01*
X131449500Y-76627350D01*
X131449500Y-79024922D01*
X131429815Y-79091961D01*
X131377011Y-79137716D01*
X131307853Y-79147660D01*
X131301310Y-79146540D01*
X131280240Y-79142349D01*
X130881750Y-79142349D01*
X130881750Y-79842349D01*
X130381750Y-79842349D01*
X130381750Y-79142349D01*
X129983254Y-79142349D01*
X129790068Y-79180776D01*
X129790056Y-79180779D01*
X129608078Y-79256156D01*
X129608065Y-79256163D01*
X129444287Y-79365597D01*
X129444283Y-79365600D01*
X129305001Y-79504882D01*
X129304998Y-79504886D01*
X129195564Y-79668664D01*
X129195557Y-79668677D01*
X129120180Y-79850656D01*
X129120180Y-79850658D01*
X129111888Y-79892349D01*
X129914762Y-79892349D01*
X129897545Y-79902289D01*
X129841690Y-79958144D01*
X129802194Y-80026553D01*
X129781750Y-80102853D01*
X129781750Y-80181845D01*
X129802194Y-80258145D01*
X129841690Y-80326554D01*
X129897545Y-80382409D01*
X129914762Y-80392349D01*
X129111888Y-80392349D01*
X129120180Y-80434039D01*
X129120180Y-80434041D01*
X129195557Y-80616020D01*
X129195564Y-80616033D01*
X129304998Y-80779811D01*
X129305001Y-80779815D01*
X129444283Y-80919097D01*
X129444287Y-80919100D01*
X129608065Y-81028534D01*
X129608078Y-81028541D01*
X129790056Y-81103918D01*
X129790068Y-81103921D01*
X129983254Y-81142348D01*
X129983258Y-81142349D01*
X130234614Y-81142349D01*
X130301653Y-81162034D01*
X130347408Y-81214838D01*
X130357352Y-81283996D01*
X130349175Y-81313801D01*
X130326225Y-81369206D01*
X130326222Y-81369216D01*
X130294500Y-81528692D01*
X130294500Y-81528695D01*
X130294500Y-81691305D01*
X130294500Y-81691307D01*
X130294499Y-81691307D01*
X130326222Y-81850783D01*
X130326225Y-81850793D01*
X130388450Y-82001019D01*
X130388452Y-82001023D01*
X130478788Y-82136220D01*
X130478794Y-82136228D01*
X130593771Y-82251205D01*
X130593779Y-82251211D01*
X130728976Y-82341547D01*
X130728980Y-82341549D01*
X130879206Y-82403774D01*
X130879211Y-82403776D01*
X130879215Y-82403776D01*
X130879216Y-82403777D01*
X131038692Y-82435500D01*
X131038695Y-82435500D01*
X131201307Y-82435500D01*
X131301308Y-82415608D01*
X131370900Y-82421835D01*
X131426077Y-82464698D01*
X131449322Y-82530587D01*
X131449500Y-82537225D01*
X131449500Y-83224803D01*
X131429815Y-83291842D01*
X131413185Y-83312479D01*
X131371796Y-83353869D01*
X131336439Y-83389226D01*
X131275115Y-83422710D01*
X131272950Y-83423161D01*
X131117608Y-83454061D01*
X131117598Y-83454064D01*
X130971927Y-83514402D01*
X130971914Y-83514409D01*
X130840811Y-83602010D01*
X130840807Y-83602013D01*
X130729313Y-83713507D01*
X130729310Y-83713511D01*
X130641709Y-83844614D01*
X130641702Y-83844627D01*
X130581364Y-83990298D01*
X130581361Y-83990310D01*
X130550600Y-84144953D01*
X130550600Y-84225500D01*
X130530915Y-84292539D01*
X130478111Y-84338294D01*
X130426600Y-84349500D01*
X129550941Y-84349500D01*
X129483902Y-84329815D01*
X129447840Y-84294392D01*
X129390189Y-84208111D01*
X129390187Y-84208108D01*
X129278692Y-84096613D01*
X129278688Y-84096610D01*
X129147585Y-84009009D01*
X129147572Y-84009002D01*
X129001901Y-83948664D01*
X129001889Y-83948661D01*
X128847245Y-83917900D01*
X128847242Y-83917900D01*
X128689558Y-83917900D01*
X128689555Y-83917900D01*
X128534910Y-83948661D01*
X128534898Y-83948664D01*
X128389227Y-84009002D01*
X128389214Y-84009009D01*
X128258111Y-84096610D01*
X128258107Y-84096613D01*
X128146613Y-84208107D01*
X128146610Y-84208111D01*
X128059009Y-84339214D01*
X128059002Y-84339227D01*
X127998664Y-84484898D01*
X127998661Y-84484910D01*
X127967900Y-84639553D01*
X127967900Y-84797246D01*
X127998661Y-84951889D01*
X127998664Y-84951901D01*
X128059002Y-85097572D01*
X128059009Y-85097585D01*
X128146610Y-85228688D01*
X128146613Y-85228692D01*
X128258107Y-85340186D01*
X128258111Y-85340189D01*
X128389214Y-85427790D01*
X128389227Y-85427797D01*
X128488460Y-85468900D01*
X128534903Y-85488137D01*
X128667493Y-85514511D01*
X128689553Y-85518899D01*
X128689556Y-85518900D01*
X128689558Y-85518900D01*
X128786682Y-85518900D01*
X128818775Y-85523125D01*
X128835087Y-85527495D01*
X128920943Y-85550501D01*
X128920945Y-85550501D01*
X129086653Y-85550501D01*
X129086669Y-85550500D01*
X131413331Y-85550500D01*
X131413347Y-85550501D01*
X131420943Y-85550501D01*
X131579054Y-85550501D01*
X131579057Y-85550501D01*
X131731785Y-85509577D01*
X131781904Y-85480639D01*
X131868716Y-85430520D01*
X131980520Y-85318716D01*
X131980520Y-85318714D01*
X131990728Y-85308507D01*
X131990730Y-85308504D01*
X132808506Y-84490728D01*
X132808511Y-84490724D01*
X132818714Y-84480520D01*
X132818716Y-84480520D01*
X132930520Y-84368716D01*
X132973432Y-84294390D01*
X133006054Y-84237887D01*
X133007302Y-84235723D01*
X133009577Y-84231785D01*
X133050501Y-84079057D01*
X133050501Y-83920943D01*
X133050501Y-83913348D01*
X133050500Y-83913330D01*
X133050500Y-74223373D01*
X133050501Y-74223360D01*
X133050501Y-74055259D01*
X133050501Y-74055257D01*
X133009577Y-73902529D01*
X132980639Y-73852409D01*
X132930520Y-73765598D01*
X132818716Y-73653794D01*
X132818715Y-73653793D01*
X132814385Y-73649463D01*
X132814374Y-73649453D01*
X127303275Y-68138355D01*
X127303273Y-68138352D01*
X127184402Y-68019481D01*
X127184401Y-68019480D01*
X127097589Y-67969360D01*
X127097589Y-67969359D01*
X127097585Y-67969358D01*
X127047470Y-67940423D01*
X126894742Y-67899499D01*
X126736628Y-67899499D01*
X126729032Y-67899499D01*
X126729016Y-67899500D01*
X120436669Y-67899500D01*
X120436653Y-67899499D01*
X120429057Y-67899499D01*
X120270943Y-67899499D01*
X120163587Y-67928265D01*
X120118210Y-67940424D01*
X120118209Y-67940425D01*
X120068096Y-67969359D01*
X120068095Y-67969360D01*
X120024689Y-67994420D01*
X119981285Y-68019479D01*
X119981282Y-68019481D01*
X119235339Y-68765425D01*
X119174016Y-68798910D01*
X119171850Y-68799361D01*
X119016508Y-68830261D01*
X119016498Y-68830264D01*
X118870827Y-68890602D01*
X118870814Y-68890609D01*
X118739711Y-68978210D01*
X118739707Y-68978213D01*
X118628213Y-69089707D01*
X118628210Y-69089711D01*
X118540609Y-69220814D01*
X118540602Y-69220827D01*
X118480264Y-69366498D01*
X118480261Y-69366510D01*
X118449500Y-69521153D01*
X118449500Y-69678846D01*
X118480261Y-69833489D01*
X118480264Y-69833501D01*
X118540137Y-69978048D01*
X118547606Y-70047517D01*
X118516331Y-70109996D01*
X118456241Y-70145648D01*
X118425576Y-70149500D01*
X117924998Y-70149500D01*
X117924980Y-70149501D01*
X117822203Y-70160000D01*
X117822200Y-70160001D01*
X117655668Y-70215185D01*
X117655663Y-70215187D01*
X117506342Y-70307289D01*
X117382289Y-70431342D01*
X117290187Y-70580663D01*
X117290185Y-70580668D01*
X117276560Y-70621786D01*
X117235001Y-70747203D01*
X117235001Y-70747204D01*
X117235000Y-70747204D01*
X117224500Y-70849983D01*
X102775500Y-70849983D01*
X102775500Y-69052127D01*
X107612000Y-69052127D01*
X107612000Y-69064546D01*
X107612000Y-69064547D01*
X107612000Y-69753470D01*
X107612001Y-69753476D01*
X107618408Y-69813083D01*
X107668702Y-69947928D01*
X107668706Y-69947935D01*
X107754952Y-70063144D01*
X107754955Y-70063147D01*
X107870164Y-70149393D01*
X107870171Y-70149397D01*
X107899924Y-70160494D01*
X108005017Y-70199691D01*
X108064627Y-70206100D01*
X108636060Y-70206099D01*
X108703099Y-70225783D01*
X108748854Y-70278587D01*
X108750621Y-70282647D01*
X108790602Y-70379172D01*
X108790609Y-70379185D01*
X108878210Y-70510288D01*
X108878213Y-70510292D01*
X108989707Y-70621786D01*
X108989711Y-70621789D01*
X109120814Y-70709390D01*
X109120827Y-70709397D01*
X109266498Y-70769735D01*
X109266503Y-70769737D01*
X109421153Y-70800499D01*
X109421156Y-70800500D01*
X109421158Y-70800500D01*
X109578844Y-70800500D01*
X109578845Y-70800499D01*
X109733497Y-70769737D01*
X109770198Y-70754534D01*
X109823945Y-70732273D01*
X109879172Y-70709397D01*
X109879172Y-70709396D01*
X109879179Y-70709394D01*
X110010289Y-70621789D01*
X110121789Y-70510289D01*
X110209394Y-70379179D01*
X110269737Y-70233497D01*
X110300500Y-70078842D01*
X110300500Y-69921158D01*
X110300500Y-69921155D01*
X110300499Y-69921153D01*
X110269738Y-69766510D01*
X110269737Y-69766503D01*
X110264341Y-69753476D01*
X110209397Y-69620827D01*
X110209390Y-69620814D01*
X110121789Y-69489711D01*
X110121786Y-69489707D01*
X110010292Y-69378213D01*
X110010288Y-69378210D01*
X109879185Y-69290609D01*
X109879172Y-69290602D01*
X109733501Y-69230264D01*
X109733489Y-69230261D01*
X109622285Y-69208141D01*
X109560374Y-69175756D01*
X109558795Y-69174205D01*
X109395728Y-69011138D01*
X109395725Y-69011134D01*
X109395725Y-69011135D01*
X109388659Y-69004069D01*
X109388658Y-69004067D01*
X109301533Y-68916942D01*
X109229358Y-68868716D01*
X109199086Y-68848488D01*
X109199084Y-68848487D01*
X109181296Y-68841119D01*
X109126893Y-68797278D01*
X109104828Y-68730984D01*
X109105460Y-68713300D01*
X109112499Y-68647839D01*
X109112500Y-68647827D01*
X109112500Y-68547200D01*
X107612500Y-68547200D01*
X107612500Y-68647844D01*
X107618901Y-68707372D01*
X107618903Y-68707380D01*
X107655668Y-68805952D01*
X107657105Y-68826051D01*
X107663418Y-68845186D01*
X107660419Y-68872398D01*
X107660652Y-68875644D01*
X107659708Y-68878857D01*
X107659553Y-68880268D01*
X107657931Y-68886551D01*
X107618409Y-68992517D01*
X107612000Y-69052127D01*
X102775500Y-69052127D01*
X102775500Y-67946555D01*
X107612500Y-67946555D01*
X107612500Y-68047200D01*
X108112500Y-68047200D01*
X108612500Y-68047200D01*
X109112500Y-68047200D01*
X109112500Y-67946572D01*
X109112499Y-67946555D01*
X109106098Y-67887027D01*
X109106096Y-67887020D01*
X109055854Y-67752313D01*
X109055850Y-67752306D01*
X108969690Y-67637212D01*
X108969687Y-67637209D01*
X108854593Y-67551049D01*
X108854586Y-67551045D01*
X108719879Y-67500803D01*
X108719872Y-67500801D01*
X108660344Y-67494400D01*
X108612500Y-67494400D01*
X108612500Y-68047200D01*
X108112500Y-68047200D01*
X108112500Y-67494400D01*
X108064655Y-67494400D01*
X108005127Y-67500801D01*
X108005120Y-67500803D01*
X107870413Y-67551045D01*
X107870406Y-67551049D01*
X107755312Y-67637209D01*
X107755309Y-67637212D01*
X107669149Y-67752306D01*
X107669145Y-67752313D01*
X107618903Y-67887020D01*
X107618901Y-67887027D01*
X107612500Y-67946555D01*
X102775500Y-67946555D01*
X102775500Y-66570082D01*
X102795185Y-66503043D01*
X102847989Y-66457288D01*
X102917147Y-66447344D01*
X102968394Y-66466982D01*
X102985607Y-66478484D01*
X102985618Y-66478490D01*
X103090153Y-66521789D01*
X103131294Y-66538830D01*
X103285944Y-66569592D01*
X103285947Y-66569593D01*
X103285949Y-66569593D01*
X103443635Y-66569593D01*
X103443636Y-66569592D01*
X103598288Y-66538830D01*
X103743970Y-66478487D01*
X103875080Y-66390882D01*
X103986580Y-66279382D01*
X104074185Y-66148272D01*
X104134528Y-66002590D01*
X104165291Y-65847935D01*
X104165291Y-65690251D01*
X104164194Y-65684736D01*
X104170415Y-65615147D01*
X104198126Y-65572858D01*
X104485494Y-65285490D01*
X104504271Y-65270079D01*
X104535129Y-65249462D01*
X104622254Y-65162337D01*
X104622255Y-65162335D01*
X104629315Y-65155275D01*
X104629321Y-65155268D01*
X106588034Y-63196555D01*
X108950000Y-63196555D01*
X108950000Y-63297200D01*
X109450000Y-63297200D01*
X109950000Y-63297200D01*
X110450000Y-63297200D01*
X110450000Y-63196572D01*
X110449999Y-63196555D01*
X110443598Y-63137027D01*
X110443596Y-63137020D01*
X110393354Y-63002313D01*
X110393350Y-63002306D01*
X110307190Y-62887212D01*
X110307187Y-62887209D01*
X110192093Y-62801049D01*
X110192086Y-62801045D01*
X110057379Y-62750803D01*
X110057372Y-62750801D01*
X109997844Y-62744400D01*
X109950000Y-62744400D01*
X109950000Y-63297200D01*
X109450000Y-63297200D01*
X109450000Y-62744400D01*
X109402155Y-62744400D01*
X109342627Y-62750801D01*
X109342620Y-62750803D01*
X109207913Y-62801045D01*
X109207906Y-62801049D01*
X109092812Y-62887209D01*
X109092809Y-62887212D01*
X109006649Y-63002306D01*
X109006645Y-63002313D01*
X108956403Y-63137020D01*
X108956401Y-63137027D01*
X108950000Y-63196555D01*
X106588034Y-63196555D01*
X110312821Y-59471767D01*
X110374142Y-59438284D01*
X110443834Y-59443268D01*
X110499767Y-59485140D01*
X110524184Y-59550604D01*
X110524500Y-59559450D01*
X110524500Y-60036669D01*
X110524501Y-60036687D01*
X110534825Y-60137752D01*
X110571109Y-60247249D01*
X110589092Y-60301516D01*
X110638122Y-60381007D01*
X110679661Y-60448351D01*
X110793629Y-60562319D01*
X110827114Y-60623642D01*
X110822130Y-60693334D01*
X110793629Y-60737681D01*
X110679661Y-60851648D01*
X110589093Y-60998481D01*
X110589092Y-60998484D01*
X110534826Y-61162247D01*
X110534826Y-61162248D01*
X110534825Y-61162248D01*
X110524500Y-61263315D01*
X110524500Y-61861669D01*
X110524501Y-61861687D01*
X110534825Y-61962752D01*
X110561424Y-62043020D01*
X110585577Y-62115910D01*
X110589092Y-62126515D01*
X110589093Y-62126518D01*
X110621575Y-62179179D01*
X110679660Y-62273350D01*
X110801650Y-62395340D01*
X110948484Y-62485908D01*
X111112247Y-62540174D01*
X111213323Y-62550500D01*
X111292367Y-62550499D01*
X111359405Y-62570183D01*
X111405161Y-62622986D01*
X111415105Y-62692145D01*
X111386081Y-62755701D01*
X111335703Y-62790680D01*
X111307914Y-62801045D01*
X111307906Y-62801049D01*
X111192812Y-62887209D01*
X111192809Y-62887212D01*
X111106649Y-63002306D01*
X111106645Y-63002313D01*
X111056403Y-63137020D01*
X111056401Y-63137027D01*
X111050000Y-63196555D01*
X111050000Y-63297200D01*
X112550000Y-63297200D01*
X112550000Y-63225044D01*
X112569685Y-63158005D01*
X112622489Y-63112250D01*
X112626500Y-63110503D01*
X112629179Y-63109394D01*
X112760289Y-63021789D01*
X112811192Y-62970886D01*
X112872515Y-62937400D01*
X112942207Y-62942384D01*
X112998140Y-62984255D01*
X113020491Y-63034374D01*
X113030261Y-63083491D01*
X113030264Y-63083501D01*
X113090602Y-63229172D01*
X113090609Y-63229185D01*
X113178210Y-63360288D01*
X113178213Y-63360292D01*
X113289707Y-63471786D01*
X113289711Y-63471789D01*
X113420814Y-63559390D01*
X113420827Y-63559397D01*
X113552329Y-63613866D01*
X113566503Y-63619737D01*
X113671041Y-63640531D01*
X113721153Y-63650499D01*
X113721156Y-63650500D01*
X113721158Y-63650500D01*
X113878843Y-63650500D01*
X113928959Y-63640531D01*
X113960263Y-63634304D01*
X114029854Y-63640531D01*
X114085032Y-63683393D01*
X114087532Y-63686993D01*
X114136315Y-63760003D01*
X114153212Y-63785291D01*
X114166828Y-63798907D01*
X114200313Y-63860230D01*
X114195329Y-63929922D01*
X114193709Y-63934039D01*
X114180263Y-63966501D01*
X114180261Y-63966505D01*
X114149500Y-64121153D01*
X114149500Y-64278846D01*
X114180261Y-64433489D01*
X114180264Y-64433501D01*
X114240602Y-64579172D01*
X114240609Y-64579185D01*
X114328210Y-64710288D01*
X114328213Y-64710292D01*
X114439707Y-64821786D01*
X114439711Y-64821789D01*
X114570814Y-64909390D01*
X114570827Y-64909397D01*
X114680082Y-64954651D01*
X114716503Y-64969737D01*
X114719766Y-64970386D01*
X114721316Y-64971197D01*
X114722338Y-64971507D01*
X114722279Y-64971700D01*
X114781677Y-65002767D01*
X114816255Y-65063481D01*
X114817197Y-65067813D01*
X114830261Y-65133489D01*
X114830266Y-65133508D01*
X114831265Y-65135919D01*
X114831411Y-65137281D01*
X114832031Y-65139324D01*
X114831643Y-65139441D01*
X114838728Y-65205389D01*
X114807447Y-65267865D01*
X114747355Y-65303512D01*
X114677530Y-65301012D01*
X114647809Y-65286463D01*
X114579184Y-65240609D01*
X114579172Y-65240602D01*
X114433501Y-65180264D01*
X114433489Y-65180261D01*
X114278845Y-65149500D01*
X114278842Y-65149500D01*
X114121158Y-65149500D01*
X114121155Y-65149500D01*
X113966510Y-65180261D01*
X113966498Y-65180264D01*
X113820827Y-65240602D01*
X113820820Y-65240606D01*
X113807573Y-65249458D01*
X113763955Y-65278602D01*
X113697279Y-65299480D01*
X113695065Y-65299500D01*
X113129766Y-65299500D01*
X113062727Y-65279815D01*
X113060875Y-65278602D01*
X112929185Y-65190609D01*
X112929172Y-65190602D01*
X112783501Y-65130264D01*
X112783491Y-65130261D01*
X112650307Y-65103769D01*
X112588396Y-65071384D01*
X112553822Y-65010668D01*
X112550499Y-64982160D01*
X112550499Y-64302128D01*
X112544091Y-64242517D01*
X112506830Y-64142617D01*
X112501847Y-64072927D01*
X112506831Y-64055951D01*
X112543597Y-63957376D01*
X112543598Y-63957372D01*
X112549999Y-63897844D01*
X112550000Y-63897827D01*
X112550000Y-63797200D01*
X111043773Y-63797200D01*
X110996165Y-63823195D01*
X110926473Y-63818209D01*
X110900921Y-63805132D01*
X110879186Y-63790610D01*
X110879172Y-63790602D01*
X110733501Y-63730264D01*
X110733489Y-63730261D01*
X110578845Y-63699500D01*
X110578842Y-63699500D01*
X110421158Y-63699500D01*
X110421155Y-63699500D01*
X110266510Y-63730261D01*
X110266498Y-63730264D01*
X110127689Y-63787761D01*
X110080237Y-63797200D01*
X108950000Y-63797200D01*
X108950000Y-63897844D01*
X108956401Y-63957372D01*
X108956403Y-63957380D01*
X108993168Y-64055952D01*
X108998152Y-64125644D01*
X108993168Y-64142617D01*
X108955910Y-64242511D01*
X108955909Y-64242515D01*
X108955909Y-64242517D01*
X108949500Y-64302127D01*
X108949500Y-64302134D01*
X108949500Y-64302135D01*
X108949500Y-65003470D01*
X108949501Y-65003476D01*
X108955908Y-65063083D01*
X109006202Y-65197928D01*
X109006206Y-65197935D01*
X109092452Y-65313144D01*
X109092455Y-65313147D01*
X109207664Y-65399393D01*
X109207671Y-65399397D01*
X109252618Y-65416161D01*
X109342517Y-65449691D01*
X109402127Y-65456100D01*
X109997872Y-65456099D01*
X110057483Y-65449691D01*
X110192331Y-65399396D01*
X110193846Y-65398261D01*
X110300476Y-65318439D01*
X110365940Y-65294021D01*
X110398975Y-65296087D01*
X110421158Y-65300500D01*
X110421159Y-65300500D01*
X110578843Y-65300500D01*
X110601022Y-65296088D01*
X110620216Y-65292270D01*
X110689807Y-65298497D01*
X110744985Y-65341359D01*
X110768230Y-65407248D01*
X110766025Y-65438078D01*
X110749500Y-65521153D01*
X110749500Y-65678846D01*
X110780261Y-65833489D01*
X110780264Y-65833501D01*
X110840602Y-65979172D01*
X110840609Y-65979185D01*
X110928210Y-66110288D01*
X110928213Y-66110292D01*
X111039707Y-66221786D01*
X111039711Y-66221789D01*
X111170814Y-66309390D01*
X111170827Y-66309397D01*
X111316208Y-66369615D01*
X111316503Y-66369737D01*
X111439813Y-66394265D01*
X111471153Y-66400499D01*
X111471156Y-66400500D01*
X111471158Y-66400500D01*
X111628844Y-66400500D01*
X111628845Y-66400499D01*
X111783497Y-66369737D01*
X111783509Y-66369731D01*
X111789324Y-66367969D01*
X111789823Y-66369615D01*
X111851131Y-66363007D01*
X111913619Y-66394265D01*
X111925003Y-66406380D01*
X111928215Y-66410294D01*
X112039707Y-66521786D01*
X112039711Y-66521789D01*
X112170814Y-66609390D01*
X112170827Y-66609397D01*
X112244013Y-66639711D01*
X112316503Y-66669737D01*
X112471153Y-66700499D01*
X112471156Y-66700500D01*
X112471158Y-66700500D01*
X112628844Y-66700500D01*
X112628845Y-66700499D01*
X112783497Y-66669737D01*
X112929179Y-66609394D01*
X112929185Y-66609390D01*
X113060875Y-66521398D01*
X113127553Y-66500520D01*
X113129766Y-66500500D01*
X113475500Y-66500500D01*
X113542539Y-66520185D01*
X113588294Y-66572989D01*
X113599500Y-66624500D01*
X113599500Y-67113330D01*
X113599499Y-67113348D01*
X113599499Y-67279054D01*
X113599498Y-67279054D01*
X113640423Y-67431786D01*
X113655630Y-67458123D01*
X113655631Y-67458128D01*
X113655633Y-67458128D01*
X113709278Y-67551045D01*
X113719479Y-67568714D01*
X113719481Y-67568717D01*
X113838349Y-67687585D01*
X113838355Y-67687590D01*
X114315139Y-68164374D01*
X114315149Y-68164385D01*
X114319479Y-68168715D01*
X114319480Y-68168716D01*
X114431284Y-68280520D01*
X114518095Y-68330639D01*
X114518097Y-68330641D01*
X114556151Y-68352611D01*
X114568215Y-68359577D01*
X114720943Y-68400500D01*
X116213331Y-68400500D01*
X116213347Y-68400501D01*
X116220943Y-68400501D01*
X116379054Y-68400501D01*
X116379057Y-68400501D01*
X116531785Y-68359577D01*
X116581904Y-68330639D01*
X116668716Y-68280520D01*
X116780520Y-68168716D01*
X116780520Y-68168714D01*
X116790728Y-68158507D01*
X116790729Y-68158504D01*
X118208081Y-66741153D01*
X122999500Y-66741153D01*
X122999500Y-66898846D01*
X123030261Y-67053489D01*
X123030264Y-67053501D01*
X123090602Y-67199172D01*
X123090609Y-67199185D01*
X123178210Y-67330288D01*
X123178213Y-67330292D01*
X123289707Y-67441786D01*
X123289711Y-67441789D01*
X123420814Y-67529390D01*
X123420827Y-67529397D01*
X123566498Y-67589735D01*
X123566503Y-67589737D01*
X123721153Y-67620499D01*
X123721156Y-67620500D01*
X123721158Y-67620500D01*
X123878844Y-67620500D01*
X123878845Y-67620499D01*
X124033497Y-67589737D01*
X124179179Y-67529394D01*
X124310289Y-67441789D01*
X124421789Y-67330289D01*
X124509394Y-67199179D01*
X124569737Y-67053497D01*
X124600500Y-66898842D01*
X124600500Y-66741158D01*
X124600500Y-66741155D01*
X124600499Y-66741153D01*
X124569737Y-66586503D01*
X124549991Y-66538831D01*
X124509397Y-66440827D01*
X124509390Y-66440814D01*
X124421789Y-66309711D01*
X124421786Y-66309707D01*
X124310292Y-66198213D01*
X124310288Y-66198210D01*
X124179185Y-66110609D01*
X124179172Y-66110602D01*
X124033501Y-66050264D01*
X124033489Y-66050261D01*
X123878845Y-66019500D01*
X123878842Y-66019500D01*
X123721158Y-66019500D01*
X123721155Y-66019500D01*
X123566510Y-66050261D01*
X123566498Y-66050264D01*
X123420827Y-66110602D01*
X123420814Y-66110609D01*
X123289711Y-66198210D01*
X123289707Y-66198213D01*
X123178213Y-66309707D01*
X123178210Y-66309711D01*
X123090609Y-66440814D01*
X123090602Y-66440827D01*
X123030264Y-66586498D01*
X123030261Y-66586510D01*
X122999500Y-66741153D01*
X118208081Y-66741153D01*
X120730520Y-64218716D01*
X120809577Y-64081784D01*
X120850501Y-63929057D01*
X120850501Y-63770942D01*
X120850501Y-63763347D01*
X120850500Y-63763329D01*
X120850500Y-63352622D01*
X120870185Y-63285583D01*
X120922989Y-63239828D01*
X120992147Y-63229884D01*
X121017835Y-63236441D01*
X121037019Y-63243596D01*
X121037027Y-63243598D01*
X121096555Y-63249999D01*
X121096572Y-63250000D01*
X121197200Y-63250000D01*
X121197200Y-62624000D01*
X121216885Y-62556961D01*
X121269689Y-62511206D01*
X121321200Y-62500000D01*
X121573200Y-62500000D01*
X121640239Y-62519685D01*
X121685994Y-62572489D01*
X121697200Y-62624000D01*
X121697200Y-63250000D01*
X121797828Y-63250000D01*
X121797844Y-63249999D01*
X121857372Y-63243598D01*
X121857376Y-63243597D01*
X121955951Y-63206831D01*
X122025643Y-63201847D01*
X122042616Y-63206830D01*
X122142517Y-63244091D01*
X122202127Y-63250500D01*
X122903472Y-63250499D01*
X122963083Y-63244091D01*
X123097931Y-63193796D01*
X123213146Y-63107546D01*
X123299396Y-62992331D01*
X123349691Y-62857483D01*
X123356100Y-62797873D01*
X123356099Y-62724059D01*
X123356638Y-62718302D01*
X123367506Y-62691003D01*
X123375783Y-62662814D01*
X123381605Y-62655587D01*
X123382482Y-62653387D01*
X123384598Y-62651873D01*
X123392412Y-62642176D01*
X123685857Y-62348734D01*
X123685862Y-62348727D01*
X123689725Y-62344022D01*
X123689960Y-62344214D01*
X123706191Y-62326308D01*
X123705981Y-62326098D01*
X123710267Y-62321811D01*
X123710286Y-62321790D01*
X123710289Y-62321789D01*
X123821789Y-62210289D01*
X123909394Y-62079179D01*
X123969737Y-61933497D01*
X124000500Y-61778842D01*
X124000500Y-61621158D01*
X124000500Y-61621155D01*
X124000499Y-61621153D01*
X123995503Y-61596037D01*
X123969737Y-61466503D01*
X123969518Y-61465975D01*
X123909397Y-61320827D01*
X123909395Y-61320823D01*
X123909394Y-61320821D01*
X123834079Y-61208105D01*
X123813202Y-61141429D01*
X123819476Y-61100211D01*
X123840174Y-61037753D01*
X123850500Y-60936677D01*
X123850499Y-60363324D01*
X123840174Y-60262247D01*
X123785908Y-60098484D01*
X123695340Y-59951650D01*
X123573350Y-59829660D01*
X123482129Y-59773395D01*
X123426518Y-59739093D01*
X123426513Y-59739091D01*
X123403569Y-59731488D01*
X123262753Y-59684826D01*
X123262751Y-59684825D01*
X123161684Y-59674500D01*
X123161677Y-59674500D01*
X122811554Y-59674500D01*
X122809887Y-59674010D01*
X122808208Y-59674455D01*
X122776487Y-59664203D01*
X122744515Y-59654815D01*
X122743377Y-59653502D01*
X122741724Y-59652968D01*
X122720577Y-59627189D01*
X122698760Y-59602011D01*
X122698160Y-59599862D01*
X122697411Y-59598949D01*
X122696079Y-59592404D01*
X122688385Y-59564828D01*
X122687554Y-59557684D01*
X122687554Y-59478742D01*
X122656791Y-59324087D01*
X122631033Y-59261901D01*
X122596451Y-59178411D01*
X122596444Y-59178398D01*
X122508843Y-59047295D01*
X122508840Y-59047291D01*
X122397346Y-58935797D01*
X122397342Y-58935794D01*
X122266239Y-58848193D01*
X122266226Y-58848186D01*
X122120555Y-58787848D01*
X122120543Y-58787845D01*
X121965899Y-58757084D01*
X121965896Y-58757084D01*
X121808212Y-58757084D01*
X121808211Y-58757084D01*
X121786189Y-58761464D01*
X121716597Y-58755235D01*
X121661421Y-58712371D01*
X121638178Y-58646481D01*
X121638000Y-58639846D01*
X121638000Y-58078569D01*
X121657685Y-58011530D01*
X121674319Y-57990888D01*
X121925745Y-57739462D01*
X122118298Y-57546909D01*
X122315540Y-57349666D01*
X122376861Y-57316183D01*
X122379028Y-57315732D01*
X122436963Y-57304207D01*
X122534375Y-57284831D01*
X122680057Y-57224488D01*
X122811167Y-57136883D01*
X122922667Y-57025383D01*
X123010272Y-56894273D01*
X123016926Y-56878210D01*
X123040296Y-56821789D01*
X123070615Y-56748591D01*
X123101378Y-56593936D01*
X123101378Y-56436252D01*
X123101378Y-56436249D01*
X123101377Y-56436247D01*
X123078439Y-56320931D01*
X123070615Y-56281597D01*
X123023774Y-56168511D01*
X123010275Y-56135921D01*
X123010268Y-56135908D01*
X122922667Y-56004805D01*
X122922664Y-56004801D01*
X122811170Y-55893307D01*
X122811166Y-55893304D01*
X122680063Y-55805703D01*
X122680050Y-55805696D01*
X122534379Y-55745358D01*
X122534367Y-55745355D01*
X122379723Y-55714594D01*
X122379720Y-55714594D01*
X122275869Y-55714594D01*
X122208830Y-55694909D01*
X122163075Y-55642105D01*
X122151869Y-55590594D01*
X122151869Y-55414762D01*
X122151868Y-55414758D01*
X122127833Y-55293924D01*
X122127832Y-55293917D01*
X122080680Y-55180083D01*
X122080679Y-55180082D01*
X122080676Y-55180076D01*
X122012228Y-55077637D01*
X121985211Y-55050620D01*
X121925102Y-54990511D01*
X121925101Y-54990510D01*
X119117927Y-52183337D01*
X119117925Y-52183334D01*
X119117925Y-52183335D01*
X119110858Y-52176268D01*
X119110858Y-52176267D01*
X119023733Y-52089142D01*
X119023732Y-52089141D01*
X119023731Y-52089140D01*
X118972509Y-52054915D01*
X118921286Y-52020688D01*
X118834916Y-51984913D01*
X118834914Y-51984911D01*
X118807455Y-51973538D01*
X118807453Y-51973537D01*
X118807452Y-51973537D01*
X118747029Y-51961518D01*
X118686610Y-51949500D01*
X118686607Y-51949500D01*
X118686606Y-51949500D01*
X113741257Y-51949500D01*
X113674218Y-51929815D01*
X113628463Y-51877011D01*
X113618519Y-51807853D01*
X113630772Y-51769205D01*
X113631538Y-51767699D01*
X113651557Y-51728412D01*
X113717246Y-51526243D01*
X113750500Y-51316287D01*
X113750500Y-51103713D01*
X113717246Y-50893757D01*
X113651557Y-50691588D01*
X113555051Y-50502184D01*
X113555049Y-50502181D01*
X113555048Y-50502179D01*
X113430109Y-50330213D01*
X113312077Y-50212181D01*
X113278592Y-50150858D01*
X113283576Y-50081166D01*
X113325448Y-50025233D01*
X113390912Y-50000816D01*
X113399758Y-50000500D01*
X131083219Y-50000500D01*
X131150258Y-50020185D01*
G37*
%TD.AperFunction*%
%TA.AperFunction,Conductor*%
G36*
X103349333Y-56687768D02*
G01*
X103405267Y-56729639D01*
X103429684Y-56795104D01*
X103430000Y-56803949D01*
X103430000Y-56939970D01*
X103430001Y-56939987D01*
X103440494Y-57042697D01*
X103495641Y-57209119D01*
X103495643Y-57209124D01*
X103587684Y-57358345D01*
X103711654Y-57482315D01*
X103860875Y-57574356D01*
X103860880Y-57574358D01*
X104027302Y-57629505D01*
X104027309Y-57629506D01*
X104130019Y-57639999D01*
X104529999Y-57639999D01*
X104530000Y-57639998D01*
X104530000Y-56723012D01*
X104587007Y-56755925D01*
X104714174Y-56790000D01*
X104845826Y-56790000D01*
X104972993Y-56755925D01*
X105030000Y-56723012D01*
X105030000Y-57639999D01*
X105429972Y-57639999D01*
X105429986Y-57639998D01*
X105532697Y-57629505D01*
X105699119Y-57574358D01*
X105699124Y-57574356D01*
X105848345Y-57482315D01*
X105962319Y-57368342D01*
X106023642Y-57334857D01*
X106093334Y-57339841D01*
X106137681Y-57368342D01*
X106251654Y-57482315D01*
X106400875Y-57574356D01*
X106400880Y-57574358D01*
X106567302Y-57629505D01*
X106567309Y-57629506D01*
X106670019Y-57639999D01*
X107069999Y-57639999D01*
X107070000Y-57639998D01*
X107070000Y-56723012D01*
X107127007Y-56755925D01*
X107254174Y-56790000D01*
X107385826Y-56790000D01*
X107512993Y-56755925D01*
X107570000Y-56723012D01*
X107570000Y-57639999D01*
X107969972Y-57639999D01*
X107969986Y-57639998D01*
X108072697Y-57629505D01*
X108239119Y-57574358D01*
X108239124Y-57574356D01*
X108388345Y-57482315D01*
X108502319Y-57368342D01*
X108563642Y-57334857D01*
X108633334Y-57339841D01*
X108677681Y-57368342D01*
X108791654Y-57482315D01*
X108940875Y-57574356D01*
X108940880Y-57574358D01*
X109107302Y-57629505D01*
X109107309Y-57629506D01*
X109210019Y-57639999D01*
X109609999Y-57639999D01*
X109610000Y-57639998D01*
X109610000Y-56723012D01*
X109667007Y-56755925D01*
X109794174Y-56790000D01*
X109925826Y-56790000D01*
X110052993Y-56755925D01*
X110110000Y-56723012D01*
X110110000Y-57639999D01*
X110123324Y-57653323D01*
X110144986Y-57659684D01*
X110190741Y-57712488D01*
X110200685Y-57781646D01*
X110171660Y-57845202D01*
X110155385Y-57859560D01*
X110155975Y-57860278D01*
X110151269Y-57864139D01*
X110107740Y-57907669D01*
X110064142Y-57951267D01*
X109481721Y-58533688D01*
X109420398Y-58567173D01*
X109350706Y-58562189D01*
X109325149Y-58549109D01*
X109212243Y-58473667D01*
X109212230Y-58473660D01*
X109066559Y-58413322D01*
X109066547Y-58413319D01*
X108911903Y-58382558D01*
X108911900Y-58382558D01*
X108754216Y-58382558D01*
X108754213Y-58382558D01*
X108599568Y-58413319D01*
X108599556Y-58413322D01*
X108453885Y-58473660D01*
X108453872Y-58473667D01*
X108322769Y-58561268D01*
X108322765Y-58561271D01*
X108211271Y-58672765D01*
X108211268Y-58672769D01*
X108123667Y-58803872D01*
X108123660Y-58803885D01*
X108063322Y-58949556D01*
X108063319Y-58949568D01*
X108032558Y-59104211D01*
X108032558Y-59104216D01*
X108032558Y-59261900D01*
X108032558Y-59261901D01*
X108032557Y-59261901D01*
X108033657Y-59267428D01*
X108027425Y-59337019D01*
X107999719Y-59379293D01*
X103587299Y-63791713D01*
X103568511Y-63807132D01*
X103537671Y-63827739D01*
X103537660Y-63827748D01*
X103022124Y-64343283D01*
X102960801Y-64376768D01*
X102910257Y-64377220D01*
X102905829Y-64376339D01*
X102905823Y-64376339D01*
X102899500Y-64376339D01*
X102832461Y-64356654D01*
X102786706Y-64303850D01*
X102775500Y-64252339D01*
X102775500Y-57210451D01*
X102795185Y-57143412D01*
X102811814Y-57122775D01*
X103218323Y-56716266D01*
X103279642Y-56682784D01*
X103349333Y-56687768D01*
G37*
%TD.AperFunction*%
%TA.AperFunction,Conductor*%
G36*
X135963181Y-59079627D02*
G01*
X135996666Y-59140950D01*
X135999500Y-59167308D01*
X135999500Y-61812691D01*
X135979815Y-61879730D01*
X135963181Y-61900372D01*
X135252453Y-62611099D01*
X135159657Y-62472220D01*
X135037780Y-62350343D01*
X134898899Y-62257545D01*
X135572639Y-61583805D01*
X135572639Y-61583804D01*
X135489129Y-61519727D01*
X135489122Y-61519721D01*
X135283371Y-61400931D01*
X135283356Y-61400924D01*
X135063866Y-61310009D01*
X134834356Y-61248511D01*
X134598808Y-61217501D01*
X134598791Y-61217500D01*
X134361209Y-61217500D01*
X134361191Y-61217501D01*
X134125643Y-61248511D01*
X133896133Y-61310009D01*
X133676643Y-61400924D01*
X133676633Y-61400929D01*
X133563968Y-61465976D01*
X133496068Y-61482448D01*
X133430041Y-61459595D01*
X133386851Y-61404673D01*
X133380210Y-61335120D01*
X133394582Y-61296589D01*
X133434699Y-61227104D01*
X133518123Y-61025701D01*
X133574545Y-60815131D01*
X133603000Y-60598999D01*
X133603000Y-60381001D01*
X133574545Y-60164869D01*
X133518123Y-59954299D01*
X133465896Y-59828211D01*
X133434704Y-59752907D01*
X133434697Y-59752892D01*
X133408649Y-59707776D01*
X133394581Y-59683410D01*
X133378109Y-59615511D01*
X133400962Y-59549484D01*
X133455883Y-59506293D01*
X133525436Y-59499652D01*
X133563969Y-59514024D01*
X133676629Y-59579068D01*
X133676643Y-59579075D01*
X133896133Y-59669990D01*
X134125643Y-59731488D01*
X134361191Y-59762498D01*
X134361209Y-59762500D01*
X134598791Y-59762500D01*
X134598808Y-59762498D01*
X134834356Y-59731488D01*
X135063866Y-59669990D01*
X135283356Y-59579075D01*
X135283370Y-59579068D01*
X135489125Y-59460275D01*
X135489132Y-59460270D01*
X135572639Y-59396193D01*
X134898899Y-58722453D01*
X135037780Y-58629657D01*
X135159657Y-58507780D01*
X135252453Y-58368899D01*
X135963181Y-59079627D01*
G37*
%TD.AperFunction*%
%TA.AperFunction,Conductor*%
G36*
X114268834Y-58068269D02*
G01*
X114324767Y-58110141D01*
X114349184Y-58175605D01*
X114349500Y-58184451D01*
X114349500Y-58501618D01*
X114329815Y-58568657D01*
X114287500Y-58609005D01*
X114182758Y-58669477D01*
X114182753Y-58669481D01*
X114070951Y-58781284D01*
X114070947Y-58781286D01*
X114070948Y-58781287D01*
X114016834Y-58835399D01*
X113955510Y-58868883D01*
X113885818Y-58863897D01*
X113864057Y-58853254D01*
X113801311Y-58814551D01*
X113801300Y-58814546D01*
X113705763Y-58782889D01*
X113686921Y-58769843D01*
X113665856Y-58760833D01*
X113658745Y-58750336D01*
X113648318Y-58743117D01*
X113639519Y-58721954D01*
X113626670Y-58702986D01*
X113626363Y-58690310D01*
X113621495Y-58678601D01*
X113625533Y-58656046D01*
X113624979Y-58633137D01*
X113631575Y-58622305D01*
X113633810Y-58609825D01*
X113657083Y-58577505D01*
X114137819Y-58096769D01*
X114199142Y-58063285D01*
X114268834Y-58068269D01*
G37*
%TD.AperFunction*%
%TA.AperFunction,Conductor*%
G36*
X117206587Y-56945185D02*
G01*
X117227229Y-56961819D01*
X117703229Y-57437819D01*
X117736714Y-57499142D01*
X117731730Y-57568834D01*
X117689858Y-57624767D01*
X117624394Y-57649184D01*
X117615548Y-57649500D01*
X117302130Y-57649500D01*
X117302123Y-57649501D01*
X117242515Y-57655909D01*
X117142617Y-57693168D01*
X117072926Y-57698152D01*
X117055952Y-57693168D01*
X116957380Y-57656403D01*
X116957372Y-57656401D01*
X116897844Y-57650000D01*
X116797200Y-57650000D01*
X116797200Y-58276000D01*
X116777515Y-58343039D01*
X116724711Y-58388794D01*
X116673200Y-58400000D01*
X116421200Y-58400000D01*
X116354161Y-58380315D01*
X116308406Y-58327511D01*
X116297200Y-58276000D01*
X116297200Y-57650000D01*
X116196555Y-57650000D01*
X116137027Y-57656401D01*
X116137019Y-57656403D01*
X116017333Y-57701043D01*
X115947641Y-57706027D01*
X115886318Y-57672541D01*
X115852834Y-57611218D01*
X115850000Y-57584861D01*
X115850000Y-57547200D01*
X115224000Y-57547200D01*
X115156961Y-57527515D01*
X115111206Y-57474711D01*
X115100000Y-57423200D01*
X115100000Y-57418900D01*
X115119685Y-57351861D01*
X115172489Y-57306106D01*
X115224000Y-57294900D01*
X115392207Y-57294900D01*
X115452629Y-57282881D01*
X115513052Y-57270863D01*
X115513055Y-57270861D01*
X115513058Y-57270861D01*
X115546387Y-57257054D01*
X115546386Y-57257054D01*
X115546392Y-57257052D01*
X115626886Y-57223712D01*
X115678109Y-57189484D01*
X115729333Y-57155258D01*
X115801073Y-57083517D01*
X115828848Y-57068351D01*
X115866108Y-57031091D01*
X115869685Y-57018912D01*
X115886315Y-56998274D01*
X115922773Y-56961817D01*
X115984096Y-56928333D01*
X116010452Y-56925500D01*
X117139548Y-56925500D01*
X117206587Y-56945185D01*
G37*
%TD.AperFunction*%
%TA.AperFunction,Conductor*%
G36*
X135913026Y-55019989D02*
G01*
X135970965Y-55059038D01*
X135998594Y-55123213D01*
X135999500Y-55138174D01*
X135999500Y-56732691D01*
X135979815Y-56799730D01*
X135963181Y-56820372D01*
X135252453Y-57531099D01*
X135159657Y-57392220D01*
X135037780Y-57270343D01*
X134898899Y-57177546D01*
X135572639Y-56503805D01*
X135572639Y-56503804D01*
X135489129Y-56439727D01*
X135489122Y-56439721D01*
X135283371Y-56320931D01*
X135283356Y-56320924D01*
X135063866Y-56230009D01*
X134834356Y-56168511D01*
X134601595Y-56137868D01*
X134537698Y-56109602D01*
X134499227Y-56051277D01*
X134498396Y-55981412D01*
X134535468Y-55922189D01*
X134570324Y-55900369D01*
X134734251Y-55832469D01*
X135024579Y-55677286D01*
X135298298Y-55494393D01*
X135552772Y-55285551D01*
X135658247Y-55180076D01*
X135787704Y-55050620D01*
X135788820Y-55051736D01*
X135843173Y-55018462D01*
X135913026Y-55019989D01*
G37*
%TD.AperFunction*%
%TA.AperFunction,Conductor*%
G36*
X118381587Y-53220185D02*
G01*
X118402229Y-53236819D01*
X119945170Y-54779761D01*
X119978655Y-54841084D01*
X119973671Y-54910776D01*
X119931799Y-54966709D01*
X119866335Y-54991126D01*
X119857489Y-54991442D01*
X119244728Y-54991442D01*
X119244712Y-54991441D01*
X119237116Y-54991441D01*
X119079001Y-54991441D01*
X119078998Y-54991441D01*
X119064691Y-54995275D01*
X119032599Y-54999500D01*
X117779766Y-54999500D01*
X117712727Y-54979815D01*
X117710875Y-54978602D01*
X117579185Y-54890609D01*
X117579172Y-54890602D01*
X117433501Y-54830264D01*
X117433489Y-54830261D01*
X117278845Y-54799500D01*
X117278842Y-54799500D01*
X117121158Y-54799500D01*
X117121155Y-54799500D01*
X116966510Y-54830261D01*
X116966498Y-54830264D01*
X116820827Y-54890602D01*
X116820814Y-54890609D01*
X116689711Y-54978210D01*
X116689707Y-54978213D01*
X116578213Y-55089707D01*
X116578210Y-55089711D01*
X116490609Y-55220814D01*
X116490602Y-55220827D01*
X116430264Y-55366498D01*
X116430261Y-55366510D01*
X116399500Y-55521153D01*
X116399500Y-55550500D01*
X116379815Y-55617539D01*
X116327011Y-55663294D01*
X116275500Y-55674500D01*
X115638389Y-55674500D01*
X115545566Y-55692964D01*
X115517548Y-55698537D01*
X115517547Y-55698537D01*
X115403716Y-55745687D01*
X115313904Y-55805697D01*
X115313905Y-55805698D01*
X115301264Y-55814144D01*
X115225508Y-55889901D01*
X115107827Y-56007582D01*
X115046507Y-56041066D01*
X115020148Y-56043900D01*
X114742206Y-56043900D01*
X114618993Y-56043900D01*
X114568166Y-56054010D01*
X114568165Y-56054009D01*
X114498155Y-56067935D01*
X114498145Y-56067938D01*
X114384316Y-56115087D01*
X114384307Y-56115092D01*
X114281868Y-56183540D01*
X114257786Y-56207623D01*
X114194742Y-56270667D01*
X114194739Y-56270670D01*
X114123840Y-56341569D01*
X113925385Y-56540023D01*
X113864062Y-56573507D01*
X113794370Y-56568523D01*
X113750023Y-56540022D01*
X113750001Y-56540000D01*
X112833012Y-56540000D01*
X112865925Y-56482993D01*
X112900000Y-56355826D01*
X112900000Y-56224174D01*
X112865925Y-56097007D01*
X112833012Y-56040000D01*
X113749999Y-56040000D01*
X113749999Y-55640028D01*
X113749998Y-55640013D01*
X113739505Y-55537302D01*
X113684358Y-55370880D01*
X113684356Y-55370875D01*
X113592315Y-55221654D01*
X113468345Y-55097684D01*
X113319124Y-55005643D01*
X113319114Y-55005639D01*
X113308272Y-55002046D01*
X113250829Y-54962272D01*
X113224009Y-54897755D01*
X113236326Y-54828979D01*
X113274403Y-54784018D01*
X113279792Y-54780104D01*
X113430104Y-54629792D01*
X113430106Y-54629788D01*
X113430109Y-54629786D01*
X113555048Y-54457820D01*
X113555047Y-54457820D01*
X113555051Y-54457816D01*
X113651557Y-54268412D01*
X113717246Y-54066243D01*
X113750500Y-53856287D01*
X113750500Y-53643713D01*
X113717246Y-53433757D01*
X113694195Y-53362816D01*
X113692201Y-53292977D01*
X113728281Y-53233144D01*
X113790982Y-53202316D01*
X113812127Y-53200500D01*
X118314548Y-53200500D01*
X118381587Y-53220185D01*
G37*
%TD.AperFunction*%
%TA.AperFunction,Conductor*%
G36*
X106854075Y-56097007D02*
G01*
X106820000Y-56224174D01*
X106820000Y-56355826D01*
X106854075Y-56482993D01*
X106886988Y-56540000D01*
X105213012Y-56540000D01*
X105245925Y-56482993D01*
X105280000Y-56355826D01*
X105280000Y-56224174D01*
X105245925Y-56097007D01*
X105213012Y-56040000D01*
X106886988Y-56040000D01*
X106854075Y-56097007D01*
G37*
%TD.AperFunction*%
%TA.AperFunction,Conductor*%
G36*
X109394075Y-56097007D02*
G01*
X109360000Y-56224174D01*
X109360000Y-56355826D01*
X109394075Y-56482993D01*
X109426988Y-56540000D01*
X107753012Y-56540000D01*
X107785925Y-56482993D01*
X107820000Y-56355826D01*
X107820000Y-56224174D01*
X107785925Y-56097007D01*
X107753012Y-56040000D01*
X109426988Y-56040000D01*
X109394075Y-56097007D01*
G37*
%TD.AperFunction*%
%TA.AperFunction,Conductor*%
G36*
X111934075Y-56097007D02*
G01*
X111900000Y-56224174D01*
X111900000Y-56355826D01*
X111934075Y-56482993D01*
X111966988Y-56540000D01*
X110293012Y-56540000D01*
X110325925Y-56482993D01*
X110360000Y-56355826D01*
X110360000Y-56224174D01*
X110325925Y-56097007D01*
X110293012Y-56040000D01*
X111966988Y-56040000D01*
X111934075Y-56097007D01*
G37*
%TD.AperFunction*%
%TD*%
M02*
