%TF.GenerationSoftware,KiCad,Pcbnew,10.0.5*%
%TF.CreationDate,2026-08-14T15:53:09-04:00*%
%TF.ProjectId,sedsna,73656473-6e61-42e6-9b69-6361645f7063,rev?*%
%TF.SameCoordinates,Original*%
%TF.FileFunction,Copper,L1,Top*%
%TF.FilePolarity,Positive*%
%FSLAX46Y46*%
G04 Gerber Fmt 4.6, Leading zero omitted, Abs format (unit mm)*
G04 Created by KiCad (PCBNEW 10.0.5) date 2026-08-14 15:53:09*
%MOMM*%
%LPD*%
G01*
G04 APERTURE LIST*
G04 Aperture macros list*
%AMRoundRect*
0 Rectangle with rounded corners*
0 $1 Rounding radius*
0 $2 $3 $4 $5 $6 $7 $8 $9 X,Y pos of 4 corners*
0 Add a 4 corners polygon primitive as box body*
4,1,4,$2,$3,$4,$5,$6,$7,$8,$9,$2,$3,0*
0 Add four circle primitives for the rounded corners*
1,1,$1+$1,$2,$3*
1,1,$1+$1,$4,$5*
1,1,$1+$1,$6,$7*
1,1,$1+$1,$8,$9*
0 Add four rect primitives between the rounded corners*
20,1,$1+$1,$2,$3,$4,$5,0*
20,1,$1+$1,$4,$5,$6,$7,0*
20,1,$1+$1,$6,$7,$8,$9,0*
20,1,$1+$1,$8,$9,$2,$3,0*%
%AMRotRect*
0 Rectangle, with rotation*
0 The origin of the aperture is its center*
0 $1 length*
0 $2 width*
0 $3 Rotation angle, in degrees counterclockwise*
0 Add horizontal line*
21,1,$1,$2,0,0,$3*%
G04 Aperture macros list end*
%ADD10C,0.360000*%
%TA.AperFunction,SMDPad,CuDef*%
%ADD11RoundRect,0.067500X0.682500X-0.157500X0.682500X0.157500X-0.682500X0.157500X-0.682500X-0.157500X0*%
%TD*%
%TA.AperFunction,ComponentPad*%
%ADD12R,2.775000X2.775000*%
%TD*%
%TA.AperFunction,ComponentPad*%
%ADD13C,2.775000*%
%TD*%
%TA.AperFunction,ComponentPad*%
%ADD14C,1.800000*%
%TD*%
%TA.AperFunction,SMDPad,CuDef*%
%ADD15RotRect,0.850000X0.750000X135.000000*%
%TD*%
%TA.AperFunction,ComponentPad*%
%ADD16C,5.700000*%
%TD*%
%TA.AperFunction,SMDPad,CuDef*%
%ADD17R,0.900800X1.549400*%
%TD*%
%TA.AperFunction,SMDPad,CuDef*%
%ADD18R,3.200400X1.549400*%
%TD*%
%TA.AperFunction,SMDPad,CuDef*%
%ADD19RoundRect,0.160000X-0.044194X-0.270468X0.270468X0.044194X0.044194X0.270468X-0.270468X-0.044194X0*%
%TD*%
%TA.AperFunction,SMDPad,CuDef*%
%ADD20R,1.295400X1.104900*%
%TD*%
%TA.AperFunction,ComponentPad*%
%ADD21O,1.800000X1.000000*%
%TD*%
%TA.AperFunction,ComponentPad*%
%ADD22O,2.100000X1.000000*%
%TD*%
%TA.AperFunction,ComponentPad*%
%ADD23C,0.650000*%
%TD*%
%TA.AperFunction,SMDPad,CuDef*%
%ADD24R,1.143000X0.542100*%
%TD*%
%TA.AperFunction,SMDPad,CuDef*%
%ADD25R,1.143000X0.584200*%
%TD*%
%TA.AperFunction,SMDPad,CuDef*%
%ADD26R,1.143000X0.252400*%
%TD*%
%TA.AperFunction,SMDPad,CuDef*%
%ADD27R,1.135700X0.252400*%
%TD*%
%TA.AperFunction,SMDPad,CuDef*%
%ADD28R,1.135700X0.252398*%
%TD*%
%TA.AperFunction,SMDPad,CuDef*%
%ADD29R,1.143000X0.252399*%
%TD*%
%TA.AperFunction,SMDPad,CuDef*%
%ADD30R,1.143000X0.252401*%
%TD*%
%TA.AperFunction,SMDPad,CuDef*%
%ADD31R,0.254000X0.279400*%
%TD*%
%TA.AperFunction,SMDPad,CuDef*%
%ADD32R,0.254000X0.254000*%
%TD*%
%TA.AperFunction,ComponentPad*%
%ADD33RoundRect,0.250000X0.600000X-0.600000X0.600000X0.600000X-0.600000X0.600000X-0.600000X-0.600000X0*%
%TD*%
%TA.AperFunction,ComponentPad*%
%ADD34C,1.700000*%
%TD*%
%TA.AperFunction,SMDPad,CuDef*%
%ADD35RotRect,0.254000X0.762000X315.000000*%
%TD*%
%TA.AperFunction,SMDPad,CuDef*%
%ADD36RotRect,0.254000X0.762000X225.000000*%
%TD*%
%TA.AperFunction,SMDPad,CuDef*%
%ADD37RotRect,3.759200X3.759200X225.000000*%
%TD*%
%TA.AperFunction,SMDPad,CuDef*%
%ADD38RoundRect,0.100000X-0.224506X0.083085X0.083085X-0.224506X0.224506X-0.083085X-0.083085X0.224506X0*%
%TD*%
%TA.AperFunction,SMDPad,CuDef*%
%ADD39RoundRect,0.237500X-0.344715X0.008839X0.008839X-0.344715X0.344715X-0.008839X-0.008839X0.344715X0*%
%TD*%
%TA.AperFunction,ComponentPad*%
%ADD40C,2.325000*%
%TD*%
%TA.AperFunction,ComponentPad*%
%ADD41C,2.625000*%
%TD*%
%TA.AperFunction,SMDPad,CuDef*%
%ADD42RoundRect,0.155000X0.259862X-0.040659X-0.040659X0.259862X-0.259862X0.040659X0.040659X-0.259862X0*%
%TD*%
%TA.AperFunction,SMDPad,CuDef*%
%ADD43RoundRect,0.100000X0.224506X-0.083085X-0.083085X0.224506X-0.224506X0.083085X0.083085X-0.224506X0*%
%TD*%
%TA.AperFunction,ComponentPad*%
%ADD44C,1.955800*%
%TD*%
%TA.AperFunction,ComponentPad*%
%ADD45C,2.159000*%
%TD*%
%TA.AperFunction,SMDPad,CuDef*%
%ADD46R,0.482600X0.254000*%
%TD*%
%TA.AperFunction,SMDPad,CuDef*%
%ADD47R,0.254000X0.482600*%
%TD*%
%TA.AperFunction,ViaPad*%
%ADD48C,0.600000*%
%TD*%
%TA.AperFunction,ViaPad*%
%ADD49C,0.400000*%
%TD*%
%TA.AperFunction,Conductor*%
%ADD50C,0.200000*%
%TD*%
%TA.AperFunction,Conductor*%
%ADD51C,0.250000*%
%TD*%
%TA.AperFunction,Conductor*%
%ADD52C,0.360000*%
%TD*%
G04 APERTURE END LIST*
D10*
X126350000Y-61200000D02*
X126357710Y-61193211D01*
X126365403Y-61186463D01*
X126373077Y-61179757D01*
X126380736Y-61173093D01*
X126388376Y-61166470D01*
X126395999Y-61159889D01*
X126403605Y-61153349D01*
X126411195Y-61146850D01*
X126418766Y-61140392D01*
X126426322Y-61133974D01*
X126433860Y-61127597D01*
X126441382Y-61121260D01*
X126448886Y-61114963D01*
X126456375Y-61108706D01*
X126463846Y-61102490D01*
X126471302Y-61096313D01*
X126478741Y-61090175D01*
X126486163Y-61084077D01*
X126493570Y-61078018D01*
X126500960Y-61071997D01*
X126508334Y-61066016D01*
X126515692Y-61060074D01*
X126523034Y-61054170D01*
X126530361Y-61048304D01*
X126537671Y-61042476D01*
X126544966Y-61036687D01*
X126552245Y-61030935D01*
X126559509Y-61025222D01*
X126566757Y-61019545D01*
X126573990Y-61013907D01*
X126581207Y-61008305D01*
X126588410Y-61002740D01*
X126595597Y-60997213D01*
X126602769Y-60991722D01*
X126609926Y-60986268D01*
X126617068Y-60980850D01*
X126624195Y-60975469D01*
X126631307Y-60970124D01*
X126638405Y-60964814D01*
X126645488Y-60959541D01*
X126652557Y-60954303D01*
X126659611Y-60949101D01*
X126666651Y-60943935D01*
X126673676Y-60938803D01*
X126680688Y-60933707D01*
X126687685Y-60928646D01*
X126694668Y-60923619D01*
X126701637Y-60918627D01*
X126708592Y-60913669D01*
X126715533Y-60908747D01*
X126722461Y-60903857D01*
X126729375Y-60899003D01*
X126736276Y-60894182D01*
X126743162Y-60889395D01*
X126750036Y-60884641D01*
X126756896Y-60879922D01*
X126763743Y-60875235D01*
X126770576Y-60870582D01*
X126777398Y-60865961D01*
X126784205Y-60861374D01*
X126791000Y-60856819D01*
X126797781Y-60852297D01*
X126804551Y-60847807D01*
X126811307Y-60843350D01*
X126818052Y-60838925D01*
X126824782Y-60834532D01*
X126831502Y-60830171D01*
X126838208Y-60825842D01*
X126844903Y-60821544D01*
X126851584Y-60817278D01*
X126858255Y-60813043D01*
X126864912Y-60808840D01*
X126871560Y-60804667D01*
X126878193Y-60800526D01*
X126884817Y-60796415D01*
X126891427Y-60792336D01*
X126898028Y-60788286D01*
X126904615Y-60784268D01*
X126911193Y-60780279D01*
X126917757Y-60776321D01*
X126924312Y-60772392D01*
X126930854Y-60768495D01*
X126937387Y-60764625D01*
X126943907Y-60760787D01*
X126950419Y-60756977D01*
X126956917Y-60753198D01*
X126963408Y-60749446D01*
X126969884Y-60745725D01*
X126976354Y-60742032D01*
X126982810Y-60738369D01*
X126989259Y-60734733D01*
X126995694Y-60731128D01*
X127002123Y-60727549D01*
X127008538Y-60724001D01*
X127014947Y-60720479D01*
X127021342Y-60716987D01*
X127027732Y-60713521D01*
X127034108Y-60710085D01*
X127040478Y-60706674D01*
X127046835Y-60703294D01*
X127053187Y-60699939D01*
X127059525Y-60696613D01*
X127065859Y-60693313D01*
X127072179Y-60690042D01*
X127078495Y-60686795D01*
X127084797Y-60683579D01*
X127091096Y-60680386D01*
X127097381Y-60677223D01*
X127103662Y-60674083D01*
X127109930Y-60670973D01*
X127116195Y-60667887D01*
X127122446Y-60664829D01*
X127134930Y-60658790D01*
X127147383Y-60652854D01*
X127159805Y-60647021D01*
X127172197Y-60641290D01*
X127184561Y-60635660D01*
X127196897Y-60630130D01*
X127209206Y-60624699D01*
X127221489Y-60619367D01*
X127233747Y-60614133D01*
X127245981Y-60608995D01*
X127258192Y-60603953D01*
X127270382Y-60599007D01*
X127282551Y-60594154D01*
X127294700Y-60589396D01*
X127306830Y-60584730D01*
X127318943Y-60580156D01*
X127331040Y-60575673D01*
X127343121Y-60571281D01*
X127355188Y-60566979D01*
X127367243Y-60562766D01*
X127379287Y-60558641D01*
X127391320Y-60554604D01*
X127403345Y-60550653D01*
X127415362Y-60546789D01*
X127427374Y-60543010D01*
X127439381Y-60539316D01*
X127451385Y-60535706D01*
X127463388Y-60532179D01*
X127475392Y-60528736D01*
X127487397Y-60525374D01*
X127499407Y-60522094D01*
X127511422Y-60518895D01*
X127523445Y-60515776D01*
X127535477Y-60512737D01*
X127547521Y-60509777D01*
X127559579Y-60506896D01*
X127571653Y-60504092D01*
X127583746Y-60501366D01*
X127595860Y-60498716D01*
X127607997Y-60496143D01*
X127620161Y-60493645D01*
X127632354Y-60491223D01*
X127644579Y-60488875D01*
X127656841Y-60486601D01*
X127669141Y-60484400D01*
X127681484Y-60482273D01*
X127693875Y-60480218D01*
X127706316Y-60478235D01*
X127718812Y-60476324D01*
X127731369Y-60474484D01*
X127743992Y-60472714D01*
X127756686Y-60471015D01*
X127769457Y-60469385D01*
X127782312Y-60467824D01*
X127795259Y-60466333D01*
X127808304Y-60464909D01*
X127821458Y-60463554D01*
X127834730Y-60462266D01*
X127848130Y-60461045D01*
X127861672Y-60459890D01*
X127875367Y-60458802D01*
X127889233Y-60457780D01*
X127903286Y-60456823D01*
X127917547Y-60455931D01*
X127932039Y-60455104D01*
X127946790Y-60454341D01*
X127961833Y-60453641D01*
X127977207Y-60453005D01*
X127992961Y-60452432D01*
X128009155Y-60451921D01*
X128025866Y-60451472D01*
X128043194Y-60451085D01*
X128061276Y-60450758D01*
X128080307Y-60450492D01*
X128100578Y-60450285D01*
X128122572Y-60450136D01*
X128147195Y-60450044D01*
X128176607Y-60450004D01*
X128200000Y-60450000D01*
X128200000Y-60450000D02*
X130900000Y-60450000D01*
D11*
%TO.P,U4,1,SCL_1*%
%TO.N,/I2C_SCL*%
X112512500Y-70805000D03*
%TO.P,U4,2,SDA_2*%
%TO.N,/I2C_SDA*%
X112512500Y-69535000D03*
%TO.P,U4,3,MISO_3*%
%TO.N,Earth*%
X112512500Y-68265000D03*
%TO.P,U4,4,INT_4*%
X112512500Y-66995000D03*
%TO.P,U4,5,A0_5*%
X106512500Y-66995000D03*
%TO.P,U4,6,Vss_6*%
X106512500Y-68265000D03*
%TO.P,U4,7,Vdd_7*%
%TO.N,+3.3V*%
X106512500Y-69535000D03*
%TO.P,U4,8,MS_8*%
X106512500Y-70805000D03*
%TD*%
D12*
%TO.P,J7,1,Pin_1_1*%
%TO.N,Earth*%
X102000000Y-111750000D03*
D13*
%TO.P,J7,2,Pin_2_2*%
%TO.N,unconnected-(J7-Pin_2-Pad2)*%
X102000000Y-105400000D03*
%TO.P,J7,3,Pin_3_3*%
%TO.N,/CTR_Prop*%
X102000000Y-99050000D03*
%TD*%
D14*
%TO.P,RESET1,1,1_1*%
%TO.N,Earth*%
X105762500Y-74700000D03*
%TO.P,RESET1,2,2_2*%
%TO.N,Net-(U2-CHIP_EN)*%
X112162500Y-74700000D03*
%TD*%
D15*
%TO.P,XTAL1,1,IN/OUT_1*%
%TO.N,Net-(XTAL1-IN{slash}OUT)*%
X124754594Y-69954594D03*
%TO.P,XTAL1,2,GND_2*%
%TO.N,Earth*%
X123800000Y-69000000D03*
%TO.P,XTAL1,3,OUT/IN_3*%
%TO.N,Net-(U2-XTAL_N)*%
X123057538Y-69742462D03*
%TO.P,XTAL1,4,GND_4*%
%TO.N,Earth*%
X124012132Y-70697056D03*
%TD*%
D16*
%TO.P,H1,1*%
%TO.N,N/C*%
X99800000Y-52800000D03*
%TD*%
D17*
%TO.P,U6,1,GND_1*%
%TO.N,Earth*%
X116500000Y-77975800D03*
%TO.P,U6,2,VOUT_2*%
%TO.N,+3.3V*%
X118800000Y-77975800D03*
%TO.P,U6,3,VIN_3*%
%TO.N,+6.6V*%
X121100000Y-77975800D03*
D18*
%TO.P,U6,4,VOUT_4*%
%TO.N,+3.3V*%
X118800000Y-71524200D03*
%TD*%
D19*
%TO.P,L1,1,1_1*%
%TO.N,/ANT*%
X124845181Y-62654819D03*
%TO.P,L1,2,2_2*%
%TO.N,Net-(AE1-Pad1)*%
X125654819Y-61845181D03*
%TD*%
D20*
%TO.P,PWR1,1,K_1*%
%TO.N,Net-(PWR1-K)*%
X125500000Y-75747750D03*
%TO.P,PWR1,2,A_2*%
%TO.N,+3.3V*%
X125500000Y-73652250D03*
%TD*%
D21*
%TO.P,J5,13,SHELL_13*%
%TO.N,Earth*%
X134808400Y-88820002D03*
%TO.P,J5,14,SHELL_14*%
X134808400Y-80179998D03*
D22*
%TO.P,J5,15,SHELL_15*%
X130628400Y-88832651D03*
%TO.P,J5,16,SHELL_16*%
X130631750Y-80142349D03*
D23*
%TO.P,J5,17*%
%TO.N,N/C*%
X131120000Y-87390000D03*
%TO.P,J5,18*%
X131120000Y-81610000D03*
D24*
%TO.P,J5,A1-B12,GND_A1-B12*%
%TO.N,Earth*%
X130053400Y-87678950D03*
D25*
%TO.P,J5,A4-B9,VBUS_A4-B9*%
%TO.N,/VBUS*%
X130053400Y-86900001D03*
D26*
%TO.P,J5,A5,CC1_A5*%
%TO.N,unconnected-(J5-CC1-PadA5)*%
X130053400Y-85723800D03*
D27*
%TO.P,J5,A6,DP1_A6*%
%TO.N,/USB_D+*%
X130057050Y-84723800D03*
D26*
%TO.P,J5,A7,DN1_A7*%
%TO.N,/USB_D-*%
X130053400Y-84223800D03*
%TO.P,J5,A8,SBU1_A8*%
%TO.N,unconnected-(J5-SBU1-PadA8)*%
X130053400Y-83223800D03*
D24*
%TO.P,J5,B1-A12,GND_B1-A12*%
%TO.N,Earth*%
X130053400Y-81278950D03*
%TO.P,J5,B4-A9,VBUS_B4-A9*%
%TO.N,/VBUS*%
X130053400Y-82078950D03*
D28*
%TO.P,J5,B5,CC2_B5*%
%TO.N,unconnected-(J5-CC2-PadB5)*%
X130057050Y-82723801D03*
D26*
%TO.P,J5,B6,DP2_B6*%
%TO.N,/USB_D+*%
X130053400Y-83723800D03*
D29*
%TO.P,J5,B7,DN2_B7*%
%TO.N,/USB_D-*%
X130053400Y-85223800D03*
D30*
%TO.P,J5,B8,SBU2_B8*%
%TO.N,unconnected-(J5-SBU2-PadB8)*%
X130053400Y-86223799D03*
%TD*%
D31*
%TO.P,B1,1,VDDIO_1*%
%TO.N,+3.3V*%
X111839499Y-64910302D03*
%TO.P,B1,2,SCK_2*%
%TO.N,/I2C_SCL*%
X112339499Y-64910302D03*
D32*
%TO.P,B1,3,VSS_3*%
%TO.N,Earth*%
X112862500Y-64650000D03*
%TO.P,B1,4,SDI_4*%
%TO.N,/I2C_SDA*%
X112862500Y-64150001D03*
%TO.P,B1,5,SDO_5*%
%TO.N,Net-(B1-SDO)*%
X112862500Y-63650002D03*
D31*
%TO.P,B1,6,CSB_6*%
%TO.N,Net-(B1-CSB)*%
X112339499Y-63389700D03*
%TO.P,B1,7,INT_7*%
%TO.N,unconnected-(B1-INT-Pad7)*%
X111839499Y-63389700D03*
D32*
%TO.P,B1,8,VSS_8*%
%TO.N,Earth*%
X111316498Y-63650002D03*
%TO.P,B1,9,VSS_9*%
X111316498Y-64150001D03*
%TO.P,B1,10,VDD_10*%
%TO.N,+3.3V*%
X111316498Y-64650000D03*
%TD*%
D33*
%TO.P,J1,1*%
%TO.N,Earth*%
X104780000Y-56290000D03*
D34*
%TO.P,J1,2*%
%TO.N,+6.6V*%
X104780000Y-53750000D03*
%TO.P,J1,3*%
%TO.N,/Channel_1*%
X104780000Y-51210000D03*
D33*
%TO.P,J1,4*%
%TO.N,Earth*%
X107320000Y-56290000D03*
D34*
%TO.P,J1,5*%
%TO.N,+6.6V*%
X107320000Y-53750000D03*
%TO.P,J1,6*%
%TO.N,/Channel_2*%
X107320000Y-51210000D03*
D33*
%TO.P,J1,7*%
%TO.N,Earth*%
X109860000Y-56290000D03*
D34*
%TO.P,J1,8*%
%TO.N,+6.6V*%
X109860000Y-53750000D03*
%TO.P,J1,9*%
%TO.N,/Channel_3*%
X109860000Y-51210000D03*
D33*
%TO.P,J1,10*%
%TO.N,Earth*%
X112400000Y-56290000D03*
D34*
%TO.P,J1,11*%
%TO.N,+6.6V*%
X112400000Y-53750000D03*
%TO.P,J1,12*%
%TO.N,/Channel_4*%
X112400000Y-51210000D03*
%TD*%
D35*
%TO.P,U2,1,LNA_IN_1*%
%TO.N,/ANT*%
X122916379Y-64583621D03*
%TO.P,U2,2,VDD3P3_2*%
%TO.N,+3.3V*%
X122562826Y-64230068D03*
%TO.P,U2,3,VDD3P3_3*%
X122209273Y-63876515D03*
%TO.P,U2,4,XTAL_32K_P_4*%
%TO.N,/Channel_4*%
X121855719Y-63522961D03*
%TO.P,U2,5,XTAL_32K_N_5*%
%TO.N,/Channel_3*%
X121502166Y-63169408D03*
%TO.P,U2,6,GPIO2_6*%
%TO.N,/I2C_SCL*%
X121148612Y-62815854D03*
%TO.P,U2,7,CHIP_EN_7*%
%TO.N,Net-(U2-CHIP_EN)*%
X120795059Y-62462301D03*
%TO.P,U2,8,GPIO3_8*%
%TO.N,/CTR_Prop*%
X120441506Y-62108748D03*
D36*
%TO.P,U2,9,MTMS_9*%
%TO.N,/CTR_L_Ail*%
X119450000Y-62108748D03*
%TO.P,U2,10,MTDI_10*%
%TO.N,/CTR_R_Ail*%
X119096447Y-62462301D03*
%TO.P,U2,11,VDD3P3_RTC_11*%
%TO.N,+3.3V*%
X118742894Y-62815854D03*
%TO.P,U2,12,MTCK_12*%
%TO.N,/CTR_Rudder*%
X118389340Y-63169408D03*
%TO.P,U2,13,MTDO_13*%
%TO.N,/CTR_Elevator*%
X118035787Y-63522961D03*
%TO.P,U2,14,GPIO8_14*%
%TO.N,/I2C_SDA*%
X117682233Y-63876515D03*
%TO.P,U2,15,GPIO9_15*%
%TO.N,/Channel_2*%
X117328680Y-64230068D03*
%TO.P,U2,16,GPIO10_16*%
%TO.N,/Channel_1*%
X116975127Y-64583621D03*
D35*
%TO.P,U2,17,VDD3P3_CPU_17*%
%TO.N,+3.3V*%
X116975127Y-65575127D03*
%TO.P,U2,18,VDD_SPI_18*%
X117328680Y-65928680D03*
%TO.P,U2,19,SPIHD_19*%
%TO.N,unconnected-(U2-SPIHD-Pad19)*%
X117682233Y-66282233D03*
%TO.P,U2,20,SPIWP_20*%
%TO.N,unconnected-(U2-SPIWP-Pad20)*%
X118035787Y-66635787D03*
%TO.P,U2,21,SPICS0_21*%
%TO.N,unconnected-(U2-SPICS0-Pad21)*%
X118389340Y-66989340D03*
%TO.P,U2,22,SPICLK_22*%
%TO.N,unconnected-(U2-SPICLK-Pad22)*%
X118742894Y-67342894D03*
%TO.P,U2,23,SPID_23*%
%TO.N,unconnected-(U2-SPID-Pad23)*%
X119096447Y-67696447D03*
%TO.P,U2,24,SPIQ_24*%
%TO.N,unconnected-(U2-SPIQ-Pad24)*%
X119450000Y-68050000D03*
D36*
%TO.P,U2,25,GPIO18_25*%
%TO.N,/USB_D-*%
X120441506Y-68050000D03*
%TO.P,U2,26,GPIO19_26*%
%TO.N,/USB_D+*%
X120795059Y-67696447D03*
%TO.P,U2,27,U0RXD_27*%
%TO.N,Earth*%
X121148612Y-67342894D03*
%TO.P,U2,28,U0TXD_28*%
%TO.N,Net-(STAT1-A)*%
X121502166Y-66989340D03*
%TO.P,U2,29,XTAL_N_29*%
%TO.N,Net-(U2-XTAL_N)*%
X121855719Y-66635787D03*
%TO.P,U2,30,XTAL_P_30*%
%TO.N,Net-(U2-XTAL_P)*%
X122209273Y-66282233D03*
%TO.P,U2,31,VDDA_31*%
%TO.N,+3.3V*%
X122562826Y-65928680D03*
%TO.P,U2,32,VDDA_32*%
X122916379Y-65575127D03*
D37*
%TO.P,U2,33,GND_33*%
%TO.N,Earth*%
X119945753Y-65079374D03*
%TD*%
D12*
%TO.P,J11,1,Pin_1_1*%
%TO.N,+6.6V*%
X122850000Y-84500000D03*
D13*
%TO.P,J11,2,Pin_2_2*%
%TO.N,Earth*%
X116500000Y-84500000D03*
%TO.P,J11,3,Pin_3_3*%
%TO.N,unconnected-(J11-Pin_3-Pad3)*%
X110150000Y-84500000D03*
%TD*%
D12*
%TO.P,J6,1,Pin_1_1*%
%TO.N,Earth*%
X131000000Y-111750000D03*
D13*
%TO.P,J6,2,Pin_2_2*%
%TO.N,+6.6V*%
X131000000Y-105400000D03*
%TO.P,J6,3,Pin_3_3*%
%TO.N,/CTR_R_Ail*%
X131000000Y-99050000D03*
%TD*%
D38*
%TO.P,C9,1*%
%TO.N,/ANT*%
X124161854Y-63361854D03*
%TO.P,C9,2*%
%TO.N,Earth*%
X124738146Y-63938146D03*
%TD*%
D16*
%TO.P,H2,1*%
%TO.N,N/C*%
X133300000Y-52800000D03*
%TD*%
D39*
%TO.P,R2,1*%
%TO.N,Net-(U2-XTAL_P)*%
X125554765Y-67004765D03*
%TO.P,R2,2*%
%TO.N,Net-(XTAL1-IN{slash}OUT)*%
X126845235Y-68295235D03*
%TD*%
D40*
%TO.P,AE1,1*%
%TO.N,Net-(AE1-Pad1)*%
X131940000Y-60490000D03*
D41*
%TO.P,AE1,G1*%
%TO.N,Earth*%
X129400000Y-57950000D03*
%TO.P,AE1,G2*%
X134480000Y-57950000D03*
%TO.P,AE1,G3*%
X129400000Y-63030000D03*
%TO.P,AE1,G4*%
X134480000Y-63030000D03*
%TD*%
D42*
%TO.P,C1,1*%
%TO.N,Net-(XTAL1-IN{slash}OUT)*%
X125601283Y-68951283D03*
%TO.P,C1,2*%
%TO.N,Earth*%
X124798717Y-68148717D03*
%TD*%
D43*
%TO.P,C8,1*%
%TO.N,Net-(AE1-Pad1)*%
X126338146Y-61188146D03*
%TO.P,C8,2*%
%TO.N,Earth*%
X125761854Y-60611854D03*
%TD*%
D44*
%TO.P,J3,1,Pin_1_1*%
%TO.N,/CTR_Elevator*%
X110000000Y-120000000D03*
%TO.P,J3,2,Pin_2_2*%
%TO.N,+6.6V*%
X116500000Y-120000000D03*
%TO.P,J3,3,Pin_3_3*%
%TO.N,Earth*%
X122999999Y-120000000D03*
%TO.P,J3,4,Pin_4_4*%
X110000000Y-126550000D03*
%TO.P,J3,5,Pin_5_5*%
%TO.N,+6.6V*%
X116500000Y-126550000D03*
%TO.P,J3,6,Pin_6_6*%
%TO.N,/CTR_Rudder*%
X122999999Y-126550000D03*
D45*
%TO.P,J3,9*%
%TO.N,N/C*%
X105795000Y-134810001D03*
%TO.P,J3,10*%
X127205000Y-134810001D03*
%TD*%
D20*
%TO.P,STAT1,1,K_1*%
%TO.N,Net-(STAT1-K)*%
X129400000Y-75747750D03*
%TO.P,STAT1,2,A_2*%
%TO.N,Net-(STAT1-A)*%
X129400000Y-73652250D03*
%TD*%
D46*
%TO.P,U5,1,SDO_1*%
%TO.N,Earth*%
X115344300Y-56749999D03*
%TO.P,U5,2,NC_2*%
%TO.N,unconnected-(U5-NC-Pad2)*%
X115344300Y-57250000D03*
%TO.P,U5,3,NC_3*%
%TO.N,unconnected-(U5-NC-Pad3)*%
X115344300Y-57750000D03*
%TO.P,U5,4,INT1_4*%
%TO.N,unconnected-(U5-INT1-Pad4)*%
X115344300Y-58250001D03*
D47*
%TO.P,U5,5,VDDIO_5*%
%TO.N,+3.3V*%
X116000001Y-58414400D03*
%TO.P,U5,6,GNDIO_6*%
%TO.N,Earth*%
X116500000Y-58414400D03*
%TO.P,U5,7,GND_7*%
X116999999Y-58414400D03*
D46*
%TO.P,U5,8,VDD_8*%
%TO.N,+3.3V*%
X117655700Y-58250001D03*
%TO.P,U5,9,INT2_9*%
%TO.N,unconnected-(U5-INT2-Pad9)*%
X117655700Y-57750000D03*
%TO.P,U5,10,NC_10*%
%TO.N,unconnected-(U5-NC-Pad10)*%
X117655700Y-57250000D03*
%TO.P,U5,11,NC_11*%
%TO.N,unconnected-(U5-NC-Pad11)*%
X117655700Y-56749999D03*
D47*
%TO.P,U5,12,CSB_12*%
%TO.N,+3.3V*%
X116999999Y-56585600D03*
%TO.P,U5,13,SCX_13*%
%TO.N,/I2C_SCL*%
X116500000Y-56585600D03*
%TO.P,U5,14,SDX_14*%
%TO.N,/I2C_SDA*%
X116000001Y-56585600D03*
%TD*%
D12*
%TO.P,J4,1,Pin_1_1*%
%TO.N,Earth*%
X116500000Y-111750000D03*
D13*
%TO.P,J4,2,Pin_2_2*%
%TO.N,+6.6V*%
X116500000Y-105400000D03*
%TO.P,J4,3,Pin_3_3*%
%TO.N,/CTR_L_Ail*%
X116500000Y-99050000D03*
%TD*%
D42*
%TO.P,C2,1*%
%TO.N,Earth*%
X123001283Y-71551283D03*
%TO.P,C2,2*%
%TO.N,Net-(U2-XTAL_N)*%
X122198717Y-70748717D03*
%TD*%
D16*
%TO.P,H3,1*%
%TO.N,N/C*%
X99700000Y-137300000D03*
%TD*%
%TO.P,H4,1*%
%TO.N,N/C*%
X133300000Y-137300000D03*
%TD*%
D48*
%TO.N,/I2C_SCL*%
X120833742Y-55667627D03*
X117200000Y-55600000D03*
X121875000Y-60632239D03*
X114200000Y-65950000D03*
X122300878Y-56515094D03*
X112550000Y-65900000D03*
%TO.N,/I2C_SDA*%
X114700000Y-59850000D03*
X114775000Y-63275000D03*
X118806545Y-59072879D03*
D49*
%TO.N,Earth*%
X126210000Y-60320000D03*
D48*
X116500000Y-76600000D03*
D49*
X127776396Y-68753604D03*
D48*
X110200000Y-62550000D03*
D49*
X124981802Y-60382982D03*
X128940000Y-59870000D03*
X128511388Y-61030000D03*
X127950000Y-67930000D03*
X125258743Y-60858173D03*
X129390000Y-59870000D03*
X128482556Y-59870000D03*
X123130662Y-63580662D03*
D48*
X108500000Y-67000000D03*
X114150000Y-58550000D03*
D49*
X127529644Y-61124910D03*
X124920000Y-66420000D03*
X126667108Y-60251330D03*
X125310292Y-63207942D03*
X126821446Y-69778554D03*
X126220000Y-69470000D03*
X125097698Y-61384069D03*
X125661867Y-62735071D03*
X128015475Y-59871789D03*
D48*
X123150000Y-67900000D03*
D49*
X127450000Y-67500000D03*
D48*
X114750000Y-54070000D03*
D49*
X128970000Y-61030000D03*
X130260000Y-59870000D03*
X123692532Y-64659280D03*
X124400000Y-64740000D03*
X126100000Y-66250000D03*
X127552033Y-59920492D03*
X125310000Y-64510000D03*
X126463361Y-62037118D03*
X126874723Y-61839479D03*
X124051801Y-62490054D03*
X129910000Y-61030000D03*
X124367371Y-62114395D03*
X125427957Y-70447957D03*
X125844472Y-60033335D03*
X124823454Y-61826684D03*
X123437285Y-63239850D03*
X127083350Y-61360842D03*
X129450000Y-61030000D03*
D48*
X127500000Y-74000000D03*
D49*
X128070073Y-61030897D03*
D48*
X116400000Y-57550000D03*
D49*
X126840000Y-66840000D03*
X123676311Y-62832698D03*
X124075906Y-64275906D03*
X124430000Y-66930000D03*
X125583127Y-63685502D03*
X126094443Y-62423791D03*
X129830000Y-59870000D03*
X125392789Y-60017480D03*
D48*
X121150000Y-69500000D03*
D49*
X125400000Y-65950000D03*
X125890000Y-70050000D03*
X127075830Y-60053689D03*
X123342569Y-65008980D03*
X130350000Y-61030000D03*
D48*
%TO.N,+3.3V*%
X124150000Y-72700000D03*
X115057772Y-59134456D03*
X116600000Y-66650000D03*
X119050000Y-75150000D03*
X117600000Y-61850000D03*
X118600000Y-58300000D03*
X123200000Y-61700000D03*
X123800000Y-66820000D03*
X106500000Y-78000000D03*
X109500000Y-70000000D03*
X118700000Y-56200000D03*
X121887054Y-59557584D03*
X110500000Y-64500000D03*
X111550000Y-65600000D03*
%TO.N,/CTR_Prop*%
X108833058Y-59183058D03*
X102826981Y-65176839D03*
%TO.N,Net-(U2-CHIP_EN)*%
X101525000Y-61800000D03*
X121526369Y-56314753D03*
%TO.N,+6.6V*%
X121250000Y-76450000D03*
%TO.N,Net-(PWR1-K)*%
X124180000Y-75690000D03*
%TO.N,/VBUS*%
X127500000Y-82000000D03*
%TO.N,/USB_D+*%
X120200000Y-69600000D03*
X131351100Y-84223800D03*
%TO.N,/USB_D-*%
X128768400Y-84718400D03*
X119250000Y-69600000D03*
%TO.N,Net-(B1-SDO)*%
X113800000Y-62850000D03*
%TO.N,Net-(B1-CSB)*%
X112250000Y-62400000D03*
%TO.N,/CTR_L_Ail*%
X103364791Y-65769093D03*
X120050000Y-57500000D03*
%TO.N,/CTR_R_Ail*%
X115950000Y-67150000D03*
X119716942Y-59616942D03*
%TO.N,/CTR_Rudder*%
X115600000Y-64900000D03*
X116100000Y-60800000D03*
%TO.N,/CTR_Elevator*%
X115314579Y-60450000D03*
X113000000Y-97350000D03*
X114950000Y-64200000D03*
%TO.N,Net-(STAT1-K)*%
X130750000Y-75900000D03*
%TD*%
%TO.N,/I2C_SCL*%
D50*
X121875000Y-60632239D02*
X121675000Y-60832239D01*
X121251850Y-62815854D02*
X121148612Y-62815854D01*
X121675000Y-62183401D02*
X121650000Y-62208400D01*
X121650000Y-62208400D02*
X121650000Y-62417704D01*
X112512500Y-70805000D02*
X113262500Y-70805000D01*
X121650000Y-62417704D02*
X121251850Y-62815854D01*
X112550000Y-65120803D02*
X112339499Y-64910302D01*
X121668628Y-55600000D02*
X122300878Y-56232250D01*
X122300878Y-56232250D02*
X122300878Y-56515094D01*
X120901369Y-55600000D02*
X121668628Y-55600000D01*
X113262500Y-70805000D02*
X114200000Y-69867500D01*
X116500000Y-56585600D02*
X116500000Y-56117299D01*
X120833742Y-55667627D02*
X120901369Y-55600000D01*
X112550000Y-65900000D02*
X112550000Y-65120803D01*
X116500000Y-56117299D02*
X117017299Y-55600000D01*
X121675000Y-60832239D02*
X121675000Y-62183401D01*
X117017299Y-55600000D02*
X117200000Y-55600000D01*
X114200000Y-69867500D02*
X114200000Y-65950000D01*
%TO.N,/I2C_SDA*%
X118806545Y-59072879D02*
X118782053Y-59048387D01*
X116900000Y-59048387D02*
X116098387Y-59850000D01*
X118782053Y-59048387D02*
X116900000Y-59048387D01*
D51*
X116650000Y-54950000D02*
X116000001Y-55599999D01*
X118500000Y-54950000D02*
X116650000Y-54950000D01*
X118806545Y-59072879D02*
X119175508Y-59072879D01*
D50*
X112512500Y-69535000D02*
X113262500Y-69535000D01*
X117578997Y-63876515D02*
X117682233Y-63876515D01*
X114700000Y-59850000D02*
X114700000Y-61035702D01*
D51*
X119350000Y-55800000D02*
X118500000Y-54950000D01*
X119350000Y-58898387D02*
X119350000Y-55800000D01*
X116000001Y-55599999D02*
X116000001Y-56585600D01*
D50*
X113562500Y-69235000D02*
X113562500Y-64496000D01*
X113899999Y-64150001D02*
X114775000Y-63275000D01*
X113262500Y-69535000D02*
X113562500Y-69235000D01*
X113562500Y-64496000D02*
X113216501Y-64150001D01*
X114700000Y-61035702D02*
X117235156Y-63570858D01*
X113216501Y-64150001D02*
X112862500Y-64150001D01*
X117235156Y-63570858D02*
X117273340Y-63570858D01*
D51*
X119175508Y-59072879D02*
X119350000Y-58898387D01*
D50*
X116098387Y-59850000D02*
X114700000Y-59850000D01*
X112862500Y-64150001D02*
X113899999Y-64150001D01*
X117273340Y-63570858D02*
X117578997Y-63876515D01*
%TO.N,Earth*%
X130053400Y-81278950D02*
X130053400Y-80720699D01*
X123150000Y-67900000D02*
X124550000Y-67900000D01*
X116500000Y-57650000D02*
X116400000Y-57550000D01*
X115050001Y-56749999D02*
X114700000Y-57100000D01*
X112862500Y-64650000D02*
X113150000Y-64937500D01*
X116999999Y-58414400D02*
X116968301Y-58414400D01*
X124550000Y-67900000D02*
X124798717Y-68148717D01*
D51*
X109765000Y-68265000D02*
X108500000Y-67000000D01*
X106512500Y-66995000D02*
X108495000Y-66995000D01*
D50*
X111316498Y-63650002D02*
X111300002Y-63650002D01*
D51*
X116500000Y-77975800D02*
X116500000Y-84500000D01*
X108495000Y-66995000D02*
X108500000Y-67000000D01*
D50*
X111316498Y-64150001D02*
X111316498Y-63650002D01*
D51*
X107777500Y-67000000D02*
X108500000Y-67000000D01*
D50*
X121150000Y-69500000D02*
X121552424Y-69097576D01*
X130053400Y-80720699D02*
X130631750Y-80142349D01*
D51*
X116500000Y-76600000D02*
X116500000Y-77975800D01*
D50*
X113150000Y-64937500D02*
X113150000Y-66357500D01*
D51*
X108505000Y-66995000D02*
X108500000Y-67000000D01*
D52*
X124738146Y-63938146D02*
X125310000Y-64510000D01*
D50*
X123800000Y-68550000D02*
X123800000Y-69000000D01*
D51*
X112512500Y-66995000D02*
X108505000Y-66995000D01*
D50*
X123150000Y-67900000D02*
X123800000Y-68550000D01*
D51*
X106512500Y-68265000D02*
X107777500Y-67000000D01*
D50*
X130053400Y-88257651D02*
X130628400Y-88832651D01*
D51*
X127500000Y-73802100D02*
X125247900Y-71550000D01*
D50*
X116500000Y-58414400D02*
X116500000Y-57650000D01*
X111300002Y-63650002D02*
X110200000Y-62550000D01*
X121148612Y-67342894D02*
X119945753Y-66140035D01*
X113150000Y-66357500D02*
X112512500Y-66995000D01*
X114700000Y-57100000D02*
X114700000Y-58000000D01*
D51*
X127500000Y-74000000D02*
X127500000Y-73802100D01*
X125761854Y-60611854D02*
X125392789Y-60242789D01*
D50*
X119945753Y-66140035D02*
X119945753Y-65079374D01*
X123800000Y-69000000D02*
X123947434Y-69000000D01*
D51*
X112512500Y-68265000D02*
X109765000Y-68265000D01*
D50*
X130053400Y-87678950D02*
X130053400Y-88257651D01*
D51*
X125392789Y-60242789D02*
X125392789Y-60017480D01*
D50*
X112859999Y-56749999D02*
X112400000Y-56290000D01*
D51*
X124865076Y-71550000D02*
X124012132Y-70697056D01*
D50*
X121552424Y-69097576D02*
X121552424Y-67746706D01*
D51*
X125247900Y-71550000D02*
X124865076Y-71550000D01*
D50*
X116500000Y-58414400D02*
X116999999Y-58414400D01*
X123855510Y-70697056D02*
X123001283Y-71551283D01*
X121552424Y-67746706D02*
X121148612Y-67342894D01*
X115344300Y-56749999D02*
X115050001Y-56749999D01*
X114700000Y-58000000D02*
X114150000Y-58550000D01*
X123947434Y-69000000D02*
X124798717Y-68148717D01*
%TO.N,+3.3V*%
X115279945Y-59134456D02*
X116000001Y-58414400D01*
D51*
X123200000Y-61700000D02*
X122925000Y-61975000D01*
D50*
X117328680Y-65928680D02*
X116975127Y-65575127D01*
D51*
X125500000Y-73652250D02*
X125102250Y-73652250D01*
X122925000Y-62875115D02*
X122600000Y-63200116D01*
D50*
X111839499Y-64910302D02*
X111839499Y-65310501D01*
X123450000Y-66850000D02*
X122562826Y-65962826D01*
D51*
X122600000Y-63485788D02*
X122209273Y-63876515D01*
D50*
X111839499Y-65310501D02*
X111550000Y-65600000D01*
X122562826Y-65928680D02*
X122916379Y-65575127D01*
X111316498Y-64650000D02*
X110650000Y-64650000D01*
D51*
X118800000Y-71524200D02*
X118800000Y-74900000D01*
D50*
X117600000Y-61850000D02*
X117777040Y-61850000D01*
X122209273Y-63876515D02*
X122562826Y-64230068D01*
D51*
X108000000Y-70000000D02*
X109500000Y-70000000D01*
D50*
X118550001Y-58250001D02*
X118600000Y-58300000D01*
X117655700Y-58250001D02*
X118550001Y-58250001D01*
D51*
X122925000Y-61975000D02*
X122925000Y-62875115D01*
X118675000Y-56225000D02*
X118700000Y-56200000D01*
X116999999Y-56387400D02*
X117162399Y-56225000D01*
D50*
X122562826Y-65962826D02*
X122562826Y-65928680D01*
D51*
X108695000Y-70805000D02*
X109500000Y-70000000D01*
X106512500Y-70805000D02*
X108695000Y-70805000D01*
X118800000Y-74900000D02*
X119050000Y-75150000D01*
D50*
X123770000Y-66850000D02*
X123450000Y-66850000D01*
D51*
X118800000Y-75400000D02*
X119050000Y-75150000D01*
X107535000Y-69535000D02*
X108000000Y-70000000D01*
X118800000Y-77975800D02*
X118800000Y-75400000D01*
X116999999Y-56585600D02*
X116999999Y-56387400D01*
D50*
X115057772Y-59134456D02*
X115279945Y-59134456D01*
D51*
X125102250Y-73652250D02*
X124150000Y-72700000D01*
D50*
X123800000Y-66820000D02*
X123770000Y-66850000D01*
D51*
X117162399Y-56225000D02*
X118675000Y-56225000D01*
X106512500Y-69535000D02*
X107535000Y-69535000D01*
D50*
X110650000Y-64650000D02*
X110500000Y-64500000D01*
X117777040Y-61850000D02*
X118742894Y-62815854D01*
X117328680Y-65928680D02*
X117321320Y-65928680D01*
X117321320Y-65928680D02*
X116600000Y-66650000D01*
D51*
X122600000Y-63200116D02*
X122600000Y-63485788D01*
%TO.N,/CTR_Prop*%
X102914791Y-66202977D02*
X102914791Y-98135209D01*
X102826981Y-65176839D02*
X102739791Y-65264029D01*
X116450000Y-54500000D02*
X118686396Y-54500000D01*
X120800000Y-61750254D02*
X120441506Y-62108748D01*
X102739791Y-66027977D02*
X102914791Y-66202977D01*
X108833058Y-59183058D02*
X109616116Y-58400000D01*
X102739791Y-65264029D02*
X102739791Y-66027977D01*
X118686396Y-54500000D02*
X120800000Y-56613604D01*
X115550001Y-55399999D02*
X116450000Y-54500000D01*
X115550001Y-55549999D02*
X115550001Y-55399999D01*
X109616116Y-58400000D02*
X112700000Y-58400000D01*
X102914791Y-98135209D02*
X102000000Y-99050000D01*
X112700000Y-58400000D02*
X115550001Y-55549999D01*
X120800000Y-56613604D02*
X120800000Y-61750254D01*
%TO.N,Net-(U2-CHIP_EN)*%
X121250000Y-59310754D02*
X121250000Y-62007360D01*
X101525000Y-62088604D02*
X105350000Y-65913604D01*
X101525000Y-61800000D02*
X101525000Y-62088604D01*
X121526369Y-56314753D02*
X121526369Y-59034385D01*
X108450000Y-74700000D02*
X112162500Y-74700000D01*
X105350000Y-65913604D02*
X105350000Y-71600000D01*
X121250000Y-62007360D02*
X120795059Y-62462301D01*
X121526369Y-59034385D02*
X121250000Y-59310754D01*
X105350000Y-71600000D02*
X108450000Y-74700000D01*
%TO.N,Net-(XTAL1-IN{slash}OUT)*%
D50*
X124754594Y-69797972D02*
X125601283Y-68951283D01*
X126845235Y-68295235D02*
X126257331Y-68295235D01*
X126257331Y-68295235D02*
X125601283Y-68951283D01*
%TO.N,Net-(U2-XTAL_N)*%
X123057538Y-69742462D02*
X122550000Y-69234924D01*
X122198717Y-70601283D02*
X123057538Y-69742462D01*
X122550000Y-67330068D02*
X121855719Y-66635787D01*
X122198717Y-70748717D02*
X122198717Y-70601283D01*
X122550000Y-69234924D02*
X122550000Y-67330068D01*
%TO.N,+6.6V*%
D51*
X121100000Y-77975800D02*
X121100000Y-76600000D01*
X121100000Y-76600000D02*
X121250000Y-76450000D01*
%TO.N,/ANT*%
D52*
X124161854Y-63369714D02*
X122942996Y-64588572D01*
X124845181Y-62678527D02*
X124161854Y-63361854D01*
D50*
X122916379Y-64583621D02*
X122940087Y-64583621D01*
D52*
X124161854Y-63361854D02*
X124161854Y-63369714D01*
X124845181Y-62654819D02*
X124845181Y-62678527D01*
%TO.N,Net-(AE1-Pad1)*%
X126338146Y-61188146D02*
X126311854Y-61188146D01*
X126311854Y-61188146D02*
X125654819Y-61845181D01*
%TO.N,Net-(PWR1-K)*%
D51*
X124237750Y-75747750D02*
X124180000Y-75690000D01*
X125500000Y-75747750D02*
X124237750Y-75747750D01*
%TO.N,/VBUS*%
X130053400Y-86900001D02*
X128900001Y-86900001D01*
X127500000Y-85500000D02*
X127500000Y-82000000D01*
X128900001Y-86900001D02*
X127500000Y-85500000D01*
X130053400Y-82078950D02*
X127578950Y-82078950D01*
X127578950Y-82078950D02*
X127500000Y-82000000D01*
%TO.N,/USB_D+*%
D50*
X120200000Y-69600000D02*
X121100716Y-68699284D01*
X130851100Y-83723800D02*
X130053400Y-83723800D01*
X130851100Y-84723800D02*
X131351100Y-84223800D01*
X131351100Y-84223800D02*
X130851100Y-83723800D01*
X130057050Y-84723800D02*
X130851100Y-84723800D01*
X121100716Y-68002104D02*
X120795059Y-67696447D01*
X121100716Y-68699284D02*
X121100716Y-68002104D01*
%TO.N,/USB_D-*%
X129263000Y-84223800D02*
X130053400Y-84223800D01*
X129263000Y-85223800D02*
X128763000Y-84723800D01*
X128768400Y-84718400D02*
X129263000Y-84223800D01*
X130053400Y-85223800D02*
X129263000Y-85223800D01*
X128763000Y-84723800D02*
X128768400Y-84718400D01*
X120441506Y-68408494D02*
X120441506Y-68050000D01*
X119250000Y-69600000D02*
X120441506Y-68408494D01*
%TO.N,Net-(B1-SDO)*%
X112862500Y-63650002D02*
X112999998Y-63650002D01*
X112999998Y-63650002D02*
X113800000Y-62850000D01*
%TO.N,Net-(B1-CSB)*%
X112339499Y-63389700D02*
X112339499Y-62489499D01*
X112339499Y-62489499D02*
X112250000Y-62400000D01*
%TO.N,/Channel_1*%
X116975127Y-64583621D02*
X113041506Y-60650000D01*
X103630000Y-59730000D02*
X103630000Y-52360000D01*
X113041506Y-60650000D02*
X104550000Y-60650000D01*
X104550000Y-60650000D02*
X103630000Y-59730000D01*
X103630000Y-52360000D02*
X104780000Y-51210000D01*
%TO.N,/Channel_2*%
X107350000Y-60200000D02*
X106170000Y-59020000D01*
X106170000Y-59020000D02*
X106170000Y-52360000D01*
X106170000Y-52360000D02*
X107320000Y-51210000D01*
X117328680Y-64230068D02*
X113298612Y-60200000D01*
X113298612Y-60200000D02*
X107350000Y-60200000D01*
%TO.N,/Channel_3*%
X122475000Y-60383710D02*
X122470645Y-60379355D01*
X121502166Y-63169408D02*
X121502166Y-63131223D01*
X122100000Y-61255768D02*
X122475000Y-60880768D01*
X122950000Y-59900000D02*
X122950000Y-56315686D01*
X111010000Y-52360000D02*
X109860000Y-51210000D01*
X122100000Y-62533389D02*
X122100000Y-61255768D01*
X122470645Y-60379355D02*
X122950000Y-59900000D01*
X118994314Y-52360000D02*
X111010000Y-52360000D01*
X122475000Y-60880768D02*
X122475000Y-60383710D01*
X121502166Y-63131223D02*
X122100000Y-62533389D01*
X122950000Y-56315686D02*
X118994314Y-52360000D01*
%TO.N,/Channel_4*%
X121855719Y-63522961D02*
X121855719Y-63419725D01*
X121855719Y-63419725D02*
X122161376Y-63114068D01*
X122875000Y-60540686D02*
X123350000Y-60065685D01*
X122161376Y-63114068D02*
X122161376Y-63037699D01*
X122500000Y-62699074D02*
X122500000Y-61421454D01*
X122500000Y-61421454D02*
X122875000Y-61046453D01*
X123350000Y-56150000D02*
X119159999Y-51960000D01*
X113150000Y-51960000D02*
X112400000Y-51210000D01*
X119159999Y-51960000D02*
X113150000Y-51960000D01*
X122161376Y-63037699D02*
X122500000Y-62699074D01*
X123350000Y-60065685D02*
X123350000Y-56150000D01*
X122875000Y-61046453D02*
X122875000Y-60540686D01*
%TO.N,/CTR_L_Ail*%
D51*
X120350000Y-57800000D02*
X120050000Y-57500000D01*
X120350000Y-61208748D02*
X120350000Y-57800000D01*
X103364791Y-65769093D02*
X103364791Y-92564791D01*
X103364791Y-92564791D02*
X109850000Y-99050000D01*
X119450000Y-62108748D02*
X120350000Y-61208748D01*
X109850000Y-99050000D02*
X116500000Y-99050000D01*
%TO.N,/CTR_R_Ail*%
D50*
X115775000Y-67875000D02*
X115775000Y-76191726D01*
X113850000Y-92250000D02*
X120650000Y-99050000D01*
X115950000Y-67700000D02*
X115775000Y-67875000D01*
D51*
X118550000Y-61915854D02*
X119096447Y-62462301D01*
D50*
X115950000Y-67150000D02*
X115950000Y-67700000D01*
D51*
X118550000Y-60783884D02*
X119716942Y-59616942D01*
X118550000Y-61915854D02*
X118550000Y-60783884D01*
D50*
X115775000Y-76191726D02*
X113850000Y-78116726D01*
X120650000Y-99050000D02*
X131000000Y-99050000D01*
X113850000Y-78116726D02*
X113850000Y-92250000D01*
%TO.N,/CTR_Rudder*%
X115600000Y-64900000D02*
X115350000Y-65150000D01*
X116150000Y-60850000D02*
X116100000Y-60800000D01*
X115350000Y-65150000D02*
X115350000Y-76015686D01*
X116150000Y-61248529D02*
X116150000Y-60850000D01*
X113400000Y-92450000D02*
X120500000Y-99550000D01*
X122999999Y-124692775D02*
X122999999Y-126550000D01*
X117718776Y-62817305D02*
X116150000Y-61248529D01*
X113400000Y-77965686D02*
X113400000Y-92450000D01*
X115350000Y-76015686D02*
X113400000Y-77965686D01*
X118389340Y-63169408D02*
X118037237Y-62817305D01*
X120500000Y-99550000D02*
X120500000Y-122192776D01*
X118037237Y-62817305D02*
X117718776Y-62817305D01*
X120500000Y-122192776D02*
X122999999Y-124692775D01*
%TO.N,/CTR_Elevator*%
X117517305Y-63217305D02*
X117626893Y-63217305D01*
X117932549Y-63522961D02*
X118035787Y-63522961D01*
X117626893Y-63217305D02*
X117932549Y-63522961D01*
X115314579Y-60450000D02*
X115353086Y-60450000D01*
X113000000Y-77800000D02*
X114950000Y-75850000D01*
X113000000Y-97350000D02*
X113000000Y-77800000D01*
X114950000Y-75850000D02*
X114950000Y-64200000D01*
X115350000Y-61050000D02*
X117517305Y-63217305D01*
X115350000Y-60453086D02*
X115350000Y-61050000D01*
X115353086Y-60450000D02*
X115350000Y-60453086D01*
%TO.N,Net-(STAT1-A)*%
X124647600Y-74600000D02*
X121480818Y-71433218D01*
X121480818Y-70522628D02*
X121972628Y-70030818D01*
X121480818Y-71433218D02*
X121480818Y-70522628D01*
X121972628Y-70030818D02*
X121972628Y-67459802D01*
X128452250Y-74600000D02*
X124647600Y-74600000D01*
X129400000Y-73652250D02*
X128452250Y-74600000D01*
X121972628Y-67459802D02*
X121502166Y-66989340D01*
%TO.N,Net-(U2-XTAL_P)*%
X125139530Y-67420000D02*
X123518529Y-67420000D01*
X123398529Y-67300000D02*
X123227040Y-67300000D01*
X123518529Y-67420000D02*
X123398529Y-67300000D01*
X125554765Y-67004765D02*
X125139530Y-67420000D01*
X123227040Y-67300000D02*
X122209273Y-66282233D01*
%TO.N,Net-(STAT1-K)*%
X130597750Y-75747750D02*
X130750000Y-75900000D01*
X129400000Y-75747750D02*
X130597750Y-75747750D01*
%TD*%
%TA.AperFunction,Conductor*%
%TO.N,Earth*%
G36*
X131389926Y-50020185D02*
G01*
X131435681Y-50072989D01*
X131445625Y-50142147D01*
X131416600Y-50205703D01*
X131400200Y-50221447D01*
X131163997Y-50409811D01*
X130909811Y-50663997D01*
X130685684Y-50945045D01*
X130494432Y-51249420D01*
X130338465Y-51573288D01*
X130219741Y-51912580D01*
X130219737Y-51912592D01*
X130139748Y-52263048D01*
X130139746Y-52263064D01*
X130099500Y-52620259D01*
X130099500Y-52979740D01*
X130139746Y-53336935D01*
X130139748Y-53336951D01*
X130219737Y-53687407D01*
X130219741Y-53687419D01*
X130338465Y-54026711D01*
X130494432Y-54350579D01*
X130494434Y-54350582D01*
X130685685Y-54654956D01*
X130721447Y-54699800D01*
X130865047Y-54879870D01*
X130909812Y-54936003D01*
X131163997Y-55190188D01*
X131445044Y-55414315D01*
X131749418Y-55605566D01*
X132073292Y-55761536D01*
X132252019Y-55824075D01*
X132412580Y-55880258D01*
X132412592Y-55880262D01*
X132763052Y-55960252D01*
X133120260Y-56000499D01*
X133120261Y-56000500D01*
X133120264Y-56000500D01*
X133479739Y-56000500D01*
X133479739Y-56000499D01*
X133836948Y-55960252D01*
X134187408Y-55880262D01*
X134526708Y-55761536D01*
X134850582Y-55605566D01*
X135154956Y-55414315D01*
X135436003Y-55190188D01*
X135690188Y-54936003D01*
X135702201Y-54920940D01*
X135778553Y-54825197D01*
X135835741Y-54785056D01*
X135905552Y-54782206D01*
X135965822Y-54817551D01*
X135997416Y-54879870D01*
X135999500Y-54902509D01*
X135999500Y-56732691D01*
X135979815Y-56799730D01*
X135963181Y-56820372D01*
X135252453Y-57531099D01*
X135159657Y-57392220D01*
X135037780Y-57270343D01*
X134898899Y-57177546D01*
X135572639Y-56503805D01*
X135572639Y-56503804D01*
X135489129Y-56439727D01*
X135489122Y-56439721D01*
X135283371Y-56320931D01*
X135283356Y-56320924D01*
X135063866Y-56230009D01*
X134834356Y-56168511D01*
X134598808Y-56137501D01*
X134598791Y-56137500D01*
X134361209Y-56137500D01*
X134361191Y-56137501D01*
X134125643Y-56168511D01*
X133896133Y-56230009D01*
X133676643Y-56320924D01*
X133676628Y-56320931D01*
X133470875Y-56439723D01*
X133470861Y-56439732D01*
X133387359Y-56503804D01*
X133387359Y-56503805D01*
X134061100Y-57177546D01*
X133922220Y-57270343D01*
X133800343Y-57392220D01*
X133707546Y-57531099D01*
X133033805Y-56857358D01*
X133033804Y-56857359D01*
X132969732Y-56940861D01*
X132969723Y-56940875D01*
X132850931Y-57146628D01*
X132850924Y-57146643D01*
X132760009Y-57366133D01*
X132698511Y-57595643D01*
X132667501Y-57831191D01*
X132667500Y-57831208D01*
X132667500Y-58068791D01*
X132667501Y-58068808D01*
X132698511Y-58304356D01*
X132760009Y-58533866D01*
X132850924Y-58753356D01*
X132850931Y-58753371D01*
X132969721Y-58959122D01*
X132969727Y-58959129D01*
X133033805Y-59042639D01*
X133707545Y-58368899D01*
X133800343Y-58507780D01*
X133922220Y-58629657D01*
X134061099Y-58722453D01*
X133387359Y-59396193D01*
X133387359Y-59396194D01*
X133470868Y-59460272D01*
X133676628Y-59579068D01*
X133676643Y-59579075D01*
X133896133Y-59669990D01*
X134125643Y-59731488D01*
X134361191Y-59762498D01*
X134361209Y-59762500D01*
X134598791Y-59762500D01*
X134598808Y-59762498D01*
X134834356Y-59731488D01*
X135063866Y-59669990D01*
X135283356Y-59579075D01*
X135283370Y-59579068D01*
X135489125Y-59460275D01*
X135489132Y-59460270D01*
X135572639Y-59396193D01*
X134898899Y-58722453D01*
X135037780Y-58629657D01*
X135159657Y-58507780D01*
X135252453Y-58368899D01*
X135963181Y-59079627D01*
X135996666Y-59140950D01*
X135999500Y-59167308D01*
X135999500Y-61812691D01*
X135979815Y-61879730D01*
X135963181Y-61900372D01*
X135252453Y-62611099D01*
X135159657Y-62472220D01*
X135037780Y-62350343D01*
X134898899Y-62257546D01*
X135572639Y-61583805D01*
X135572639Y-61583804D01*
X135489129Y-61519727D01*
X135489122Y-61519721D01*
X135283371Y-61400931D01*
X135283356Y-61400924D01*
X135063866Y-61310009D01*
X134834356Y-61248511D01*
X134598808Y-61217501D01*
X134598791Y-61217500D01*
X134361209Y-61217500D01*
X134361191Y-61217501D01*
X134125643Y-61248511D01*
X133896133Y-61310009D01*
X133676643Y-61400924D01*
X133676628Y-61400931D01*
X133470875Y-61519723D01*
X133470861Y-61519732D01*
X133387359Y-61583804D01*
X133387359Y-61583805D01*
X134061100Y-62257546D01*
X133922220Y-62350343D01*
X133800343Y-62472220D01*
X133707546Y-62611099D01*
X133033805Y-61937358D01*
X133033804Y-61937359D01*
X132969732Y-62020861D01*
X132969723Y-62020875D01*
X132850931Y-62226628D01*
X132850924Y-62226643D01*
X132760009Y-62446133D01*
X132698511Y-62675643D01*
X132667501Y-62911191D01*
X132667500Y-62911208D01*
X132667500Y-63148791D01*
X132667501Y-63148808D01*
X132698511Y-63384356D01*
X132760009Y-63613866D01*
X132850924Y-63833356D01*
X132850931Y-63833371D01*
X132969721Y-64039122D01*
X132969727Y-64039129D01*
X133033805Y-64122639D01*
X133707545Y-63448899D01*
X133800343Y-63587780D01*
X133922220Y-63709657D01*
X134061099Y-63802453D01*
X133387359Y-64476193D01*
X133387359Y-64476194D01*
X133470868Y-64540272D01*
X133676628Y-64659068D01*
X133676643Y-64659075D01*
X133896133Y-64749990D01*
X134125643Y-64811488D01*
X134361191Y-64842498D01*
X134361209Y-64842500D01*
X134598791Y-64842500D01*
X134598808Y-64842498D01*
X134834356Y-64811488D01*
X135063866Y-64749990D01*
X135283356Y-64659075D01*
X135283370Y-64659068D01*
X135489125Y-64540275D01*
X135489132Y-64540270D01*
X135572639Y-64476193D01*
X134898899Y-63802453D01*
X135037780Y-63709657D01*
X135159657Y-63587780D01*
X135252453Y-63448899D01*
X135963181Y-64159627D01*
X135996666Y-64220950D01*
X135999500Y-64247308D01*
X135999500Y-79273915D01*
X135979815Y-79340954D01*
X135927011Y-79386709D01*
X135857853Y-79396653D01*
X135806609Y-79377017D01*
X135682084Y-79293812D01*
X135682071Y-79293805D01*
X135500093Y-79218428D01*
X135500081Y-79218425D01*
X135306895Y-79179998D01*
X135058400Y-79179998D01*
X135058400Y-79879998D01*
X134558400Y-79879998D01*
X134558400Y-79179998D01*
X134309904Y-79179998D01*
X134116718Y-79218425D01*
X134116706Y-79218428D01*
X133934728Y-79293805D01*
X133934715Y-79293812D01*
X133770937Y-79403246D01*
X133770933Y-79403249D01*
X133631651Y-79542531D01*
X133631648Y-79542535D01*
X133522214Y-79706313D01*
X133522207Y-79706326D01*
X133446830Y-79888305D01*
X133446830Y-79888307D01*
X133438538Y-79929998D01*
X134241412Y-79929998D01*
X134224195Y-79939938D01*
X134168340Y-79995793D01*
X134128844Y-80064202D01*
X134108400Y-80140502D01*
X134108400Y-80219494D01*
X134128844Y-80295794D01*
X134168340Y-80364203D01*
X134224195Y-80420058D01*
X134241412Y-80429998D01*
X133438538Y-80429998D01*
X133446830Y-80471688D01*
X133446830Y-80471690D01*
X133522207Y-80653669D01*
X133522214Y-80653682D01*
X133631648Y-80817460D01*
X133631651Y-80817464D01*
X133770933Y-80956746D01*
X133770937Y-80956749D01*
X133934715Y-81066183D01*
X133934728Y-81066190D01*
X134116706Y-81141567D01*
X134116718Y-81141570D01*
X134309904Y-81179997D01*
X134309908Y-81179998D01*
X134558400Y-81179998D01*
X134558400Y-80479998D01*
X135058400Y-80479998D01*
X135058400Y-81179998D01*
X135306892Y-81179998D01*
X135306895Y-81179997D01*
X135500081Y-81141570D01*
X135500093Y-81141567D01*
X135682071Y-81066190D01*
X135682084Y-81066183D01*
X135806609Y-80982978D01*
X135873286Y-80962100D01*
X135940666Y-80980584D01*
X135987357Y-81032563D01*
X135999500Y-81086080D01*
X135999500Y-87913919D01*
X135979815Y-87980958D01*
X135927011Y-88026713D01*
X135857853Y-88036657D01*
X135806609Y-88017021D01*
X135682084Y-87933816D01*
X135682071Y-87933809D01*
X135500093Y-87858432D01*
X135500081Y-87858429D01*
X135306895Y-87820002D01*
X135058400Y-87820002D01*
X135058400Y-88520002D01*
X134558400Y-88520002D01*
X134558400Y-87820002D01*
X134309904Y-87820002D01*
X134116718Y-87858429D01*
X134116706Y-87858432D01*
X133934728Y-87933809D01*
X133934715Y-87933816D01*
X133770937Y-88043250D01*
X133770933Y-88043253D01*
X133631651Y-88182535D01*
X133631648Y-88182539D01*
X133522214Y-88346317D01*
X133522207Y-88346330D01*
X133446830Y-88528309D01*
X133446830Y-88528311D01*
X133438538Y-88570002D01*
X134241412Y-88570002D01*
X134224195Y-88579942D01*
X134168340Y-88635797D01*
X134128844Y-88704206D01*
X134108400Y-88780506D01*
X134108400Y-88859498D01*
X134128844Y-88935798D01*
X134168340Y-89004207D01*
X134224195Y-89060062D01*
X134241412Y-89070002D01*
X133438538Y-89070002D01*
X133446830Y-89111692D01*
X133446830Y-89111694D01*
X133522207Y-89293673D01*
X133522214Y-89293686D01*
X133631648Y-89457464D01*
X133631651Y-89457468D01*
X133770933Y-89596750D01*
X133770937Y-89596753D01*
X133934715Y-89706187D01*
X133934728Y-89706194D01*
X134116706Y-89781571D01*
X134116718Y-89781574D01*
X134309904Y-89820001D01*
X134309908Y-89820002D01*
X134558400Y-89820002D01*
X134558400Y-89120002D01*
X135058400Y-89120002D01*
X135058400Y-89820002D01*
X135306892Y-89820002D01*
X135306895Y-89820001D01*
X135500081Y-89781574D01*
X135500093Y-89781571D01*
X135682071Y-89706194D01*
X135682084Y-89706187D01*
X135806609Y-89622982D01*
X135873286Y-89602104D01*
X135940666Y-89620588D01*
X135987357Y-89672567D01*
X135999500Y-89726084D01*
X135999500Y-135197490D01*
X135979815Y-135264529D01*
X135927011Y-135310284D01*
X135857853Y-135320228D01*
X135794297Y-135291203D01*
X135778553Y-135274803D01*
X135690188Y-135163997D01*
X135436002Y-134909811D01*
X135364626Y-134852891D01*
X135154956Y-134685685D01*
X134850582Y-134494434D01*
X134850579Y-134494432D01*
X134526711Y-134338465D01*
X134187419Y-134219741D01*
X134187407Y-134219737D01*
X133836951Y-134139748D01*
X133836935Y-134139746D01*
X133479740Y-134099500D01*
X133479736Y-134099500D01*
X133120264Y-134099500D01*
X133120259Y-134099500D01*
X132763064Y-134139746D01*
X132763048Y-134139748D01*
X132412592Y-134219737D01*
X132412580Y-134219741D01*
X132073288Y-134338465D01*
X131749420Y-134494432D01*
X131445045Y-134685684D01*
X131163997Y-134909811D01*
X130909811Y-135163997D01*
X130685684Y-135445045D01*
X130494432Y-135749420D01*
X130338465Y-136073288D01*
X130219741Y-136412580D01*
X130219737Y-136412592D01*
X130139748Y-136763048D01*
X130139746Y-136763064D01*
X130099500Y-137120259D01*
X130099500Y-137479740D01*
X130139746Y-137836935D01*
X130139748Y-137836951D01*
X130219737Y-138187407D01*
X130219741Y-138187419D01*
X130338465Y-138526711D01*
X130494432Y-138850579D01*
X130494434Y-138850582D01*
X130685685Y-139154956D01*
X130808368Y-139308796D01*
X130909811Y-139436002D01*
X131163997Y-139690188D01*
X131274803Y-139778553D01*
X131314943Y-139835741D01*
X131317793Y-139905553D01*
X131282448Y-139965823D01*
X131220129Y-139997416D01*
X131197490Y-139999500D01*
X124172150Y-139999500D01*
X124105111Y-139979815D01*
X124059356Y-139927011D01*
X124049412Y-139857853D01*
X124078437Y-139794297D01*
X124096664Y-139777124D01*
X124148446Y-139737389D01*
X124189302Y-139706040D01*
X124356139Y-139539203D01*
X124499772Y-139352016D01*
X124617744Y-139147684D01*
X124708036Y-138929700D01*
X124769102Y-138701797D01*
X124799899Y-138467872D01*
X124799899Y-138231928D01*
X124769102Y-137998003D01*
X124708036Y-137770100D01*
X124617744Y-137552116D01*
X124499772Y-137347784D01*
X124356139Y-137160597D01*
X124356134Y-137160591D01*
X124189307Y-136993764D01*
X124189300Y-136993758D01*
X124002123Y-136850133D01*
X124002121Y-136850132D01*
X124002115Y-136850127D01*
X123797783Y-136732155D01*
X123797779Y-136732153D01*
X123579808Y-136641866D01*
X123579801Y-136641864D01*
X123579799Y-136641863D01*
X123351896Y-136580797D01*
X123312802Y-136575650D01*
X123117978Y-136550000D01*
X123117971Y-136550000D01*
X122882027Y-136550000D01*
X122882019Y-136550000D01*
X122659362Y-136579314D01*
X122648102Y-136580797D01*
X122420199Y-136641863D01*
X122420189Y-136641866D01*
X122202218Y-136732153D01*
X122202214Y-136732155D01*
X121997883Y-136850127D01*
X121997874Y-136850133D01*
X121810697Y-136993758D01*
X121810690Y-136993764D01*
X121643863Y-137160591D01*
X121643857Y-137160598D01*
X121500232Y-137347775D01*
X121500226Y-137347784D01*
X121382254Y-137552115D01*
X121382252Y-137552119D01*
X121291965Y-137770090D01*
X121291962Y-137770100D01*
X121274050Y-137836951D01*
X121230897Y-137998000D01*
X121230895Y-137998011D01*
X121200099Y-138231920D01*
X121200099Y-138467879D01*
X121207845Y-138526711D01*
X121230896Y-138701797D01*
X121230897Y-138701799D01*
X121291962Y-138929699D01*
X121291965Y-138929709D01*
X121329110Y-139019384D01*
X121382254Y-139147684D01*
X121500226Y-139352016D01*
X121500231Y-139352022D01*
X121500232Y-139352024D01*
X121643857Y-139539201D01*
X121643863Y-139539208D01*
X121810690Y-139706035D01*
X121810697Y-139706041D01*
X121903334Y-139777124D01*
X121944537Y-139833552D01*
X121948692Y-139903298D01*
X121914480Y-139964218D01*
X121852763Y-139996971D01*
X121827848Y-139999500D01*
X111172151Y-139999500D01*
X111105112Y-139979815D01*
X111059357Y-139927011D01*
X111049413Y-139857853D01*
X111078438Y-139794297D01*
X111096665Y-139777124D01*
X111148447Y-139737389D01*
X111189303Y-139706040D01*
X111356140Y-139539203D01*
X111499773Y-139352016D01*
X111617745Y-139147684D01*
X111708037Y-138929700D01*
X111769103Y-138701797D01*
X111799900Y-138467872D01*
X111799900Y-138231928D01*
X111769103Y-137998003D01*
X111708037Y-137770100D01*
X111617745Y-137552116D01*
X111499773Y-137347784D01*
X111356140Y-137160597D01*
X111356135Y-137160591D01*
X111189308Y-136993764D01*
X111189301Y-136993758D01*
X111002124Y-136850133D01*
X111002122Y-136850132D01*
X111002116Y-136850127D01*
X110797784Y-136732155D01*
X110797780Y-136732153D01*
X110579809Y-136641866D01*
X110579802Y-136641864D01*
X110579800Y-136641863D01*
X110351897Y-136580797D01*
X110312803Y-136575650D01*
X110117979Y-136550000D01*
X110117972Y-136550000D01*
X109882028Y-136550000D01*
X109882020Y-136550000D01*
X109659363Y-136579314D01*
X109648103Y-136580797D01*
X109420200Y-136641863D01*
X109420190Y-136641866D01*
X109202219Y-136732153D01*
X109202215Y-136732155D01*
X108997884Y-136850127D01*
X108997875Y-136850133D01*
X108810698Y-136993758D01*
X108810691Y-136993764D01*
X108643864Y-137160591D01*
X108643858Y-137160598D01*
X108500233Y-137347775D01*
X108500227Y-137347784D01*
X108382255Y-137552115D01*
X108382253Y-137552119D01*
X108291966Y-137770090D01*
X108291963Y-137770100D01*
X108274051Y-137836951D01*
X108230898Y-137998000D01*
X108230896Y-137998011D01*
X108200100Y-138231920D01*
X108200100Y-138467879D01*
X108207846Y-138526711D01*
X108230897Y-138701797D01*
X108230898Y-138701799D01*
X108291963Y-138929699D01*
X108291966Y-138929709D01*
X108329111Y-139019384D01*
X108382255Y-139147684D01*
X108500227Y-139352016D01*
X108500232Y-139352022D01*
X108500233Y-139352024D01*
X108643858Y-139539201D01*
X108643864Y-139539208D01*
X108810691Y-139706035D01*
X108810698Y-139706041D01*
X108903335Y-139777124D01*
X108944538Y-139833552D01*
X108948693Y-139903298D01*
X108914481Y-139964218D01*
X108852764Y-139996971D01*
X108827849Y-139999500D01*
X101802510Y-139999500D01*
X101735471Y-139979815D01*
X101689716Y-139927011D01*
X101679772Y-139857853D01*
X101708797Y-139794297D01*
X101725197Y-139778553D01*
X101759804Y-139750954D01*
X101836003Y-139690188D01*
X102090188Y-139436003D01*
X102314315Y-139154956D01*
X102505566Y-138850582D01*
X102661536Y-138526708D01*
X102780262Y-138187408D01*
X102860252Y-137836948D01*
X102900500Y-137479736D01*
X102900500Y-137120264D01*
X102860252Y-136763052D01*
X102780262Y-136412592D01*
X102661536Y-136073292D01*
X102505566Y-135749418D01*
X102314315Y-135445044D01*
X102090188Y-135163997D01*
X101836003Y-134909812D01*
X101685178Y-134789533D01*
X101685176Y-134789531D01*
X101569713Y-134697452D01*
X104365000Y-134697452D01*
X104365000Y-134922549D01*
X104400210Y-135144860D01*
X104469768Y-135358935D01*
X104571956Y-135559487D01*
X104704251Y-135741577D01*
X104704255Y-135741582D01*
X104863418Y-135900745D01*
X104863423Y-135900749D01*
X105022252Y-136016144D01*
X105045517Y-136033047D01*
X105173308Y-136098159D01*
X105246065Y-136135232D01*
X105246067Y-136135232D01*
X105246070Y-136135234D01*
X105360817Y-136172517D01*
X105460140Y-136204790D01*
X105682452Y-136240001D01*
X105682457Y-136240001D01*
X105907548Y-136240001D01*
X106129859Y-136204790D01*
X106343930Y-136135234D01*
X106544483Y-136033047D01*
X106726583Y-135900744D01*
X106885743Y-135741584D01*
X107018046Y-135559484D01*
X107120233Y-135358931D01*
X107189789Y-135144860D01*
X107225000Y-134922549D01*
X107225000Y-134697452D01*
X125775000Y-134697452D01*
X125775000Y-134922549D01*
X125810210Y-135144860D01*
X125879768Y-135358935D01*
X125981956Y-135559487D01*
X126114251Y-135741577D01*
X126114255Y-135741582D01*
X126273418Y-135900745D01*
X126273423Y-135900749D01*
X126432252Y-136016144D01*
X126455517Y-136033047D01*
X126583308Y-136098159D01*
X126656065Y-136135232D01*
X126656067Y-136135232D01*
X126656070Y-136135234D01*
X126770817Y-136172517D01*
X126870140Y-136204790D01*
X127092452Y-136240001D01*
X127092457Y-136240001D01*
X127317548Y-136240001D01*
X127539859Y-136204790D01*
X127753930Y-136135234D01*
X127954483Y-136033047D01*
X128136583Y-135900744D01*
X128295743Y-135741584D01*
X128428046Y-135559484D01*
X128530233Y-135358931D01*
X128599789Y-135144860D01*
X128635000Y-134922549D01*
X128635000Y-134697452D01*
X128599789Y-134475141D01*
X128555380Y-134338465D01*
X128530233Y-134261071D01*
X128530231Y-134261068D01*
X128530231Y-134261066D01*
X128493158Y-134188309D01*
X128428046Y-134060518D01*
X128411143Y-134037253D01*
X128295748Y-133878424D01*
X128295744Y-133878419D01*
X128136581Y-133719256D01*
X128136576Y-133719252D01*
X127954486Y-133586957D01*
X127954485Y-133586956D01*
X127954483Y-133586955D01*
X127891854Y-133555043D01*
X127753934Y-133484769D01*
X127539859Y-133415211D01*
X127317548Y-133380001D01*
X127317543Y-133380001D01*
X127092457Y-133380001D01*
X127092452Y-133380001D01*
X126870140Y-133415211D01*
X126656065Y-133484769D01*
X126455513Y-133586957D01*
X126273423Y-133719252D01*
X126273418Y-133719256D01*
X126114255Y-133878419D01*
X126114251Y-133878424D01*
X125981956Y-134060514D01*
X125879768Y-134261066D01*
X125810210Y-134475141D01*
X125775000Y-134697452D01*
X107225000Y-134697452D01*
X107189789Y-134475141D01*
X107145380Y-134338465D01*
X107120233Y-134261071D01*
X107120231Y-134261068D01*
X107120231Y-134261066D01*
X107083158Y-134188309D01*
X107018046Y-134060518D01*
X107001143Y-134037253D01*
X106885748Y-133878424D01*
X106885744Y-133878419D01*
X106726581Y-133719256D01*
X106726576Y-133719252D01*
X106544486Y-133586957D01*
X106544485Y-133586956D01*
X106544483Y-133586955D01*
X106481854Y-133555043D01*
X106343934Y-133484769D01*
X106129859Y-133415211D01*
X105907548Y-133380001D01*
X105907543Y-133380001D01*
X105682457Y-133380001D01*
X105682452Y-133380001D01*
X105460140Y-133415211D01*
X105246065Y-133484769D01*
X105045513Y-133586957D01*
X104863423Y-133719252D01*
X104863418Y-133719256D01*
X104704255Y-133878419D01*
X104704251Y-133878424D01*
X104571956Y-134060514D01*
X104469768Y-134261066D01*
X104400210Y-134475141D01*
X104365000Y-134697452D01*
X101569713Y-134697452D01*
X101554960Y-134685687D01*
X101554958Y-134685686D01*
X101250579Y-134494432D01*
X100926711Y-134338465D01*
X100587419Y-134219741D01*
X100587407Y-134219737D01*
X100236951Y-134139748D01*
X100236935Y-134139746D01*
X99879740Y-134099500D01*
X99879736Y-134099500D01*
X99520264Y-134099500D01*
X99520259Y-134099500D01*
X99163064Y-134139746D01*
X99163048Y-134139748D01*
X98812592Y-134219737D01*
X98812580Y-134219741D01*
X98473288Y-134338465D01*
X98149420Y-134494432D01*
X97845045Y-134685684D01*
X97563997Y-134909811D01*
X97309811Y-135163997D01*
X97221447Y-135274803D01*
X97164259Y-135314943D01*
X97094447Y-135317793D01*
X97034177Y-135282448D01*
X97002584Y-135220129D01*
X97000500Y-135197490D01*
X97000500Y-126433687D01*
X108522100Y-126433687D01*
X108522100Y-126666312D01*
X108558491Y-126896077D01*
X108630374Y-127117314D01*
X108735989Y-127324591D01*
X108793161Y-127403282D01*
X108793162Y-127403283D01*
X109342397Y-126854048D01*
X109358488Y-126892895D01*
X109437710Y-127011460D01*
X109538540Y-127112290D01*
X109657105Y-127191512D01*
X109695950Y-127207602D01*
X109146715Y-127756836D01*
X109225411Y-127814012D01*
X109432685Y-127919625D01*
X109653922Y-127991508D01*
X109883688Y-128027900D01*
X110116312Y-128027900D01*
X110346077Y-127991508D01*
X110567314Y-127919625D01*
X110774580Y-127814016D01*
X110774586Y-127814012D01*
X110853282Y-127756836D01*
X110853283Y-127756836D01*
X110304048Y-127207602D01*
X110342895Y-127191512D01*
X110461460Y-127112290D01*
X110562290Y-127011460D01*
X110641512Y-126892895D01*
X110657602Y-126854049D01*
X111206836Y-127403283D01*
X111206836Y-127403282D01*
X111264012Y-127324586D01*
X111264016Y-127324580D01*
X111369625Y-127117314D01*
X111441508Y-126896077D01*
X111477900Y-126666312D01*
X111477900Y-126445447D01*
X115171600Y-126445447D01*
X115171600Y-126654552D01*
X115204308Y-126861068D01*
X115268924Y-127059933D01*
X115363772Y-127246081D01*
X115363850Y-127246234D01*
X115486753Y-127415395D01*
X115634605Y-127563247D01*
X115803766Y-127686150D01*
X115891787Y-127730999D01*
X115990066Y-127781075D01*
X115990068Y-127781075D01*
X115990071Y-127781077D01*
X116091434Y-127814012D01*
X116188931Y-127845691D01*
X116395448Y-127878400D01*
X116395453Y-127878400D01*
X116604552Y-127878400D01*
X116811068Y-127845691D01*
X117009929Y-127781077D01*
X117196234Y-127686150D01*
X117365395Y-127563247D01*
X117513247Y-127415395D01*
X117636150Y-127246234D01*
X117731077Y-127059929D01*
X117795691Y-126861068D01*
X117828400Y-126654552D01*
X117828400Y-126445447D01*
X117795691Y-126238931D01*
X117765711Y-126146665D01*
X117731077Y-126040071D01*
X117731075Y-126040068D01*
X117731075Y-126040066D01*
X117664032Y-125908488D01*
X117636150Y-125853766D01*
X117513247Y-125684605D01*
X117365395Y-125536753D01*
X117196234Y-125413850D01*
X117009933Y-125318924D01*
X116811068Y-125254308D01*
X116604552Y-125221600D01*
X116604547Y-125221600D01*
X116395453Y-125221600D01*
X116395448Y-125221600D01*
X116188931Y-125254308D01*
X115990066Y-125318924D01*
X115803765Y-125413850D01*
X115707253Y-125483970D01*
X115634605Y-125536753D01*
X115634603Y-125536755D01*
X115634602Y-125536755D01*
X115486755Y-125684602D01*
X115486755Y-125684603D01*
X115486753Y-125684605D01*
X115477955Y-125696715D01*
X115363850Y-125853765D01*
X115268924Y-126040066D01*
X115204308Y-126238931D01*
X115171600Y-126445447D01*
X111477900Y-126445447D01*
X111477900Y-126433687D01*
X111441508Y-126203922D01*
X111369625Y-125982685D01*
X111264012Y-125775411D01*
X111206836Y-125696716D01*
X111206836Y-125696715D01*
X110657602Y-126245950D01*
X110641512Y-126207105D01*
X110562290Y-126088540D01*
X110461460Y-125987710D01*
X110342895Y-125908488D01*
X110304048Y-125892397D01*
X110853283Y-125343162D01*
X110853282Y-125343161D01*
X110774591Y-125285989D01*
X110567314Y-125180374D01*
X110346077Y-125108491D01*
X110116312Y-125072100D01*
X109883688Y-125072100D01*
X109653922Y-125108491D01*
X109432685Y-125180374D01*
X109225415Y-125285985D01*
X109146716Y-125343162D01*
X109695951Y-125892397D01*
X109657105Y-125908488D01*
X109538540Y-125987710D01*
X109437710Y-126088540D01*
X109358488Y-126207105D01*
X109342397Y-126245951D01*
X108793162Y-125696716D01*
X108735985Y-125775415D01*
X108630374Y-125982685D01*
X108558491Y-126203922D01*
X108522100Y-126433687D01*
X97000500Y-126433687D01*
X97000500Y-119895447D01*
X108671600Y-119895447D01*
X108671600Y-120104552D01*
X108704308Y-120311068D01*
X108768924Y-120509933D01*
X108863772Y-120696081D01*
X108863850Y-120696234D01*
X108986753Y-120865395D01*
X109134605Y-121013247D01*
X109303766Y-121136150D01*
X109391787Y-121180999D01*
X109490066Y-121231075D01*
X109490068Y-121231075D01*
X109490071Y-121231077D01*
X109591434Y-121264012D01*
X109688931Y-121295691D01*
X109895448Y-121328400D01*
X109895453Y-121328400D01*
X110104552Y-121328400D01*
X110311068Y-121295691D01*
X110509929Y-121231077D01*
X110696234Y-121136150D01*
X110865395Y-121013247D01*
X111013247Y-120865395D01*
X111136150Y-120696234D01*
X111231077Y-120509929D01*
X111295691Y-120311068D01*
X111328400Y-120104552D01*
X111328400Y-119895447D01*
X115171600Y-119895447D01*
X115171600Y-120104552D01*
X115204308Y-120311068D01*
X115268924Y-120509933D01*
X115363772Y-120696081D01*
X115363850Y-120696234D01*
X115486753Y-120865395D01*
X115634605Y-121013247D01*
X115803766Y-121136150D01*
X115891787Y-121180999D01*
X115990066Y-121231075D01*
X115990068Y-121231075D01*
X115990071Y-121231077D01*
X116091434Y-121264012D01*
X116188931Y-121295691D01*
X116395448Y-121328400D01*
X116395453Y-121328400D01*
X116604552Y-121328400D01*
X116811068Y-121295691D01*
X117009929Y-121231077D01*
X117196234Y-121136150D01*
X117365395Y-121013247D01*
X117513247Y-120865395D01*
X117636150Y-120696234D01*
X117731077Y-120509929D01*
X117795691Y-120311068D01*
X117828400Y-120104552D01*
X117828400Y-119895447D01*
X117795691Y-119688931D01*
X117765711Y-119596665D01*
X117731077Y-119490071D01*
X117731075Y-119490068D01*
X117731075Y-119490066D01*
X117664032Y-119358488D01*
X117636150Y-119303766D01*
X117513247Y-119134605D01*
X117365395Y-118986753D01*
X117196234Y-118863850D01*
X117009933Y-118768924D01*
X116811068Y-118704308D01*
X116604552Y-118671600D01*
X116604547Y-118671600D01*
X116395453Y-118671600D01*
X116395448Y-118671600D01*
X116188931Y-118704308D01*
X115990066Y-118768924D01*
X115803765Y-118863850D01*
X115707253Y-118933970D01*
X115634605Y-118986753D01*
X115634603Y-118986755D01*
X115634602Y-118986755D01*
X115486755Y-119134602D01*
X115486755Y-119134603D01*
X115486753Y-119134605D01*
X115477955Y-119146715D01*
X115363850Y-119303765D01*
X115268924Y-119490066D01*
X115204308Y-119688931D01*
X115171600Y-119895447D01*
X111328400Y-119895447D01*
X111295691Y-119688931D01*
X111265711Y-119596665D01*
X111231077Y-119490071D01*
X111231075Y-119490068D01*
X111231075Y-119490066D01*
X111164032Y-119358488D01*
X111136150Y-119303766D01*
X111013247Y-119134605D01*
X110865395Y-118986753D01*
X110696234Y-118863850D01*
X110509933Y-118768924D01*
X110311068Y-118704308D01*
X110104552Y-118671600D01*
X110104547Y-118671600D01*
X109895453Y-118671600D01*
X109895448Y-118671600D01*
X109688931Y-118704308D01*
X109490066Y-118768924D01*
X109303765Y-118863850D01*
X109207253Y-118933970D01*
X109134605Y-118986753D01*
X109134603Y-118986755D01*
X109134602Y-118986755D01*
X108986755Y-119134602D01*
X108986755Y-119134603D01*
X108986753Y-119134605D01*
X108977955Y-119146715D01*
X108863850Y-119303765D01*
X108768924Y-119490066D01*
X108704308Y-119688931D01*
X108671600Y-119895447D01*
X97000500Y-119895447D01*
X97000500Y-110314655D01*
X100112500Y-110314655D01*
X100112500Y-111500000D01*
X101106606Y-111500000D01*
X101075000Y-111658895D01*
X101075000Y-111841105D01*
X101106606Y-112000000D01*
X100112500Y-112000000D01*
X100112500Y-113185344D01*
X100118901Y-113244872D01*
X100118903Y-113244879D01*
X100169145Y-113379586D01*
X100169149Y-113379593D01*
X100255309Y-113494687D01*
X100255312Y-113494690D01*
X100370406Y-113580850D01*
X100370413Y-113580854D01*
X100505120Y-113631096D01*
X100505127Y-113631098D01*
X100564655Y-113637499D01*
X100564672Y-113637500D01*
X101750000Y-113637500D01*
X101750000Y-112643394D01*
X101908895Y-112675000D01*
X102091105Y-112675000D01*
X102250000Y-112643394D01*
X102250000Y-113637500D01*
X103435328Y-113637500D01*
X103435344Y-113637499D01*
X103494872Y-113631098D01*
X103494879Y-113631096D01*
X103629586Y-113580854D01*
X103629593Y-113580850D01*
X103744687Y-113494690D01*
X103744690Y-113494687D01*
X103830850Y-113379593D01*
X103830854Y-113379586D01*
X103881096Y-113244879D01*
X103881098Y-113244872D01*
X103887499Y-113185344D01*
X103887500Y-113185327D01*
X103887500Y-112000000D01*
X102893394Y-112000000D01*
X102925000Y-111841105D01*
X102925000Y-111658895D01*
X102893394Y-111500000D01*
X103887500Y-111500000D01*
X103887500Y-110314672D01*
X103887499Y-110314655D01*
X114612500Y-110314655D01*
X114612500Y-111500000D01*
X115606606Y-111500000D01*
X115575000Y-111658895D01*
X115575000Y-111841105D01*
X115606606Y-112000000D01*
X114612500Y-112000000D01*
X114612500Y-113185344D01*
X114618901Y-113244872D01*
X114618903Y-113244879D01*
X114669145Y-113379586D01*
X114669149Y-113379593D01*
X114755309Y-113494687D01*
X114755312Y-113494690D01*
X114870406Y-113580850D01*
X114870413Y-113580854D01*
X115005120Y-113631096D01*
X115005127Y-113631098D01*
X115064655Y-113637499D01*
X115064672Y-113637500D01*
X116250000Y-113637500D01*
X116250000Y-112643394D01*
X116408895Y-112675000D01*
X116591105Y-112675000D01*
X116750000Y-112643394D01*
X116750000Y-113637500D01*
X117935328Y-113637500D01*
X117935344Y-113637499D01*
X117994872Y-113631098D01*
X117994879Y-113631096D01*
X118129586Y-113580854D01*
X118129593Y-113580850D01*
X118244687Y-113494690D01*
X118244690Y-113494687D01*
X118330850Y-113379593D01*
X118330854Y-113379586D01*
X118381096Y-113244879D01*
X118381098Y-113244872D01*
X118387499Y-113185344D01*
X118387500Y-113185327D01*
X118387500Y-112000000D01*
X117393394Y-112000000D01*
X117425000Y-111841105D01*
X117425000Y-111658895D01*
X117393394Y-111500000D01*
X118387500Y-111500000D01*
X118387500Y-110314672D01*
X118387499Y-110314655D01*
X118381098Y-110255127D01*
X118381096Y-110255120D01*
X118330854Y-110120413D01*
X118330850Y-110120406D01*
X118244690Y-110005312D01*
X118244687Y-110005309D01*
X118129593Y-109919149D01*
X118129586Y-109919145D01*
X117994879Y-109868903D01*
X117994872Y-109868901D01*
X117935344Y-109862500D01*
X116750000Y-109862500D01*
X116750000Y-110856605D01*
X116591105Y-110825000D01*
X116408895Y-110825000D01*
X116250000Y-110856605D01*
X116250000Y-109862500D01*
X115064655Y-109862500D01*
X115005127Y-109868901D01*
X115005120Y-109868903D01*
X114870413Y-109919145D01*
X114870406Y-109919149D01*
X114755312Y-110005309D01*
X114755309Y-110005312D01*
X114669149Y-110120406D01*
X114669145Y-110120413D01*
X114618903Y-110255120D01*
X114618901Y-110255127D01*
X114612500Y-110314655D01*
X103887499Y-110314655D01*
X103881098Y-110255127D01*
X103881096Y-110255120D01*
X103830854Y-110120413D01*
X103830850Y-110120406D01*
X103744690Y-110005312D01*
X103744687Y-110005309D01*
X103629593Y-109919149D01*
X103629586Y-109919145D01*
X103494879Y-109868903D01*
X103494872Y-109868901D01*
X103435344Y-109862500D01*
X102250000Y-109862500D01*
X102250000Y-110856605D01*
X102091105Y-110825000D01*
X101908895Y-110825000D01*
X101750000Y-110856605D01*
X101750000Y-109862500D01*
X100564655Y-109862500D01*
X100505127Y-109868901D01*
X100505120Y-109868903D01*
X100370413Y-109919145D01*
X100370406Y-109919149D01*
X100255312Y-110005309D01*
X100255309Y-110005312D01*
X100169149Y-110120406D01*
X100169145Y-110120413D01*
X100118903Y-110255120D01*
X100118901Y-110255127D01*
X100112500Y-110314655D01*
X97000500Y-110314655D01*
X97000500Y-105286077D01*
X100262000Y-105286077D01*
X100262000Y-105513922D01*
X100286767Y-105702043D01*
X100291738Y-105739794D01*
X100291739Y-105739796D01*
X100350704Y-105959860D01*
X100437885Y-106170335D01*
X100437892Y-106170350D01*
X100551804Y-106367652D01*
X100690497Y-106548400D01*
X100690503Y-106548407D01*
X100851592Y-106709496D01*
X100851599Y-106709502D01*
X101032347Y-106848195D01*
X101229649Y-106962107D01*
X101229664Y-106962114D01*
X101320368Y-106999684D01*
X101440140Y-107049296D01*
X101660206Y-107108262D01*
X101886085Y-107138000D01*
X101886092Y-107138000D01*
X102113908Y-107138000D01*
X102113915Y-107138000D01*
X102339794Y-107108262D01*
X102559860Y-107049296D01*
X102770347Y-106962109D01*
X102967653Y-106848195D01*
X103148402Y-106709501D01*
X103309501Y-106548402D01*
X103448195Y-106367653D01*
X103562109Y-106170347D01*
X103649296Y-105959860D01*
X103708262Y-105739794D01*
X103738000Y-105513915D01*
X103738000Y-105286085D01*
X103737999Y-105286077D01*
X114762000Y-105286077D01*
X114762000Y-105513922D01*
X114786767Y-105702043D01*
X114791738Y-105739794D01*
X114791739Y-105739796D01*
X114850704Y-105959860D01*
X114937885Y-106170335D01*
X114937892Y-106170350D01*
X115051804Y-106367652D01*
X115190497Y-106548400D01*
X115190503Y-106548407D01*
X115351592Y-106709496D01*
X115351599Y-106709502D01*
X115532347Y-106848195D01*
X115729649Y-106962107D01*
X115729664Y-106962114D01*
X115820368Y-106999684D01*
X115940140Y-107049296D01*
X116160206Y-107108262D01*
X116386085Y-107138000D01*
X116386092Y-107138000D01*
X116613908Y-107138000D01*
X116613915Y-107138000D01*
X116839794Y-107108262D01*
X117059860Y-107049296D01*
X117270347Y-106962109D01*
X117467653Y-106848195D01*
X117648402Y-106709501D01*
X117809501Y-106548402D01*
X117948195Y-106367653D01*
X118062109Y-106170347D01*
X118149296Y-105959860D01*
X118208262Y-105739794D01*
X118238000Y-105513915D01*
X118238000Y-105286085D01*
X118208262Y-105060206D01*
X118149296Y-104840140D01*
X118062109Y-104629653D01*
X117948195Y-104432347D01*
X117809501Y-104251598D01*
X117809496Y-104251592D01*
X117648407Y-104090503D01*
X117648400Y-104090497D01*
X117467652Y-103951804D01*
X117270350Y-103837892D01*
X117270335Y-103837885D01*
X117059860Y-103750704D01*
X116839794Y-103691738D01*
X116802043Y-103686767D01*
X116613922Y-103662000D01*
X116613915Y-103662000D01*
X116386085Y-103662000D01*
X116386077Y-103662000D01*
X116171081Y-103690306D01*
X116160206Y-103691738D01*
X116067190Y-103716661D01*
X115940139Y-103750704D01*
X115729664Y-103837885D01*
X115729649Y-103837892D01*
X115532347Y-103951804D01*
X115351599Y-104090497D01*
X115351592Y-104090503D01*
X115190503Y-104251592D01*
X115190497Y-104251599D01*
X115051804Y-104432347D01*
X114937892Y-104629649D01*
X114937885Y-104629664D01*
X114850704Y-104840139D01*
X114791739Y-105060203D01*
X114791737Y-105060214D01*
X114762000Y-105286077D01*
X103737999Y-105286077D01*
X103708262Y-105060206D01*
X103649296Y-104840140D01*
X103562109Y-104629653D01*
X103448195Y-104432347D01*
X103309501Y-104251598D01*
X103309496Y-104251592D01*
X103148407Y-104090503D01*
X103148400Y-104090497D01*
X102967652Y-103951804D01*
X102770350Y-103837892D01*
X102770335Y-103837885D01*
X102559860Y-103750704D01*
X102339794Y-103691738D01*
X102302043Y-103686767D01*
X102113922Y-103662000D01*
X102113915Y-103662000D01*
X101886085Y-103662000D01*
X101886077Y-103662000D01*
X101671081Y-103690306D01*
X101660206Y-103691738D01*
X101567190Y-103716661D01*
X101440139Y-103750704D01*
X101229664Y-103837885D01*
X101229649Y-103837892D01*
X101032347Y-103951804D01*
X100851599Y-104090497D01*
X100851592Y-104090503D01*
X100690503Y-104251592D01*
X100690497Y-104251599D01*
X100551804Y-104432347D01*
X100437892Y-104629649D01*
X100437885Y-104629664D01*
X100350704Y-104840139D01*
X100291739Y-105060203D01*
X100291737Y-105060214D01*
X100262000Y-105286077D01*
X97000500Y-105286077D01*
X97000500Y-98936077D01*
X100262000Y-98936077D01*
X100262000Y-99163922D01*
X100284869Y-99337622D01*
X100291738Y-99389794D01*
X100324404Y-99511706D01*
X100350704Y-99609860D01*
X100437885Y-99820335D01*
X100437892Y-99820350D01*
X100551804Y-100017652D01*
X100690497Y-100198400D01*
X100690503Y-100198407D01*
X100851592Y-100359496D01*
X100851599Y-100359502D01*
X101032347Y-100498195D01*
X101229649Y-100612107D01*
X101229664Y-100612114D01*
X101320368Y-100649684D01*
X101440140Y-100699296D01*
X101660206Y-100758262D01*
X101886085Y-100788000D01*
X101886092Y-100788000D01*
X102113908Y-100788000D01*
X102113915Y-100788000D01*
X102339794Y-100758262D01*
X102559860Y-100699296D01*
X102770347Y-100612109D01*
X102967653Y-100498195D01*
X103148402Y-100359501D01*
X103309501Y-100198402D01*
X103448195Y-100017653D01*
X103562109Y-99820347D01*
X103649296Y-99609860D01*
X103708262Y-99389794D01*
X103738000Y-99163915D01*
X103738000Y-98936085D01*
X103708262Y-98710206D01*
X103649296Y-98490140D01*
X103562111Y-98279659D01*
X103562107Y-98279649D01*
X103448195Y-98082347D01*
X103415915Y-98040278D01*
X103390721Y-97975108D01*
X103390291Y-97964792D01*
X103390291Y-93562111D01*
X103409976Y-93495072D01*
X103462780Y-93449317D01*
X103531938Y-93439373D01*
X103595494Y-93468398D01*
X103601972Y-93474430D01*
X109465164Y-99337622D01*
X109465174Y-99337633D01*
X109558037Y-99430496D01*
X109592075Y-99450147D01*
X109626114Y-99469799D01*
X109666464Y-99493095D01*
X109666465Y-99493095D01*
X109666467Y-99493096D01*
X109726931Y-99509298D01*
X109787399Y-99525501D01*
X109787400Y-99525501D01*
X109920197Y-99525501D01*
X109920213Y-99525500D01*
X114733211Y-99525500D01*
X114800250Y-99545185D01*
X114846005Y-99597989D01*
X114850629Y-99609638D01*
X114850704Y-99609861D01*
X114937885Y-99820335D01*
X114937892Y-99820350D01*
X115051804Y-100017652D01*
X115190497Y-100198400D01*
X115190503Y-100198407D01*
X115351592Y-100359496D01*
X115351599Y-100359502D01*
X115532347Y-100498195D01*
X115729649Y-100612107D01*
X115729664Y-100612114D01*
X115820368Y-100649684D01*
X115940140Y-100699296D01*
X116160206Y-100758262D01*
X116386085Y-100788000D01*
X116386092Y-100788000D01*
X116613908Y-100788000D01*
X116613915Y-100788000D01*
X116839794Y-100758262D01*
X117059860Y-100699296D01*
X117270347Y-100612109D01*
X117467653Y-100498195D01*
X117648402Y-100359501D01*
X117809501Y-100198402D01*
X117948195Y-100017653D01*
X118062109Y-99820347D01*
X118149296Y-99609860D01*
X118208262Y-99389794D01*
X118238000Y-99163915D01*
X118238000Y-98936085D01*
X118208262Y-98710206D01*
X118149296Y-98490140D01*
X118062111Y-98279659D01*
X118062107Y-98279649D01*
X117948195Y-98082347D01*
X117809502Y-97901599D01*
X117809496Y-97901592D01*
X117648407Y-97740503D01*
X117648400Y-97740497D01*
X117467652Y-97601804D01*
X117270350Y-97487892D01*
X117270335Y-97487885D01*
X117059860Y-97400704D01*
X116839794Y-97341738D01*
X116799104Y-97336381D01*
X116613922Y-97312000D01*
X116613915Y-97312000D01*
X116386085Y-97312000D01*
X116386077Y-97312000D01*
X116171081Y-97340306D01*
X116160206Y-97341738D01*
X116067190Y-97366661D01*
X115940139Y-97400704D01*
X115729664Y-97487885D01*
X115729649Y-97487892D01*
X115532347Y-97601804D01*
X115351599Y-97740497D01*
X115351592Y-97740503D01*
X115190503Y-97901592D01*
X115190497Y-97901599D01*
X115051804Y-98082347D01*
X114937892Y-98279649D01*
X114937885Y-98279664D01*
X114850704Y-98490138D01*
X114850629Y-98490362D01*
X114850588Y-98490419D01*
X114849151Y-98493890D01*
X114848374Y-98493568D01*
X114810438Y-98547515D01*
X114745728Y-98573867D01*
X114733211Y-98574500D01*
X110098320Y-98574500D01*
X110031281Y-98554815D01*
X110010639Y-98538181D01*
X103876610Y-92404151D01*
X103843125Y-92342828D01*
X103840291Y-92316470D01*
X103840291Y-84386077D01*
X108412000Y-84386077D01*
X108412000Y-84613922D01*
X108427161Y-84729073D01*
X108441738Y-84839794D01*
X108468093Y-84938152D01*
X108500704Y-85059860D01*
X108587885Y-85270335D01*
X108587892Y-85270350D01*
X108701804Y-85467652D01*
X108840497Y-85648400D01*
X108840503Y-85648407D01*
X109001592Y-85809496D01*
X109001599Y-85809502D01*
X109182347Y-85948195D01*
X109379649Y-86062107D01*
X109379664Y-86062114D01*
X109456603Y-86093983D01*
X109590140Y-86149296D01*
X109810206Y-86208262D01*
X110036085Y-86238000D01*
X110036092Y-86238000D01*
X110263908Y-86238000D01*
X110263915Y-86238000D01*
X110489794Y-86208262D01*
X110709860Y-86149296D01*
X110920347Y-86062109D01*
X111117653Y-85948195D01*
X111298402Y-85809501D01*
X111459501Y-85648402D01*
X111598195Y-85467653D01*
X111712109Y-85270347D01*
X111799296Y-85059860D01*
X111858262Y-84839794D01*
X111888000Y-84613915D01*
X111888000Y-84386085D01*
X111858262Y-84160206D01*
X111799296Y-83940140D01*
X111712109Y-83729653D01*
X111699604Y-83707994D01*
X111598195Y-83532347D01*
X111459502Y-83351599D01*
X111459496Y-83351592D01*
X111298407Y-83190503D01*
X111298400Y-83190497D01*
X111117652Y-83051804D01*
X110920350Y-82937892D01*
X110920335Y-82937885D01*
X110709860Y-82850704D01*
X110489794Y-82791738D01*
X110452043Y-82786767D01*
X110263922Y-82762000D01*
X110263915Y-82762000D01*
X110036085Y-82762000D01*
X110036077Y-82762000D01*
X109821081Y-82790306D01*
X109810206Y-82791738D01*
X109717190Y-82816661D01*
X109590139Y-82850704D01*
X109379664Y-82937885D01*
X109379649Y-82937892D01*
X109182347Y-83051804D01*
X109001599Y-83190497D01*
X109001592Y-83190503D01*
X108840503Y-83351592D01*
X108840497Y-83351599D01*
X108701804Y-83532347D01*
X108587892Y-83729649D01*
X108587885Y-83729664D01*
X108500704Y-83940139D01*
X108441739Y-84160203D01*
X108441737Y-84160214D01*
X108412000Y-84386077D01*
X103840291Y-84386077D01*
X103840291Y-78064071D01*
X105849499Y-78064071D01*
X105874497Y-78189738D01*
X105874499Y-78189744D01*
X105923533Y-78308124D01*
X105923538Y-78308133D01*
X105994723Y-78414668D01*
X105994726Y-78414672D01*
X106085327Y-78505273D01*
X106085331Y-78505276D01*
X106191866Y-78576461D01*
X106191872Y-78576464D01*
X106191873Y-78576465D01*
X106310256Y-78625501D01*
X106310260Y-78625501D01*
X106310261Y-78625502D01*
X106435928Y-78650500D01*
X106435931Y-78650500D01*
X106564071Y-78650500D01*
X106648615Y-78633682D01*
X106689744Y-78625501D01*
X106808127Y-78576465D01*
X106914669Y-78505276D01*
X107005276Y-78414669D01*
X107076465Y-78308127D01*
X107125501Y-78189744D01*
X107150500Y-78064069D01*
X107150500Y-77935931D01*
X107150500Y-77935928D01*
X107125502Y-77810261D01*
X107125501Y-77810260D01*
X107125501Y-77810256D01*
X107076465Y-77691873D01*
X107076464Y-77691872D01*
X107076461Y-77691866D01*
X107005276Y-77585331D01*
X107005273Y-77585327D01*
X106914672Y-77494726D01*
X106914668Y-77494723D01*
X106808133Y-77423538D01*
X106808124Y-77423533D01*
X106689744Y-77374499D01*
X106689738Y-77374497D01*
X106564071Y-77349500D01*
X106564069Y-77349500D01*
X106435931Y-77349500D01*
X106435929Y-77349500D01*
X106310261Y-77374497D01*
X106310255Y-77374499D01*
X106191875Y-77423533D01*
X106191866Y-77423538D01*
X106085331Y-77494723D01*
X106085327Y-77494726D01*
X105994726Y-77585327D01*
X105994723Y-77585331D01*
X105923538Y-77691866D01*
X105923533Y-77691875D01*
X105874499Y-77810255D01*
X105874497Y-77810261D01*
X105849500Y-77935928D01*
X105849500Y-77935931D01*
X105849500Y-78064069D01*
X105849500Y-78064071D01*
X105849499Y-78064071D01*
X103840291Y-78064071D01*
X103840291Y-66264412D01*
X103859976Y-66197373D01*
X103868440Y-66185744D01*
X103870060Y-66183768D01*
X103870067Y-66183762D01*
X103941256Y-66077220D01*
X103990292Y-65958837D01*
X104015291Y-65833162D01*
X104015291Y-65705024D01*
X104015291Y-65705021D01*
X103990293Y-65579354D01*
X103990292Y-65579353D01*
X103990292Y-65579349D01*
X103979247Y-65552686D01*
X103971779Y-65483218D01*
X104003054Y-65420738D01*
X104063143Y-65385086D01*
X104132968Y-65387580D01*
X104181490Y-65417553D01*
X104838181Y-66074244D01*
X104871666Y-66135567D01*
X104874500Y-66161925D01*
X104874500Y-71537399D01*
X104874500Y-71662601D01*
X104906905Y-71783536D01*
X104932658Y-71828143D01*
X104969504Y-71891962D01*
X104969506Y-71891965D01*
X106202747Y-73125206D01*
X106236232Y-73186529D01*
X106231248Y-73256221D01*
X106189376Y-73312154D01*
X106123912Y-73336571D01*
X106095305Y-73334225D01*
X106095146Y-73335235D01*
X105872681Y-73300000D01*
X105652319Y-73300000D01*
X105434664Y-73334473D01*
X105225089Y-73402567D01*
X105028733Y-73502616D01*
X104964985Y-73548931D01*
X104964985Y-73548932D01*
X105551441Y-74135387D01*
X105530909Y-74140889D01*
X105394092Y-74219881D01*
X105282381Y-74331592D01*
X105203389Y-74468409D01*
X105197887Y-74488940D01*
X104611432Y-73902485D01*
X104611431Y-73902485D01*
X104565116Y-73966233D01*
X104465067Y-74162589D01*
X104396973Y-74372164D01*
X104362500Y-74589818D01*
X104362500Y-74810181D01*
X104396973Y-75027835D01*
X104465067Y-75237410D01*
X104565111Y-75433756D01*
X104611432Y-75497513D01*
X105197887Y-74911058D01*
X105203389Y-74931591D01*
X105282381Y-75068408D01*
X105394092Y-75180119D01*
X105530909Y-75259111D01*
X105551439Y-75264612D01*
X104964985Y-75851065D01*
X104964985Y-75851066D01*
X105028743Y-75897388D01*
X105225089Y-75997432D01*
X105434664Y-76065526D01*
X105652319Y-76100000D01*
X105872681Y-76100000D01*
X106090335Y-76065526D01*
X106299910Y-75997432D01*
X106496260Y-75897386D01*
X106560013Y-75851066D01*
X106560014Y-75851066D01*
X105973559Y-75264612D01*
X105994091Y-75259111D01*
X106130908Y-75180119D01*
X106242619Y-75068408D01*
X106321611Y-74931591D01*
X106327112Y-74911059D01*
X106913566Y-75497514D01*
X106913566Y-75497513D01*
X106959886Y-75433760D01*
X107059932Y-75237410D01*
X107128026Y-75027835D01*
X107162500Y-74810181D01*
X107162500Y-74589818D01*
X107127265Y-74367354D01*
X107129527Y-74366995D01*
X107132496Y-74306691D01*
X107173115Y-74249841D01*
X107238021Y-74223976D01*
X107306607Y-74237308D01*
X107337293Y-74259752D01*
X108158036Y-75080495D01*
X108266464Y-75143095D01*
X108387399Y-75175500D01*
X108512601Y-75175500D01*
X110925323Y-75175500D01*
X110992362Y-75195185D01*
X111035808Y-75243206D01*
X111092974Y-75355403D01*
X111127734Y-75403246D01*
X111208672Y-75514646D01*
X111347854Y-75653828D01*
X111507095Y-75769524D01*
X111565927Y-75799500D01*
X111682470Y-75858882D01*
X111682472Y-75858882D01*
X111682475Y-75858884D01*
X111782817Y-75891487D01*
X111869673Y-75919709D01*
X112064078Y-75950500D01*
X112064083Y-75950500D01*
X112260922Y-75950500D01*
X112455326Y-75919709D01*
X112642525Y-75858884D01*
X112817905Y-75769524D01*
X112977146Y-75653828D01*
X113116328Y-75514646D01*
X113232024Y-75355405D01*
X113321384Y-75180025D01*
X113382209Y-74992826D01*
X113386996Y-74962601D01*
X113413000Y-74798422D01*
X113413000Y-74601577D01*
X113382209Y-74407173D01*
X113331088Y-74249841D01*
X113321384Y-74219975D01*
X113321382Y-74219972D01*
X113321382Y-74219970D01*
X113260254Y-74100000D01*
X113232024Y-74044595D01*
X113116328Y-73885354D01*
X112977146Y-73746172D01*
X112817905Y-73630476D01*
X112642529Y-73541117D01*
X112455326Y-73480290D01*
X112260922Y-73449500D01*
X112260917Y-73449500D01*
X112064083Y-73449500D01*
X112064078Y-73449500D01*
X111869673Y-73480290D01*
X111682470Y-73541117D01*
X111507094Y-73630476D01*
X111416241Y-73696485D01*
X111347854Y-73746172D01*
X111347852Y-73746174D01*
X111347851Y-73746174D01*
X111208674Y-73885351D01*
X111208674Y-73885352D01*
X111208672Y-73885354D01*
X111196226Y-73902485D01*
X111092974Y-74044596D01*
X111035808Y-74156794D01*
X110987834Y-74207591D01*
X110925323Y-74224500D01*
X108698321Y-74224500D01*
X108631282Y-74204815D01*
X108610640Y-74188181D01*
X106014639Y-71592180D01*
X105981154Y-71530857D01*
X105986138Y-71461165D01*
X106028010Y-71405232D01*
X106093474Y-71380815D01*
X106102320Y-71380499D01*
X107227893Y-71380499D01*
X107227894Y-71380499D01*
X107325779Y-71364997D01*
X107443757Y-71304884D01*
X107443762Y-71304879D01*
X107444728Y-71304179D01*
X107446099Y-71303689D01*
X107452452Y-71300453D01*
X107452870Y-71301274D01*
X107510536Y-71280702D01*
X107517609Y-71280500D01*
X108757599Y-71280500D01*
X108757601Y-71280500D01*
X108878536Y-71248095D01*
X108986964Y-71185495D01*
X109485987Y-70686471D01*
X109547308Y-70652988D01*
X109561526Y-70650750D01*
X109564065Y-70650500D01*
X109564069Y-70650500D01*
X109564073Y-70650499D01*
X109564075Y-70650499D01*
X109626906Y-70638000D01*
X109689744Y-70625501D01*
X109808127Y-70576465D01*
X109914669Y-70505276D01*
X110005276Y-70414669D01*
X110076465Y-70308127D01*
X110125501Y-70189744D01*
X110144348Y-70094997D01*
X110150500Y-70064071D01*
X110150500Y-69935928D01*
X110125502Y-69810261D01*
X110125501Y-69810260D01*
X110125501Y-69810256D01*
X110087574Y-69718692D01*
X110076466Y-69691875D01*
X110076461Y-69691866D01*
X110005276Y-69585331D01*
X110005273Y-69585327D01*
X109914672Y-69494726D01*
X109914668Y-69494723D01*
X109808133Y-69423538D01*
X109808124Y-69423533D01*
X109689744Y-69374499D01*
X109689738Y-69374497D01*
X109564071Y-69349500D01*
X109564069Y-69349500D01*
X109435931Y-69349500D01*
X109435929Y-69349500D01*
X109310261Y-69374497D01*
X109310255Y-69374499D01*
X109191875Y-69423533D01*
X109191866Y-69423538D01*
X109085326Y-69494726D01*
X109083341Y-69496356D01*
X109082098Y-69496883D01*
X109080266Y-69498108D01*
X109080033Y-69497760D01*
X109019030Y-69523667D01*
X109004680Y-69524500D01*
X108248321Y-69524500D01*
X108181282Y-69504815D01*
X108160640Y-69488181D01*
X107826965Y-69154506D01*
X107826964Y-69154505D01*
X107718536Y-69091905D01*
X107718531Y-69091903D01*
X107617727Y-69064892D01*
X107558067Y-69028527D01*
X107527539Y-68965680D01*
X107535834Y-68896304D01*
X107574339Y-68846740D01*
X107599744Y-68827247D01*
X107690710Y-68708697D01*
X107747892Y-68570647D01*
X107747892Y-68570645D01*
X107758510Y-68490000D01*
X106636500Y-68490000D01*
X106569461Y-68470315D01*
X106523706Y-68417511D01*
X106512500Y-68366000D01*
X106512500Y-68265000D01*
X106411500Y-68265000D01*
X106344461Y-68245315D01*
X106298706Y-68192511D01*
X106287500Y-68141000D01*
X106287500Y-68040000D01*
X106737500Y-68040000D01*
X107758509Y-68040000D01*
X107758509Y-68039999D01*
X111266490Y-68039999D01*
X111266491Y-68040000D01*
X112287500Y-68040000D01*
X112287500Y-67220000D01*
X111266490Y-67220000D01*
X111277107Y-67300645D01*
X111277107Y-67300647D01*
X111334290Y-67438700D01*
X111423157Y-67554514D01*
X111448351Y-67619683D01*
X111434312Y-67688128D01*
X111423157Y-67705486D01*
X111334290Y-67821299D01*
X111277107Y-67959352D01*
X111277107Y-67959354D01*
X111266490Y-68039999D01*
X107758509Y-68039999D01*
X107747892Y-67959354D01*
X107747892Y-67959352D01*
X107690710Y-67821302D01*
X107601842Y-67705487D01*
X107576648Y-67640317D01*
X107590686Y-67571873D01*
X107601842Y-67554513D01*
X107690710Y-67438697D01*
X107747892Y-67300647D01*
X107747892Y-67300645D01*
X107758510Y-67220000D01*
X106737500Y-67220000D01*
X106737500Y-68040000D01*
X106287500Y-68040000D01*
X106287500Y-66770000D01*
X106737500Y-66770000D01*
X107758509Y-66770000D01*
X107758509Y-66769999D01*
X107747892Y-66689354D01*
X107747892Y-66689352D01*
X107690710Y-66551302D01*
X107599745Y-66432754D01*
X107481197Y-66341789D01*
X107343146Y-66284607D01*
X107232203Y-66270000D01*
X106737500Y-66270000D01*
X106737500Y-66770000D01*
X106287500Y-66770000D01*
X106287500Y-66270000D01*
X105949500Y-66270000D01*
X105882461Y-66250315D01*
X105836706Y-66197511D01*
X105825500Y-66146000D01*
X105825500Y-65851004D01*
X105820719Y-65833162D01*
X105793095Y-65730068D01*
X105730495Y-65621640D01*
X105641964Y-65533109D01*
X102188757Y-62079902D01*
X102155272Y-62018579D01*
X102154821Y-61968029D01*
X102175500Y-61864071D01*
X102175500Y-61735928D01*
X102150502Y-61610261D01*
X102150501Y-61610260D01*
X102150501Y-61610256D01*
X102101465Y-61491873D01*
X102101464Y-61491872D01*
X102101461Y-61491866D01*
X102030276Y-61385331D01*
X102030273Y-61385327D01*
X101939672Y-61294726D01*
X101939668Y-61294723D01*
X101833133Y-61223538D01*
X101833124Y-61223533D01*
X101714744Y-61174499D01*
X101714738Y-61174497D01*
X101589071Y-61149500D01*
X101589069Y-61149500D01*
X101460931Y-61149500D01*
X101460929Y-61149500D01*
X101335261Y-61174497D01*
X101335255Y-61174499D01*
X101216875Y-61223533D01*
X101216866Y-61223538D01*
X101110331Y-61294723D01*
X101110327Y-61294726D01*
X101019726Y-61385327D01*
X101019723Y-61385331D01*
X100948538Y-61491866D01*
X100948533Y-61491875D01*
X100899499Y-61610255D01*
X100899497Y-61610261D01*
X100874500Y-61735928D01*
X100874500Y-61735931D01*
X100874500Y-61864069D01*
X100874500Y-61864071D01*
X100874499Y-61864071D01*
X100899497Y-61989738D01*
X100899499Y-61989744D01*
X100948533Y-62108124D01*
X100948538Y-62108133D01*
X101019723Y-62214668D01*
X101019726Y-62214672D01*
X101076793Y-62271739D01*
X101096499Y-62297420D01*
X101144502Y-62380564D01*
X101144506Y-62380569D01*
X103100359Y-64336422D01*
X103133844Y-64397745D01*
X103128860Y-64467437D01*
X103086988Y-64523370D01*
X103021524Y-64547787D01*
X102988486Y-64545720D01*
X102891052Y-64526339D01*
X102891050Y-64526339D01*
X102762912Y-64526339D01*
X102762910Y-64526339D01*
X102637242Y-64551336D01*
X102637236Y-64551338D01*
X102518856Y-64600372D01*
X102518847Y-64600377D01*
X102412312Y-64671562D01*
X102412308Y-64671565D01*
X102321707Y-64762166D01*
X102321704Y-64762170D01*
X102250519Y-64868705D01*
X102250514Y-64868714D01*
X102201480Y-64987094D01*
X102201478Y-64987100D01*
X102176481Y-65112767D01*
X102176481Y-65112770D01*
X102176481Y-65240908D01*
X102176481Y-65240910D01*
X102176480Y-65240910D01*
X102201478Y-65366577D01*
X102201480Y-65366583D01*
X102252847Y-65490594D01*
X102251592Y-65491113D01*
X102264291Y-65541797D01*
X102264291Y-65965376D01*
X102264291Y-66090578D01*
X102296696Y-66211513D01*
X102356283Y-66314723D01*
X102359295Y-66319939D01*
X102359297Y-66319942D01*
X102402972Y-66363617D01*
X102436457Y-66424940D01*
X102439291Y-66451298D01*
X102439291Y-97213442D01*
X102419606Y-97280481D01*
X102366802Y-97326236D01*
X102299106Y-97336381D01*
X102113924Y-97312001D01*
X102113921Y-97312000D01*
X102113915Y-97312000D01*
X101886085Y-97312000D01*
X101886077Y-97312000D01*
X101671081Y-97340306D01*
X101660206Y-97341738D01*
X101567190Y-97366661D01*
X101440139Y-97400704D01*
X101229664Y-97487885D01*
X101229649Y-97487892D01*
X101032347Y-97601804D01*
X100851599Y-97740497D01*
X100851592Y-97740503D01*
X100690503Y-97901592D01*
X100690497Y-97901599D01*
X100551804Y-98082347D01*
X100437892Y-98279649D01*
X100437885Y-98279664D01*
X100350704Y-98490139D01*
X100291739Y-98710203D01*
X100291737Y-98710214D01*
X100262000Y-98936077D01*
X97000500Y-98936077D01*
X97000500Y-54777113D01*
X97020185Y-54710074D01*
X97072989Y-54664319D01*
X97142147Y-54654375D01*
X97205703Y-54683400D01*
X97221447Y-54699800D01*
X97365047Y-54879870D01*
X97409812Y-54936003D01*
X97663997Y-55190188D01*
X97945044Y-55414315D01*
X98249418Y-55605566D01*
X98573292Y-55761536D01*
X98752019Y-55824075D01*
X98912580Y-55880258D01*
X98912592Y-55880262D01*
X99263052Y-55960252D01*
X99620260Y-56000499D01*
X99620261Y-56000500D01*
X99620264Y-56000500D01*
X99979739Y-56000500D01*
X99979739Y-56000499D01*
X100336948Y-55960252D01*
X100687408Y-55880262D01*
X101026708Y-55761536D01*
X101350582Y-55605566D01*
X101654956Y-55414315D01*
X101936003Y-55190188D01*
X102190188Y-54936003D01*
X102414315Y-54654956D01*
X102605566Y-54350582D01*
X102761536Y-54026708D01*
X102880262Y-53687408D01*
X102934609Y-53449296D01*
X102968717Y-53388318D01*
X103030379Y-53355460D01*
X103100016Y-53361155D01*
X103155520Y-53403595D01*
X103179268Y-53469305D01*
X103179500Y-53476889D01*
X103179500Y-59789311D01*
X103191356Y-59833555D01*
X103191357Y-59833559D01*
X103210199Y-59903885D01*
X103240669Y-59956658D01*
X103269511Y-60006614D01*
X104273386Y-61010489D01*
X104312340Y-61032979D01*
X104376114Y-61069799D01*
X104490691Y-61100500D01*
X112803541Y-61100500D01*
X112870580Y-61120185D01*
X112891222Y-61136819D01*
X113753699Y-61999296D01*
X113787184Y-62060619D01*
X113782200Y-62130311D01*
X113740328Y-62186244D01*
X113690210Y-62208594D01*
X113610261Y-62224497D01*
X113610255Y-62224499D01*
X113491875Y-62273533D01*
X113491866Y-62273538D01*
X113385331Y-62344723D01*
X113385327Y-62344726D01*
X113294726Y-62435327D01*
X113294723Y-62435331D01*
X113223538Y-62541866D01*
X113223533Y-62541875D01*
X113174499Y-62660255D01*
X113174497Y-62660261D01*
X113149500Y-62785928D01*
X113149500Y-62812034D01*
X113145130Y-62826915D01*
X113145721Y-62842412D01*
X113135074Y-62861159D01*
X113129815Y-62879073D01*
X113120144Y-62887452D01*
X113113181Y-62899715D01*
X113001680Y-63011216D01*
X112940357Y-63044701D01*
X112870665Y-63039717D01*
X112814732Y-62997845D01*
X112790315Y-62932381D01*
X112789999Y-62923535D01*
X112789999Y-62800317D01*
X112794368Y-62785435D01*
X112793778Y-62769939D01*
X112804011Y-62752597D01*
X112809684Y-62733278D01*
X112810898Y-62731424D01*
X112819571Y-62718444D01*
X112826465Y-62708127D01*
X112875501Y-62589744D01*
X112891134Y-62511155D01*
X112900500Y-62464071D01*
X112900500Y-62335928D01*
X112875502Y-62210261D01*
X112875501Y-62210260D01*
X112875501Y-62210256D01*
X112826465Y-62091873D01*
X112826464Y-62091872D01*
X112826461Y-62091866D01*
X112755276Y-61985331D01*
X112755273Y-61985327D01*
X112664672Y-61894726D01*
X112664668Y-61894723D01*
X112558133Y-61823538D01*
X112558124Y-61823533D01*
X112439744Y-61774499D01*
X112439738Y-61774497D01*
X112314071Y-61749500D01*
X112314069Y-61749500D01*
X112185931Y-61749500D01*
X112185929Y-61749500D01*
X112060261Y-61774497D01*
X112060255Y-61774499D01*
X111941875Y-61823533D01*
X111941866Y-61823538D01*
X111835331Y-61894723D01*
X111835327Y-61894726D01*
X111744726Y-61985327D01*
X111744723Y-61985331D01*
X111673538Y-62091866D01*
X111673533Y-62091875D01*
X111624499Y-62210255D01*
X111624497Y-62210261D01*
X111599500Y-62335928D01*
X111599500Y-62335931D01*
X111599500Y-62464069D01*
X111599500Y-62464071D01*
X111599499Y-62464071D01*
X111624497Y-62589738D01*
X111624499Y-62589744D01*
X111673533Y-62708124D01*
X111673538Y-62708133D01*
X111681948Y-62720719D01*
X111702826Y-62787397D01*
X111684341Y-62854777D01*
X111632362Y-62901467D01*
X111615457Y-62908082D01*
X111611109Y-62909425D01*
X111506013Y-62960803D01*
X111480134Y-62986683D01*
X111479435Y-62987064D01*
X111423512Y-63042987D01*
X111420417Y-63047556D01*
X111417332Y-63051877D01*
X111415751Y-63050748D01*
X111410594Y-63055905D01*
X111377765Y-63091834D01*
X111310231Y-63109745D01*
X111243733Y-63088301D01*
X111199385Y-63034309D01*
X111199021Y-63032525D01*
X111189498Y-63023002D01*
X111141653Y-63023002D01*
X111082125Y-63029403D01*
X111082118Y-63029405D01*
X110947411Y-63079647D01*
X110947404Y-63079651D01*
X110832310Y-63165811D01*
X110832307Y-63165814D01*
X110746147Y-63280908D01*
X110746143Y-63280915D01*
X110695901Y-63415622D01*
X110695899Y-63415629D01*
X110689498Y-63475157D01*
X110689498Y-63523002D01*
X111192498Y-63523002D01*
X111259537Y-63542687D01*
X111305292Y-63595491D01*
X111316498Y-63647002D01*
X111316498Y-63653002D01*
X111296813Y-63720041D01*
X111244009Y-63765796D01*
X111192498Y-63777002D01*
X110689498Y-63777002D01*
X110653319Y-63813181D01*
X110591996Y-63846666D01*
X110565638Y-63849500D01*
X110435929Y-63849500D01*
X110310261Y-63874497D01*
X110310255Y-63874499D01*
X110191875Y-63923533D01*
X110191866Y-63923538D01*
X110085331Y-63994723D01*
X110085327Y-63994726D01*
X109994726Y-64085327D01*
X109994723Y-64085331D01*
X109923538Y-64191866D01*
X109923533Y-64191875D01*
X109874499Y-64310255D01*
X109874497Y-64310261D01*
X109849500Y-64435928D01*
X109849500Y-64435931D01*
X109849500Y-64564069D01*
X109849500Y-64564071D01*
X109849499Y-64564071D01*
X109874497Y-64689738D01*
X109874499Y-64689744D01*
X109923533Y-64808124D01*
X109923538Y-64808133D01*
X109994723Y-64914668D01*
X109994726Y-64914672D01*
X110085327Y-65005273D01*
X110085331Y-65005276D01*
X110191866Y-65076461D01*
X110191872Y-65076464D01*
X110191873Y-65076465D01*
X110310256Y-65125501D01*
X110310260Y-65125501D01*
X110310261Y-65125502D01*
X110435928Y-65150500D01*
X110435931Y-65150500D01*
X110564071Y-65150500D01*
X110648615Y-65133682D01*
X110689744Y-65125501D01*
X110708884Y-65117573D01*
X110727315Y-65109939D01*
X110774767Y-65100500D01*
X110869418Y-65100500D01*
X110936457Y-65120185D01*
X110982212Y-65172989D01*
X110992156Y-65242147D01*
X110975373Y-65285945D01*
X110976408Y-65286498D01*
X110973533Y-65291875D01*
X110924499Y-65410255D01*
X110924497Y-65410261D01*
X110899500Y-65535928D01*
X110899500Y-65535931D01*
X110899500Y-65664069D01*
X110899500Y-65664071D01*
X110899499Y-65664071D01*
X110924497Y-65789738D01*
X110924499Y-65789744D01*
X110973533Y-65908124D01*
X110973538Y-65908133D01*
X111044723Y-66014668D01*
X111044726Y-66014672D01*
X111135327Y-66105273D01*
X111135331Y-66105276D01*
X111241866Y-66176461D01*
X111241872Y-66176464D01*
X111241873Y-66176465D01*
X111360256Y-66225501D01*
X111360262Y-66225502D01*
X111366088Y-66227270D01*
X111365714Y-66228502D01*
X111421715Y-66257794D01*
X111456292Y-66318508D01*
X111452554Y-66388278D01*
X111429119Y-66425476D01*
X111430202Y-66426307D01*
X111334289Y-66551302D01*
X111277107Y-66689352D01*
X111277107Y-66689354D01*
X111266490Y-66769999D01*
X111266491Y-66770000D01*
X112388500Y-66770000D01*
X112455539Y-66789685D01*
X112501294Y-66842489D01*
X112512500Y-66894000D01*
X112512500Y-66995000D01*
X112613500Y-66995000D01*
X112680539Y-67014685D01*
X112726294Y-67067489D01*
X112737500Y-67119000D01*
X112737500Y-68141000D01*
X112717815Y-68208039D01*
X112665011Y-68253794D01*
X112613500Y-68265000D01*
X112512500Y-68265000D01*
X112512500Y-68366000D01*
X112492815Y-68433039D01*
X112440011Y-68478794D01*
X112388500Y-68490000D01*
X111266490Y-68490000D01*
X111277107Y-68570645D01*
X111277107Y-68570647D01*
X111334289Y-68708697D01*
X111425255Y-68827247D01*
X111518958Y-68899147D01*
X111560161Y-68955575D01*
X111564316Y-69025321D01*
X111531154Y-69085203D01*
X111487620Y-69128737D01*
X111487617Y-69128742D01*
X111487616Y-69128743D01*
X111474968Y-69153566D01*
X111427501Y-69246723D01*
X111412000Y-69344599D01*
X111412000Y-69725393D01*
X111422191Y-69789738D01*
X111427503Y-69823279D01*
X111487616Y-69941257D01*
X111487618Y-69941259D01*
X111487620Y-69941262D01*
X111581237Y-70034879D01*
X111581239Y-70034880D01*
X111581243Y-70034884D01*
X111629586Y-70059516D01*
X111680381Y-70107490D01*
X111697176Y-70175311D01*
X111674638Y-70241446D01*
X111629586Y-70280483D01*
X111581243Y-70305116D01*
X111581242Y-70305117D01*
X111581237Y-70305120D01*
X111487620Y-70398737D01*
X111487617Y-70398742D01*
X111487616Y-70398743D01*
X111479500Y-70414672D01*
X111427501Y-70516723D01*
X111412000Y-70614599D01*
X111412000Y-70995393D01*
X111423100Y-71065480D01*
X111427503Y-71093279D01*
X111487616Y-71211257D01*
X111487618Y-71211259D01*
X111487620Y-71211262D01*
X111581237Y-71304879D01*
X111581239Y-71304880D01*
X111581243Y-71304884D01*
X111699219Y-71364996D01*
X111699223Y-71364998D01*
X111797099Y-71380499D01*
X111797105Y-71380500D01*
X113227894Y-71380499D01*
X113325779Y-71364997D01*
X113443757Y-71304884D01*
X113537384Y-71211257D01*
X113574218Y-71138964D01*
X113597017Y-71107584D01*
X114287820Y-70416782D01*
X114349142Y-70383298D01*
X114418834Y-70388282D01*
X114474767Y-70430154D01*
X114499184Y-70495618D01*
X114499500Y-70504464D01*
X114499500Y-75612035D01*
X114479815Y-75679074D01*
X114463181Y-75699716D01*
X112639513Y-77523383D01*
X112639509Y-77523389D01*
X112580201Y-77626112D01*
X112580200Y-77626117D01*
X112549500Y-77740691D01*
X112549500Y-96829192D01*
X112529815Y-96896231D01*
X112513181Y-96916873D01*
X112494726Y-96935327D01*
X112494723Y-96935331D01*
X112423538Y-97041866D01*
X112423533Y-97041875D01*
X112374499Y-97160255D01*
X112374497Y-97160261D01*
X112349500Y-97285928D01*
X112349500Y-97285931D01*
X112349500Y-97414069D01*
X112349500Y-97414071D01*
X112349499Y-97414071D01*
X112374497Y-97539738D01*
X112374499Y-97539744D01*
X112423533Y-97658124D01*
X112423538Y-97658133D01*
X112494723Y-97764668D01*
X112494726Y-97764672D01*
X112585327Y-97855273D01*
X112585331Y-97855276D01*
X112691866Y-97926461D01*
X112691872Y-97926464D01*
X112691873Y-97926465D01*
X112810256Y-97975501D01*
X112810260Y-97975501D01*
X112810261Y-97975502D01*
X112935928Y-98000500D01*
X112935931Y-98000500D01*
X113064071Y-98000500D01*
X113148615Y-97983682D01*
X113189744Y-97975501D01*
X113308127Y-97926465D01*
X113414669Y-97855276D01*
X113505276Y-97764669D01*
X113576465Y-97658127D01*
X113625501Y-97539744D01*
X113635815Y-97487892D01*
X113650500Y-97414071D01*
X113650500Y-97285928D01*
X113625502Y-97160261D01*
X113625501Y-97160260D01*
X113625501Y-97160256D01*
X113576465Y-97041873D01*
X113576464Y-97041872D01*
X113576461Y-97041866D01*
X113505276Y-96935331D01*
X113505273Y-96935327D01*
X113486819Y-96916873D01*
X113453334Y-96855550D01*
X113450500Y-96829192D01*
X113450500Y-93436965D01*
X113470185Y-93369926D01*
X113522989Y-93324171D01*
X113592147Y-93314227D01*
X113655703Y-93343252D01*
X113662181Y-93349284D01*
X120013181Y-99700284D01*
X120046666Y-99761607D01*
X120049500Y-99787965D01*
X120049500Y-122252084D01*
X120073712Y-122342448D01*
X120080200Y-122366661D01*
X120080200Y-122366662D01*
X120080201Y-122366663D01*
X120139511Y-122469390D01*
X120139513Y-122469392D01*
X122513180Y-124843059D01*
X122546665Y-124904382D01*
X122549499Y-124930740D01*
X122549499Y-125212654D01*
X122529814Y-125279693D01*
X122481794Y-125323139D01*
X122303764Y-125413850D01*
X122207252Y-125483970D01*
X122134604Y-125536753D01*
X122134602Y-125536755D01*
X122134601Y-125536755D01*
X121986754Y-125684602D01*
X121986754Y-125684603D01*
X121986752Y-125684605D01*
X121977954Y-125696715D01*
X121863849Y-125853765D01*
X121768923Y-126040066D01*
X121704307Y-126238931D01*
X121671599Y-126445447D01*
X121671599Y-126654552D01*
X121704307Y-126861068D01*
X121768923Y-127059933D01*
X121863771Y-127246081D01*
X121863849Y-127246234D01*
X121986752Y-127415395D01*
X122134604Y-127563247D01*
X122303765Y-127686150D01*
X122391786Y-127730999D01*
X122490065Y-127781075D01*
X122490067Y-127781075D01*
X122490070Y-127781077D01*
X122591433Y-127814012D01*
X122688930Y-127845691D01*
X122895447Y-127878400D01*
X122895452Y-127878400D01*
X123104551Y-127878400D01*
X123311067Y-127845691D01*
X123509928Y-127781077D01*
X123696233Y-127686150D01*
X123865394Y-127563247D01*
X124013246Y-127415395D01*
X124136149Y-127246234D01*
X124231076Y-127059929D01*
X124295690Y-126861068D01*
X124328399Y-126654552D01*
X124328399Y-126445447D01*
X124295690Y-126238931D01*
X124265710Y-126146665D01*
X124231076Y-126040071D01*
X124231074Y-126040068D01*
X124231074Y-126040066D01*
X124164031Y-125908488D01*
X124136149Y-125853766D01*
X124013246Y-125684605D01*
X123865394Y-125536753D01*
X123696233Y-125413850D01*
X123518204Y-125323139D01*
X123467408Y-125275164D01*
X123450499Y-125212654D01*
X123450499Y-124633468D01*
X123450499Y-124633466D01*
X123419798Y-124518889D01*
X123419796Y-124518885D01*
X123394730Y-124475469D01*
X123360492Y-124416167D01*
X123360486Y-124416159D01*
X120986819Y-122042492D01*
X120953334Y-121981169D01*
X120950500Y-121954811D01*
X120950500Y-119883687D01*
X121522099Y-119883687D01*
X121522099Y-120116312D01*
X121558490Y-120346077D01*
X121630373Y-120567314D01*
X121735988Y-120774591D01*
X121793160Y-120853282D01*
X121793161Y-120853283D01*
X122342396Y-120304048D01*
X122358487Y-120342895D01*
X122437709Y-120461460D01*
X122538539Y-120562290D01*
X122657104Y-120641512D01*
X122695949Y-120657602D01*
X122146714Y-121206836D01*
X122225410Y-121264012D01*
X122432684Y-121369625D01*
X122653921Y-121441508D01*
X122883687Y-121477900D01*
X123116311Y-121477900D01*
X123346076Y-121441508D01*
X123567313Y-121369625D01*
X123774579Y-121264016D01*
X123774585Y-121264012D01*
X123853281Y-121206836D01*
X123853282Y-121206836D01*
X123304047Y-120657602D01*
X123342894Y-120641512D01*
X123461459Y-120562290D01*
X123562289Y-120461460D01*
X123641511Y-120342895D01*
X123657601Y-120304049D01*
X124206835Y-120853283D01*
X124206835Y-120853282D01*
X124264011Y-120774586D01*
X124264015Y-120774580D01*
X124369624Y-120567314D01*
X124441507Y-120346077D01*
X124477899Y-120116312D01*
X124477899Y-119883687D01*
X124441507Y-119653922D01*
X124369624Y-119432685D01*
X124264011Y-119225411D01*
X124206835Y-119146716D01*
X124206835Y-119146715D01*
X123657601Y-119695950D01*
X123641511Y-119657105D01*
X123562289Y-119538540D01*
X123461459Y-119437710D01*
X123342894Y-119358488D01*
X123304047Y-119342397D01*
X123853282Y-118793162D01*
X123853281Y-118793161D01*
X123774590Y-118735989D01*
X123567313Y-118630374D01*
X123346076Y-118558491D01*
X123116311Y-118522100D01*
X122883687Y-118522100D01*
X122653921Y-118558491D01*
X122432684Y-118630374D01*
X122225414Y-118735985D01*
X122146715Y-118793162D01*
X122695950Y-119342397D01*
X122657104Y-119358488D01*
X122538539Y-119437710D01*
X122437709Y-119538540D01*
X122358487Y-119657105D01*
X122342396Y-119695951D01*
X121793161Y-119146716D01*
X121735984Y-119225415D01*
X121630373Y-119432685D01*
X121558490Y-119653922D01*
X121522099Y-119883687D01*
X120950500Y-119883687D01*
X120950500Y-110314655D01*
X129112500Y-110314655D01*
X129112500Y-111500000D01*
X130106606Y-111500000D01*
X130075000Y-111658895D01*
X130075000Y-111841105D01*
X130106606Y-112000000D01*
X129112500Y-112000000D01*
X129112500Y-113185344D01*
X129118901Y-113244872D01*
X129118903Y-113244879D01*
X129169145Y-113379586D01*
X129169149Y-113379593D01*
X129255309Y-113494687D01*
X129255312Y-113494690D01*
X129370406Y-113580850D01*
X129370413Y-113580854D01*
X129505120Y-113631096D01*
X129505127Y-113631098D01*
X129564655Y-113637499D01*
X129564672Y-113637500D01*
X130750000Y-113637500D01*
X130750000Y-112643394D01*
X130908895Y-112675000D01*
X131091105Y-112675000D01*
X131250000Y-112643394D01*
X131250000Y-113637500D01*
X132435328Y-113637500D01*
X132435344Y-113637499D01*
X132494872Y-113631098D01*
X132494879Y-113631096D01*
X132629586Y-113580854D01*
X132629593Y-113580850D01*
X132744687Y-113494690D01*
X132744690Y-113494687D01*
X132830850Y-113379593D01*
X132830854Y-113379586D01*
X132881096Y-113244879D01*
X132881098Y-113244872D01*
X132887499Y-113185344D01*
X132887500Y-113185327D01*
X132887500Y-112000000D01*
X131893394Y-112000000D01*
X131925000Y-111841105D01*
X131925000Y-111658895D01*
X131893394Y-111500000D01*
X132887500Y-111500000D01*
X132887500Y-110314672D01*
X132887499Y-110314655D01*
X132881098Y-110255127D01*
X132881096Y-110255120D01*
X132830854Y-110120413D01*
X132830850Y-110120406D01*
X132744690Y-110005312D01*
X132744687Y-110005309D01*
X132629593Y-109919149D01*
X132629586Y-109919145D01*
X132494879Y-109868903D01*
X132494872Y-109868901D01*
X132435344Y-109862500D01*
X131250000Y-109862500D01*
X131250000Y-110856605D01*
X131091105Y-110825000D01*
X130908895Y-110825000D01*
X130750000Y-110856605D01*
X130750000Y-109862500D01*
X129564655Y-109862500D01*
X129505127Y-109868901D01*
X129505120Y-109868903D01*
X129370413Y-109919145D01*
X129370406Y-109919149D01*
X129255312Y-110005309D01*
X129255309Y-110005312D01*
X129169149Y-110120406D01*
X129169145Y-110120413D01*
X129118903Y-110255120D01*
X129118901Y-110255127D01*
X129112500Y-110314655D01*
X120950500Y-110314655D01*
X120950500Y-105286077D01*
X129262000Y-105286077D01*
X129262000Y-105513922D01*
X129286767Y-105702043D01*
X129291738Y-105739794D01*
X129291739Y-105739796D01*
X129350704Y-105959860D01*
X129437885Y-106170335D01*
X129437892Y-106170350D01*
X129551804Y-106367652D01*
X129690497Y-106548400D01*
X129690503Y-106548407D01*
X129851592Y-106709496D01*
X129851599Y-106709502D01*
X130032347Y-106848195D01*
X130229649Y-106962107D01*
X130229664Y-106962114D01*
X130320368Y-106999684D01*
X130440140Y-107049296D01*
X130660206Y-107108262D01*
X130886085Y-107138000D01*
X130886092Y-107138000D01*
X131113908Y-107138000D01*
X131113915Y-107138000D01*
X131339794Y-107108262D01*
X131559860Y-107049296D01*
X131770347Y-106962109D01*
X131967653Y-106848195D01*
X132148402Y-106709501D01*
X132309501Y-106548402D01*
X132448195Y-106367653D01*
X132562109Y-106170347D01*
X132649296Y-105959860D01*
X132708262Y-105739794D01*
X132738000Y-105513915D01*
X132738000Y-105286085D01*
X132708262Y-105060206D01*
X132649296Y-104840140D01*
X132562109Y-104629653D01*
X132448195Y-104432347D01*
X132309501Y-104251598D01*
X132309496Y-104251592D01*
X132148407Y-104090503D01*
X132148400Y-104090497D01*
X131967652Y-103951804D01*
X131770350Y-103837892D01*
X131770335Y-103837885D01*
X131559860Y-103750704D01*
X131339794Y-103691738D01*
X131302043Y-103686767D01*
X131113922Y-103662000D01*
X131113915Y-103662000D01*
X130886085Y-103662000D01*
X130886077Y-103662000D01*
X130671081Y-103690306D01*
X130660206Y-103691738D01*
X130567190Y-103716661D01*
X130440139Y-103750704D01*
X130229664Y-103837885D01*
X130229649Y-103837892D01*
X130032347Y-103951804D01*
X129851599Y-104090497D01*
X129851592Y-104090503D01*
X129690503Y-104251592D01*
X129690497Y-104251599D01*
X129551804Y-104432347D01*
X129437892Y-104629649D01*
X129437885Y-104629664D01*
X129350704Y-104840139D01*
X129291739Y-105060203D01*
X129291737Y-105060214D01*
X129262000Y-105286077D01*
X120950500Y-105286077D01*
X120950500Y-99624500D01*
X120970185Y-99557461D01*
X121022989Y-99511706D01*
X121074500Y-99500500D01*
X129226253Y-99500500D01*
X129293292Y-99520185D01*
X129339047Y-99572989D01*
X129346028Y-99592409D01*
X129350702Y-99609854D01*
X129350702Y-99609856D01*
X129437888Y-99820340D01*
X129437892Y-99820350D01*
X129551804Y-100017652D01*
X129690497Y-100198400D01*
X129690503Y-100198407D01*
X129851592Y-100359496D01*
X129851599Y-100359502D01*
X130032347Y-100498195D01*
X130229649Y-100612107D01*
X130229664Y-100612114D01*
X130320368Y-100649684D01*
X130440140Y-100699296D01*
X130660206Y-100758262D01*
X130886085Y-100788000D01*
X130886092Y-100788000D01*
X131113908Y-100788000D01*
X131113915Y-100788000D01*
X131339794Y-100758262D01*
X131559860Y-100699296D01*
X131770347Y-100612109D01*
X131967653Y-100498195D01*
X132148402Y-100359501D01*
X132309501Y-100198402D01*
X132448195Y-100017653D01*
X132562109Y-99820347D01*
X132649296Y-99609860D01*
X132708262Y-99389794D01*
X132738000Y-99163915D01*
X132738000Y-98936085D01*
X132708262Y-98710206D01*
X132649296Y-98490140D01*
X132562111Y-98279659D01*
X132562107Y-98279649D01*
X132448195Y-98082347D01*
X132309502Y-97901599D01*
X132309496Y-97901592D01*
X132148407Y-97740503D01*
X132148400Y-97740497D01*
X131967652Y-97601804D01*
X131770350Y-97487892D01*
X131770335Y-97487885D01*
X131559860Y-97400704D01*
X131339794Y-97341738D01*
X131299104Y-97336381D01*
X131113922Y-97312000D01*
X131113915Y-97312000D01*
X130886085Y-97312000D01*
X130886077Y-97312000D01*
X130671081Y-97340306D01*
X130660206Y-97341738D01*
X130567190Y-97366661D01*
X130440139Y-97400704D01*
X130229664Y-97487885D01*
X130229649Y-97487892D01*
X130032347Y-97601804D01*
X129851599Y-97740497D01*
X129851592Y-97740503D01*
X129690503Y-97901592D01*
X129690497Y-97901599D01*
X129551804Y-98082347D01*
X129437892Y-98279649D01*
X129437888Y-98279659D01*
X129350702Y-98490143D01*
X129350702Y-98490145D01*
X129346028Y-98507591D01*
X129309665Y-98567252D01*
X129246818Y-98597783D01*
X129226253Y-98599500D01*
X120887965Y-98599500D01*
X120820926Y-98579815D01*
X120800284Y-98563181D01*
X114336819Y-92099716D01*
X114303334Y-92038393D01*
X114300500Y-92012035D01*
X114300500Y-84376279D01*
X114612500Y-84376279D01*
X114612500Y-84623720D01*
X114644795Y-84869014D01*
X114644797Y-84869025D01*
X114708834Y-85108018D01*
X114708837Y-85108028D01*
X114803518Y-85336607D01*
X114803523Y-85336618D01*
X114927229Y-85550881D01*
X114927235Y-85550889D01*
X115000315Y-85646129D01*
X115691497Y-84954947D01*
X115781505Y-85089653D01*
X115910347Y-85218495D01*
X116045051Y-85308501D01*
X115353869Y-85999683D01*
X115449110Y-86072764D01*
X115449118Y-86072770D01*
X115663381Y-86196476D01*
X115663392Y-86196481D01*
X115891971Y-86291162D01*
X115891981Y-86291165D01*
X116130974Y-86355202D01*
X116130985Y-86355204D01*
X116376279Y-86387499D01*
X116376294Y-86387500D01*
X116623706Y-86387500D01*
X116623720Y-86387499D01*
X116869014Y-86355204D01*
X116869025Y-86355202D01*
X117108018Y-86291165D01*
X117108028Y-86291162D01*
X117336607Y-86196481D01*
X117336618Y-86196476D01*
X117550881Y-86072770D01*
X117550899Y-86072758D01*
X117646129Y-85999684D01*
X117646129Y-85999682D01*
X116954948Y-85308501D01*
X117089653Y-85218495D01*
X117218495Y-85089653D01*
X117308501Y-84954948D01*
X117999682Y-85646129D01*
X117999684Y-85646129D01*
X118072758Y-85550899D01*
X118072770Y-85550881D01*
X118196476Y-85336618D01*
X118196481Y-85336607D01*
X118291162Y-85108028D01*
X118291165Y-85108018D01*
X118355202Y-84869025D01*
X118355204Y-84869014D01*
X118387499Y-84623720D01*
X118387500Y-84623706D01*
X118387500Y-84376293D01*
X118387499Y-84376279D01*
X118355204Y-84130985D01*
X118355202Y-84130974D01*
X118291165Y-83891981D01*
X118291162Y-83891971D01*
X118196481Y-83663392D01*
X118196476Y-83663381D01*
X118072770Y-83449118D01*
X118072764Y-83449110D01*
X117999683Y-83353869D01*
X117308501Y-84045051D01*
X117218495Y-83910347D01*
X117089653Y-83781505D01*
X116954948Y-83691497D01*
X117567205Y-83079239D01*
X121112000Y-83079239D01*
X121112000Y-85920760D01*
X121121926Y-85988891D01*
X121173303Y-86093985D01*
X121256014Y-86176696D01*
X121256015Y-86176696D01*
X121256017Y-86176698D01*
X121361107Y-86228073D01*
X121395173Y-86233036D01*
X121429239Y-86238000D01*
X121429240Y-86238000D01*
X124270761Y-86238000D01*
X124293471Y-86234691D01*
X124338893Y-86228073D01*
X124443983Y-86176698D01*
X124526698Y-86093983D01*
X124578073Y-85988893D01*
X124588000Y-85920760D01*
X124588000Y-83079240D01*
X124578073Y-83011107D01*
X124526698Y-82906017D01*
X124526696Y-82906015D01*
X124526696Y-82906014D01*
X124443985Y-82823303D01*
X124338891Y-82771926D01*
X124270761Y-82762000D01*
X124270760Y-82762000D01*
X121429240Y-82762000D01*
X121429239Y-82762000D01*
X121361108Y-82771926D01*
X121256014Y-82823303D01*
X121173303Y-82906014D01*
X121121926Y-83011108D01*
X121112000Y-83079239D01*
X117567205Y-83079239D01*
X117646129Y-83000315D01*
X117550889Y-82927235D01*
X117550881Y-82927229D01*
X117336618Y-82803523D01*
X117336607Y-82803518D01*
X117108028Y-82708837D01*
X117108018Y-82708834D01*
X116869025Y-82644797D01*
X116869014Y-82644795D01*
X116623720Y-82612500D01*
X116376279Y-82612500D01*
X116130985Y-82644795D01*
X116130974Y-82644797D01*
X115891981Y-82708834D01*
X115891971Y-82708837D01*
X115663392Y-82803518D01*
X115663381Y-82803523D01*
X115449118Y-82927229D01*
X115449101Y-82927240D01*
X115353869Y-83000314D01*
X115353869Y-83000315D01*
X116045051Y-83691497D01*
X115910347Y-83781505D01*
X115781505Y-83910347D01*
X115691498Y-84045051D01*
X115000315Y-83353869D01*
X115000314Y-83353869D01*
X114927240Y-83449101D01*
X114927229Y-83449118D01*
X114803523Y-83663381D01*
X114803518Y-83663392D01*
X114708837Y-83891971D01*
X114708834Y-83891981D01*
X114644797Y-84130974D01*
X114644795Y-84130985D01*
X114612500Y-84376279D01*
X114300500Y-84376279D01*
X114300500Y-82064071D01*
X126849499Y-82064071D01*
X126874497Y-82189738D01*
X126874499Y-82189744D01*
X126923533Y-82308124D01*
X126923538Y-82308133D01*
X126994720Y-82414664D01*
X126996351Y-82416651D01*
X126996879Y-82417895D01*
X126998108Y-82419734D01*
X126997759Y-82419966D01*
X127023666Y-82480960D01*
X127024500Y-82495319D01*
X127024500Y-85437399D01*
X127024500Y-85562601D01*
X127056905Y-85683536D01*
X127119505Y-85791964D01*
X128608037Y-87280496D01*
X128716465Y-87343096D01*
X128837400Y-87375501D01*
X128877089Y-87375501D01*
X128944128Y-87395186D01*
X128964770Y-87411820D01*
X128981900Y-87428950D01*
X129171705Y-87428950D01*
X129238744Y-87448635D01*
X129259386Y-87465269D01*
X129275414Y-87481297D01*
X129275415Y-87481297D01*
X129275417Y-87481299D01*
X129380507Y-87532674D01*
X129414573Y-87537637D01*
X129448639Y-87542601D01*
X129448640Y-87542601D01*
X129929400Y-87542601D01*
X129996439Y-87562286D01*
X130042194Y-87615090D01*
X130053400Y-87666601D01*
X130053400Y-87804950D01*
X130033715Y-87871989D01*
X129980911Y-87917744D01*
X129929400Y-87928950D01*
X128981900Y-87928950D01*
X128981900Y-87997844D01*
X128988301Y-88057372D01*
X128988303Y-88057379D01*
X129038545Y-88192086D01*
X129038547Y-88192088D01*
X129124711Y-88307190D01*
X129129017Y-88311495D01*
X129162505Y-88372816D01*
X129157524Y-88442508D01*
X129155901Y-88446632D01*
X129116830Y-88540958D01*
X129116830Y-88540960D01*
X129108538Y-88582651D01*
X129911412Y-88582651D01*
X129894195Y-88592591D01*
X129838340Y-88648446D01*
X129798844Y-88716855D01*
X129778400Y-88793155D01*
X129778400Y-88872147D01*
X129798844Y-88948447D01*
X129838340Y-89016856D01*
X129894195Y-89072711D01*
X129911412Y-89082651D01*
X129108538Y-89082651D01*
X129116830Y-89124341D01*
X129116830Y-89124343D01*
X129192207Y-89306322D01*
X129192214Y-89306335D01*
X129301648Y-89470113D01*
X129301651Y-89470117D01*
X129440933Y-89609399D01*
X129440937Y-89609402D01*
X129604715Y-89718836D01*
X129604728Y-89718843D01*
X129786706Y-89794220D01*
X129786718Y-89794223D01*
X129979904Y-89832650D01*
X129979908Y-89832651D01*
X130378400Y-89832651D01*
X130378400Y-89132651D01*
X130878400Y-89132651D01*
X130878400Y-89832651D01*
X131276892Y-89832651D01*
X131276895Y-89832650D01*
X131470081Y-89794223D01*
X131470093Y-89794220D01*
X131652071Y-89718843D01*
X131652084Y-89718836D01*
X131815862Y-89609402D01*
X131815866Y-89609399D01*
X131955148Y-89470117D01*
X131955151Y-89470113D01*
X132064585Y-89306335D01*
X132064592Y-89306322D01*
X132139969Y-89124343D01*
X132139969Y-89124341D01*
X132148262Y-89082651D01*
X131345388Y-89082651D01*
X131362605Y-89072711D01*
X131418460Y-89016856D01*
X131457956Y-88948447D01*
X131478400Y-88872147D01*
X131478400Y-88793155D01*
X131457956Y-88716855D01*
X131418460Y-88648446D01*
X131362605Y-88592591D01*
X131345388Y-88582651D01*
X132148263Y-88582651D01*
X132139970Y-88540962D01*
X132139969Y-88540958D01*
X132064592Y-88358979D01*
X132064585Y-88358966D01*
X131955151Y-88195188D01*
X131955148Y-88195184D01*
X131815866Y-88055902D01*
X131815862Y-88055899D01*
X131691938Y-87973095D01*
X131647133Y-87919483D01*
X131638426Y-87850158D01*
X131657727Y-87801102D01*
X131718620Y-87709969D01*
X131769540Y-87587036D01*
X131795500Y-87456531D01*
X131795500Y-87323469D01*
X131795500Y-87323466D01*
X131769541Y-87192969D01*
X131769540Y-87192968D01*
X131769540Y-87192964D01*
X131718620Y-87070031D01*
X131644695Y-86959394D01*
X131644692Y-86959390D01*
X131550609Y-86865307D01*
X131550601Y-86865301D01*
X131439979Y-86791386D01*
X131439972Y-86791382D01*
X131439969Y-86791380D01*
X131439965Y-86791378D01*
X131439961Y-86791376D01*
X131317040Y-86740461D01*
X131317030Y-86740458D01*
X131186533Y-86714500D01*
X131186531Y-86714500D01*
X131099400Y-86714500D01*
X131032361Y-86694815D01*
X130986606Y-86642011D01*
X130975400Y-86590500D01*
X130975400Y-86574640D01*
X130964085Y-86496979D01*
X130968060Y-86496399D01*
X130967429Y-86461411D01*
X130964084Y-86460924D01*
X130969391Y-86424501D01*
X130975400Y-86383260D01*
X130975400Y-86064338D01*
X130965473Y-85996205D01*
X130965472Y-85996203D01*
X130964813Y-85991678D01*
X130964813Y-85955920D01*
X130975400Y-85883259D01*
X130975400Y-85564339D01*
X130964813Y-85491678D01*
X130964813Y-85455922D01*
X130975400Y-85383260D01*
X130975400Y-85243819D01*
X130995085Y-85176780D01*
X131037400Y-85136432D01*
X131043225Y-85133069D01*
X131127714Y-85084289D01*
X131301384Y-84910619D01*
X131362707Y-84877134D01*
X131389065Y-84874300D01*
X131415171Y-84874300D01*
X131519463Y-84853554D01*
X131540844Y-84849301D01*
X131659227Y-84800265D01*
X131765769Y-84729076D01*
X131856376Y-84638469D01*
X131927565Y-84531927D01*
X131976601Y-84413544D01*
X132001600Y-84287869D01*
X132001600Y-84159731D01*
X132001600Y-84159728D01*
X131976602Y-84034061D01*
X131976601Y-84034060D01*
X131976601Y-84034056D01*
X131927565Y-83915673D01*
X131927564Y-83915672D01*
X131927561Y-83915666D01*
X131856376Y-83809131D01*
X131856373Y-83809127D01*
X131765772Y-83718526D01*
X131765768Y-83718523D01*
X131659233Y-83647338D01*
X131659224Y-83647333D01*
X131540844Y-83598299D01*
X131540838Y-83598297D01*
X131415171Y-83573300D01*
X131415169Y-83573300D01*
X131389065Y-83573300D01*
X131322026Y-83553615D01*
X131301384Y-83536981D01*
X131127716Y-83363313D01*
X131127714Y-83363311D01*
X131037399Y-83311167D01*
X130989184Y-83260599D01*
X130975400Y-83203780D01*
X130975400Y-83064339D01*
X130967644Y-83011107D01*
X130965473Y-82996207D01*
X130965472Y-82996206D01*
X130964813Y-82991678D01*
X130964813Y-82955922D01*
X130975400Y-82883260D01*
X130975400Y-82564341D01*
X130964813Y-82491679D01*
X130964813Y-82455922D01*
X130974182Y-82391621D01*
X131003326Y-82328121D01*
X131062176Y-82290457D01*
X131096886Y-82285500D01*
X131186533Y-82285500D01*
X131274325Y-82268035D01*
X131317036Y-82259540D01*
X131439969Y-82208620D01*
X131550606Y-82134695D01*
X131644695Y-82040606D01*
X131718620Y-81929969D01*
X131769540Y-81807036D01*
X131792448Y-81691875D01*
X131795500Y-81676533D01*
X131795500Y-81543466D01*
X131769541Y-81412969D01*
X131769540Y-81412968D01*
X131769540Y-81412964D01*
X131764352Y-81400439D01*
X131718623Y-81290038D01*
X131718622Y-81290037D01*
X131718620Y-81290031D01*
X131647211Y-81183160D01*
X131626334Y-81116483D01*
X131644819Y-81049103D01*
X131681424Y-81011168D01*
X131819208Y-80919103D01*
X131819216Y-80919097D01*
X131958498Y-80779815D01*
X131958501Y-80779811D01*
X132067935Y-80616033D01*
X132067942Y-80616020D01*
X132143319Y-80434041D01*
X132143320Y-80434038D01*
X132151612Y-80392349D01*
X131348738Y-80392349D01*
X131365955Y-80382409D01*
X131421810Y-80326554D01*
X131461306Y-80258145D01*
X131481750Y-80181845D01*
X131481750Y-80102853D01*
X131461306Y-80026553D01*
X131421810Y-79958144D01*
X131365955Y-79902289D01*
X131348738Y-79892349D01*
X132151612Y-79892349D01*
X132143319Y-79850658D01*
X132143319Y-79850656D01*
X132067942Y-79668677D01*
X132067935Y-79668664D01*
X131958501Y-79504886D01*
X131958498Y-79504882D01*
X131819216Y-79365600D01*
X131819212Y-79365597D01*
X131655434Y-79256163D01*
X131655421Y-79256156D01*
X131473443Y-79180779D01*
X131473431Y-79180776D01*
X131280245Y-79142349D01*
X130881750Y-79142349D01*
X130881750Y-79842349D01*
X130381750Y-79842349D01*
X130381750Y-79142349D01*
X129983254Y-79142349D01*
X129790068Y-79180776D01*
X129790056Y-79180779D01*
X129608078Y-79256156D01*
X129608065Y-79256163D01*
X129444287Y-79365597D01*
X129444283Y-79365600D01*
X129305001Y-79504882D01*
X129304998Y-79504886D01*
X129195564Y-79668664D01*
X129195557Y-79668677D01*
X129120180Y-79850656D01*
X129120180Y-79850658D01*
X129111888Y-79892349D01*
X129914762Y-79892349D01*
X129897545Y-79902289D01*
X129841690Y-79958144D01*
X129802194Y-80026553D01*
X129781750Y-80102853D01*
X129781750Y-80181845D01*
X129802194Y-80258145D01*
X129841690Y-80326554D01*
X129897545Y-80382409D01*
X129914762Y-80392349D01*
X129111888Y-80392349D01*
X129120180Y-80434041D01*
X129120181Y-80434044D01*
X129153261Y-80513906D01*
X129160730Y-80583376D01*
X129129455Y-80645855D01*
X129126387Y-80649035D01*
X129124708Y-80650713D01*
X129038549Y-80765806D01*
X129038545Y-80765813D01*
X128988303Y-80900520D01*
X128988301Y-80900527D01*
X128981900Y-80960055D01*
X128981900Y-81028950D01*
X129929400Y-81028950D01*
X129996439Y-81048635D01*
X130042194Y-81101439D01*
X130053400Y-81152950D01*
X130053400Y-81333400D01*
X130033715Y-81400439D01*
X129980911Y-81446194D01*
X129929400Y-81457400D01*
X129448639Y-81457400D01*
X129380508Y-81467326D01*
X129327109Y-81493431D01*
X129280225Y-81516351D01*
X129225767Y-81528950D01*
X128981900Y-81528950D01*
X128945581Y-81565269D01*
X128943241Y-81562929D01*
X128909411Y-81592244D01*
X128857900Y-81603450D01*
X128074758Y-81603450D01*
X128007719Y-81583765D01*
X127987077Y-81567131D01*
X127914672Y-81494726D01*
X127914668Y-81494723D01*
X127808133Y-81423538D01*
X127808124Y-81423533D01*
X127689744Y-81374499D01*
X127689738Y-81374497D01*
X127564071Y-81349500D01*
X127564069Y-81349500D01*
X127435931Y-81349500D01*
X127435929Y-81349500D01*
X127310261Y-81374497D01*
X127310255Y-81374499D01*
X127191875Y-81423533D01*
X127191866Y-81423538D01*
X127085331Y-81494723D01*
X127085327Y-81494726D01*
X126994726Y-81585327D01*
X126994723Y-81585331D01*
X126923538Y-81691866D01*
X126923533Y-81691875D01*
X126874499Y-81810255D01*
X126874497Y-81810261D01*
X126849500Y-81935928D01*
X126849500Y-81935931D01*
X126849500Y-82064069D01*
X126849500Y-82064071D01*
X126849499Y-82064071D01*
X114300500Y-82064071D01*
X114300500Y-78798344D01*
X115549600Y-78798344D01*
X115556001Y-78857872D01*
X115556003Y-78857879D01*
X115606245Y-78992586D01*
X115606249Y-78992593D01*
X115692409Y-79107687D01*
X115692412Y-79107690D01*
X115807506Y-79193850D01*
X115807513Y-79193854D01*
X115942220Y-79244096D01*
X115942227Y-79244098D01*
X116001755Y-79250499D01*
X116001772Y-79250500D01*
X116250000Y-79250500D01*
X116750000Y-79250500D01*
X116998228Y-79250500D01*
X116998244Y-79250499D01*
X117057772Y-79244098D01*
X117057779Y-79244096D01*
X117192486Y-79193854D01*
X117192493Y-79193850D01*
X117307587Y-79107690D01*
X117307590Y-79107687D01*
X117393750Y-78992593D01*
X117393754Y-78992586D01*
X117443996Y-78857879D01*
X117443998Y-78857872D01*
X117450399Y-78798344D01*
X117450400Y-78798327D01*
X117450400Y-78225800D01*
X116750000Y-78225800D01*
X116750000Y-79250500D01*
X116250000Y-79250500D01*
X116250000Y-78225800D01*
X115549600Y-78225800D01*
X115549600Y-78798344D01*
X114300500Y-78798344D01*
X114300500Y-78354690D01*
X114320185Y-78287651D01*
X114336814Y-78267014D01*
X115337921Y-77265907D01*
X115399242Y-77232424D01*
X115468934Y-77237408D01*
X115524867Y-77279280D01*
X115549284Y-77344744D01*
X115549600Y-77353590D01*
X115549600Y-77725800D01*
X116250000Y-77725800D01*
X116750000Y-77725800D01*
X117450400Y-77725800D01*
X117450400Y-77153272D01*
X117450399Y-77153255D01*
X117443998Y-77093727D01*
X117443996Y-77093720D01*
X117393754Y-76959013D01*
X117393750Y-76959006D01*
X117307590Y-76843912D01*
X117307587Y-76843909D01*
X117192493Y-76757749D01*
X117192486Y-76757745D01*
X117057779Y-76707503D01*
X117057772Y-76707501D01*
X116998244Y-76701100D01*
X116750000Y-76701100D01*
X116750000Y-77725800D01*
X116250000Y-77725800D01*
X116250000Y-76731958D01*
X116153829Y-76691322D01*
X116145443Y-76684466D01*
X116135053Y-76681415D01*
X116118871Y-76662740D01*
X116099737Y-76647096D01*
X116096389Y-76636794D01*
X116089298Y-76628611D01*
X116085781Y-76604151D01*
X116078143Y-76580648D01*
X116080895Y-76570173D01*
X116079354Y-76559453D01*
X116089620Y-76536973D01*
X116095901Y-76513072D01*
X116103880Y-76505748D01*
X116108379Y-76495897D01*
X116114411Y-76489419D01*
X116135486Y-76468343D01*
X116135489Y-76468340D01*
X116194799Y-76365613D01*
X116203414Y-76333460D01*
X116225500Y-76251035D01*
X116225500Y-68112965D01*
X116245185Y-68045926D01*
X116261819Y-68025284D01*
X116279566Y-68007537D01*
X116310489Y-67976614D01*
X116363071Y-67885539D01*
X116366496Y-67879607D01*
X116366499Y-67879601D01*
X116369799Y-67873886D01*
X116400500Y-67759309D01*
X116400500Y-67670807D01*
X116420185Y-67603768D01*
X116436821Y-67583124D01*
X116455274Y-67564671D01*
X116455276Y-67564669D01*
X116526465Y-67458127D01*
X116526466Y-67458124D01*
X116526468Y-67458121D01*
X116549659Y-67402131D01*
X116560238Y-67376589D01*
X116604078Y-67322187D01*
X116658210Y-67302272D01*
X116658094Y-67301689D01*
X116661801Y-67300951D01*
X116662651Y-67300639D01*
X116664059Y-67300500D01*
X116664069Y-67300500D01*
X116789744Y-67275501D01*
X116908127Y-67226465D01*
X117014669Y-67155276D01*
X117105276Y-67064669D01*
X117158001Y-66985760D01*
X117211611Y-66940957D01*
X117280936Y-66932249D01*
X117335207Y-66955232D01*
X117336503Y-66956198D01*
X117361805Y-66981495D01*
X117405215Y-67039713D01*
X117405217Y-67039715D01*
X117631859Y-67266357D01*
X117687056Y-67307514D01*
X117687057Y-67307514D01*
X117690076Y-67309765D01*
X117715362Y-67335051D01*
X117717612Y-67338069D01*
X117717613Y-67338071D01*
X117758770Y-67393268D01*
X117985412Y-67619910D01*
X118012780Y-67640317D01*
X118043627Y-67663317D01*
X118068912Y-67688602D01*
X118112322Y-67746820D01*
X118112324Y-67746822D01*
X118338966Y-67973464D01*
X118394163Y-68014621D01*
X118394164Y-68014621D01*
X118397183Y-68016872D01*
X118422469Y-68042158D01*
X118424719Y-68045176D01*
X118424720Y-68045178D01*
X118465877Y-68100375D01*
X118692519Y-68327017D01*
X118747716Y-68368174D01*
X118747717Y-68368174D01*
X118750736Y-68370425D01*
X118776022Y-68395711D01*
X118778272Y-68398729D01*
X118778273Y-68398731D01*
X118819430Y-68453928D01*
X119046073Y-68680571D01*
X119083794Y-68708697D01*
X119101269Y-68721727D01*
X119117707Y-68727370D01*
X119174720Y-68767753D01*
X119200850Y-68832553D01*
X119187800Y-68901193D01*
X119139712Y-68951881D01*
X119101636Y-68966267D01*
X119060258Y-68974498D01*
X119060255Y-68974499D01*
X118941875Y-69023533D01*
X118941866Y-69023538D01*
X118835331Y-69094723D01*
X118835327Y-69094726D01*
X118744726Y-69185327D01*
X118744723Y-69185331D01*
X118673538Y-69291866D01*
X118673533Y-69291875D01*
X118624499Y-69410255D01*
X118624497Y-69410261D01*
X118599500Y-69535928D01*
X118599500Y-69535931D01*
X118599500Y-69664069D01*
X118599500Y-69664071D01*
X118599499Y-69664071D01*
X118624497Y-69789738D01*
X118624499Y-69789744D01*
X118673533Y-69908124D01*
X118673538Y-69908133D01*
X118744723Y-70014668D01*
X118744726Y-70014672D01*
X118835327Y-70105273D01*
X118835331Y-70105276D01*
X118935037Y-70171898D01*
X118979842Y-70225510D01*
X118988549Y-70294835D01*
X118958394Y-70357863D01*
X118898951Y-70394582D01*
X118866146Y-70399000D01*
X117166539Y-70399000D01*
X117098408Y-70408926D01*
X116993314Y-70460303D01*
X116910603Y-70543014D01*
X116859226Y-70648108D01*
X116849300Y-70716239D01*
X116849300Y-72332160D01*
X116859226Y-72400291D01*
X116910603Y-72505385D01*
X116993314Y-72588096D01*
X116993315Y-72588096D01*
X116993317Y-72588098D01*
X117098407Y-72639473D01*
X117114893Y-72641875D01*
X117166539Y-72649400D01*
X117166540Y-72649400D01*
X118200500Y-72649400D01*
X118267539Y-72669085D01*
X118313294Y-72721889D01*
X118324500Y-72773400D01*
X118324500Y-74837399D01*
X118324500Y-74962601D01*
X118345021Y-75039184D01*
X118356905Y-75083537D01*
X118356907Y-75083540D01*
X118359483Y-75088002D01*
X118375954Y-75155902D01*
X118359483Y-75211998D01*
X118356907Y-75216459D01*
X118356905Y-75216462D01*
X118341354Y-75274499D01*
X118328216Y-75323533D01*
X118324500Y-75337400D01*
X118324500Y-76745824D01*
X118304815Y-76812863D01*
X118254961Y-76857224D01*
X118143115Y-76911902D01*
X118060403Y-76994614D01*
X118009026Y-77099708D01*
X117999100Y-77167839D01*
X117999100Y-78783760D01*
X118009026Y-78851891D01*
X118060403Y-78956985D01*
X118143114Y-79039696D01*
X118143115Y-79039696D01*
X118143117Y-79039698D01*
X118248207Y-79091073D01*
X118282273Y-79096036D01*
X118316339Y-79101000D01*
X118316340Y-79101000D01*
X119283661Y-79101000D01*
X119306371Y-79097691D01*
X119351793Y-79091073D01*
X119456883Y-79039698D01*
X119539598Y-78956983D01*
X119590973Y-78851893D01*
X119600900Y-78783760D01*
X119600900Y-77167840D01*
X119600900Y-77167839D01*
X120299100Y-77167839D01*
X120299100Y-78783760D01*
X120309026Y-78851891D01*
X120360403Y-78956985D01*
X120443114Y-79039696D01*
X120443115Y-79039696D01*
X120443117Y-79039698D01*
X120548207Y-79091073D01*
X120582273Y-79096036D01*
X120616339Y-79101000D01*
X120616340Y-79101000D01*
X121583661Y-79101000D01*
X121606371Y-79097691D01*
X121651793Y-79091073D01*
X121756883Y-79039698D01*
X121839598Y-78956983D01*
X121890973Y-78851893D01*
X121900900Y-78783760D01*
X121900900Y-77167840D01*
X121898777Y-77153272D01*
X121890973Y-77099708D01*
X121890973Y-77099707D01*
X121839598Y-76994617D01*
X121839596Y-76994615D01*
X121839596Y-76994614D01*
X121808959Y-76963977D01*
X121775474Y-76902654D01*
X121780458Y-76832962D01*
X121793539Y-76807404D01*
X121826460Y-76758134D01*
X121826465Y-76758127D01*
X121875501Y-76639744D01*
X121898226Y-76525501D01*
X121900500Y-76514071D01*
X121900500Y-76385928D01*
X121875502Y-76260261D01*
X121875501Y-76260260D01*
X121875501Y-76260256D01*
X121826465Y-76141873D01*
X121826464Y-76141872D01*
X121826461Y-76141866D01*
X121755276Y-76035331D01*
X121755273Y-76035327D01*
X121664672Y-75944726D01*
X121664668Y-75944723D01*
X121558133Y-75873538D01*
X121558124Y-75873533D01*
X121439744Y-75824499D01*
X121439738Y-75824497D01*
X121314071Y-75799500D01*
X121314069Y-75799500D01*
X121185931Y-75799500D01*
X121185929Y-75799500D01*
X121060261Y-75824497D01*
X121060255Y-75824499D01*
X120941875Y-75873533D01*
X120941866Y-75873538D01*
X120835331Y-75944723D01*
X120835327Y-75944726D01*
X120744726Y-76035327D01*
X120744723Y-76035331D01*
X120673538Y-76141866D01*
X120673533Y-76141875D01*
X120624499Y-76260255D01*
X120624497Y-76260261D01*
X120599500Y-76385928D01*
X120599500Y-76514071D01*
X120622117Y-76627769D01*
X120624500Y-76651961D01*
X120624500Y-76745824D01*
X120604815Y-76812863D01*
X120554961Y-76857224D01*
X120443115Y-76911902D01*
X120360403Y-76994614D01*
X120309026Y-77099708D01*
X120299100Y-77167839D01*
X119600900Y-77167839D01*
X119598777Y-77153272D01*
X119590973Y-77099708D01*
X119590973Y-77099707D01*
X119539598Y-76994617D01*
X119539596Y-76994615D01*
X119539596Y-76994614D01*
X119456884Y-76911902D01*
X119345039Y-76857224D01*
X119293457Y-76810096D01*
X119275500Y-76745824D01*
X119275500Y-75843544D01*
X119295185Y-75776505D01*
X119347989Y-75730750D01*
X119352036Y-75728987D01*
X119358127Y-75726465D01*
X119464669Y-75655276D01*
X119555276Y-75564669D01*
X119626465Y-75458127D01*
X119675501Y-75339744D01*
X119688350Y-75275148D01*
X119700500Y-75214071D01*
X119700500Y-75085928D01*
X119675502Y-74960261D01*
X119675501Y-74960260D01*
X119675501Y-74960256D01*
X119631789Y-74854726D01*
X119626466Y-74841875D01*
X119626461Y-74841866D01*
X119555276Y-74735331D01*
X119555273Y-74735327D01*
X119464672Y-74644726D01*
X119464668Y-74644723D01*
X119358133Y-74573538D01*
X119358124Y-74573533D01*
X119352044Y-74571015D01*
X119297642Y-74527172D01*
X119275579Y-74460877D01*
X119275500Y-74456455D01*
X119275500Y-72773400D01*
X119295185Y-72706361D01*
X119347989Y-72660606D01*
X119399500Y-72649400D01*
X120433461Y-72649400D01*
X120456171Y-72646091D01*
X120501593Y-72639473D01*
X120606683Y-72588098D01*
X120689398Y-72505383D01*
X120740773Y-72400293D01*
X120750700Y-72332160D01*
X120750700Y-70716240D01*
X120740773Y-70648107D01*
X120689398Y-70543017D01*
X120689396Y-70543015D01*
X120689396Y-70543014D01*
X120606685Y-70460303D01*
X120494178Y-70405302D01*
X120442595Y-70358174D01*
X120424681Y-70290640D01*
X120446122Y-70224141D01*
X120500111Y-70179791D01*
X120501117Y-70179368D01*
X120508127Y-70176465D01*
X120614669Y-70105276D01*
X120705276Y-70014669D01*
X120776465Y-69908127D01*
X120825501Y-69789744D01*
X120844969Y-69691875D01*
X120850500Y-69664071D01*
X120850500Y-69637965D01*
X120870185Y-69570926D01*
X120886819Y-69550284D01*
X121145237Y-69291866D01*
X121310448Y-69126655D01*
X121371770Y-69093171D01*
X121441462Y-69098155D01*
X121497395Y-69140027D01*
X121521812Y-69205491D01*
X121522128Y-69214337D01*
X121522128Y-69792853D01*
X121502443Y-69859892D01*
X121485809Y-69880534D01*
X121120331Y-70246011D01*
X121120327Y-70246017D01*
X121061019Y-70348740D01*
X121061018Y-70348745D01*
X121030318Y-70463319D01*
X121030318Y-71492526D01*
X121054530Y-71582890D01*
X121061018Y-71607103D01*
X121061018Y-71607104D01*
X121061019Y-71607105D01*
X121120329Y-71709832D01*
X121120331Y-71709834D01*
X124238316Y-74827819D01*
X124271801Y-74889142D01*
X124266817Y-74958834D01*
X124224945Y-75014767D01*
X124159481Y-75039184D01*
X124150635Y-75039500D01*
X124115929Y-75039500D01*
X123990261Y-75064497D01*
X123990255Y-75064499D01*
X123871875Y-75113533D01*
X123871866Y-75113538D01*
X123765331Y-75184723D01*
X123765327Y-75184726D01*
X123674726Y-75275327D01*
X123674723Y-75275331D01*
X123603538Y-75381866D01*
X123603533Y-75381875D01*
X123554499Y-75500255D01*
X123554497Y-75500261D01*
X123529500Y-75625928D01*
X123529500Y-75625931D01*
X123529500Y-75754069D01*
X123529500Y-75754071D01*
X123529499Y-75754071D01*
X123554497Y-75879738D01*
X123554499Y-75879744D01*
X123603533Y-75998124D01*
X123603538Y-75998133D01*
X123674723Y-76104668D01*
X123674726Y-76104672D01*
X123765327Y-76195273D01*
X123765331Y-76195276D01*
X123871866Y-76266461D01*
X123871872Y-76266464D01*
X123871873Y-76266465D01*
X123990256Y-76315501D01*
X123990260Y-76315501D01*
X123990261Y-76315502D01*
X124115928Y-76340500D01*
X124115931Y-76340500D01*
X124244070Y-76340500D01*
X124279460Y-76333460D01*
X124368787Y-76315691D01*
X124438377Y-76321918D01*
X124493555Y-76364780D01*
X124511451Y-76400700D01*
X124511726Y-76401591D01*
X124563103Y-76506685D01*
X124645814Y-76589396D01*
X124645815Y-76589396D01*
X124645817Y-76589398D01*
X124750907Y-76640773D01*
X124784973Y-76645736D01*
X124819039Y-76650700D01*
X124819040Y-76650700D01*
X126180961Y-76650700D01*
X126205696Y-76647096D01*
X126249093Y-76640773D01*
X126354183Y-76589398D01*
X126436898Y-76506683D01*
X126488273Y-76401593D01*
X126498200Y-76333460D01*
X126498200Y-75174500D01*
X126517885Y-75107461D01*
X126570689Y-75061706D01*
X126622200Y-75050500D01*
X128277800Y-75050500D01*
X128344839Y-75070185D01*
X128390594Y-75122989D01*
X128401800Y-75174500D01*
X128401800Y-76333460D01*
X128411726Y-76401591D01*
X128463103Y-76506685D01*
X128545814Y-76589396D01*
X128545815Y-76589396D01*
X128545817Y-76589398D01*
X128650907Y-76640773D01*
X128684973Y-76645736D01*
X128719039Y-76650700D01*
X128719040Y-76650700D01*
X130080961Y-76650700D01*
X130105696Y-76647096D01*
X130149093Y-76640773D01*
X130254183Y-76589398D01*
X130330426Y-76513154D01*
X130391747Y-76479671D01*
X130461439Y-76484655D01*
X130465554Y-76486274D01*
X130560256Y-76525501D01*
X130560260Y-76525501D01*
X130560261Y-76525502D01*
X130685928Y-76550500D01*
X130685931Y-76550500D01*
X130814071Y-76550500D01*
X130898615Y-76533682D01*
X130939744Y-76525501D01*
X131058127Y-76476465D01*
X131164669Y-76405276D01*
X131255276Y-76314669D01*
X131326465Y-76208127D01*
X131375501Y-76089744D01*
X131400500Y-75964069D01*
X131400500Y-75835931D01*
X131400500Y-75835928D01*
X131375502Y-75710261D01*
X131375501Y-75710260D01*
X131375501Y-75710256D01*
X131326465Y-75591873D01*
X131326464Y-75591872D01*
X131326461Y-75591866D01*
X131255276Y-75485331D01*
X131255273Y-75485327D01*
X131164672Y-75394726D01*
X131164668Y-75394723D01*
X131058133Y-75323538D01*
X131058124Y-75323533D01*
X130939744Y-75274499D01*
X130939738Y-75274497D01*
X130814071Y-75249500D01*
X130814069Y-75249500D01*
X130685931Y-75249500D01*
X130685929Y-75249500D01*
X130560257Y-75274498D01*
X130558116Y-75275148D01*
X130556938Y-75275158D01*
X130554282Y-75275687D01*
X130554181Y-75275183D01*
X130488249Y-75275771D01*
X130429137Y-75238522D01*
X130399546Y-75175228D01*
X130398446Y-75165443D01*
X130398199Y-75162032D01*
X130391133Y-75113535D01*
X130388273Y-75093907D01*
X130336898Y-74988817D01*
X130336896Y-74988815D01*
X130336896Y-74988814D01*
X130254185Y-74906103D01*
X130219490Y-74889142D01*
X130149093Y-74854727D01*
X130149091Y-74854726D01*
X130080961Y-74844800D01*
X130080960Y-74844800D01*
X129143915Y-74844800D01*
X129076876Y-74825115D01*
X129031121Y-74772311D01*
X129021177Y-74703153D01*
X129050202Y-74639597D01*
X129056234Y-74633119D01*
X129097834Y-74591519D01*
X129159157Y-74558034D01*
X129185515Y-74555200D01*
X130080961Y-74555200D01*
X130103671Y-74551891D01*
X130149093Y-74545273D01*
X130254183Y-74493898D01*
X130336898Y-74411183D01*
X130388273Y-74306093D01*
X130398200Y-74237960D01*
X130398200Y-73066540D01*
X130388273Y-72998407D01*
X130336898Y-72893317D01*
X130336896Y-72893315D01*
X130336896Y-72893314D01*
X130254185Y-72810603D01*
X130149091Y-72759226D01*
X130080961Y-72749300D01*
X130080960Y-72749300D01*
X128719040Y-72749300D01*
X128719039Y-72749300D01*
X128650908Y-72759226D01*
X128545814Y-72810603D01*
X128463103Y-72893314D01*
X128411726Y-72998408D01*
X128401800Y-73066539D01*
X128401800Y-73961985D01*
X128382115Y-74029024D01*
X128365481Y-74049666D01*
X128301966Y-74113181D01*
X128240643Y-74146666D01*
X128214285Y-74149500D01*
X126622200Y-74149500D01*
X126555161Y-74129815D01*
X126509406Y-74077011D01*
X126498200Y-74025500D01*
X126498200Y-73066539D01*
X126488273Y-72998408D01*
X126488273Y-72998407D01*
X126436898Y-72893317D01*
X126436896Y-72893315D01*
X126436896Y-72893314D01*
X126354185Y-72810603D01*
X126249091Y-72759226D01*
X126180961Y-72749300D01*
X126180960Y-72749300D01*
X124924053Y-72749300D01*
X124857014Y-72729615D01*
X124811259Y-72676811D01*
X124801842Y-72641875D01*
X124801689Y-72641906D01*
X124801233Y-72639618D01*
X124800650Y-72637452D01*
X124800500Y-72635938D01*
X124800500Y-72635931D01*
X124775501Y-72510256D01*
X124726465Y-72391873D01*
X124726464Y-72391872D01*
X124726461Y-72391866D01*
X124655276Y-72285331D01*
X124655273Y-72285327D01*
X124564672Y-72194726D01*
X124564668Y-72194723D01*
X124458133Y-72123538D01*
X124458124Y-72123533D01*
X124339744Y-72074499D01*
X124339738Y-72074497D01*
X124214071Y-72049500D01*
X124214069Y-72049500D01*
X124085931Y-72049500D01*
X124085929Y-72049500D01*
X123977783Y-72071012D01*
X123908191Y-72064785D01*
X123853014Y-72021922D01*
X123829769Y-71956033D01*
X123844929Y-71889658D01*
X123878747Y-71828143D01*
X123880948Y-71829353D01*
X123916338Y-71783981D01*
X123982273Y-71760866D01*
X124006314Y-71761963D01*
X124047487Y-71767882D01*
X124189800Y-71747422D01*
X124189805Y-71747421D01*
X124320584Y-71687695D01*
X124320586Y-71687694D01*
X124367221Y-71650113D01*
X124489428Y-71527905D01*
X124012131Y-71050609D01*
X124012130Y-71050609D01*
X123565946Y-71496793D01*
X123504623Y-71530278D01*
X123434931Y-71525294D01*
X123405165Y-71506164D01*
X123399954Y-71506164D01*
X123265740Y-71640378D01*
X123204417Y-71673863D01*
X123134725Y-71668879D01*
X123090378Y-71640378D01*
X122912187Y-71462187D01*
X122878702Y-71400864D01*
X122883686Y-71331172D01*
X122912187Y-71286825D01*
X123401505Y-70797507D01*
X123462828Y-70764022D01*
X123532520Y-70769006D01*
X123562286Y-70788136D01*
X123567497Y-70788136D01*
X123747673Y-70607959D01*
X123808996Y-70574474D01*
X123878687Y-70579458D01*
X123923035Y-70607959D01*
X124012131Y-70697055D01*
X124101226Y-70607960D01*
X124162549Y-70574475D01*
X124232241Y-70579459D01*
X124276589Y-70607960D01*
X124842981Y-71174352D01*
X124965189Y-71052145D01*
X125002770Y-71005510D01*
X125002771Y-71005508D01*
X125062497Y-70874729D01*
X125062498Y-70874724D01*
X125078674Y-70762213D01*
X125107698Y-70698657D01*
X125113703Y-70692207D01*
X125591639Y-70214272D01*
X125632797Y-70159075D01*
X125670779Y-70048438D01*
X125670779Y-69931461D01*
X125662770Y-69908133D01*
X125659343Y-69898151D01*
X125649484Y-69869434D01*
X125646335Y-69799636D01*
X125681420Y-69739215D01*
X125743603Y-69707354D01*
X125749112Y-69706434D01*
X125785822Y-69701156D01*
X125918046Y-69640772D01*
X125965196Y-69602775D01*
X126252774Y-69315196D01*
X126290772Y-69268046D01*
X126334004Y-69173379D01*
X126379758Y-69120577D01*
X126446797Y-69100892D01*
X126513837Y-69120576D01*
X126522284Y-69126516D01*
X126557537Y-69153566D01*
X126700575Y-69212815D01*
X126836215Y-69230672D01*
X126854073Y-69233024D01*
X126854074Y-69233024D01*
X126854075Y-69233024D01*
X126871932Y-69230672D01*
X127007573Y-69212815D01*
X127150610Y-69153566D01*
X127242601Y-69082980D01*
X127632980Y-68692601D01*
X127703566Y-68600610D01*
X127762815Y-68457573D01*
X127783024Y-68304074D01*
X127762815Y-68150575D01*
X127703566Y-68007537D01*
X127632980Y-67915547D01*
X127632975Y-67915541D01*
X127224928Y-67507494D01*
X127224921Y-67507488D01*
X127132932Y-67436903D01*
X127048985Y-67402131D01*
X126989895Y-67377655D01*
X126913145Y-67367550D01*
X126836397Y-67357446D01*
X126836395Y-67357446D01*
X126682896Y-67377655D01*
X126682895Y-67377655D01*
X126600036Y-67411977D01*
X126530566Y-67419446D01*
X126468087Y-67388171D01*
X126432435Y-67328082D01*
X126434929Y-67258257D01*
X126438023Y-67249962D01*
X126472345Y-67167103D01*
X126492554Y-67013604D01*
X126472345Y-66860105D01*
X126413096Y-66717067D01*
X126342510Y-66625077D01*
X126342505Y-66625071D01*
X125934458Y-66217024D01*
X125934451Y-66217018D01*
X125842462Y-66146433D01*
X125743093Y-66105273D01*
X125699425Y-66087185D01*
X125601131Y-66074244D01*
X125545927Y-66066976D01*
X125545925Y-66066976D01*
X125392426Y-66087185D01*
X125249390Y-66146433D01*
X125157396Y-66217022D01*
X125157391Y-66217026D01*
X124767026Y-66607391D01*
X124767022Y-66607396D01*
X124696434Y-66699389D01*
X124679119Y-66741191D01*
X124635277Y-66795594D01*
X124568983Y-66817658D01*
X124501284Y-66800378D01*
X124453674Y-66749240D01*
X124442941Y-66717929D01*
X124425502Y-66630261D01*
X124425501Y-66630260D01*
X124425501Y-66630256D01*
X124376465Y-66511873D01*
X124376464Y-66511872D01*
X124376461Y-66511866D01*
X124305276Y-66405331D01*
X124305273Y-66405327D01*
X124214672Y-66314726D01*
X124214668Y-66314723D01*
X124108133Y-66243538D01*
X124108124Y-66243533D01*
X123989744Y-66194499D01*
X123989738Y-66194497D01*
X123864071Y-66169500D01*
X123864069Y-66169500D01*
X123735931Y-66169500D01*
X123735926Y-66169500D01*
X123663010Y-66184004D01*
X123593418Y-66177777D01*
X123538241Y-66134914D01*
X123514997Y-66069024D01*
X123531065Y-66001027D01*
X123545041Y-65981259D01*
X123546931Y-65979072D01*
X123546949Y-65979055D01*
X123588106Y-65923858D01*
X123626089Y-65813220D01*
X123626089Y-65696244D01*
X123588106Y-65585606D01*
X123555440Y-65541797D01*
X123546950Y-65530411D01*
X123231406Y-65214867D01*
X123197921Y-65153544D01*
X123202905Y-65083852D01*
X123244777Y-65027919D01*
X123257076Y-65019806D01*
X123268730Y-65013078D01*
X123958248Y-64323558D01*
X124019571Y-64290074D01*
X124050388Y-64292277D01*
X124050388Y-64291699D01*
X124101749Y-64291699D01*
X124209042Y-64184405D01*
X124267533Y-64152466D01*
X124210000Y-64210000D01*
X124210000Y-65040000D01*
X125990000Y-65040000D01*
X125990000Y-64120000D01*
X125159115Y-63289115D01*
X125511155Y-62937075D01*
X125549526Y-62889460D01*
X125610508Y-62755928D01*
X125617361Y-62708258D01*
X125621594Y-62696456D01*
X125635087Y-62677946D01*
X125644601Y-62657114D01*
X125655276Y-62650252D01*
X125662753Y-62639997D01*
X125684109Y-62631721D01*
X125703378Y-62619338D01*
X125720670Y-62615577D01*
X125720983Y-62615532D01*
X125755928Y-62610508D01*
X125889460Y-62549526D01*
X125889461Y-62549524D01*
X125889463Y-62549524D01*
X125899259Y-62541628D01*
X125937075Y-62511155D01*
X126320793Y-62127437D01*
X126359164Y-62079822D01*
X126420146Y-61946290D01*
X126420147Y-61946282D01*
X126421787Y-61940699D01*
X126459556Y-61881917D01*
X126522285Y-61853008D01*
X126555518Y-61848000D01*
X126677873Y-61789077D01*
X126701411Y-61769576D01*
X126919576Y-61551411D01*
X126939077Y-61527873D01*
X126942998Y-61519732D01*
X126997999Y-61405520D01*
X127000739Y-61396638D01*
X127002454Y-61397167D01*
X127027176Y-61343982D01*
X127050141Y-61323598D01*
X127117527Y-61277321D01*
X127123247Y-61273623D01*
X127236982Y-61204492D01*
X127243351Y-61200877D01*
X127348989Y-61145008D01*
X127355977Y-61141589D01*
X127442199Y-61102733D01*
X127453584Y-61098265D01*
X127641225Y-61035156D01*
X127657502Y-61030889D01*
X127830970Y-60997811D01*
X127845990Y-60995889D01*
X128060327Y-60981679D01*
X128067686Y-60981411D01*
X128201340Y-60980502D01*
X128202182Y-60980500D01*
X129189521Y-60980500D01*
X129256560Y-61000185D01*
X129302315Y-61052989D01*
X129312259Y-61122147D01*
X129283234Y-61185703D01*
X129224456Y-61223477D01*
X129205706Y-61227439D01*
X129045643Y-61248511D01*
X128816133Y-61310009D01*
X128596643Y-61400924D01*
X128596628Y-61400931D01*
X128390875Y-61519723D01*
X128390861Y-61519732D01*
X128307359Y-61583804D01*
X128307359Y-61583805D01*
X128981100Y-62257546D01*
X128842220Y-62350343D01*
X128720343Y-62472220D01*
X128627546Y-62611100D01*
X127953805Y-61937359D01*
X127953804Y-61937359D01*
X127889732Y-62020861D01*
X127889723Y-62020875D01*
X127770931Y-62226628D01*
X127770924Y-62226643D01*
X127680009Y-62446133D01*
X127618511Y-62675643D01*
X127587501Y-62911191D01*
X127587500Y-62911208D01*
X127587500Y-63148791D01*
X127587501Y-63148808D01*
X127618511Y-63384356D01*
X127680009Y-63613866D01*
X127770924Y-63833356D01*
X127770931Y-63833371D01*
X127889721Y-64039122D01*
X127889727Y-64039129D01*
X127953805Y-64122639D01*
X128627545Y-63448899D01*
X128720343Y-63587780D01*
X128842220Y-63709657D01*
X128981099Y-63802453D01*
X128307359Y-64476193D01*
X128307359Y-64476194D01*
X128390868Y-64540272D01*
X128596628Y-64659068D01*
X128596643Y-64659075D01*
X128816133Y-64749990D01*
X129045643Y-64811488D01*
X129281191Y-64842498D01*
X129281209Y-64842500D01*
X129518791Y-64842500D01*
X129518808Y-64842498D01*
X129754356Y-64811488D01*
X129983866Y-64749990D01*
X130203356Y-64659075D01*
X130203370Y-64659068D01*
X130409125Y-64540275D01*
X130409132Y-64540270D01*
X130492639Y-64476193D01*
X129818899Y-63802453D01*
X129957780Y-63709657D01*
X130079657Y-63587780D01*
X130172453Y-63448899D01*
X130846193Y-64122639D01*
X130910270Y-64039132D01*
X130910275Y-64039125D01*
X131029068Y-63833370D01*
X131029075Y-63833356D01*
X131119990Y-63613866D01*
X131181488Y-63384356D01*
X131212498Y-63148808D01*
X131212500Y-63148791D01*
X131212500Y-62911208D01*
X131212498Y-62911191D01*
X131181488Y-62675643D01*
X131119990Y-62446133D01*
X131029075Y-62226643D01*
X131029068Y-62226628D01*
X130910272Y-62020868D01*
X130846194Y-61937359D01*
X130846193Y-61937359D01*
X130172453Y-62611099D01*
X130079657Y-62472220D01*
X129957780Y-62350343D01*
X129818899Y-62257546D01*
X130492639Y-61583805D01*
X130492639Y-61583804D01*
X130409129Y-61519727D01*
X130409122Y-61519721D01*
X130203371Y-61400931D01*
X130203356Y-61400924D01*
X129983866Y-61310009D01*
X129754356Y-61248511D01*
X129594294Y-61227439D01*
X129530397Y-61199173D01*
X129491926Y-61140848D01*
X129491095Y-61070983D01*
X129528167Y-61011760D01*
X129591373Y-60981981D01*
X129610479Y-60980500D01*
X130418420Y-60980500D01*
X130485459Y-61000185D01*
X130531214Y-61052989D01*
X130536347Y-61066172D01*
X130537323Y-61069176D01*
X130537849Y-61070794D01*
X130641181Y-61273592D01*
X130645967Y-61282985D01*
X130785949Y-61475653D01*
X130954347Y-61644051D01*
X131147015Y-61784033D01*
X131224538Y-61823533D01*
X131359209Y-61892152D01*
X131359212Y-61892153D01*
X131472457Y-61928948D01*
X131585705Y-61965744D01*
X131820924Y-62003000D01*
X131820925Y-62003000D01*
X132059075Y-62003000D01*
X132059076Y-62003000D01*
X132294295Y-61965744D01*
X132520790Y-61892152D01*
X132732985Y-61784033D01*
X132925653Y-61644051D01*
X133094051Y-61475653D01*
X133234033Y-61282985D01*
X133342152Y-61070790D01*
X133415744Y-60844295D01*
X133453000Y-60609076D01*
X133453000Y-60370924D01*
X133415744Y-60135705D01*
X133357569Y-59956658D01*
X133342153Y-59909212D01*
X133342152Y-59909209D01*
X133279338Y-59785931D01*
X133234033Y-59697015D01*
X133094051Y-59504347D01*
X132925653Y-59335949D01*
X132732985Y-59195967D01*
X132676739Y-59167308D01*
X132520790Y-59087847D01*
X132520787Y-59087846D01*
X132294296Y-59014256D01*
X132162076Y-58993314D01*
X132059076Y-58977000D01*
X131820924Y-58977000D01*
X131742517Y-58989418D01*
X131585703Y-59014256D01*
X131359212Y-59087846D01*
X131359209Y-59087847D01*
X131147014Y-59195967D01*
X131056222Y-59261932D01*
X130954347Y-59335949D01*
X130954345Y-59335951D01*
X130954344Y-59335951D01*
X130785951Y-59504344D01*
X130785951Y-59504345D01*
X130785949Y-59504347D01*
X130747978Y-59556610D01*
X130645967Y-59697014D01*
X130622561Y-59742951D01*
X130567101Y-59851796D01*
X130519129Y-59902591D01*
X130456618Y-59919500D01*
X129994560Y-59919500D01*
X129927521Y-59899815D01*
X129881766Y-59847011D01*
X129871822Y-59777853D01*
X129900847Y-59714297D01*
X129959625Y-59676523D01*
X129962466Y-59675725D01*
X129983866Y-59669990D01*
X130203356Y-59579075D01*
X130203370Y-59579068D01*
X130409125Y-59460275D01*
X130409132Y-59460270D01*
X130492639Y-59396193D01*
X129818899Y-58722453D01*
X129957780Y-58629657D01*
X130079657Y-58507780D01*
X130172453Y-58368899D01*
X130846193Y-59042639D01*
X130910270Y-58959132D01*
X130910275Y-58959125D01*
X131029068Y-58753370D01*
X131029075Y-58753356D01*
X131119990Y-58533866D01*
X131181488Y-58304356D01*
X131212498Y-58068808D01*
X131212500Y-58068791D01*
X131212500Y-57831208D01*
X131212498Y-57831191D01*
X131181488Y-57595643D01*
X131119990Y-57366133D01*
X131029075Y-57146643D01*
X131029068Y-57146628D01*
X130910272Y-56940868D01*
X130846194Y-56857359D01*
X130846193Y-56857359D01*
X130172453Y-57531099D01*
X130079657Y-57392220D01*
X129957780Y-57270343D01*
X129818899Y-57177546D01*
X130492639Y-56503805D01*
X130492639Y-56503804D01*
X130409129Y-56439727D01*
X130409122Y-56439721D01*
X130203371Y-56320931D01*
X130203356Y-56320924D01*
X129983866Y-56230009D01*
X129754356Y-56168511D01*
X129518808Y-56137501D01*
X129518791Y-56137500D01*
X129281209Y-56137500D01*
X129281191Y-56137501D01*
X129045643Y-56168511D01*
X128816133Y-56230009D01*
X128596643Y-56320924D01*
X128596628Y-56320931D01*
X128390875Y-56439723D01*
X128390861Y-56439732D01*
X128307359Y-56503804D01*
X128307359Y-56503805D01*
X128981100Y-57177546D01*
X128842220Y-57270343D01*
X128720343Y-57392220D01*
X128627546Y-57531100D01*
X127953805Y-56857359D01*
X127953804Y-56857359D01*
X127889732Y-56940861D01*
X127889723Y-56940875D01*
X127770931Y-57146628D01*
X127770924Y-57146643D01*
X127680009Y-57366133D01*
X127618511Y-57595643D01*
X127587501Y-57831191D01*
X127587500Y-57831208D01*
X127587500Y-58068791D01*
X127587501Y-58068808D01*
X127618511Y-58304356D01*
X127680009Y-58533866D01*
X127770924Y-58753356D01*
X127770931Y-58753371D01*
X127889721Y-58959122D01*
X127889727Y-58959129D01*
X127953805Y-59042639D01*
X128627545Y-58368899D01*
X128720343Y-58507780D01*
X128842220Y-58629657D01*
X128981099Y-58722453D01*
X128307359Y-59396193D01*
X128307359Y-59396194D01*
X128390868Y-59460272D01*
X128596628Y-59579068D01*
X128596643Y-59579075D01*
X128816133Y-59669990D01*
X128837534Y-59675725D01*
X128897194Y-59712091D01*
X128927723Y-59774938D01*
X128919428Y-59844313D01*
X128874942Y-59898191D01*
X128808390Y-59919465D01*
X128805440Y-59919500D01*
X128277642Y-59919500D01*
X128269813Y-59919013D01*
X128198691Y-59919497D01*
X128197849Y-59919500D01*
X128126600Y-59919500D01*
X128118763Y-59920039D01*
X128107495Y-59920116D01*
X128082555Y-59917756D01*
X128079233Y-59917098D01*
X128079232Y-59917098D01*
X128079227Y-59917097D01*
X128028950Y-59920431D01*
X128021591Y-59920700D01*
X127971192Y-59921042D01*
X127971182Y-59921044D01*
X127967911Y-59921944D01*
X127943227Y-59926113D01*
X127781501Y-59936835D01*
X127764213Y-59936774D01*
X127743876Y-59935280D01*
X127740175Y-59935008D01*
X127740174Y-59935008D01*
X127740173Y-59935008D01*
X127710897Y-59940590D01*
X127695876Y-59942512D01*
X127666161Y-59944481D01*
X127666149Y-59944484D01*
X127643338Y-59952245D01*
X127626627Y-59956658D01*
X127455467Y-59989296D01*
X127440007Y-59991248D01*
X127411436Y-59993041D01*
X127387497Y-60001092D01*
X127371200Y-60005365D01*
X127346379Y-60010098D01*
X127320596Y-60022559D01*
X127306168Y-60028444D01*
X127135281Y-60085917D01*
X127115714Y-60090769D01*
X127099485Y-60093415D01*
X127099485Y-60093416D01*
X127065356Y-60108796D01*
X127053941Y-60113275D01*
X127018465Y-60125206D01*
X127018460Y-60125209D01*
X127004766Y-60134303D01*
X126987117Y-60144055D01*
X126960724Y-60155949D01*
X126937418Y-60163778D01*
X126932930Y-60164804D01*
X126932928Y-60164804D01*
X126889433Y-60187807D01*
X126882414Y-60191240D01*
X126837574Y-60211448D01*
X126837565Y-60211454D01*
X126833998Y-60214369D01*
X126813514Y-60227959D01*
X126788737Y-60241063D01*
X126765567Y-60250465D01*
X126762229Y-60251440D01*
X126762226Y-60251442D01*
X126719239Y-60277570D01*
X126712809Y-60281220D01*
X126668331Y-60304744D01*
X126665784Y-60307109D01*
X126645826Y-60322192D01*
X126616400Y-60340077D01*
X126614500Y-60341233D01*
X126591467Y-60352164D01*
X126588421Y-60353242D01*
X126518655Y-60357052D01*
X126457905Y-60322539D01*
X126448675Y-60311834D01*
X126438425Y-60298476D01*
X126398248Y-60258300D01*
X126150106Y-60506442D01*
X126116227Y-60530481D01*
X125998419Y-60587214D01*
X125998417Y-60587215D01*
X125974891Y-60606706D01*
X125756706Y-60824891D01*
X125737215Y-60848417D01*
X125737214Y-60848419D01*
X125680481Y-60966227D01*
X125656442Y-61000106D01*
X125608629Y-61047919D01*
X125561614Y-61075817D01*
X125561776Y-61076171D01*
X125558493Y-61077670D01*
X125555895Y-61079212D01*
X125553714Y-61079852D01*
X125420176Y-61140836D01*
X125420174Y-61140837D01*
X125372564Y-61179206D01*
X125372555Y-61179214D01*
X124988852Y-61562917D01*
X124988844Y-61562926D01*
X124950475Y-61610536D01*
X124950472Y-61610542D01*
X124889493Y-61744068D01*
X124889491Y-61744072D01*
X124884422Y-61779332D01*
X124855396Y-61842888D01*
X124796618Y-61880661D01*
X124779332Y-61884422D01*
X124744072Y-61889491D01*
X124744068Y-61889493D01*
X124610542Y-61950472D01*
X124610536Y-61950475D01*
X124562926Y-61988844D01*
X124562917Y-61988852D01*
X124179214Y-62372555D01*
X124179206Y-62372564D01*
X124140837Y-62420174D01*
X124140836Y-62420176D01*
X124117069Y-62472220D01*
X124081765Y-62549527D01*
X124079853Y-62553713D01*
X124074176Y-62593198D01*
X124045150Y-62656753D01*
X123986372Y-62694527D01*
X123969922Y-62698165D01*
X123944480Y-62702000D01*
X123822130Y-62760920D01*
X123822125Y-62760923D01*
X123798597Y-62780417D01*
X123798570Y-62780441D01*
X123612181Y-62966831D01*
X123550858Y-63000316D01*
X123481166Y-62995332D01*
X123425233Y-62953460D01*
X123400816Y-62887996D01*
X123400500Y-62879150D01*
X123400500Y-62403899D01*
X123420185Y-62336860D01*
X123472989Y-62291105D01*
X123477012Y-62289352D01*
X123508127Y-62276465D01*
X123614669Y-62205276D01*
X123705276Y-62114669D01*
X123776465Y-62008127D01*
X123825501Y-61889744D01*
X123833805Y-61847999D01*
X123850500Y-61764071D01*
X123850500Y-61635928D01*
X123825502Y-61510261D01*
X123825501Y-61510260D01*
X123825501Y-61510256D01*
X123785787Y-61414378D01*
X123776466Y-61391875D01*
X123776461Y-61391866D01*
X123705276Y-61285331D01*
X123705273Y-61285327D01*
X123614672Y-61194726D01*
X123614668Y-61194723D01*
X123508133Y-61123538D01*
X123508124Y-61123533D01*
X123402047Y-61079595D01*
X123347644Y-61035754D01*
X123325579Y-60969460D01*
X123325500Y-60965034D01*
X123325500Y-60778651D01*
X123345185Y-60711612D01*
X123361819Y-60690970D01*
X123524020Y-60528769D01*
X124932170Y-60528769D01*
X124952791Y-60685399D01*
X124952792Y-60685403D01*
X125013246Y-60831353D01*
X125013249Y-60831359D01*
X125085278Y-60925227D01*
X125125458Y-60965407D01*
X125479011Y-60611853D01*
X125479011Y-60611852D01*
X125048021Y-60180864D01*
X125048020Y-60180864D01*
X125013247Y-60226181D01*
X124952792Y-60372134D01*
X124952791Y-60372138D01*
X124932170Y-60528769D01*
X123524020Y-60528769D01*
X123619828Y-60432961D01*
X123649400Y-60403389D01*
X123710490Y-60342299D01*
X123769799Y-60239571D01*
X123775694Y-60217570D01*
X123777335Y-60211448D01*
X123785529Y-60180864D01*
X123800500Y-60124994D01*
X123800500Y-59898020D01*
X125330864Y-59898020D01*
X125330864Y-59898021D01*
X125761852Y-60329011D01*
X125761853Y-60329011D01*
X126115406Y-59975458D01*
X126075228Y-59935280D01*
X126075219Y-59935272D01*
X125981359Y-59863249D01*
X125981353Y-59863246D01*
X125835403Y-59802792D01*
X125835399Y-59802791D01*
X125678769Y-59782170D01*
X125522138Y-59802791D01*
X125522134Y-59802792D01*
X125376181Y-59863247D01*
X125330864Y-59898020D01*
X123800500Y-59898020D01*
X123800500Y-56090691D01*
X123769799Y-55976114D01*
X123760641Y-55960252D01*
X123710490Y-55873386D01*
X119436613Y-51599511D01*
X119349466Y-51549196D01*
X119333887Y-51540201D01*
X119321779Y-51536957D01*
X119309672Y-51533713D01*
X119309669Y-51533712D01*
X119271477Y-51523478D01*
X119219308Y-51509500D01*
X119219307Y-51509500D01*
X113713214Y-51509500D01*
X113646175Y-51489815D01*
X113600420Y-51437011D01*
X113590476Y-51367853D01*
X113590741Y-51366102D01*
X113600500Y-51304486D01*
X113600500Y-51115513D01*
X113570940Y-50928881D01*
X113543846Y-50845497D01*
X113512547Y-50749168D01*
X113512545Y-50749165D01*
X113512545Y-50749163D01*
X113426759Y-50580800D01*
X113315690Y-50427927D01*
X113182073Y-50294310D01*
X113086426Y-50224818D01*
X113043761Y-50169487D01*
X113037782Y-50099874D01*
X113070388Y-50038079D01*
X113131227Y-50003722D01*
X113159312Y-50000500D01*
X131322887Y-50000500D01*
X131389926Y-50020185D01*
G37*
%TD.AperFunction*%
%TA.AperFunction,Conductor*%
G36*
X123156577Y-67747511D02*
G01*
X123167731Y-67750500D01*
X123167736Y-67750500D01*
X123175791Y-67751561D01*
X123175365Y-67754794D01*
X123227778Y-67770185D01*
X123236226Y-67776125D01*
X123241912Y-67780488D01*
X123241914Y-67780489D01*
X123241915Y-67780490D01*
X123324584Y-67828218D01*
X123344643Y-67839799D01*
X123379634Y-67849175D01*
X123439294Y-67885539D01*
X123469823Y-67948386D01*
X123461529Y-68017761D01*
X123435221Y-68056630D01*
X123322703Y-68169148D01*
X123322703Y-68169149D01*
X123799999Y-68646446D01*
X123800000Y-68646446D01*
X124246184Y-68200262D01*
X124307507Y-68166777D01*
X124377199Y-68171761D01*
X124399817Y-68186297D01*
X124407581Y-68186297D01*
X124534257Y-68059620D01*
X124595581Y-68026135D01*
X124665272Y-68031119D01*
X124709620Y-68059620D01*
X124887812Y-68237812D01*
X124921297Y-68299135D01*
X124916313Y-68368827D01*
X124887812Y-68413174D01*
X124398494Y-68902493D01*
X124337171Y-68935978D01*
X124267480Y-68930994D01*
X124244860Y-68916457D01*
X124237095Y-68916457D01*
X124064457Y-69089095D01*
X124003134Y-69122580D01*
X123933442Y-69117596D01*
X123889095Y-69089095D01*
X123800000Y-69000000D01*
X123710904Y-69089096D01*
X123649581Y-69122580D01*
X123579889Y-69117596D01*
X123535542Y-69089095D01*
X123036819Y-68590372D01*
X123003334Y-68529049D01*
X123000500Y-68502691D01*
X123000500Y-67867290D01*
X123020185Y-67800251D01*
X123072989Y-67754496D01*
X123142147Y-67744552D01*
X123156577Y-67747511D01*
G37*
%TD.AperFunction*%
%TA.AperFunction,Conductor*%
G36*
X120165864Y-64961777D02*
G01*
X120210211Y-64990278D01*
X121250788Y-66030855D01*
X121284273Y-66092178D01*
X121279289Y-66161870D01*
X121250791Y-66206214D01*
X121225154Y-66231852D01*
X121225150Y-66231857D01*
X121181739Y-66290076D01*
X121156455Y-66315360D01*
X121098236Y-66358771D01*
X121098231Y-66358775D01*
X121072593Y-66384412D01*
X121011269Y-66417895D01*
X120941577Y-66412908D01*
X120897234Y-66384409D01*
X119856657Y-65343832D01*
X119823172Y-65282509D01*
X119828156Y-65212817D01*
X119856657Y-65168470D01*
X120034849Y-64990278D01*
X120096172Y-64956793D01*
X120165864Y-64961777D01*
G37*
%TD.AperFunction*%
%TA.AperFunction,Conductor*%
G36*
X124956893Y-63463105D02*
G01*
X124957476Y-63454962D01*
X124999348Y-63399029D01*
X125022138Y-63385506D01*
X125044878Y-63375121D01*
X124956893Y-63463105D01*
G37*
%TD.AperFunction*%
%TA.AperFunction,Conductor*%
G36*
X105030000Y-57639999D02*
G01*
X105429972Y-57639999D01*
X105429986Y-57639998D01*
X105532696Y-57629505D01*
X105556493Y-57621620D01*
X105626322Y-57619217D01*
X105686364Y-57654947D01*
X105717558Y-57717467D01*
X105719500Y-57739325D01*
X105719500Y-59079309D01*
X105721788Y-59087847D01*
X105738588Y-59150549D01*
X105738589Y-59150549D01*
X105738589Y-59150550D01*
X105750201Y-59193887D01*
X105809511Y-59296614D01*
X105809513Y-59296616D01*
X106500716Y-59987819D01*
X106534201Y-60049142D01*
X106529217Y-60118834D01*
X106487345Y-60174767D01*
X106421881Y-60199184D01*
X106413035Y-60199500D01*
X104787965Y-60199500D01*
X104720926Y-60179815D01*
X104700284Y-60163181D01*
X104116819Y-59579716D01*
X104083334Y-59518393D01*
X104080500Y-59492035D01*
X104080500Y-57763999D01*
X104100185Y-57696960D01*
X104152989Y-57651205D01*
X104204500Y-57639999D01*
X104529999Y-57639999D01*
X104530000Y-57639998D01*
X104530000Y-56723012D01*
X104587007Y-56755925D01*
X104714174Y-56790000D01*
X104845826Y-56790000D01*
X104972993Y-56755925D01*
X105030000Y-56723012D01*
X105030000Y-57639999D01*
G37*
%TD.AperFunction*%
%TA.AperFunction,Conductor*%
G36*
X114671833Y-57203137D02*
G01*
X114727767Y-57245009D01*
X114752184Y-57310473D01*
X114752500Y-57319319D01*
X114752500Y-57410260D01*
X114762970Y-57482122D01*
X114762970Y-57517878D01*
X114752500Y-57589739D01*
X114752500Y-57910260D01*
X114762970Y-57982122D01*
X114762971Y-58017877D01*
X114762427Y-58021606D01*
X114762427Y-58021608D01*
X114752500Y-58089741D01*
X114752500Y-58410261D01*
X114760573Y-58465666D01*
X114750759Y-58534843D01*
X114706760Y-58586644D01*
X114643105Y-58629177D01*
X114643099Y-58629182D01*
X114552498Y-58719783D01*
X114552495Y-58719787D01*
X114481310Y-58826322D01*
X114481305Y-58826331D01*
X114432271Y-58944711D01*
X114432269Y-58944717D01*
X114407272Y-59070384D01*
X114407272Y-59196966D01*
X114387587Y-59264005D01*
X114352163Y-59300068D01*
X114285331Y-59344723D01*
X114285327Y-59344726D01*
X114194726Y-59435327D01*
X114194723Y-59435331D01*
X114123538Y-59541866D01*
X114123533Y-59541875D01*
X114074499Y-59660255D01*
X114074497Y-59660261D01*
X114049500Y-59785928D01*
X114049500Y-59785931D01*
X114049500Y-59914069D01*
X114049500Y-59914071D01*
X114049499Y-59914071D01*
X114069003Y-60012116D01*
X114062776Y-60081708D01*
X114019913Y-60136885D01*
X113954024Y-60160130D01*
X113886027Y-60144063D01*
X113859705Y-60123989D01*
X113575228Y-59839513D01*
X113575226Y-59839511D01*
X113513143Y-59803667D01*
X113472500Y-59780201D01*
X113460392Y-59776957D01*
X113448285Y-59773713D01*
X113448282Y-59773712D01*
X113406430Y-59762498D01*
X113357921Y-59749500D01*
X113357920Y-59749500D01*
X109468911Y-59749500D01*
X109401872Y-59729815D01*
X109356117Y-59677011D01*
X109346173Y-59607853D01*
X109365809Y-59556610D01*
X109409516Y-59491196D01*
X109409518Y-59491192D01*
X109409523Y-59491185D01*
X109458559Y-59372802D01*
X109483558Y-59247127D01*
X109483558Y-59247122D01*
X109483808Y-59244584D01*
X109484313Y-59243332D01*
X109484747Y-59241152D01*
X109485160Y-59241234D01*
X109509961Y-59179794D01*
X109519522Y-59169052D01*
X109776756Y-58911819D01*
X109838079Y-58878334D01*
X109864437Y-58875500D01*
X112762599Y-58875500D01*
X112762601Y-58875500D01*
X112883536Y-58843095D01*
X112991964Y-58780495D01*
X114540821Y-57231636D01*
X114602142Y-57198153D01*
X114671833Y-57203137D01*
G37*
%TD.AperFunction*%
%TA.AperFunction,Conductor*%
G36*
X112650000Y-57655720D02*
G01*
X112664574Y-57682411D01*
X112659590Y-57752103D01*
X112631090Y-57796449D01*
X112539361Y-57888180D01*
X112478038Y-57921666D01*
X112451679Y-57924500D01*
X109678717Y-57924500D01*
X109553515Y-57924500D01*
X109472891Y-57946103D01*
X109432579Y-57956905D01*
X109324153Y-58019504D01*
X109324150Y-58019506D01*
X108847072Y-58496584D01*
X108785749Y-58530069D01*
X108771547Y-58532306D01*
X108768984Y-58532558D01*
X108643319Y-58557555D01*
X108643313Y-58557557D01*
X108524933Y-58606591D01*
X108524924Y-58606596D01*
X108418389Y-58677781D01*
X108418385Y-58677784D01*
X108327784Y-58768385D01*
X108327781Y-58768389D01*
X108256596Y-58874924D01*
X108256591Y-58874933D01*
X108207557Y-58993313D01*
X108207555Y-58993319D01*
X108182558Y-59118986D01*
X108182558Y-59118989D01*
X108182558Y-59247127D01*
X108182558Y-59247129D01*
X108182557Y-59247129D01*
X108207555Y-59372796D01*
X108207557Y-59372802D01*
X108256591Y-59491182D01*
X108256599Y-59491196D01*
X108300307Y-59556610D01*
X108321185Y-59623287D01*
X108302700Y-59690667D01*
X108250721Y-59737357D01*
X108197205Y-59749500D01*
X107587965Y-59749500D01*
X107520926Y-59729815D01*
X107500284Y-59713181D01*
X106656819Y-58869716D01*
X106623334Y-58808393D01*
X106620500Y-58782035D01*
X106620500Y-57763999D01*
X106640185Y-57696960D01*
X106692989Y-57651205D01*
X106744500Y-57639999D01*
X107069999Y-57639999D01*
X107070000Y-57639998D01*
X107070000Y-56723012D01*
X107127007Y-56755925D01*
X107254174Y-56790000D01*
X107385826Y-56790000D01*
X107512993Y-56755925D01*
X107570000Y-56723012D01*
X107570000Y-57639999D01*
X107969972Y-57639999D01*
X107969986Y-57639998D01*
X108072697Y-57629505D01*
X108239119Y-57574358D01*
X108239124Y-57574356D01*
X108388345Y-57482315D01*
X108502319Y-57368342D01*
X108563642Y-57334857D01*
X108633334Y-57339841D01*
X108677681Y-57368342D01*
X108791654Y-57482315D01*
X108940875Y-57574356D01*
X108940880Y-57574358D01*
X109107302Y-57629505D01*
X109107309Y-57629506D01*
X109210019Y-57639999D01*
X109609999Y-57639999D01*
X109610000Y-57639998D01*
X109610000Y-56723012D01*
X109667007Y-56755925D01*
X109794174Y-56790000D01*
X109925826Y-56790000D01*
X110052993Y-56755925D01*
X110110000Y-56723012D01*
X110110000Y-57639999D01*
X110509972Y-57639999D01*
X110509986Y-57639998D01*
X110612697Y-57629505D01*
X110779119Y-57574358D01*
X110779124Y-57574356D01*
X110928345Y-57482315D01*
X111042319Y-57368342D01*
X111103642Y-57334857D01*
X111173334Y-57339841D01*
X111217681Y-57368342D01*
X111331654Y-57482315D01*
X111480875Y-57574356D01*
X111480880Y-57574358D01*
X111647302Y-57629505D01*
X111647309Y-57629506D01*
X111750019Y-57639999D01*
X112149999Y-57639999D01*
X112150000Y-57639998D01*
X112150000Y-56723012D01*
X112207007Y-56755925D01*
X112334174Y-56790000D01*
X112465826Y-56790000D01*
X112592993Y-56755925D01*
X112650000Y-56723012D01*
X112650000Y-57655720D01*
G37*
%TD.AperFunction*%
%TA.AperFunction,Conductor*%
G36*
X116339739Y-57177400D02*
G01*
X116339740Y-57177400D01*
X116660261Y-57177400D01*
X116732121Y-57166930D01*
X116767877Y-57166930D01*
X116839738Y-57177400D01*
X116839739Y-57177400D01*
X116939900Y-57177400D01*
X117006939Y-57197085D01*
X117052694Y-57249889D01*
X117063900Y-57301400D01*
X117063900Y-57410260D01*
X117074370Y-57482122D01*
X117074238Y-57483046D01*
X117074616Y-57483900D01*
X117074370Y-57517879D01*
X117064653Y-57584567D01*
X117035508Y-57648068D01*
X116976659Y-57685731D01*
X116906789Y-57685599D01*
X116885769Y-57673100D01*
X116825171Y-57673100D01*
X116825152Y-57673101D01*
X116763254Y-57679756D01*
X116736743Y-57679756D01*
X116674844Y-57673100D01*
X116627000Y-57673100D01*
X116627000Y-57878055D01*
X116607315Y-57945094D01*
X116554511Y-57990849D01*
X116485353Y-58000793D01*
X116421797Y-57971768D01*
X116415319Y-57965736D01*
X116409319Y-57959736D01*
X116375834Y-57898413D01*
X116373000Y-57872055D01*
X116373000Y-57673100D01*
X116325155Y-57673100D01*
X116265627Y-57679501D01*
X116265620Y-57679503D01*
X116130913Y-57729745D01*
X116123128Y-57733997D01*
X116121921Y-57731787D01*
X116068926Y-57751545D01*
X116000655Y-57736681D01*
X115951258Y-57687268D01*
X115936100Y-57627859D01*
X115936100Y-57589739D01*
X115925630Y-57517878D01*
X115925630Y-57482122D01*
X115936100Y-57410260D01*
X115936100Y-57301400D01*
X115955785Y-57234361D01*
X116008589Y-57188606D01*
X116060100Y-57177400D01*
X116160262Y-57177400D01*
X116232122Y-57166930D01*
X116267878Y-57166930D01*
X116339739Y-57177400D01*
G37*
%TD.AperFunction*%
%TA.AperFunction,Conductor*%
G36*
X118823388Y-52830185D02*
G01*
X118844030Y-52846819D01*
X120809705Y-54812494D01*
X120843190Y-54873817D01*
X120838206Y-54943509D01*
X120796334Y-54999442D01*
X120746217Y-55021792D01*
X120644002Y-55042125D01*
X120643997Y-55042126D01*
X120525617Y-55091160D01*
X120525608Y-55091165D01*
X120419073Y-55162350D01*
X120419069Y-55162353D01*
X120328468Y-55252954D01*
X120328461Y-55252963D01*
X120325621Y-55257213D01*
X120272004Y-55302012D01*
X120202678Y-55310711D01*
X120139654Y-55280549D01*
X120134846Y-55275991D01*
X118978361Y-54119506D01*
X118978360Y-54119505D01*
X118869932Y-54056905D01*
X118869933Y-54056905D01*
X118829620Y-54046103D01*
X118748997Y-54024500D01*
X116512601Y-54024500D01*
X116387399Y-54024500D01*
X116306775Y-54046103D01*
X116266463Y-54056905D01*
X116158037Y-54119504D01*
X116158034Y-54119506D01*
X115169507Y-55108033D01*
X115169505Y-55108036D01*
X115109680Y-55211658D01*
X115106906Y-55216463D01*
X115089734Y-55280549D01*
X115077375Y-55326673D01*
X115045281Y-55382259D01*
X113906451Y-56521088D01*
X113845128Y-56554573D01*
X113775436Y-56549589D01*
X113760516Y-56540000D01*
X112833012Y-56540000D01*
X112865925Y-56482993D01*
X112900000Y-56355826D01*
X112900000Y-56224174D01*
X112865925Y-56097007D01*
X112833012Y-56040000D01*
X113749999Y-56040000D01*
X113749999Y-55640028D01*
X113749998Y-55640013D01*
X113739505Y-55537302D01*
X113684358Y-55370880D01*
X113684356Y-55370875D01*
X113592315Y-55221654D01*
X113468345Y-55097684D01*
X113319124Y-55005643D01*
X113319119Y-55005641D01*
X113152697Y-54950494D01*
X113146071Y-54949076D01*
X113146614Y-54946539D01*
X113092812Y-54924563D01*
X113052682Y-54867368D01*
X113049844Y-54797555D01*
X113085201Y-54737292D01*
X113097249Y-54727317D01*
X113182073Y-54665690D01*
X113315690Y-54532073D01*
X113426760Y-54379199D01*
X113512547Y-54210832D01*
X113570940Y-54031118D01*
X113575184Y-54004323D01*
X113600500Y-53844486D01*
X113600500Y-53655513D01*
X113570940Y-53468881D01*
X113528072Y-53336948D01*
X113512547Y-53289168D01*
X113512545Y-53289165D01*
X113512545Y-53289163D01*
X113426759Y-53120800D01*
X113426756Y-53120796D01*
X113344357Y-53007383D01*
X113320878Y-52941580D01*
X113336703Y-52873526D01*
X113386809Y-52824831D01*
X113444676Y-52810500D01*
X118756349Y-52810500D01*
X118823388Y-52830185D01*
G37*
%TD.AperFunction*%
%TA.AperFunction,Conductor*%
G36*
X105662539Y-56059685D02*
G01*
X105708294Y-56112489D01*
X105719500Y-56164000D01*
X105719500Y-56416000D01*
X105699815Y-56483039D01*
X105647011Y-56528794D01*
X105595500Y-56540000D01*
X105213012Y-56540000D01*
X105245925Y-56482993D01*
X105280000Y-56355826D01*
X105280000Y-56224174D01*
X105245925Y-56097007D01*
X105213012Y-56040000D01*
X105595500Y-56040000D01*
X105662539Y-56059685D01*
G37*
%TD.AperFunction*%
%TA.AperFunction,Conductor*%
G36*
X106854075Y-56097007D02*
G01*
X106820000Y-56224174D01*
X106820000Y-56355826D01*
X106854075Y-56482993D01*
X106886988Y-56540000D01*
X106744500Y-56540000D01*
X106677461Y-56520315D01*
X106631706Y-56467511D01*
X106620500Y-56416000D01*
X106620500Y-56164000D01*
X106640185Y-56096961D01*
X106692989Y-56051206D01*
X106744500Y-56040000D01*
X106886988Y-56040000D01*
X106854075Y-56097007D01*
G37*
%TD.AperFunction*%
%TA.AperFunction,Conductor*%
G36*
X109394075Y-56097007D02*
G01*
X109360000Y-56224174D01*
X109360000Y-56355826D01*
X109394075Y-56482993D01*
X109426988Y-56540000D01*
X107753012Y-56540000D01*
X107785925Y-56482993D01*
X107820000Y-56355826D01*
X107820000Y-56224174D01*
X107785925Y-56097007D01*
X107753012Y-56040000D01*
X109426988Y-56040000D01*
X109394075Y-56097007D01*
G37*
%TD.AperFunction*%
%TA.AperFunction,Conductor*%
G36*
X111934075Y-56097007D02*
G01*
X111900000Y-56224174D01*
X111900000Y-56355826D01*
X111934075Y-56482993D01*
X111966988Y-56540000D01*
X110293012Y-56540000D01*
X110325925Y-56482993D01*
X110360000Y-56355826D01*
X110360000Y-56224174D01*
X110325925Y-56097007D01*
X110293012Y-56040000D01*
X111966988Y-56040000D01*
X111934075Y-56097007D01*
G37*
%TD.AperFunction*%
%TD*%
%TA.AperFunction,Conductor*%
%TO.N,Earth*%
G36*
X125990000Y-64120000D02*
G01*
X125990000Y-65040000D01*
X124210000Y-65040000D01*
X124210000Y-64210000D01*
X124309999Y-64110000D01*
X124554940Y-64354940D01*
X124700000Y-64500000D01*
X124848638Y-64500000D01*
X124915677Y-64519685D01*
X124936319Y-64536319D01*
X124963681Y-64563681D01*
X124997166Y-64625004D01*
X125000000Y-64651362D01*
X125000000Y-64700000D01*
X125200000Y-64900000D01*
X125400000Y-64900000D01*
X125700000Y-64600000D01*
X125700000Y-64400000D01*
X125500000Y-64200000D01*
X125451362Y-64200000D01*
X125384323Y-64180315D01*
X125363681Y-64163681D01*
X125336319Y-64136319D01*
X125302834Y-64074996D01*
X125300000Y-64048638D01*
X125300000Y-63900000D01*
X125299999Y-63899999D01*
X124910000Y-63509999D01*
X125145000Y-63275000D01*
X125990000Y-64120000D01*
G37*
%TD.AperFunction*%
%TD*%
M02*
