%TF.GenerationSoftware,KiCad,Pcbnew,10.0.5*%
%TF.CreationDate,2026-08-14T15:53:09-04:00*%
%TF.ProjectId,sedsna,73656473-6e61-42e6-9b69-6361645f7063,rev?*%
%TF.SameCoordinates,Original*%
%TF.FileFunction,Copper,L3,Inr*%
%TF.FilePolarity,Positive*%
%FSLAX46Y46*%
G04 Gerber Fmt 4.6, Leading zero omitted, Abs format (unit mm)*
G04 Created by KiCad (PCBNEW 10.0.5) date 2026-08-14 15:53:09*
%MOMM*%
%LPD*%
G01*
G04 APERTURE LIST*
G04 Aperture macros list*
%AMRoundRect*
0 Rectangle with rounded corners*
0 $1 Rounding radius*
0 $2 $3 $4 $5 $6 $7 $8 $9 X,Y pos of 4 corners*
0 Add a 4 corners polygon primitive as box body*
4,1,4,$2,$3,$4,$5,$6,$7,$8,$9,$2,$3,0*
0 Add four circle primitives for the rounded corners*
1,1,$1+$1,$2,$3*
1,1,$1+$1,$4,$5*
1,1,$1+$1,$6,$7*
1,1,$1+$1,$8,$9*
0 Add four rect primitives between the rounded corners*
20,1,$1+$1,$2,$3,$4,$5,0*
20,1,$1+$1,$4,$5,$6,$7,0*
20,1,$1+$1,$6,$7,$8,$9,0*
20,1,$1+$1,$8,$9,$2,$3,0*%
G04 Aperture macros list end*
%TA.AperFunction,ComponentPad*%
%ADD10R,2.775000X2.775000*%
%TD*%
%TA.AperFunction,ComponentPad*%
%ADD11C,2.775000*%
%TD*%
%TA.AperFunction,ComponentPad*%
%ADD12C,1.800000*%
%TD*%
%TA.AperFunction,ComponentPad*%
%ADD13C,5.700000*%
%TD*%
%TA.AperFunction,ComponentPad*%
%ADD14O,1.800000X1.000000*%
%TD*%
%TA.AperFunction,ComponentPad*%
%ADD15O,2.100000X1.000000*%
%TD*%
%TA.AperFunction,ComponentPad*%
%ADD16C,0.650000*%
%TD*%
%TA.AperFunction,ComponentPad*%
%ADD17RoundRect,0.250000X0.600000X-0.600000X0.600000X0.600000X-0.600000X0.600000X-0.600000X-0.600000X0*%
%TD*%
%TA.AperFunction,ComponentPad*%
%ADD18C,1.700000*%
%TD*%
%TA.AperFunction,ComponentPad*%
%ADD19C,2.325000*%
%TD*%
%TA.AperFunction,ComponentPad*%
%ADD20C,2.625000*%
%TD*%
%TA.AperFunction,ComponentPad*%
%ADD21C,1.955800*%
%TD*%
%TA.AperFunction,ComponentPad*%
%ADD22C,2.159000*%
%TD*%
%TA.AperFunction,ViaPad*%
%ADD23C,0.600000*%
%TD*%
%TA.AperFunction,ViaPad*%
%ADD24C,0.400000*%
%TD*%
G04 APERTURE END LIST*
D10*
%TO.N,Earth*%
%TO.C,J7*%
X102000000Y-111750000D03*
D11*
%TO.N,unconnected-(J7-Pin_2-Pad2)*%
X102000000Y-105400000D03*
%TO.N,/CTR_Prop*%
X102000000Y-99050000D03*
%TD*%
D12*
%TO.N,Earth*%
%TO.C,RESET1*%
X105762500Y-74700000D03*
%TO.N,Net-(U2-CHIP_EN)*%
X112162500Y-74700000D03*
%TD*%
D13*
%TO.N,N/C*%
%TO.C,H1*%
X99800000Y-52800000D03*
%TD*%
D14*
%TO.N,Earth*%
%TO.C,J5*%
X134808400Y-88820002D03*
X134808400Y-80179998D03*
D15*
X130628400Y-88832651D03*
X130631750Y-80142349D03*
D16*
%TO.N,N/C*%
X131120000Y-87390000D03*
X131120000Y-81610000D03*
%TD*%
D17*
%TO.N,Earth*%
%TO.C,J1*%
X104780000Y-56290000D03*
D18*
%TO.N,+6.6V*%
X104780000Y-53750000D03*
%TO.N,/Channel_1*%
X104780000Y-51210000D03*
D17*
%TO.N,Earth*%
X107320000Y-56290000D03*
D18*
%TO.N,+6.6V*%
X107320000Y-53750000D03*
%TO.N,/Channel_2*%
X107320000Y-51210000D03*
D17*
%TO.N,Earth*%
X109860000Y-56290000D03*
D18*
%TO.N,+6.6V*%
X109860000Y-53750000D03*
%TO.N,/Channel_3*%
X109860000Y-51210000D03*
D17*
%TO.N,Earth*%
X112400000Y-56290000D03*
D18*
%TO.N,+6.6V*%
X112400000Y-53750000D03*
%TO.N,/Channel_4*%
X112400000Y-51210000D03*
%TD*%
D10*
%TO.N,+6.6V*%
%TO.C,J11*%
X122850000Y-84500000D03*
D11*
%TO.N,Earth*%
X116500000Y-84500000D03*
%TO.N,unconnected-(J11-Pin_3-Pad3)*%
X110150000Y-84500000D03*
%TD*%
D10*
%TO.N,Earth*%
%TO.C,J6*%
X131000000Y-111750000D03*
D11*
%TO.N,+6.6V*%
X131000000Y-105400000D03*
%TO.N,/CTR_R_Ail*%
X131000000Y-99050000D03*
%TD*%
D13*
%TO.N,N/C*%
%TO.C,H2*%
X133300000Y-52800000D03*
%TD*%
D19*
%TO.N,Net-(AE1-Pad1)*%
%TO.C,AE1*%
X131940000Y-60490000D03*
D20*
%TO.N,Earth*%
X129400000Y-57950000D03*
X134480000Y-57950000D03*
X129400000Y-63030000D03*
X134480000Y-63030000D03*
%TD*%
D21*
%TO.N,/CTR_Elevator*%
%TO.C,J3*%
X110000000Y-120000000D03*
%TO.N,+6.6V*%
X116500000Y-120000000D03*
%TO.N,Earth*%
X122999999Y-120000000D03*
X110000000Y-126550000D03*
%TO.N,+6.6V*%
X116500000Y-126550000D03*
%TO.N,/CTR_Rudder*%
X122999999Y-126550000D03*
D22*
%TO.N,N/C*%
X105795000Y-134810001D03*
X127205000Y-134810001D03*
%TD*%
D10*
%TO.N,Earth*%
%TO.C,J4*%
X116500000Y-111750000D03*
D11*
%TO.N,+6.6V*%
X116500000Y-105400000D03*
%TO.N,/CTR_L_Ail*%
X116500000Y-99050000D03*
%TD*%
D13*
%TO.N,N/C*%
%TO.C,H3*%
X99700000Y-137300000D03*
%TD*%
%TO.N,N/C*%
%TO.C,H4*%
X133300000Y-137300000D03*
%TD*%
D23*
%TO.N,/I2C_SCL*%
X120833742Y-55667627D03*
X117200000Y-55600000D03*
X121875000Y-60632239D03*
X114200000Y-65950000D03*
X122300878Y-56515094D03*
X112550000Y-65900000D03*
%TO.N,/I2C_SDA*%
X114700000Y-59850000D03*
X114775000Y-63275000D03*
X118806545Y-59072879D03*
D24*
%TO.N,Earth*%
X126210000Y-60320000D03*
D23*
X116500000Y-76600000D03*
D24*
X127776396Y-68753604D03*
D23*
X110200000Y-62550000D03*
D24*
X124981802Y-60382982D03*
X128940000Y-59870000D03*
X128511388Y-61030000D03*
X127950000Y-67930000D03*
X125258743Y-60858173D03*
X129390000Y-59870000D03*
X128482556Y-59870000D03*
X123130662Y-63580662D03*
D23*
X108500000Y-67000000D03*
X114150000Y-58550000D03*
D24*
X127529644Y-61124910D03*
X124920000Y-66420000D03*
X126667108Y-60251330D03*
X125310292Y-63207942D03*
X126821446Y-69778554D03*
X126220000Y-69470000D03*
X125097698Y-61384069D03*
X125661867Y-62735071D03*
X128015475Y-59871789D03*
D23*
X123150000Y-67900000D03*
D24*
X127450000Y-67500000D03*
D23*
X114750000Y-54070000D03*
D24*
X128970000Y-61030000D03*
X130260000Y-59870000D03*
X123692532Y-64659280D03*
X124400000Y-64740000D03*
X126100000Y-66250000D03*
X127552033Y-59920492D03*
X125310000Y-64510000D03*
X126463361Y-62037118D03*
X126874723Y-61839479D03*
X124051801Y-62490054D03*
X129910000Y-61030000D03*
X124367371Y-62114395D03*
X125427957Y-70447957D03*
X125844472Y-60033335D03*
X124823454Y-61826684D03*
X123437285Y-63239850D03*
X127083350Y-61360842D03*
X129450000Y-61030000D03*
D23*
X127500000Y-74000000D03*
D24*
X128070073Y-61030897D03*
D23*
X116400000Y-57550000D03*
D24*
X126840000Y-66840000D03*
X123676311Y-62832698D03*
X124075906Y-64275906D03*
X124430000Y-66930000D03*
X125583127Y-63685502D03*
X126094443Y-62423791D03*
X129830000Y-59870000D03*
X125392789Y-60017480D03*
D23*
X121150000Y-69500000D03*
D24*
X125400000Y-65950000D03*
X125890000Y-70050000D03*
X127075830Y-60053689D03*
X123342569Y-65008980D03*
X130350000Y-61030000D03*
D23*
%TO.N,+3.3V*%
X124150000Y-72700000D03*
X115057772Y-59134456D03*
X116600000Y-66650000D03*
X119050000Y-75150000D03*
X117600000Y-61850000D03*
X118600000Y-58300000D03*
X123200000Y-61700000D03*
X123800000Y-66820000D03*
X106500000Y-78000000D03*
X109500000Y-70000000D03*
X118700000Y-56200000D03*
X121887054Y-59557584D03*
X110500000Y-64500000D03*
X111550000Y-65600000D03*
%TO.N,/CTR_Prop*%
X108833058Y-59183058D03*
X102826981Y-65176839D03*
%TO.N,Net-(U2-CHIP_EN)*%
X101525000Y-61800000D03*
X121526369Y-56314753D03*
%TO.N,+6.6V*%
X121250000Y-76450000D03*
%TO.N,Net-(PWR1-K)*%
X124180000Y-75690000D03*
%TO.N,/VBUS*%
X127500000Y-82000000D03*
%TO.N,/USB_D+*%
X120200000Y-69600000D03*
X131351100Y-84223800D03*
%TO.N,/USB_D-*%
X128768400Y-84718400D03*
X119250000Y-69600000D03*
%TO.N,Net-(B1-SDO)*%
X113800000Y-62850000D03*
%TO.N,Net-(B1-CSB)*%
X112250000Y-62400000D03*
%TO.N,/CTR_L_Ail*%
X103364791Y-65769093D03*
X120050000Y-57500000D03*
%TO.N,/CTR_R_Ail*%
X115950000Y-67150000D03*
X119716942Y-59616942D03*
%TO.N,/CTR_Rudder*%
X115600000Y-64900000D03*
X116100000Y-60800000D03*
%TO.N,/CTR_Elevator*%
X115314579Y-60450000D03*
X113000000Y-97350000D03*
X114950000Y-64200000D03*
%TO.N,Net-(STAT1-K)*%
X130750000Y-75900000D03*
%TD*%
%TA.AperFunction,Conductor*%
%TO.N,+3.3V*%
G36*
X103847281Y-50020185D02*
G01*
X103893036Y-50072989D01*
X103902980Y-50142147D01*
X103873955Y-50205703D01*
X103867923Y-50212181D01*
X103749894Y-50330209D01*
X103749890Y-50330213D01*
X103624951Y-50502179D01*
X103528444Y-50691585D01*
X103462753Y-50893760D01*
X103429500Y-51103713D01*
X103429500Y-51316286D01*
X103462753Y-51526239D01*
X103528444Y-51728414D01*
X103624951Y-51917820D01*
X103749890Y-52089786D01*
X103900213Y-52240109D01*
X104072182Y-52365050D01*
X104080946Y-52369516D01*
X104131742Y-52417491D01*
X104148536Y-52485312D01*
X104125998Y-52551447D01*
X104080946Y-52590484D01*
X104072182Y-52594949D01*
X103900213Y-52719890D01*
X103749890Y-52870213D01*
X103624951Y-53042179D01*
X103528444Y-53231585D01*
X103462753Y-53433760D01*
X103429500Y-53643713D01*
X103429500Y-53856286D01*
X103450861Y-53991158D01*
X103462754Y-54066243D01*
X103517343Y-54234251D01*
X103528444Y-54268414D01*
X103624951Y-54457820D01*
X103749890Y-54629786D01*
X103900209Y-54780105D01*
X103905106Y-54783663D01*
X103947771Y-54838994D01*
X103953750Y-54908607D01*
X103921144Y-54970402D01*
X103871229Y-55001685D01*
X103860673Y-55005183D01*
X103860663Y-55005187D01*
X103711342Y-55097289D01*
X103587289Y-55221342D01*
X103495187Y-55370663D01*
X103495186Y-55370666D01*
X103440001Y-55537203D01*
X103440001Y-55537204D01*
X103440000Y-55537204D01*
X103429500Y-55639983D01*
X103429500Y-56940001D01*
X103429501Y-56940018D01*
X103440000Y-57042796D01*
X103440001Y-57042799D01*
X103495185Y-57209331D01*
X103495187Y-57209336D01*
X103504533Y-57224488D01*
X103587288Y-57358656D01*
X103711344Y-57482712D01*
X103860666Y-57574814D01*
X104027203Y-57629999D01*
X104129991Y-57640500D01*
X105430008Y-57640499D01*
X105532797Y-57629999D01*
X105699334Y-57574814D01*
X105848656Y-57482712D01*
X105962319Y-57369049D01*
X106023642Y-57335564D01*
X106093334Y-57340548D01*
X106137681Y-57369049D01*
X106251344Y-57482712D01*
X106400666Y-57574814D01*
X106567203Y-57629999D01*
X106669991Y-57640500D01*
X107970008Y-57640499D01*
X108072797Y-57629999D01*
X108239334Y-57574814D01*
X108388656Y-57482712D01*
X108502319Y-57369049D01*
X108563642Y-57335564D01*
X108633334Y-57340548D01*
X108677681Y-57369049D01*
X108791344Y-57482712D01*
X108940666Y-57574814D01*
X109107203Y-57629999D01*
X109209991Y-57640500D01*
X110510008Y-57640499D01*
X110612797Y-57629999D01*
X110779334Y-57574814D01*
X110928656Y-57482712D01*
X111042319Y-57369049D01*
X111103642Y-57335564D01*
X111173334Y-57340548D01*
X111217681Y-57369049D01*
X111331344Y-57482712D01*
X111480666Y-57574814D01*
X111647203Y-57629999D01*
X111749991Y-57640500D01*
X113050008Y-57640499D01*
X113152797Y-57629999D01*
X113319334Y-57574814D01*
X113468656Y-57482712D01*
X113480215Y-57471153D01*
X115599500Y-57471153D01*
X115599500Y-57628846D01*
X115630261Y-57783489D01*
X115630264Y-57783501D01*
X115690602Y-57929172D01*
X115690609Y-57929185D01*
X115778210Y-58060288D01*
X115778213Y-58060292D01*
X115889707Y-58171786D01*
X115889711Y-58171789D01*
X116020814Y-58259390D01*
X116020827Y-58259397D01*
X116126441Y-58303143D01*
X116166503Y-58319737D01*
X116321153Y-58350499D01*
X116321156Y-58350500D01*
X116321158Y-58350500D01*
X116478844Y-58350500D01*
X116478845Y-58350499D01*
X116633497Y-58319737D01*
X116779179Y-58259394D01*
X116910289Y-58171789D01*
X117021789Y-58060289D01*
X117109394Y-57929179D01*
X117169737Y-57783497D01*
X117200500Y-57628842D01*
X117200500Y-57471158D01*
X117200500Y-57471155D01*
X117194155Y-57439258D01*
X117194155Y-57439257D01*
X117190554Y-57421153D01*
X119249500Y-57421153D01*
X119249500Y-57578846D01*
X119280261Y-57733489D01*
X119280264Y-57733501D01*
X119340602Y-57879172D01*
X119340609Y-57879185D01*
X119428210Y-58010288D01*
X119428213Y-58010292D01*
X119539707Y-58121786D01*
X119539711Y-58121789D01*
X119670814Y-58209390D01*
X119670827Y-58209397D01*
X119816498Y-58269735D01*
X119816503Y-58269737D01*
X119971153Y-58300499D01*
X119971156Y-58300500D01*
X119971158Y-58300500D01*
X120128844Y-58300500D01*
X120128845Y-58300499D01*
X120283497Y-58269737D01*
X120429179Y-58209394D01*
X120560289Y-58121789D01*
X120671789Y-58010289D01*
X120759394Y-57879179D01*
X120819737Y-57733497D01*
X120850500Y-57578842D01*
X120850500Y-57421158D01*
X120850500Y-57421155D01*
X120850499Y-57421153D01*
X120840135Y-57369049D01*
X120819737Y-57266503D01*
X120769998Y-57146421D01*
X120759397Y-57120827D01*
X120759390Y-57120814D01*
X120671789Y-56989711D01*
X120671786Y-56989707D01*
X120560292Y-56878213D01*
X120560288Y-56878210D01*
X120429185Y-56790609D01*
X120429172Y-56790602D01*
X120283501Y-56730264D01*
X120283489Y-56730261D01*
X120128845Y-56699500D01*
X120128842Y-56699500D01*
X119971158Y-56699500D01*
X119971155Y-56699500D01*
X119816510Y-56730261D01*
X119816498Y-56730264D01*
X119670827Y-56790602D01*
X119670814Y-56790609D01*
X119539711Y-56878210D01*
X119539707Y-56878213D01*
X119428213Y-56989707D01*
X119428210Y-56989711D01*
X119340609Y-57120814D01*
X119340602Y-57120827D01*
X119280264Y-57266498D01*
X119280261Y-57266510D01*
X119249500Y-57421153D01*
X117190554Y-57421153D01*
X117169738Y-57316510D01*
X117169737Y-57316503D01*
X117169735Y-57316498D01*
X117109397Y-57170827D01*
X117109390Y-57170814D01*
X117021789Y-57039711D01*
X117021786Y-57039707D01*
X116910292Y-56928213D01*
X116910288Y-56928210D01*
X116779185Y-56840609D01*
X116779172Y-56840602D01*
X116633501Y-56780264D01*
X116633489Y-56780261D01*
X116478845Y-56749500D01*
X116478842Y-56749500D01*
X116321158Y-56749500D01*
X116321155Y-56749500D01*
X116166510Y-56780261D01*
X116166498Y-56780264D01*
X116020827Y-56840602D01*
X116020814Y-56840609D01*
X115889711Y-56928210D01*
X115889707Y-56928213D01*
X115778213Y-57039707D01*
X115778210Y-57039711D01*
X115690609Y-57170814D01*
X115690602Y-57170827D01*
X115630264Y-57316498D01*
X115630261Y-57316510D01*
X115599500Y-57471153D01*
X113480215Y-57471153D01*
X113592712Y-57358656D01*
X113684814Y-57209334D01*
X113739999Y-57042797D01*
X113750500Y-56940009D01*
X113750499Y-55639992D01*
X113739999Y-55537203D01*
X113734681Y-55521153D01*
X116399500Y-55521153D01*
X116399500Y-55678846D01*
X116430261Y-55833489D01*
X116430264Y-55833501D01*
X116490602Y-55979172D01*
X116490609Y-55979185D01*
X116578210Y-56110288D01*
X116578213Y-56110292D01*
X116689707Y-56221786D01*
X116689711Y-56221789D01*
X116820814Y-56309390D01*
X116820827Y-56309397D01*
X116898786Y-56341688D01*
X116966503Y-56369737D01*
X117121153Y-56400499D01*
X117121156Y-56400500D01*
X117121158Y-56400500D01*
X117278844Y-56400500D01*
X117278845Y-56400499D01*
X117433497Y-56369737D01*
X117579179Y-56309394D01*
X117710289Y-56221789D01*
X117821789Y-56110289D01*
X117909394Y-55979179D01*
X117969737Y-55833497D01*
X118000500Y-55678842D01*
X118000500Y-55588780D01*
X120033242Y-55588780D01*
X120033242Y-55746473D01*
X120064003Y-55901116D01*
X120064006Y-55901128D01*
X120124344Y-56046799D01*
X120124351Y-56046812D01*
X120211952Y-56177915D01*
X120211955Y-56177919D01*
X120323449Y-56289413D01*
X120323453Y-56289416D01*
X120454556Y-56377017D01*
X120454569Y-56377024D01*
X120541972Y-56413226D01*
X120600245Y-56437364D01*
X120658848Y-56449020D01*
X120720756Y-56481404D01*
X120755331Y-56542119D01*
X120756270Y-56546436D01*
X120756628Y-56548237D01*
X120756633Y-56548254D01*
X120816971Y-56693925D01*
X120816978Y-56693938D01*
X120904579Y-56825041D01*
X120904582Y-56825045D01*
X121016076Y-56936539D01*
X121016080Y-56936542D01*
X121147183Y-57024143D01*
X121147196Y-57024150D01*
X121292867Y-57084488D01*
X121292872Y-57084490D01*
X121447522Y-57115252D01*
X121447525Y-57115253D01*
X121447527Y-57115253D01*
X121605212Y-57115253D01*
X121676784Y-57101016D01*
X121746375Y-57107243D01*
X121785818Y-57133091D01*
X121785879Y-57133018D01*
X121786565Y-57133581D01*
X121788657Y-57134952D01*
X121790585Y-57136880D01*
X121790589Y-57136883D01*
X121921692Y-57224484D01*
X121921705Y-57224491D01*
X122067376Y-57284829D01*
X122067381Y-57284831D01*
X122222031Y-57315593D01*
X122222034Y-57315594D01*
X122222036Y-57315594D01*
X122379722Y-57315594D01*
X122379723Y-57315593D01*
X122534375Y-57284831D01*
X122680057Y-57224488D01*
X122811167Y-57136883D01*
X122922667Y-57025383D01*
X123010272Y-56894273D01*
X123016926Y-56878210D01*
X123038949Y-56825041D01*
X123070615Y-56748591D01*
X123101378Y-56593936D01*
X123101378Y-56436252D01*
X123101378Y-56436249D01*
X123101377Y-56436247D01*
X123082568Y-56341688D01*
X123070615Y-56281597D01*
X123070613Y-56281592D01*
X123010275Y-56135921D01*
X123010268Y-56135908D01*
X122922667Y-56004805D01*
X122922664Y-56004801D01*
X122811170Y-55893307D01*
X122811166Y-55893304D01*
X122680063Y-55805703D01*
X122680050Y-55805696D01*
X122534379Y-55745358D01*
X122534367Y-55745355D01*
X122379723Y-55714594D01*
X122379720Y-55714594D01*
X122222036Y-55714594D01*
X122150460Y-55728831D01*
X122080869Y-55722602D01*
X122041428Y-55696755D01*
X122041368Y-55696829D01*
X122040679Y-55696264D01*
X122038589Y-55694894D01*
X122036661Y-55692966D01*
X122036657Y-55692963D01*
X121905554Y-55605362D01*
X121905541Y-55605355D01*
X121759870Y-55545017D01*
X121759860Y-55545014D01*
X121701262Y-55533358D01*
X121639351Y-55500972D01*
X121604777Y-55440256D01*
X121603848Y-55435987D01*
X121603479Y-55434130D01*
X121603477Y-55434125D01*
X121543139Y-55288454D01*
X121543132Y-55288441D01*
X121455531Y-55157338D01*
X121455528Y-55157334D01*
X121344034Y-55045840D01*
X121344030Y-55045837D01*
X121212927Y-54958236D01*
X121212914Y-54958229D01*
X121067243Y-54897891D01*
X121067231Y-54897888D01*
X120912587Y-54867127D01*
X120912584Y-54867127D01*
X120754900Y-54867127D01*
X120754897Y-54867127D01*
X120600252Y-54897888D01*
X120600240Y-54897891D01*
X120454569Y-54958229D01*
X120454556Y-54958236D01*
X120323453Y-55045837D01*
X120323449Y-55045840D01*
X120211955Y-55157334D01*
X120211952Y-55157338D01*
X120124351Y-55288441D01*
X120124344Y-55288454D01*
X120064006Y-55434125D01*
X120064003Y-55434137D01*
X120033242Y-55588780D01*
X118000500Y-55588780D01*
X118000500Y-55521158D01*
X118000500Y-55521155D01*
X118000499Y-55521153D01*
X117969738Y-55366510D01*
X117969737Y-55366503D01*
X117961513Y-55346648D01*
X117909397Y-55220827D01*
X117909390Y-55220814D01*
X117821789Y-55089711D01*
X117821786Y-55089707D01*
X117710292Y-54978213D01*
X117710288Y-54978210D01*
X117579185Y-54890609D01*
X117579172Y-54890602D01*
X117433501Y-54830264D01*
X117433489Y-54830261D01*
X117278845Y-54799500D01*
X117278842Y-54799500D01*
X117121158Y-54799500D01*
X117121155Y-54799500D01*
X116966510Y-54830261D01*
X116966498Y-54830264D01*
X116820827Y-54890602D01*
X116820814Y-54890609D01*
X116689711Y-54978210D01*
X116689707Y-54978213D01*
X116578213Y-55089707D01*
X116578210Y-55089711D01*
X116490609Y-55220814D01*
X116490602Y-55220827D01*
X116430264Y-55366498D01*
X116430261Y-55366510D01*
X116399500Y-55521153D01*
X113734681Y-55521153D01*
X113684814Y-55370666D01*
X113592712Y-55221344D01*
X113468656Y-55097288D01*
X113319334Y-55005186D01*
X113319333Y-55005185D01*
X113319325Y-55005182D01*
X113308773Y-55001686D01*
X113251328Y-54961913D01*
X113224506Y-54897397D01*
X113236822Y-54828621D01*
X113274903Y-54783656D01*
X113279788Y-54780107D01*
X113279788Y-54780106D01*
X113279792Y-54780104D01*
X113430104Y-54629792D01*
X113430106Y-54629788D01*
X113430109Y-54629786D01*
X113555048Y-54457820D01*
X113555047Y-54457820D01*
X113555051Y-54457816D01*
X113651557Y-54268412D01*
X113707569Y-54096022D01*
X113747006Y-54038348D01*
X113811365Y-54011150D01*
X113880211Y-54023065D01*
X113931687Y-54070309D01*
X113949500Y-54134342D01*
X113949500Y-54148846D01*
X113980261Y-54303489D01*
X113980264Y-54303501D01*
X114040602Y-54449172D01*
X114040609Y-54449185D01*
X114128210Y-54580288D01*
X114128213Y-54580292D01*
X114239707Y-54691786D01*
X114239711Y-54691789D01*
X114370814Y-54779390D01*
X114370827Y-54779397D01*
X114493633Y-54830264D01*
X114516503Y-54839737D01*
X114654201Y-54867127D01*
X114671153Y-54870499D01*
X114671156Y-54870500D01*
X114671158Y-54870500D01*
X114828844Y-54870500D01*
X114828845Y-54870499D01*
X114983497Y-54839737D01*
X115127458Y-54780107D01*
X115129172Y-54779397D01*
X115129172Y-54779396D01*
X115129179Y-54779394D01*
X115260289Y-54691789D01*
X115371789Y-54580289D01*
X115459394Y-54449179D01*
X115519737Y-54303497D01*
X115550500Y-54148842D01*
X115550500Y-53991158D01*
X115550500Y-53991155D01*
X115550499Y-53991153D01*
X115519738Y-53836510D01*
X115519737Y-53836503D01*
X115510938Y-53815261D01*
X115459397Y-53690827D01*
X115459390Y-53690814D01*
X115371789Y-53559711D01*
X115371786Y-53559707D01*
X115260292Y-53448213D01*
X115260288Y-53448210D01*
X115129185Y-53360609D01*
X115129172Y-53360602D01*
X114983501Y-53300264D01*
X114983489Y-53300261D01*
X114828845Y-53269500D01*
X114828842Y-53269500D01*
X114671158Y-53269500D01*
X114671155Y-53269500D01*
X114516510Y-53300261D01*
X114516498Y-53300264D01*
X114370827Y-53360602D01*
X114370814Y-53360609D01*
X114239711Y-53448210D01*
X114239707Y-53448213D01*
X114128213Y-53559707D01*
X114128210Y-53559711D01*
X114040609Y-53690814D01*
X114040602Y-53690827D01*
X113989061Y-53815261D01*
X113945220Y-53869665D01*
X113878926Y-53891730D01*
X113811227Y-53874451D01*
X113763616Y-53823314D01*
X113750500Y-53767809D01*
X113750500Y-53643713D01*
X113737195Y-53559711D01*
X113717246Y-53433757D01*
X113651557Y-53231588D01*
X113555051Y-53042184D01*
X113555049Y-53042181D01*
X113555048Y-53042179D01*
X113430109Y-52870213D01*
X113279786Y-52719890D01*
X113107820Y-52594951D01*
X113107115Y-52594591D01*
X113099054Y-52590485D01*
X113048259Y-52542512D01*
X113031463Y-52474692D01*
X113053999Y-52408556D01*
X113099054Y-52369515D01*
X113107816Y-52365051D01*
X113186642Y-52307781D01*
X113279786Y-52240109D01*
X113279788Y-52240106D01*
X113279792Y-52240104D01*
X113430104Y-52089792D01*
X113430106Y-52089788D01*
X113430109Y-52089786D01*
X113555048Y-51917820D01*
X113555047Y-51917820D01*
X113555051Y-51917816D01*
X113651557Y-51728412D01*
X113717246Y-51526243D01*
X113750500Y-51316287D01*
X113750500Y-51103713D01*
X113717246Y-50893757D01*
X113651557Y-50691588D01*
X113555051Y-50502184D01*
X113555049Y-50502181D01*
X113555048Y-50502179D01*
X113430109Y-50330213D01*
X113312077Y-50212181D01*
X113278592Y-50150858D01*
X113283576Y-50081166D01*
X113325448Y-50025233D01*
X113390912Y-50000816D01*
X113399758Y-50000500D01*
X131083219Y-50000500D01*
X131150258Y-50020185D01*
X131196013Y-50072989D01*
X131205957Y-50142147D01*
X131176932Y-50205703D01*
X131161884Y-50220353D01*
X131047222Y-50314453D01*
X130814453Y-50547222D01*
X130605611Y-50801696D01*
X130605601Y-50801710D01*
X130422718Y-51075414D01*
X130422707Y-51075432D01*
X130267535Y-51365741D01*
X130267528Y-51365755D01*
X130141552Y-51669887D01*
X130045987Y-51984922D01*
X130045984Y-51984933D01*
X129981768Y-52307781D01*
X129981765Y-52307798D01*
X129949500Y-52635403D01*
X129949500Y-52964596D01*
X129981765Y-53292201D01*
X129981768Y-53292218D01*
X130045984Y-53615066D01*
X130045987Y-53615077D01*
X130141552Y-53930112D01*
X130199624Y-54070309D01*
X130267531Y-54234251D01*
X130304539Y-54303489D01*
X130422707Y-54524567D01*
X130422718Y-54524585D01*
X130605601Y-54798289D01*
X130605611Y-54798303D01*
X130814453Y-55052777D01*
X131047222Y-55285546D01*
X131047227Y-55285550D01*
X131047228Y-55285551D01*
X131301702Y-55494393D01*
X131575421Y-55677286D01*
X131575430Y-55677291D01*
X131575432Y-55677292D01*
X131616829Y-55699419D01*
X131865749Y-55832469D01*
X132169889Y-55958448D01*
X132484913Y-56054010D01*
X132484919Y-56054011D01*
X132484922Y-56054012D01*
X132484933Y-56054015D01*
X132665361Y-56089903D01*
X132807787Y-56118233D01*
X133135400Y-56150500D01*
X133135403Y-56150500D01*
X133464595Y-56150500D01*
X133464600Y-56150500D01*
X133503582Y-56146660D01*
X133572226Y-56159678D01*
X133622937Y-56207743D01*
X133639612Y-56275594D01*
X133616957Y-56341688D01*
X133577735Y-56377450D01*
X133470591Y-56439310D01*
X133282042Y-56583988D01*
X133282035Y-56583994D01*
X133113994Y-56752035D01*
X133113988Y-56752042D01*
X132969310Y-56940590D01*
X132850482Y-57146406D01*
X132850475Y-57146421D01*
X132759531Y-57365981D01*
X132698020Y-57595543D01*
X132667001Y-57831160D01*
X132667000Y-57831176D01*
X132667000Y-58068823D01*
X132667001Y-58068839D01*
X132698020Y-58304456D01*
X132759531Y-58534018D01*
X132850475Y-58753578D01*
X132850482Y-58753593D01*
X132915109Y-58865530D01*
X132931582Y-58933431D01*
X132908729Y-58999457D01*
X132853808Y-59042648D01*
X132784254Y-59049289D01*
X132745723Y-59034918D01*
X132677102Y-58995300D01*
X132677092Y-58995295D01*
X132475699Y-58911876D01*
X132377973Y-58885690D01*
X132265131Y-58855455D01*
X132217101Y-58849131D01*
X132049006Y-58827000D01*
X132048999Y-58827000D01*
X131831001Y-58827000D01*
X131830993Y-58827000D01*
X131638883Y-58852293D01*
X131614869Y-58855455D01*
X131577269Y-58865530D01*
X131404300Y-58911876D01*
X131202907Y-58995295D01*
X131202897Y-58995300D01*
X131134276Y-59034918D01*
X131066375Y-59051389D01*
X131000349Y-59028537D01*
X130957159Y-58973615D01*
X130950518Y-58904061D01*
X130964889Y-58865532D01*
X131029519Y-58753590D01*
X131120468Y-58534020D01*
X131181979Y-58304458D01*
X131213000Y-58068830D01*
X131213000Y-57831170D01*
X131181979Y-57595542D01*
X131120468Y-57365980D01*
X131039633Y-57170827D01*
X131029524Y-57146421D01*
X131029517Y-57146406D01*
X130910689Y-56940590D01*
X130766011Y-56752042D01*
X130766005Y-56752035D01*
X130597964Y-56583994D01*
X130597957Y-56583988D01*
X130409409Y-56439310D01*
X130203593Y-56320482D01*
X130203578Y-56320475D01*
X129984018Y-56229531D01*
X129754456Y-56168020D01*
X129518839Y-56137001D01*
X129518836Y-56137000D01*
X129518830Y-56137000D01*
X129281170Y-56137000D01*
X129281164Y-56137000D01*
X129281160Y-56137001D01*
X129045543Y-56168020D01*
X128815981Y-56229531D01*
X128596421Y-56320475D01*
X128596406Y-56320482D01*
X128390590Y-56439310D01*
X128202042Y-56583988D01*
X128202035Y-56583994D01*
X128033994Y-56752035D01*
X128033988Y-56752042D01*
X127889310Y-56940590D01*
X127770482Y-57146406D01*
X127770475Y-57146421D01*
X127679531Y-57365981D01*
X127618020Y-57595543D01*
X127587001Y-57831160D01*
X127587000Y-57831176D01*
X127587000Y-58068823D01*
X127587001Y-58068839D01*
X127618020Y-58304456D01*
X127679531Y-58534018D01*
X127770475Y-58753578D01*
X127770482Y-58753593D01*
X127889307Y-58959405D01*
X127889311Y-58959410D01*
X127916541Y-58994897D01*
X127941735Y-59060066D01*
X127927697Y-59128510D01*
X127878883Y-59178500D01*
X127842358Y-59192000D01*
X127811152Y-59198207D01*
X127811150Y-59198208D01*
X127811148Y-59198208D01*
X127811147Y-59198209D01*
X127791973Y-59206151D01*
X127748690Y-59224079D01*
X127679220Y-59231546D01*
X127677050Y-59231135D01*
X127621026Y-59219992D01*
X127483040Y-59219992D01*
X127483038Y-59219992D01*
X127347710Y-59246910D01*
X127347700Y-59246913D01*
X127220228Y-59299713D01*
X127220213Y-59299721D01*
X127171473Y-59332290D01*
X127104796Y-59353169D01*
X127102581Y-59353189D01*
X127006835Y-59353189D01*
X126871507Y-59380107D01*
X126871497Y-59380110D01*
X126744025Y-59432910D01*
X126744012Y-59432917D01*
X126629291Y-59509572D01*
X126629285Y-59509576D01*
X126612125Y-59526737D01*
X126550801Y-59560221D01*
X126548669Y-59560665D01*
X126523529Y-59565665D01*
X126458357Y-59578629D01*
X126388766Y-59572401D01*
X126346486Y-59544692D01*
X126291017Y-59489223D01*
X126291013Y-59489220D01*
X126176289Y-59412563D01*
X126176276Y-59412556D01*
X126048804Y-59359756D01*
X126048794Y-59359753D01*
X125913467Y-59332835D01*
X125913465Y-59332835D01*
X125775479Y-59332835D01*
X125775474Y-59332835D01*
X125673827Y-59353054D01*
X125604235Y-59346827D01*
X125602183Y-59345998D01*
X125597118Y-59343900D01*
X125597115Y-59343899D01*
X125461784Y-59316980D01*
X125461782Y-59316980D01*
X125323796Y-59316980D01*
X125323794Y-59316980D01*
X125188466Y-59343898D01*
X125188456Y-59343901D01*
X125060984Y-59396701D01*
X125060971Y-59396708D01*
X124946247Y-59473365D01*
X124946243Y-59473368D01*
X124848677Y-59570934D01*
X124848674Y-59570938D01*
X124768896Y-59690334D01*
X124715283Y-59735139D01*
X124713249Y-59736003D01*
X124649996Y-59762204D01*
X124649984Y-59762210D01*
X124535260Y-59838867D01*
X124535256Y-59838870D01*
X124437690Y-59936436D01*
X124437687Y-59936440D01*
X124361030Y-60051164D01*
X124361023Y-60051177D01*
X124308223Y-60178649D01*
X124308220Y-60178659D01*
X124281302Y-60313986D01*
X124281302Y-60313989D01*
X124281302Y-60451975D01*
X124281302Y-60451977D01*
X124281301Y-60451977D01*
X124308220Y-60587304D01*
X124308223Y-60587314D01*
X124361023Y-60714786D01*
X124361030Y-60714799D01*
X124437687Y-60829523D01*
X124437690Y-60829527D01*
X124478463Y-60870300D01*
X124511948Y-60931623D01*
X124506964Y-61001315D01*
X124505461Y-61005147D01*
X124500753Y-61016593D01*
X124476923Y-61052258D01*
X124424118Y-61179741D01*
X124415187Y-61224635D01*
X124410599Y-61235792D01*
X124395983Y-61254022D01*
X124385150Y-61274731D01*
X124379971Y-61279510D01*
X124279342Y-61380139D01*
X124279336Y-61380147D01*
X124278946Y-61380731D01*
X124278662Y-61380967D01*
X124275473Y-61384854D01*
X124274736Y-61384249D01*
X124225333Y-61425536D01*
X124200037Y-61433456D01*
X124163048Y-61440813D01*
X124163038Y-61440816D01*
X124035566Y-61493616D01*
X124035553Y-61493623D01*
X123920829Y-61570280D01*
X123920825Y-61570283D01*
X123823259Y-61667849D01*
X123823253Y-61667857D01*
X123746597Y-61782581D01*
X123746592Y-61782590D01*
X123721518Y-61843123D01*
X123677677Y-61897526D01*
X123675851Y-61898769D01*
X123605261Y-61945937D01*
X123605252Y-61945946D01*
X123507689Y-62043508D01*
X123507686Y-62043512D01*
X123435442Y-62151633D01*
X123381830Y-62196438D01*
X123379795Y-62197302D01*
X123344503Y-62211920D01*
X123344497Y-62211924D01*
X123229773Y-62288580D01*
X123229765Y-62288586D01*
X123132199Y-62386152D01*
X123132196Y-62386156D01*
X123055539Y-62500880D01*
X123055532Y-62500893D01*
X123002731Y-62628367D01*
X123002729Y-62628375D01*
X122996318Y-62660606D01*
X122963933Y-62722517D01*
X122962383Y-62724094D01*
X122893172Y-62793306D01*
X122893164Y-62793315D01*
X122816511Y-62908036D01*
X122816509Y-62908039D01*
X122807966Y-62928664D01*
X122764123Y-62983066D01*
X122762298Y-62984309D01*
X122684122Y-63036545D01*
X122684116Y-63036550D01*
X122586550Y-63134116D01*
X122586547Y-63134120D01*
X122509890Y-63248844D01*
X122509883Y-63248857D01*
X122457083Y-63376329D01*
X122457080Y-63376339D01*
X122430162Y-63511666D01*
X122430162Y-63511669D01*
X122430162Y-63649655D01*
X122430162Y-63649657D01*
X122430161Y-63649657D01*
X122457080Y-63784984D01*
X122457083Y-63784994D01*
X122509883Y-63912466D01*
X122509890Y-63912479D01*
X122586547Y-64027203D01*
X122586550Y-64027207D01*
X122684116Y-64124773D01*
X122684120Y-64124776D01*
X122798844Y-64201433D01*
X122798848Y-64201435D01*
X122798851Y-64201437D01*
X122887889Y-64238317D01*
X122942289Y-64282156D01*
X122964355Y-64348450D01*
X122947076Y-64416149D01*
X122909330Y-64455976D01*
X122896027Y-64464865D01*
X122896023Y-64464868D01*
X122798457Y-64562434D01*
X122798454Y-64562438D01*
X122721797Y-64677162D01*
X122721790Y-64677175D01*
X122668990Y-64804647D01*
X122668987Y-64804657D01*
X122642069Y-64939984D01*
X122642069Y-64939987D01*
X122642069Y-65077973D01*
X122642069Y-65077975D01*
X122642068Y-65077975D01*
X122668987Y-65213302D01*
X122668990Y-65213312D01*
X122721790Y-65340784D01*
X122721797Y-65340797D01*
X122798454Y-65455521D01*
X122798457Y-65455525D01*
X122896023Y-65553091D01*
X122896027Y-65553094D01*
X123010751Y-65629751D01*
X123010764Y-65629758D01*
X123138236Y-65682558D01*
X123138241Y-65682560D01*
X123138245Y-65682560D01*
X123138246Y-65682561D01*
X123273573Y-65709480D01*
X123273576Y-65709480D01*
X123411564Y-65709480D01*
X123523937Y-65687127D01*
X123546897Y-65682560D01*
X123674380Y-65629755D01*
X123789111Y-65553094D01*
X123886683Y-65455522D01*
X123919076Y-65407041D01*
X123972687Y-65362238D01*
X124042012Y-65353530D01*
X124069628Y-65361371D01*
X124195672Y-65413580D01*
X124195676Y-65413580D01*
X124195677Y-65413581D01*
X124331004Y-65440500D01*
X124331007Y-65440500D01*
X124468995Y-65440500D01*
X124560041Y-65422389D01*
X124604328Y-65413580D01*
X124657533Y-65391541D01*
X124727000Y-65384073D01*
X124789479Y-65415348D01*
X124825132Y-65475436D01*
X124822639Y-65545261D01*
X124808087Y-65574993D01*
X124779227Y-65618184D01*
X124779223Y-65618192D01*
X124747927Y-65693748D01*
X124704086Y-65748151D01*
X124680819Y-65760856D01*
X124588192Y-65799223D01*
X124588182Y-65799228D01*
X124473458Y-65875885D01*
X124473454Y-65875888D01*
X124375888Y-65973454D01*
X124375885Y-65973458D01*
X124299228Y-66088182D01*
X124299223Y-66088192D01*
X124249998Y-66207032D01*
X124206157Y-66261435D01*
X124182890Y-66274140D01*
X124098192Y-66309223D01*
X124098182Y-66309228D01*
X123983458Y-66385885D01*
X123983454Y-66385888D01*
X123885888Y-66483454D01*
X123885885Y-66483458D01*
X123809228Y-66598182D01*
X123809221Y-66598195D01*
X123756421Y-66725667D01*
X123756418Y-66725677D01*
X123729500Y-66861004D01*
X123729500Y-66998997D01*
X123745758Y-67080732D01*
X123739531Y-67150324D01*
X123696668Y-67205501D01*
X123630778Y-67228745D01*
X123562781Y-67212677D01*
X123555251Y-67208026D01*
X123529183Y-67190608D01*
X123529172Y-67190602D01*
X123383501Y-67130264D01*
X123383489Y-67130261D01*
X123228845Y-67099500D01*
X123228842Y-67099500D01*
X123071158Y-67099500D01*
X123071155Y-67099500D01*
X122916510Y-67130261D01*
X122916498Y-67130264D01*
X122770827Y-67190602D01*
X122770814Y-67190609D01*
X122639711Y-67278210D01*
X122639707Y-67278213D01*
X122528213Y-67389707D01*
X122528210Y-67389711D01*
X122440609Y-67520814D01*
X122440602Y-67520827D01*
X122380264Y-67666498D01*
X122380261Y-67666510D01*
X122349500Y-67821153D01*
X122349500Y-67978846D01*
X122380261Y-68133489D01*
X122380264Y-68133501D01*
X122440602Y-68279172D01*
X122440609Y-68279185D01*
X122528210Y-68410288D01*
X122528213Y-68410292D01*
X122639707Y-68521786D01*
X122639711Y-68521789D01*
X122770814Y-68609390D01*
X122770827Y-68609397D01*
X122916498Y-68669735D01*
X122916503Y-68669737D01*
X123066131Y-68699500D01*
X123071153Y-68700499D01*
X123071156Y-68700500D01*
X123071158Y-68700500D01*
X123228844Y-68700500D01*
X123228845Y-68700499D01*
X123383497Y-68669737D01*
X123529179Y-68609394D01*
X123660289Y-68521789D01*
X123771789Y-68410289D01*
X123859394Y-68279179D01*
X123919737Y-68133497D01*
X123950500Y-67978842D01*
X123950500Y-67821158D01*
X123950500Y-67821155D01*
X123923886Y-67687360D01*
X123930113Y-67617768D01*
X123972976Y-67562591D01*
X124038866Y-67539346D01*
X124092956Y-67548607D01*
X124098187Y-67550773D01*
X124098189Y-67550775D01*
X124225672Y-67603580D01*
X124225676Y-67603580D01*
X124225677Y-67603581D01*
X124361004Y-67630500D01*
X124361007Y-67630500D01*
X124498995Y-67630500D01*
X124592983Y-67611804D01*
X124634328Y-67603580D01*
X124761811Y-67550775D01*
X124876542Y-67474114D01*
X124974114Y-67376542D01*
X125050775Y-67261811D01*
X125100002Y-67142964D01*
X125143840Y-67088566D01*
X125167109Y-67075860D01*
X125251804Y-67040778D01*
X125251804Y-67040777D01*
X125251811Y-67040775D01*
X125366542Y-66964114D01*
X125464114Y-66866542D01*
X125487122Y-66832107D01*
X125540734Y-66787302D01*
X125610058Y-66778593D01*
X125659116Y-66797895D01*
X125768182Y-66870771D01*
X125768195Y-66870778D01*
X125889825Y-66921158D01*
X125895672Y-66923580D01*
X125895676Y-66923580D01*
X125895677Y-66923581D01*
X126031004Y-66950500D01*
X126031007Y-66950500D01*
X126045993Y-66950500D01*
X126113032Y-66970185D01*
X126158787Y-67022989D01*
X126164653Y-67038504D01*
X126166419Y-67044327D01*
X126219221Y-67171804D01*
X126219228Y-67171817D01*
X126295885Y-67286541D01*
X126295888Y-67286545D01*
X126393454Y-67384111D01*
X126393458Y-67384114D01*
X126508182Y-67460771D01*
X126508195Y-67460778D01*
X126584678Y-67492458D01*
X126635672Y-67513580D01*
X126661449Y-67518707D01*
X126723359Y-67551089D01*
X126757935Y-67611804D01*
X126758876Y-67616132D01*
X126776418Y-67704322D01*
X126776421Y-67704332D01*
X126829221Y-67831804D01*
X126829228Y-67831817D01*
X126905885Y-67946541D01*
X126905888Y-67946545D01*
X127003454Y-68044111D01*
X127003458Y-68044114D01*
X127118182Y-68120771D01*
X127118189Y-68120775D01*
X127165447Y-68140350D01*
X127219849Y-68184188D01*
X127241915Y-68250482D01*
X127224637Y-68318182D01*
X127221096Y-68323800D01*
X127155627Y-68421781D01*
X127155617Y-68421799D01*
X127102817Y-68549271D01*
X127102814Y-68549281D01*
X127075896Y-68684608D01*
X127075896Y-68822601D01*
X127100237Y-68944974D01*
X127094010Y-69014566D01*
X127051146Y-69069743D01*
X126985256Y-69092987D01*
X126954428Y-69090782D01*
X126890441Y-69078054D01*
X126890439Y-69078054D01*
X126866874Y-69078054D01*
X126799835Y-69058369D01*
X126768580Y-69027671D01*
X126767978Y-69028166D01*
X126764111Y-69023454D01*
X126666545Y-68925888D01*
X126666541Y-68925885D01*
X126551817Y-68849228D01*
X126551804Y-68849221D01*
X126424332Y-68796421D01*
X126424322Y-68796418D01*
X126288995Y-68769500D01*
X126288993Y-68769500D01*
X126151007Y-68769500D01*
X126151005Y-68769500D01*
X126015677Y-68796418D01*
X126015667Y-68796421D01*
X125888195Y-68849221D01*
X125888182Y-68849228D01*
X125773458Y-68925885D01*
X125773454Y-68925888D01*
X125675888Y-69023454D01*
X125675885Y-69023458D01*
X125599228Y-69138182D01*
X125599221Y-69138195D01*
X125546421Y-69265667D01*
X125546418Y-69265677D01*
X125518311Y-69406982D01*
X125517043Y-69406729D01*
X125493374Y-69465322D01*
X125465038Y-69491465D01*
X125443459Y-69505884D01*
X125443454Y-69505888D01*
X125345888Y-69603454D01*
X125345882Y-69603462D01*
X125269226Y-69718186D01*
X125266353Y-69723562D01*
X125264671Y-69722663D01*
X125226382Y-69770171D01*
X125203122Y-69782871D01*
X125096148Y-69827180D01*
X125096139Y-69827185D01*
X124981415Y-69903842D01*
X124981411Y-69903845D01*
X124883845Y-70001411D01*
X124883842Y-70001415D01*
X124807185Y-70116139D01*
X124807178Y-70116152D01*
X124754378Y-70243624D01*
X124754375Y-70243634D01*
X124727457Y-70378961D01*
X124727457Y-70378964D01*
X124727457Y-70516950D01*
X124727457Y-70516952D01*
X124727456Y-70516952D01*
X124754375Y-70652279D01*
X124754378Y-70652289D01*
X124807178Y-70779761D01*
X124807185Y-70779774D01*
X124883842Y-70894498D01*
X124883845Y-70894502D01*
X124981411Y-70992068D01*
X124981415Y-70992071D01*
X125096139Y-71068728D01*
X125096152Y-71068735D01*
X125223624Y-71121535D01*
X125223629Y-71121537D01*
X125223633Y-71121537D01*
X125223634Y-71121538D01*
X125358961Y-71148457D01*
X125358964Y-71148457D01*
X125496952Y-71148457D01*
X125587998Y-71130346D01*
X125632285Y-71121537D01*
X125759768Y-71068732D01*
X125874499Y-70992071D01*
X125972071Y-70894499D01*
X126048732Y-70779768D01*
X126048736Y-70779756D01*
X126051602Y-70774397D01*
X126053290Y-70775299D01*
X126091543Y-70727808D01*
X126114835Y-70715086D01*
X126221804Y-70670778D01*
X126221804Y-70670777D01*
X126221811Y-70670775D01*
X126336542Y-70594114D01*
X126434114Y-70496542D01*
X126440485Y-70487005D01*
X126494093Y-70442200D01*
X126563418Y-70433489D01*
X126591038Y-70441331D01*
X126617118Y-70452134D01*
X126617122Y-70452134D01*
X126617123Y-70452135D01*
X126752450Y-70479054D01*
X126752453Y-70479054D01*
X126890441Y-70479054D01*
X126981487Y-70460943D01*
X127025774Y-70452134D01*
X127124370Y-70411294D01*
X127153250Y-70399332D01*
X127153250Y-70399331D01*
X127153257Y-70399329D01*
X127267988Y-70322668D01*
X127365560Y-70225096D01*
X127442221Y-70110365D01*
X127442253Y-70110289D01*
X127483672Y-70010292D01*
X127495026Y-69982882D01*
X127515654Y-69879179D01*
X127521946Y-69847549D01*
X127521946Y-69709558D01*
X127521945Y-69709556D01*
X127497604Y-69587183D01*
X127503831Y-69517592D01*
X127546694Y-69462414D01*
X127612584Y-69439170D01*
X127643408Y-69441374D01*
X127693312Y-69451301D01*
X127707402Y-69454104D01*
X127707403Y-69454104D01*
X127845391Y-69454104D01*
X127936437Y-69435993D01*
X127980724Y-69427184D01*
X128108207Y-69374379D01*
X128222938Y-69297718D01*
X128320510Y-69200146D01*
X128397171Y-69085415D01*
X128449976Y-68957932D01*
X128463367Y-68890610D01*
X128476896Y-68822599D01*
X128476896Y-68684608D01*
X128449977Y-68549281D01*
X128449976Y-68549280D01*
X128449976Y-68549276D01*
X128444017Y-68534890D01*
X128436547Y-68465426D01*
X128467820Y-68402946D01*
X128470850Y-68399804D01*
X128494114Y-68376542D01*
X128570775Y-68261811D01*
X128623580Y-68134328D01*
X128641525Y-68044114D01*
X128650500Y-67998995D01*
X128650500Y-67861004D01*
X128623581Y-67725677D01*
X128623580Y-67725676D01*
X128623580Y-67725672D01*
X128616839Y-67709397D01*
X128570778Y-67598195D01*
X128570771Y-67598182D01*
X128494114Y-67483458D01*
X128494111Y-67483454D01*
X128396545Y-67385888D01*
X128396541Y-67385885D01*
X128281817Y-67309228D01*
X128281804Y-67309221D01*
X128148701Y-67254089D01*
X128149412Y-67252370D01*
X128098241Y-67218828D01*
X128078123Y-67185929D01*
X128070775Y-67168189D01*
X128053923Y-67142969D01*
X127994114Y-67053458D01*
X127994111Y-67053454D01*
X127896545Y-66955888D01*
X127896541Y-66955885D01*
X127781817Y-66879228D01*
X127781804Y-66879221D01*
X127654332Y-66826421D01*
X127654325Y-66826419D01*
X127628546Y-66821291D01*
X127566636Y-66788904D01*
X127532063Y-66728188D01*
X127531123Y-66723865D01*
X127520356Y-66669737D01*
X127513580Y-66635672D01*
X127487118Y-66571786D01*
X127460778Y-66508195D01*
X127460771Y-66508182D01*
X127384114Y-66393458D01*
X127384111Y-66393454D01*
X127286545Y-66295888D01*
X127286541Y-66295885D01*
X127171817Y-66219228D01*
X127171804Y-66219221D01*
X127044332Y-66166421D01*
X127044322Y-66166418D01*
X126908995Y-66139500D01*
X126908993Y-66139500D01*
X126894007Y-66139500D01*
X126826968Y-66119815D01*
X126781213Y-66067011D01*
X126775347Y-66051496D01*
X126773580Y-66045672D01*
X126720778Y-65918195D01*
X126720771Y-65918182D01*
X126644114Y-65803458D01*
X126644111Y-65803454D01*
X126546545Y-65705888D01*
X126546541Y-65705885D01*
X126431817Y-65629228D01*
X126431804Y-65629221D01*
X126304332Y-65576421D01*
X126304322Y-65576418D01*
X126168995Y-65549500D01*
X126168993Y-65549500D01*
X126040548Y-65549500D01*
X125973509Y-65529815D01*
X125948570Y-65507616D01*
X125948422Y-65507765D01*
X125945861Y-65505204D01*
X125944696Y-65504167D01*
X125944110Y-65503453D01*
X125846545Y-65405888D01*
X125846541Y-65405885D01*
X125731817Y-65329228D01*
X125731804Y-65329221D01*
X125707238Y-65319046D01*
X125652834Y-65275205D01*
X125630769Y-65208911D01*
X125648048Y-65141212D01*
X125685800Y-65101383D01*
X125748186Y-65059697D01*
X125756542Y-65054114D01*
X125854114Y-64956542D01*
X125930775Y-64841811D01*
X125983580Y-64714328D01*
X125993084Y-64666550D01*
X126010500Y-64578995D01*
X126010500Y-64441004D01*
X126010499Y-64441002D01*
X125991539Y-64345681D01*
X125997766Y-64276090D01*
X126025476Y-64233808D01*
X126029666Y-64229617D01*
X126029669Y-64229616D01*
X126127241Y-64132044D01*
X126203902Y-64017313D01*
X126256707Y-63889830D01*
X126274793Y-63798907D01*
X126283627Y-63754497D01*
X126283627Y-63616506D01*
X126256708Y-63481179D01*
X126256707Y-63481178D01*
X126256707Y-63481174D01*
X126216646Y-63384458D01*
X126203904Y-63353695D01*
X126203903Y-63353693D01*
X126203902Y-63353691D01*
X126192345Y-63336395D01*
X126171469Y-63269720D01*
X126189954Y-63202340D01*
X126202423Y-63186583D01*
X126202112Y-63186328D01*
X126205978Y-63181616D01*
X126205978Y-63181615D01*
X126205981Y-63181613D01*
X126228340Y-63148148D01*
X126281949Y-63103344D01*
X126295453Y-63098376D01*
X126298752Y-63097374D01*
X126298771Y-63097371D01*
X126426254Y-63044566D01*
X126540985Y-62967905D01*
X126638557Y-62870333D01*
X126715218Y-62755602D01*
X126727857Y-62725087D01*
X126771696Y-62670684D01*
X126789811Y-62660793D01*
X126789797Y-62660766D01*
X126792933Y-62659089D01*
X126794977Y-62657973D01*
X126795172Y-62657893D01*
X126909903Y-62581232D01*
X126926403Y-62564731D01*
X126987723Y-62531244D01*
X126989741Y-62530823D01*
X127079051Y-62513059D01*
X127206534Y-62460254D01*
X127321265Y-62383593D01*
X127418837Y-62286021D01*
X127495498Y-62171290D01*
X127548303Y-62043807D01*
X127575223Y-61908472D01*
X127575223Y-61908471D01*
X127575297Y-61908099D01*
X127607681Y-61846188D01*
X127668397Y-61811614D01*
X127672673Y-61810683D01*
X127733972Y-61798490D01*
X127783968Y-61777780D01*
X127853436Y-61770312D01*
X127915916Y-61801587D01*
X127951568Y-61861676D01*
X127949075Y-61931501D01*
X127929796Y-61967828D01*
X127889310Y-62020590D01*
X127770482Y-62226406D01*
X127770475Y-62226421D01*
X127679531Y-62445981D01*
X127618020Y-62675543D01*
X127587001Y-62911160D01*
X127587000Y-62911176D01*
X127587000Y-63148823D01*
X127587001Y-63148839D01*
X127618020Y-63384456D01*
X127679531Y-63614018D01*
X127770475Y-63833578D01*
X127770482Y-63833593D01*
X127889310Y-64039409D01*
X128033988Y-64227957D01*
X128033994Y-64227964D01*
X128202035Y-64396005D01*
X128202042Y-64396011D01*
X128390590Y-64540689D01*
X128596406Y-64659517D01*
X128596421Y-64659524D01*
X128639035Y-64677175D01*
X128815980Y-64750468D01*
X129045542Y-64811979D01*
X129281170Y-64843000D01*
X129281177Y-64843000D01*
X129518823Y-64843000D01*
X129518830Y-64843000D01*
X129754458Y-64811979D01*
X129984020Y-64750468D01*
X130203590Y-64659519D01*
X130409410Y-64540689D01*
X130597959Y-64396010D01*
X130766010Y-64227959D01*
X130910689Y-64039410D01*
X131029519Y-63833590D01*
X131120468Y-63614020D01*
X131181979Y-63384458D01*
X131213000Y-63148830D01*
X131213000Y-62911170D01*
X131181979Y-62675542D01*
X131120468Y-62445980D01*
X131066840Y-62316510D01*
X131029524Y-62226421D01*
X131029517Y-62226406D01*
X130964890Y-62114469D01*
X130948417Y-62046569D01*
X130971270Y-61980542D01*
X131026191Y-61937351D01*
X131095744Y-61930710D01*
X131134277Y-61945082D01*
X131202892Y-61984697D01*
X131202907Y-61984704D01*
X131307057Y-62027844D01*
X131404299Y-62068123D01*
X131614869Y-62124545D01*
X131831001Y-62153000D01*
X131831008Y-62153000D01*
X132048992Y-62153000D01*
X132048999Y-62153000D01*
X132265131Y-62124545D01*
X132475701Y-62068123D01*
X132677104Y-61984699D01*
X132745724Y-61945081D01*
X132813622Y-61928609D01*
X132879649Y-61951461D01*
X132922839Y-62006382D01*
X132929481Y-62075936D01*
X132915110Y-62114468D01*
X132850480Y-62226411D01*
X132850475Y-62226421D01*
X132759531Y-62445981D01*
X132698020Y-62675543D01*
X132667001Y-62911160D01*
X132667000Y-62911176D01*
X132667000Y-63148823D01*
X132667001Y-63148839D01*
X132698020Y-63384456D01*
X132759531Y-63614018D01*
X132850475Y-63833578D01*
X132850482Y-63833593D01*
X132969310Y-64039409D01*
X133113988Y-64227957D01*
X133113994Y-64227964D01*
X133282035Y-64396005D01*
X133282042Y-64396011D01*
X133470590Y-64540689D01*
X133676406Y-64659517D01*
X133676421Y-64659524D01*
X133719035Y-64677175D01*
X133895980Y-64750468D01*
X134125542Y-64811979D01*
X134361170Y-64843000D01*
X134361177Y-64843000D01*
X134598823Y-64843000D01*
X134598830Y-64843000D01*
X134834458Y-64811979D01*
X135064020Y-64750468D01*
X135283590Y-64659519D01*
X135489410Y-64540689D01*
X135677959Y-64396010D01*
X135728288Y-64345681D01*
X135787819Y-64286151D01*
X135849142Y-64252666D01*
X135918834Y-64257650D01*
X135974767Y-64299522D01*
X135999184Y-64364986D01*
X135999500Y-64373832D01*
X135999500Y-79273314D01*
X135979815Y-79340353D01*
X135927011Y-79386108D01*
X135857853Y-79396052D01*
X135806610Y-79376416D01*
X135682325Y-79293372D01*
X135682307Y-79293362D01*
X135500239Y-79217948D01*
X135500229Y-79217945D01*
X135306943Y-79179498D01*
X135306941Y-79179498D01*
X134309859Y-79179498D01*
X134309857Y-79179498D01*
X134116570Y-79217945D01*
X134116560Y-79217948D01*
X133934492Y-79293362D01*
X133934479Y-79293369D01*
X133770618Y-79402858D01*
X133770614Y-79402861D01*
X133631263Y-79542212D01*
X133631260Y-79542216D01*
X133521771Y-79706077D01*
X133521764Y-79706090D01*
X133446350Y-79888158D01*
X133446347Y-79888168D01*
X133407900Y-80081454D01*
X133407900Y-80081457D01*
X133407900Y-80278539D01*
X133407900Y-80278541D01*
X133407899Y-80278541D01*
X133446347Y-80471827D01*
X133446350Y-80471837D01*
X133521764Y-80653905D01*
X133521771Y-80653918D01*
X133631260Y-80817779D01*
X133631263Y-80817783D01*
X133770614Y-80957134D01*
X133770618Y-80957137D01*
X133934479Y-81066626D01*
X133934492Y-81066633D01*
X134116560Y-81142047D01*
X134116565Y-81142049D01*
X134116569Y-81142049D01*
X134116570Y-81142050D01*
X134309856Y-81180498D01*
X134309859Y-81180498D01*
X135306943Y-81180498D01*
X135436982Y-81154630D01*
X135500235Y-81142049D01*
X135682314Y-81066630D01*
X135731802Y-81033563D01*
X135806609Y-80983579D01*
X135873286Y-80962701D01*
X135940667Y-80981185D01*
X135987357Y-81033164D01*
X135999500Y-81086681D01*
X135999500Y-87913318D01*
X135979815Y-87980357D01*
X135927011Y-88026112D01*
X135857853Y-88036056D01*
X135806610Y-88016420D01*
X135682325Y-87933376D01*
X135682307Y-87933366D01*
X135500239Y-87857952D01*
X135500229Y-87857949D01*
X135306943Y-87819502D01*
X135306941Y-87819502D01*
X134309859Y-87819502D01*
X134309857Y-87819502D01*
X134116570Y-87857949D01*
X134116560Y-87857952D01*
X133934492Y-87933366D01*
X133934479Y-87933373D01*
X133770618Y-88042862D01*
X133770614Y-88042865D01*
X133631263Y-88182216D01*
X133631260Y-88182220D01*
X133521771Y-88346081D01*
X133521764Y-88346094D01*
X133446350Y-88528162D01*
X133446347Y-88528172D01*
X133407900Y-88721458D01*
X133407900Y-88721461D01*
X133407900Y-88918543D01*
X133407900Y-88918545D01*
X133407899Y-88918545D01*
X133446347Y-89111831D01*
X133446350Y-89111841D01*
X133521764Y-89293909D01*
X133521771Y-89293922D01*
X133631260Y-89457783D01*
X133631263Y-89457787D01*
X133770614Y-89597138D01*
X133770618Y-89597141D01*
X133934479Y-89706630D01*
X133934492Y-89706637D01*
X134116560Y-89782051D01*
X134116565Y-89782053D01*
X134116569Y-89782053D01*
X134116570Y-89782054D01*
X134309856Y-89820502D01*
X134309859Y-89820502D01*
X135306943Y-89820502D01*
X135436982Y-89794634D01*
X135500235Y-89782053D01*
X135682314Y-89706634D01*
X135682320Y-89706630D01*
X135806609Y-89623583D01*
X135873286Y-89602705D01*
X135940667Y-89621189D01*
X135987357Y-89673168D01*
X135999500Y-89726685D01*
X135999500Y-134961825D01*
X135979815Y-135028864D01*
X135927011Y-135074619D01*
X135857853Y-135084563D01*
X135794297Y-135055538D01*
X135787839Y-135049244D01*
X135787704Y-135049380D01*
X135552777Y-134814453D01*
X135298303Y-134605611D01*
X135298302Y-134605610D01*
X135298298Y-134605607D01*
X135024579Y-134422714D01*
X135024574Y-134422711D01*
X135024567Y-134422707D01*
X134734258Y-134267535D01*
X134734251Y-134267531D01*
X134579645Y-134203491D01*
X134430112Y-134141552D01*
X134115077Y-134045987D01*
X134115066Y-134045984D01*
X133792218Y-133981768D01*
X133792213Y-133981767D01*
X133792211Y-133981766D01*
X133792201Y-133981765D01*
X133551522Y-133958061D01*
X133464600Y-133949500D01*
X133135400Y-133949500D01*
X133055540Y-133957365D01*
X132807798Y-133981765D01*
X132807781Y-133981768D01*
X132484933Y-134045984D01*
X132484922Y-134045987D01*
X132169887Y-134141552D01*
X131865755Y-134267528D01*
X131865741Y-134267535D01*
X131575432Y-134422707D01*
X131575414Y-134422718D01*
X131301710Y-134605601D01*
X131301696Y-134605611D01*
X131047222Y-134814453D01*
X130814453Y-135047222D01*
X130605611Y-135301696D01*
X130605601Y-135301710D01*
X130422718Y-135575414D01*
X130422707Y-135575432D01*
X130267535Y-135865741D01*
X130267528Y-135865755D01*
X130141552Y-136169887D01*
X130045987Y-136484922D01*
X130045984Y-136484933D01*
X129981768Y-136807781D01*
X129981765Y-136807798D01*
X129977596Y-136850133D01*
X129949500Y-137135400D01*
X129949500Y-137464600D01*
X129958120Y-137552116D01*
X129981765Y-137792201D01*
X129981768Y-137792218D01*
X130045984Y-138115066D01*
X130045987Y-138115077D01*
X130141552Y-138430112D01*
X130267528Y-138734244D01*
X130267535Y-138734258D01*
X130422707Y-139024567D01*
X130422718Y-139024585D01*
X130605601Y-139298289D01*
X130605611Y-139298303D01*
X130814453Y-139552777D01*
X131049380Y-139787704D01*
X131048263Y-139788820D01*
X131081538Y-139843173D01*
X131080011Y-139913026D01*
X131040962Y-139970965D01*
X130976787Y-139998594D01*
X130961826Y-139999500D01*
X124172150Y-139999500D01*
X124105111Y-139979815D01*
X124059356Y-139927011D01*
X124049412Y-139857853D01*
X124078437Y-139794297D01*
X124096664Y-139777124D01*
X124148446Y-139737389D01*
X124189302Y-139706040D01*
X124356139Y-139539203D01*
X124499772Y-139352016D01*
X124617744Y-139147684D01*
X124708036Y-138929700D01*
X124769102Y-138701797D01*
X124799899Y-138467872D01*
X124799899Y-138231928D01*
X124769102Y-137998003D01*
X124708036Y-137770100D01*
X124617744Y-137552116D01*
X124499772Y-137347784D01*
X124356139Y-137160597D01*
X124356134Y-137160591D01*
X124189307Y-136993764D01*
X124189300Y-136993758D01*
X124002123Y-136850133D01*
X124002121Y-136850132D01*
X124002115Y-136850127D01*
X123797783Y-136732155D01*
X123797779Y-136732153D01*
X123579808Y-136641866D01*
X123579801Y-136641864D01*
X123579799Y-136641863D01*
X123351896Y-136580797D01*
X123312802Y-136575650D01*
X123117978Y-136550000D01*
X123117971Y-136550000D01*
X122882027Y-136550000D01*
X122882019Y-136550000D01*
X122659362Y-136579314D01*
X122648102Y-136580797D01*
X122420199Y-136641863D01*
X122420189Y-136641866D01*
X122202218Y-136732153D01*
X122202214Y-136732155D01*
X121997883Y-136850127D01*
X121997874Y-136850133D01*
X121810697Y-136993758D01*
X121810690Y-136993764D01*
X121643863Y-137160591D01*
X121643857Y-137160598D01*
X121500232Y-137347775D01*
X121500226Y-137347784D01*
X121382254Y-137552115D01*
X121382252Y-137552119D01*
X121291965Y-137770090D01*
X121291962Y-137770100D01*
X121230897Y-137998000D01*
X121230895Y-137998011D01*
X121200099Y-138231920D01*
X121200099Y-138467879D01*
X121225749Y-138662703D01*
X121230896Y-138701797D01*
X121239592Y-138734251D01*
X121291962Y-138929699D01*
X121291965Y-138929709D01*
X121382252Y-139147680D01*
X121382254Y-139147684D01*
X121500226Y-139352016D01*
X121500231Y-139352022D01*
X121500232Y-139352024D01*
X121643857Y-139539201D01*
X121643863Y-139539208D01*
X121810690Y-139706035D01*
X121810697Y-139706041D01*
X121903334Y-139777124D01*
X121944537Y-139833552D01*
X121948692Y-139903298D01*
X121914480Y-139964218D01*
X121852763Y-139996971D01*
X121827848Y-139999500D01*
X111172151Y-139999500D01*
X111105112Y-139979815D01*
X111059357Y-139927011D01*
X111049413Y-139857853D01*
X111078438Y-139794297D01*
X111096665Y-139777124D01*
X111148447Y-139737389D01*
X111189303Y-139706040D01*
X111356140Y-139539203D01*
X111499773Y-139352016D01*
X111617745Y-139147684D01*
X111708037Y-138929700D01*
X111769103Y-138701797D01*
X111799900Y-138467872D01*
X111799900Y-138231928D01*
X111769103Y-137998003D01*
X111708037Y-137770100D01*
X111617745Y-137552116D01*
X111499773Y-137347784D01*
X111356140Y-137160597D01*
X111356135Y-137160591D01*
X111189308Y-136993764D01*
X111189301Y-136993758D01*
X111002124Y-136850133D01*
X111002122Y-136850132D01*
X111002116Y-136850127D01*
X110797784Y-136732155D01*
X110797780Y-136732153D01*
X110579809Y-136641866D01*
X110579802Y-136641864D01*
X110579800Y-136641863D01*
X110351897Y-136580797D01*
X110312803Y-136575650D01*
X110117979Y-136550000D01*
X110117972Y-136550000D01*
X109882028Y-136550000D01*
X109882020Y-136550000D01*
X109659363Y-136579314D01*
X109648103Y-136580797D01*
X109420200Y-136641863D01*
X109420190Y-136641866D01*
X109202219Y-136732153D01*
X109202215Y-136732155D01*
X108997884Y-136850127D01*
X108997875Y-136850133D01*
X108810698Y-136993758D01*
X108810691Y-136993764D01*
X108643864Y-137160591D01*
X108643858Y-137160598D01*
X108500233Y-137347775D01*
X108500227Y-137347784D01*
X108382255Y-137552115D01*
X108382253Y-137552119D01*
X108291966Y-137770090D01*
X108291963Y-137770100D01*
X108230898Y-137998000D01*
X108230896Y-137998011D01*
X108200100Y-138231920D01*
X108200100Y-138467879D01*
X108225750Y-138662703D01*
X108230897Y-138701797D01*
X108239593Y-138734251D01*
X108291963Y-138929699D01*
X108291966Y-138929709D01*
X108382253Y-139147680D01*
X108382255Y-139147684D01*
X108500227Y-139352016D01*
X108500232Y-139352022D01*
X108500233Y-139352024D01*
X108643858Y-139539201D01*
X108643864Y-139539208D01*
X108810691Y-139706035D01*
X108810698Y-139706041D01*
X108903335Y-139777124D01*
X108944538Y-139833552D01*
X108948693Y-139903298D01*
X108914481Y-139964218D01*
X108852764Y-139996971D01*
X108827849Y-139999500D01*
X102038174Y-139999500D01*
X101971135Y-139979815D01*
X101925380Y-139927011D01*
X101915436Y-139857853D01*
X101944461Y-139794297D01*
X101950767Y-139787851D01*
X101950620Y-139787704D01*
X102185546Y-139552777D01*
X102185551Y-139552772D01*
X102394393Y-139298298D01*
X102577286Y-139024579D01*
X102732469Y-138734251D01*
X102858448Y-138430111D01*
X102954010Y-138115087D01*
X102954012Y-138115077D01*
X102954015Y-138115066D01*
X102982916Y-137969760D01*
X103018233Y-137792213D01*
X103050500Y-137464600D01*
X103050500Y-137135400D01*
X103018233Y-136807787D01*
X102973083Y-136580798D01*
X102954015Y-136484933D01*
X102954012Y-136484922D01*
X102954011Y-136484919D01*
X102954010Y-136484913D01*
X102858448Y-136169889D01*
X102732469Y-135865749D01*
X102577286Y-135575421D01*
X102394393Y-135301702D01*
X102185551Y-135047228D01*
X102185550Y-135047227D01*
X102185546Y-135047222D01*
X101952777Y-134814453D01*
X101906693Y-134776633D01*
X101795833Y-134685652D01*
X104215000Y-134685652D01*
X104215000Y-134934350D01*
X104229970Y-135028864D01*
X104253905Y-135179986D01*
X104330754Y-135416508D01*
X104330755Y-135416511D01*
X104443665Y-135638105D01*
X104589837Y-135839295D01*
X104589841Y-135839300D01*
X104765700Y-136015159D01*
X104765705Y-136015163D01*
X104941194Y-136142662D01*
X104966899Y-136161338D01*
X105111754Y-136235145D01*
X105188489Y-136274245D01*
X105188492Y-136274246D01*
X105306753Y-136312670D01*
X105425016Y-136351096D01*
X105670651Y-136390001D01*
X105670652Y-136390001D01*
X105919348Y-136390001D01*
X105919349Y-136390001D01*
X106164984Y-136351096D01*
X106401510Y-136274245D01*
X106623101Y-136161338D01*
X106824301Y-136015158D01*
X107000157Y-135839302D01*
X107146337Y-135638102D01*
X107259244Y-135416511D01*
X107336095Y-135179985D01*
X107375000Y-134934350D01*
X107375000Y-134685652D01*
X125625000Y-134685652D01*
X125625000Y-134934350D01*
X125639970Y-135028864D01*
X125663905Y-135179986D01*
X125740754Y-135416508D01*
X125740755Y-135416511D01*
X125853665Y-135638105D01*
X125999837Y-135839295D01*
X125999841Y-135839300D01*
X126175700Y-136015159D01*
X126175705Y-136015163D01*
X126351194Y-136142662D01*
X126376899Y-136161338D01*
X126521754Y-136235145D01*
X126598489Y-136274245D01*
X126598492Y-136274246D01*
X126716753Y-136312670D01*
X126835016Y-136351096D01*
X127080651Y-136390001D01*
X127080652Y-136390001D01*
X127329348Y-136390001D01*
X127329349Y-136390001D01*
X127574984Y-136351096D01*
X127811510Y-136274245D01*
X128033101Y-136161338D01*
X128234301Y-136015158D01*
X128410157Y-135839302D01*
X128556337Y-135638102D01*
X128669244Y-135416511D01*
X128746095Y-135179985D01*
X128785000Y-134934350D01*
X128785000Y-134685652D01*
X128746095Y-134440017D01*
X128669244Y-134203491D01*
X128669244Y-134203490D01*
X128630144Y-134126755D01*
X128556337Y-133981900D01*
X128532797Y-133949500D01*
X128410162Y-133780706D01*
X128410158Y-133780701D01*
X128234299Y-133604842D01*
X128234294Y-133604838D01*
X128033104Y-133458666D01*
X128033103Y-133458665D01*
X128033101Y-133458664D01*
X127962109Y-133422491D01*
X127811510Y-133345756D01*
X127811507Y-133345755D01*
X127574985Y-133268906D01*
X127452166Y-133249453D01*
X127329349Y-133230001D01*
X127080651Y-133230001D01*
X126998772Y-133242969D01*
X126835014Y-133268906D01*
X126598492Y-133345755D01*
X126598489Y-133345756D01*
X126376895Y-133458666D01*
X126175705Y-133604838D01*
X126175700Y-133604842D01*
X125999841Y-133780701D01*
X125999837Y-133780706D01*
X125853665Y-133981896D01*
X125740755Y-134203490D01*
X125740754Y-134203493D01*
X125663905Y-134440015D01*
X125663905Y-134440017D01*
X125625000Y-134685652D01*
X107375000Y-134685652D01*
X107336095Y-134440017D01*
X107259244Y-134203491D01*
X107259244Y-134203490D01*
X107220144Y-134126755D01*
X107146337Y-133981900D01*
X107122797Y-133949500D01*
X107000162Y-133780706D01*
X107000158Y-133780701D01*
X106824299Y-133604842D01*
X106824294Y-133604838D01*
X106623104Y-133458666D01*
X106623103Y-133458665D01*
X106623101Y-133458664D01*
X106552109Y-133422491D01*
X106401510Y-133345756D01*
X106401507Y-133345755D01*
X106164985Y-133268906D01*
X106042166Y-133249453D01*
X105919349Y-133230001D01*
X105670651Y-133230001D01*
X105588772Y-133242969D01*
X105425014Y-133268906D01*
X105188492Y-133345755D01*
X105188489Y-133345756D01*
X104966895Y-133458666D01*
X104765705Y-133604838D01*
X104765700Y-133604842D01*
X104589841Y-133780701D01*
X104589837Y-133780706D01*
X104443665Y-133981896D01*
X104330755Y-134203490D01*
X104330754Y-134203493D01*
X104253905Y-134440015D01*
X104253905Y-134440017D01*
X104215000Y-134685652D01*
X101795833Y-134685652D01*
X101698303Y-134605611D01*
X101698302Y-134605610D01*
X101698298Y-134605607D01*
X101424579Y-134422714D01*
X101424574Y-134422711D01*
X101424567Y-134422707D01*
X101134258Y-134267535D01*
X101134251Y-134267531D01*
X100979645Y-134203491D01*
X100830112Y-134141552D01*
X100515077Y-134045987D01*
X100515066Y-134045984D01*
X100192218Y-133981768D01*
X100192213Y-133981767D01*
X100192211Y-133981766D01*
X100192201Y-133981765D01*
X99951522Y-133958061D01*
X99864600Y-133949500D01*
X99535400Y-133949500D01*
X99455540Y-133957365D01*
X99207798Y-133981765D01*
X99207781Y-133981768D01*
X98884933Y-134045984D01*
X98884922Y-134045987D01*
X98569887Y-134141552D01*
X98265755Y-134267528D01*
X98265741Y-134267535D01*
X97975432Y-134422707D01*
X97975414Y-134422718D01*
X97701710Y-134605601D01*
X97701696Y-134605611D01*
X97447222Y-134814453D01*
X97212296Y-135049380D01*
X97211261Y-135048345D01*
X97156355Y-135081663D01*
X97086509Y-135079862D01*
X97028724Y-135040584D01*
X97001348Y-134976301D01*
X97000500Y-134961825D01*
X97000500Y-126433641D01*
X108521600Y-126433641D01*
X108521600Y-126666358D01*
X108558002Y-126896193D01*
X108629914Y-127117513D01*
X108735561Y-127324854D01*
X108872333Y-127513106D01*
X108872337Y-127513111D01*
X109036888Y-127677662D01*
X109036893Y-127677666D01*
X109201097Y-127796966D01*
X109225149Y-127814441D01*
X109357266Y-127881758D01*
X109432486Y-127920085D01*
X109432488Y-127920085D01*
X109432491Y-127920087D01*
X109551122Y-127958632D01*
X109653806Y-127991997D01*
X109883642Y-128028400D01*
X109883647Y-128028400D01*
X110116358Y-128028400D01*
X110346193Y-127991997D01*
X110567509Y-127920087D01*
X110774851Y-127814441D01*
X110963113Y-127677661D01*
X111127661Y-127513113D01*
X111264441Y-127324851D01*
X111370087Y-127117509D01*
X111441997Y-126896193D01*
X111478400Y-126666358D01*
X111478400Y-126433641D01*
X115021600Y-126433641D01*
X115021600Y-126666358D01*
X115058002Y-126896193D01*
X115129914Y-127117513D01*
X115235561Y-127324854D01*
X115372333Y-127513106D01*
X115372337Y-127513111D01*
X115536888Y-127677662D01*
X115536893Y-127677666D01*
X115701097Y-127796966D01*
X115725149Y-127814441D01*
X115857266Y-127881758D01*
X115932486Y-127920085D01*
X115932488Y-127920085D01*
X115932491Y-127920087D01*
X116051122Y-127958632D01*
X116153806Y-127991997D01*
X116383642Y-128028400D01*
X116383647Y-128028400D01*
X116616358Y-128028400D01*
X116846193Y-127991997D01*
X117067509Y-127920087D01*
X117274851Y-127814441D01*
X117463113Y-127677661D01*
X117627661Y-127513113D01*
X117764441Y-127324851D01*
X117870087Y-127117509D01*
X117941997Y-126896193D01*
X117978400Y-126666358D01*
X117978400Y-126433641D01*
X121521599Y-126433641D01*
X121521599Y-126666358D01*
X121558001Y-126896193D01*
X121629913Y-127117513D01*
X121735560Y-127324854D01*
X121872332Y-127513106D01*
X121872336Y-127513111D01*
X122036887Y-127677662D01*
X122036892Y-127677666D01*
X122201096Y-127796966D01*
X122225148Y-127814441D01*
X122357265Y-127881758D01*
X122432485Y-127920085D01*
X122432487Y-127920085D01*
X122432490Y-127920087D01*
X122551121Y-127958632D01*
X122653805Y-127991997D01*
X122883641Y-128028400D01*
X122883646Y-128028400D01*
X123116357Y-128028400D01*
X123346192Y-127991997D01*
X123567508Y-127920087D01*
X123774850Y-127814441D01*
X123963112Y-127677661D01*
X124127660Y-127513113D01*
X124264440Y-127324851D01*
X124370086Y-127117509D01*
X124441996Y-126896193D01*
X124478399Y-126666358D01*
X124478399Y-126433641D01*
X124441996Y-126203806D01*
X124370084Y-125982486D01*
X124331757Y-125907266D01*
X124264440Y-125775149D01*
X124246965Y-125751097D01*
X124127665Y-125586893D01*
X124127661Y-125586888D01*
X123963110Y-125422337D01*
X123963105Y-125422333D01*
X123774853Y-125285561D01*
X123774852Y-125285560D01*
X123774850Y-125285559D01*
X123710100Y-125252567D01*
X123567512Y-125179914D01*
X123346192Y-125108002D01*
X123116357Y-125071600D01*
X123116352Y-125071600D01*
X122883646Y-125071600D01*
X122883641Y-125071600D01*
X122653805Y-125108002D01*
X122432485Y-125179914D01*
X122225144Y-125285561D01*
X122036892Y-125422333D01*
X122036887Y-125422337D01*
X121872336Y-125586888D01*
X121872332Y-125586893D01*
X121735560Y-125775145D01*
X121629913Y-125982486D01*
X121558001Y-126203806D01*
X121521599Y-126433641D01*
X117978400Y-126433641D01*
X117941997Y-126203806D01*
X117870085Y-125982486D01*
X117831758Y-125907266D01*
X117764441Y-125775149D01*
X117746966Y-125751097D01*
X117627666Y-125586893D01*
X117627662Y-125586888D01*
X117463111Y-125422337D01*
X117463106Y-125422333D01*
X117274854Y-125285561D01*
X117274853Y-125285560D01*
X117274851Y-125285559D01*
X117210101Y-125252567D01*
X117067513Y-125179914D01*
X116846193Y-125108002D01*
X116616358Y-125071600D01*
X116616353Y-125071600D01*
X116383647Y-125071600D01*
X116383642Y-125071600D01*
X116153806Y-125108002D01*
X115932486Y-125179914D01*
X115725145Y-125285561D01*
X115536893Y-125422333D01*
X115536888Y-125422337D01*
X115372337Y-125586888D01*
X115372333Y-125586893D01*
X115235561Y-125775145D01*
X115129914Y-125982486D01*
X115058002Y-126203806D01*
X115021600Y-126433641D01*
X111478400Y-126433641D01*
X111441997Y-126203806D01*
X111370085Y-125982486D01*
X111331758Y-125907266D01*
X111264441Y-125775149D01*
X111246966Y-125751097D01*
X111127666Y-125586893D01*
X111127662Y-125586888D01*
X110963111Y-125422337D01*
X110963106Y-125422333D01*
X110774854Y-125285561D01*
X110774853Y-125285560D01*
X110774851Y-125285559D01*
X110710101Y-125252567D01*
X110567513Y-125179914D01*
X110346193Y-125108002D01*
X110116358Y-125071600D01*
X110116353Y-125071600D01*
X109883647Y-125071600D01*
X109883642Y-125071600D01*
X109653806Y-125108002D01*
X109432486Y-125179914D01*
X109225145Y-125285561D01*
X109036893Y-125422333D01*
X109036888Y-125422337D01*
X108872337Y-125586888D01*
X108872333Y-125586893D01*
X108735561Y-125775145D01*
X108629914Y-125982486D01*
X108558002Y-126203806D01*
X108521600Y-126433641D01*
X97000500Y-126433641D01*
X97000500Y-119883641D01*
X108521600Y-119883641D01*
X108521600Y-120116358D01*
X108558002Y-120346193D01*
X108629914Y-120567513D01*
X108735561Y-120774854D01*
X108872333Y-120963106D01*
X108872337Y-120963111D01*
X109036888Y-121127662D01*
X109036893Y-121127666D01*
X109201097Y-121246966D01*
X109225149Y-121264441D01*
X109357266Y-121331758D01*
X109432486Y-121370085D01*
X109432488Y-121370085D01*
X109432491Y-121370087D01*
X109551122Y-121408632D01*
X109653806Y-121441997D01*
X109883642Y-121478400D01*
X109883647Y-121478400D01*
X110116358Y-121478400D01*
X110346193Y-121441997D01*
X110567509Y-121370087D01*
X110774851Y-121264441D01*
X110963113Y-121127661D01*
X111127661Y-120963113D01*
X111264441Y-120774851D01*
X111370087Y-120567509D01*
X111441997Y-120346193D01*
X111478400Y-120116358D01*
X111478400Y-119883641D01*
X115021600Y-119883641D01*
X115021600Y-120116358D01*
X115058002Y-120346193D01*
X115129914Y-120567513D01*
X115235561Y-120774854D01*
X115372333Y-120963106D01*
X115372337Y-120963111D01*
X115536888Y-121127662D01*
X115536893Y-121127666D01*
X115701097Y-121246966D01*
X115725149Y-121264441D01*
X115857266Y-121331758D01*
X115932486Y-121370085D01*
X115932488Y-121370085D01*
X115932491Y-121370087D01*
X116051122Y-121408632D01*
X116153806Y-121441997D01*
X116383642Y-121478400D01*
X116383647Y-121478400D01*
X116616358Y-121478400D01*
X116846193Y-121441997D01*
X117067509Y-121370087D01*
X117274851Y-121264441D01*
X117463113Y-121127661D01*
X117627661Y-120963113D01*
X117764441Y-120774851D01*
X117870087Y-120567509D01*
X117941997Y-120346193D01*
X117978400Y-120116358D01*
X117978400Y-119883641D01*
X121521599Y-119883641D01*
X121521599Y-120116358D01*
X121558001Y-120346193D01*
X121629913Y-120567513D01*
X121735560Y-120774854D01*
X121872332Y-120963106D01*
X121872336Y-120963111D01*
X122036887Y-121127662D01*
X122036892Y-121127666D01*
X122201096Y-121246966D01*
X122225148Y-121264441D01*
X122357265Y-121331758D01*
X122432485Y-121370085D01*
X122432487Y-121370085D01*
X122432490Y-121370087D01*
X122551121Y-121408632D01*
X122653805Y-121441997D01*
X122883641Y-121478400D01*
X122883646Y-121478400D01*
X123116357Y-121478400D01*
X123346192Y-121441997D01*
X123567508Y-121370087D01*
X123774850Y-121264441D01*
X123963112Y-121127661D01*
X124127660Y-120963113D01*
X124264440Y-120774851D01*
X124370086Y-120567509D01*
X124441996Y-120346193D01*
X124478399Y-120116358D01*
X124478399Y-119883641D01*
X124441996Y-119653806D01*
X124370084Y-119432486D01*
X124331757Y-119357266D01*
X124264440Y-119225149D01*
X124246965Y-119201097D01*
X124127665Y-119036893D01*
X124127661Y-119036888D01*
X123963110Y-118872337D01*
X123963105Y-118872333D01*
X123774853Y-118735561D01*
X123774852Y-118735560D01*
X123774850Y-118735559D01*
X123710100Y-118702567D01*
X123567512Y-118629914D01*
X123346192Y-118558002D01*
X123116357Y-118521600D01*
X123116352Y-118521600D01*
X122883646Y-118521600D01*
X122883641Y-118521600D01*
X122653805Y-118558002D01*
X122432485Y-118629914D01*
X122225144Y-118735561D01*
X122036892Y-118872333D01*
X122036887Y-118872337D01*
X121872336Y-119036888D01*
X121872332Y-119036893D01*
X121735560Y-119225145D01*
X121629913Y-119432486D01*
X121558001Y-119653806D01*
X121521599Y-119883641D01*
X117978400Y-119883641D01*
X117941997Y-119653806D01*
X117870085Y-119432486D01*
X117831758Y-119357266D01*
X117764441Y-119225149D01*
X117746966Y-119201097D01*
X117627666Y-119036893D01*
X117627662Y-119036888D01*
X117463111Y-118872337D01*
X117463106Y-118872333D01*
X117274854Y-118735561D01*
X117274853Y-118735560D01*
X117274851Y-118735559D01*
X117210101Y-118702567D01*
X117067513Y-118629914D01*
X116846193Y-118558002D01*
X116616358Y-118521600D01*
X116616353Y-118521600D01*
X116383647Y-118521600D01*
X116383642Y-118521600D01*
X116153806Y-118558002D01*
X115932486Y-118629914D01*
X115725145Y-118735561D01*
X115536893Y-118872333D01*
X115536888Y-118872337D01*
X115372337Y-119036888D01*
X115372333Y-119036893D01*
X115235561Y-119225145D01*
X115129914Y-119432486D01*
X115058002Y-119653806D01*
X115021600Y-119883641D01*
X111478400Y-119883641D01*
X111441997Y-119653806D01*
X111370085Y-119432486D01*
X111331758Y-119357266D01*
X111264441Y-119225149D01*
X111246966Y-119201097D01*
X111127666Y-119036893D01*
X111127662Y-119036888D01*
X110963111Y-118872337D01*
X110963106Y-118872333D01*
X110774854Y-118735561D01*
X110774853Y-118735560D01*
X110774851Y-118735559D01*
X110710101Y-118702567D01*
X110567513Y-118629914D01*
X110346193Y-118558002D01*
X110116358Y-118521600D01*
X110116353Y-118521600D01*
X109883647Y-118521600D01*
X109883642Y-118521600D01*
X109653806Y-118558002D01*
X109432486Y-118629914D01*
X109225145Y-118735561D01*
X109036893Y-118872333D01*
X109036888Y-118872337D01*
X108872337Y-119036888D01*
X108872333Y-119036893D01*
X108735561Y-119225145D01*
X108629914Y-119432486D01*
X108558002Y-119653806D01*
X108521600Y-119883641D01*
X97000500Y-119883641D01*
X97000500Y-110314635D01*
X100112000Y-110314635D01*
X100112000Y-113185370D01*
X100112001Y-113185376D01*
X100118408Y-113244983D01*
X100168702Y-113379828D01*
X100168706Y-113379835D01*
X100254952Y-113495044D01*
X100254955Y-113495047D01*
X100370164Y-113581293D01*
X100370171Y-113581297D01*
X100505017Y-113631591D01*
X100505016Y-113631591D01*
X100511944Y-113632335D01*
X100564627Y-113638000D01*
X103435372Y-113637999D01*
X103494983Y-113631591D01*
X103629831Y-113581296D01*
X103745046Y-113495046D01*
X103831296Y-113379831D01*
X103881591Y-113244983D01*
X103888000Y-113185373D01*
X103887999Y-110314635D01*
X114612000Y-110314635D01*
X114612000Y-113185370D01*
X114612001Y-113185376D01*
X114618408Y-113244983D01*
X114668702Y-113379828D01*
X114668706Y-113379835D01*
X114754952Y-113495044D01*
X114754955Y-113495047D01*
X114870164Y-113581293D01*
X114870171Y-113581297D01*
X115005017Y-113631591D01*
X115005016Y-113631591D01*
X115011944Y-113632335D01*
X115064627Y-113638000D01*
X117935372Y-113637999D01*
X117994983Y-113631591D01*
X118129831Y-113581296D01*
X118245046Y-113495046D01*
X118331296Y-113379831D01*
X118381591Y-113244983D01*
X118388000Y-113185373D01*
X118387999Y-110314635D01*
X129112000Y-110314635D01*
X129112000Y-113185370D01*
X129112001Y-113185376D01*
X129118408Y-113244983D01*
X129168702Y-113379828D01*
X129168706Y-113379835D01*
X129254952Y-113495044D01*
X129254955Y-113495047D01*
X129370164Y-113581293D01*
X129370171Y-113581297D01*
X129505017Y-113631591D01*
X129505016Y-113631591D01*
X129511944Y-113632335D01*
X129564627Y-113638000D01*
X132435372Y-113637999D01*
X132494983Y-113631591D01*
X132629831Y-113581296D01*
X132745046Y-113495046D01*
X132831296Y-113379831D01*
X132881591Y-113244983D01*
X132888000Y-113185373D01*
X132887999Y-110314628D01*
X132881591Y-110255017D01*
X132831296Y-110120169D01*
X132831295Y-110120168D01*
X132831293Y-110120164D01*
X132745047Y-110004955D01*
X132745044Y-110004952D01*
X132629835Y-109918706D01*
X132629828Y-109918702D01*
X132494982Y-109868408D01*
X132494983Y-109868408D01*
X132435383Y-109862001D01*
X132435381Y-109862000D01*
X132435373Y-109862000D01*
X132435364Y-109862000D01*
X129564629Y-109862000D01*
X129564623Y-109862001D01*
X129505016Y-109868408D01*
X129370171Y-109918702D01*
X129370164Y-109918706D01*
X129254955Y-110004952D01*
X129254952Y-110004955D01*
X129168706Y-110120164D01*
X129168702Y-110120171D01*
X129118408Y-110255017D01*
X129112001Y-110314616D01*
X129112001Y-110314623D01*
X129112000Y-110314635D01*
X118387999Y-110314635D01*
X118387999Y-110314628D01*
X118381591Y-110255017D01*
X118331296Y-110120169D01*
X118331295Y-110120168D01*
X118331293Y-110120164D01*
X118245047Y-110004955D01*
X118245044Y-110004952D01*
X118129835Y-109918706D01*
X118129828Y-109918702D01*
X117994982Y-109868408D01*
X117994983Y-109868408D01*
X117935383Y-109862001D01*
X117935381Y-109862000D01*
X117935373Y-109862000D01*
X117935364Y-109862000D01*
X115064629Y-109862000D01*
X115064623Y-109862001D01*
X115005016Y-109868408D01*
X114870171Y-109918702D01*
X114870164Y-109918706D01*
X114754955Y-110004952D01*
X114754952Y-110004955D01*
X114668706Y-110120164D01*
X114668702Y-110120171D01*
X114618408Y-110255017D01*
X114612001Y-110314616D01*
X114612001Y-110314623D01*
X114612000Y-110314635D01*
X103887999Y-110314635D01*
X103887999Y-110314628D01*
X103881591Y-110255017D01*
X103831296Y-110120169D01*
X103831295Y-110120168D01*
X103831293Y-110120164D01*
X103745047Y-110004955D01*
X103745044Y-110004952D01*
X103629835Y-109918706D01*
X103629828Y-109918702D01*
X103494982Y-109868408D01*
X103494983Y-109868408D01*
X103435383Y-109862001D01*
X103435381Y-109862000D01*
X103435373Y-109862000D01*
X103435364Y-109862000D01*
X100564629Y-109862000D01*
X100564623Y-109862001D01*
X100505016Y-109868408D01*
X100370171Y-109918702D01*
X100370164Y-109918706D01*
X100254955Y-110004952D01*
X100254952Y-110004955D01*
X100168706Y-110120164D01*
X100168702Y-110120171D01*
X100118408Y-110255017D01*
X100112001Y-110314616D01*
X100112001Y-110314623D01*
X100112000Y-110314635D01*
X97000500Y-110314635D01*
X97000500Y-105276260D01*
X100112000Y-105276260D01*
X100112000Y-105523739D01*
X100112001Y-105523756D01*
X100144303Y-105769117D01*
X100208361Y-106008184D01*
X100303069Y-106236829D01*
X100303074Y-106236840D01*
X100426812Y-106451159D01*
X100426823Y-106451175D01*
X100577479Y-106647514D01*
X100577485Y-106647521D01*
X100752478Y-106822514D01*
X100752484Y-106822519D01*
X100948833Y-106973183D01*
X100948840Y-106973187D01*
X101163159Y-107096925D01*
X101163164Y-107096927D01*
X101163167Y-107096929D01*
X101391820Y-107191640D01*
X101630879Y-107255696D01*
X101876254Y-107288000D01*
X101876261Y-107288000D01*
X102123739Y-107288000D01*
X102123746Y-107288000D01*
X102369121Y-107255696D01*
X102608180Y-107191640D01*
X102836833Y-107096929D01*
X103051167Y-106973183D01*
X103247516Y-106822519D01*
X103422519Y-106647516D01*
X103573183Y-106451167D01*
X103696929Y-106236833D01*
X103791640Y-106008180D01*
X103855696Y-105769121D01*
X103888000Y-105523746D01*
X103888000Y-105276260D01*
X114612000Y-105276260D01*
X114612000Y-105523739D01*
X114612001Y-105523756D01*
X114644303Y-105769117D01*
X114708361Y-106008184D01*
X114803069Y-106236829D01*
X114803074Y-106236840D01*
X114926812Y-106451159D01*
X114926823Y-106451175D01*
X115077479Y-106647514D01*
X115077485Y-106647521D01*
X115252478Y-106822514D01*
X115252484Y-106822519D01*
X115448833Y-106973183D01*
X115448840Y-106973187D01*
X115663159Y-107096925D01*
X115663164Y-107096927D01*
X115663167Y-107096929D01*
X115891820Y-107191640D01*
X116130879Y-107255696D01*
X116376254Y-107288000D01*
X116376261Y-107288000D01*
X116623739Y-107288000D01*
X116623746Y-107288000D01*
X116869121Y-107255696D01*
X117108180Y-107191640D01*
X117336833Y-107096929D01*
X117551167Y-106973183D01*
X117747516Y-106822519D01*
X117922519Y-106647516D01*
X118073183Y-106451167D01*
X118196929Y-106236833D01*
X118291640Y-106008180D01*
X118355696Y-105769121D01*
X118388000Y-105523746D01*
X118388000Y-105276260D01*
X129112000Y-105276260D01*
X129112000Y-105523739D01*
X129112001Y-105523756D01*
X129144303Y-105769117D01*
X129208361Y-106008184D01*
X129303069Y-106236829D01*
X129303074Y-106236840D01*
X129426812Y-106451159D01*
X129426823Y-106451175D01*
X129577479Y-106647514D01*
X129577485Y-106647521D01*
X129752478Y-106822514D01*
X129752484Y-106822519D01*
X129948833Y-106973183D01*
X129948840Y-106973187D01*
X130163159Y-107096925D01*
X130163164Y-107096927D01*
X130163167Y-107096929D01*
X130391820Y-107191640D01*
X130630879Y-107255696D01*
X130876254Y-107288000D01*
X130876261Y-107288000D01*
X131123739Y-107288000D01*
X131123746Y-107288000D01*
X131369121Y-107255696D01*
X131608180Y-107191640D01*
X131836833Y-107096929D01*
X132051167Y-106973183D01*
X132247516Y-106822519D01*
X132422519Y-106647516D01*
X132573183Y-106451167D01*
X132696929Y-106236833D01*
X132791640Y-106008180D01*
X132855696Y-105769121D01*
X132888000Y-105523746D01*
X132888000Y-105276254D01*
X132855696Y-105030879D01*
X132791640Y-104791820D01*
X132696929Y-104563167D01*
X132696927Y-104563164D01*
X132696925Y-104563159D01*
X132573187Y-104348840D01*
X132573183Y-104348833D01*
X132422519Y-104152484D01*
X132422514Y-104152478D01*
X132247521Y-103977485D01*
X132247514Y-103977479D01*
X132051175Y-103826823D01*
X132051173Y-103826821D01*
X132051167Y-103826817D01*
X132051162Y-103826814D01*
X132051159Y-103826812D01*
X131836840Y-103703074D01*
X131836829Y-103703069D01*
X131608184Y-103608361D01*
X131369117Y-103544303D01*
X131123756Y-103512001D01*
X131123751Y-103512000D01*
X131123746Y-103512000D01*
X130876254Y-103512000D01*
X130876248Y-103512000D01*
X130876243Y-103512001D01*
X130630882Y-103544303D01*
X130391815Y-103608361D01*
X130163170Y-103703069D01*
X130163159Y-103703074D01*
X129948840Y-103826812D01*
X129948824Y-103826823D01*
X129752485Y-103977479D01*
X129752478Y-103977485D01*
X129577485Y-104152478D01*
X129577479Y-104152485D01*
X129426823Y-104348824D01*
X129426812Y-104348840D01*
X129303074Y-104563159D01*
X129303069Y-104563170D01*
X129208361Y-104791815D01*
X129144303Y-105030882D01*
X129112001Y-105276243D01*
X129112000Y-105276260D01*
X118388000Y-105276260D01*
X118388000Y-105276254D01*
X118355696Y-105030879D01*
X118291640Y-104791820D01*
X118196929Y-104563167D01*
X118196927Y-104563164D01*
X118196925Y-104563159D01*
X118073187Y-104348840D01*
X118073183Y-104348833D01*
X117922519Y-104152484D01*
X117922514Y-104152478D01*
X117747521Y-103977485D01*
X117747514Y-103977479D01*
X117551175Y-103826823D01*
X117551173Y-103826821D01*
X117551167Y-103826817D01*
X117551162Y-103826814D01*
X117551159Y-103826812D01*
X117336840Y-103703074D01*
X117336829Y-103703069D01*
X117108184Y-103608361D01*
X116869117Y-103544303D01*
X116623756Y-103512001D01*
X116623751Y-103512000D01*
X116623746Y-103512000D01*
X116376254Y-103512000D01*
X116376248Y-103512000D01*
X116376243Y-103512001D01*
X116130882Y-103544303D01*
X115891815Y-103608361D01*
X115663170Y-103703069D01*
X115663159Y-103703074D01*
X115448840Y-103826812D01*
X115448824Y-103826823D01*
X115252485Y-103977479D01*
X115252478Y-103977485D01*
X115077485Y-104152478D01*
X115077479Y-104152485D01*
X114926823Y-104348824D01*
X114926812Y-104348840D01*
X114803074Y-104563159D01*
X114803069Y-104563170D01*
X114708361Y-104791815D01*
X114644303Y-105030882D01*
X114612001Y-105276243D01*
X114612000Y-105276260D01*
X103888000Y-105276260D01*
X103888000Y-105276254D01*
X103855696Y-105030879D01*
X103791640Y-104791820D01*
X103696929Y-104563167D01*
X103696927Y-104563164D01*
X103696925Y-104563159D01*
X103573187Y-104348840D01*
X103573183Y-104348833D01*
X103422519Y-104152484D01*
X103422514Y-104152478D01*
X103247521Y-103977485D01*
X103247514Y-103977479D01*
X103051175Y-103826823D01*
X103051173Y-103826821D01*
X103051167Y-103826817D01*
X103051162Y-103826814D01*
X103051159Y-103826812D01*
X102836840Y-103703074D01*
X102836829Y-103703069D01*
X102608184Y-103608361D01*
X102369117Y-103544303D01*
X102123756Y-103512001D01*
X102123751Y-103512000D01*
X102123746Y-103512000D01*
X101876254Y-103512000D01*
X101876248Y-103512000D01*
X101876243Y-103512001D01*
X101630882Y-103544303D01*
X101391815Y-103608361D01*
X101163170Y-103703069D01*
X101163159Y-103703074D01*
X100948840Y-103826812D01*
X100948824Y-103826823D01*
X100752485Y-103977479D01*
X100752478Y-103977485D01*
X100577485Y-104152478D01*
X100577479Y-104152485D01*
X100426823Y-104348824D01*
X100426812Y-104348840D01*
X100303074Y-104563159D01*
X100303069Y-104563170D01*
X100208361Y-104791815D01*
X100144303Y-105030882D01*
X100112001Y-105276243D01*
X100112000Y-105276260D01*
X97000500Y-105276260D01*
X97000500Y-98926260D01*
X100112000Y-98926260D01*
X100112000Y-99173739D01*
X100112001Y-99173756D01*
X100144303Y-99419117D01*
X100208361Y-99658184D01*
X100303069Y-99886829D01*
X100303074Y-99886840D01*
X100426812Y-100101159D01*
X100426823Y-100101175D01*
X100577479Y-100297514D01*
X100577485Y-100297521D01*
X100752478Y-100472514D01*
X100752484Y-100472519D01*
X100948833Y-100623183D01*
X100948840Y-100623187D01*
X101163159Y-100746925D01*
X101163164Y-100746927D01*
X101163167Y-100746929D01*
X101391820Y-100841640D01*
X101630879Y-100905696D01*
X101876254Y-100938000D01*
X101876261Y-100938000D01*
X102123739Y-100938000D01*
X102123746Y-100938000D01*
X102369121Y-100905696D01*
X102608180Y-100841640D01*
X102836833Y-100746929D01*
X103051167Y-100623183D01*
X103247516Y-100472519D01*
X103422519Y-100297516D01*
X103573183Y-100101167D01*
X103696929Y-99886833D01*
X103791640Y-99658180D01*
X103855696Y-99419121D01*
X103888000Y-99173746D01*
X103888000Y-98926260D01*
X114612000Y-98926260D01*
X114612000Y-99173739D01*
X114612001Y-99173756D01*
X114644303Y-99419117D01*
X114708361Y-99658184D01*
X114803069Y-99886829D01*
X114803074Y-99886840D01*
X114926812Y-100101159D01*
X114926823Y-100101175D01*
X115077479Y-100297514D01*
X115077485Y-100297521D01*
X115252478Y-100472514D01*
X115252484Y-100472519D01*
X115448833Y-100623183D01*
X115448840Y-100623187D01*
X115663159Y-100746925D01*
X115663164Y-100746927D01*
X115663167Y-100746929D01*
X115891820Y-100841640D01*
X116130879Y-100905696D01*
X116376254Y-100938000D01*
X116376261Y-100938000D01*
X116623739Y-100938000D01*
X116623746Y-100938000D01*
X116869121Y-100905696D01*
X117108180Y-100841640D01*
X117336833Y-100746929D01*
X117551167Y-100623183D01*
X117747516Y-100472519D01*
X117922519Y-100297516D01*
X118073183Y-100101167D01*
X118196929Y-99886833D01*
X118291640Y-99658180D01*
X118355696Y-99419121D01*
X118388000Y-99173746D01*
X118388000Y-98926260D01*
X129112000Y-98926260D01*
X129112000Y-99173739D01*
X129112001Y-99173756D01*
X129144303Y-99419117D01*
X129208361Y-99658184D01*
X129303069Y-99886829D01*
X129303074Y-99886840D01*
X129426812Y-100101159D01*
X129426823Y-100101175D01*
X129577479Y-100297514D01*
X129577485Y-100297521D01*
X129752478Y-100472514D01*
X129752484Y-100472519D01*
X129948833Y-100623183D01*
X129948840Y-100623187D01*
X130163159Y-100746925D01*
X130163164Y-100746927D01*
X130163167Y-100746929D01*
X130391820Y-100841640D01*
X130630879Y-100905696D01*
X130876254Y-100938000D01*
X130876261Y-100938000D01*
X131123739Y-100938000D01*
X131123746Y-100938000D01*
X131369121Y-100905696D01*
X131608180Y-100841640D01*
X131836833Y-100746929D01*
X132051167Y-100623183D01*
X132247516Y-100472519D01*
X132422519Y-100297516D01*
X132573183Y-100101167D01*
X132696929Y-99886833D01*
X132791640Y-99658180D01*
X132855696Y-99419121D01*
X132888000Y-99173746D01*
X132888000Y-98926254D01*
X132855696Y-98680879D01*
X132791640Y-98441820D01*
X132696929Y-98213167D01*
X132696927Y-98213164D01*
X132696925Y-98213159D01*
X132573187Y-97998840D01*
X132573183Y-97998833D01*
X132466877Y-97860292D01*
X132422520Y-97802485D01*
X132422514Y-97802478D01*
X132247521Y-97627485D01*
X132247514Y-97627479D01*
X132051175Y-97476823D01*
X132051173Y-97476821D01*
X132051167Y-97476817D01*
X132051162Y-97476814D01*
X132051159Y-97476812D01*
X131836840Y-97353074D01*
X131836829Y-97353069D01*
X131608184Y-97258361D01*
X131369117Y-97194303D01*
X131123756Y-97162001D01*
X131123751Y-97162000D01*
X131123746Y-97162000D01*
X130876254Y-97162000D01*
X130876248Y-97162000D01*
X130876243Y-97162001D01*
X130630882Y-97194303D01*
X130391815Y-97258361D01*
X130163170Y-97353069D01*
X130163159Y-97353074D01*
X129948840Y-97476812D01*
X129948824Y-97476823D01*
X129752485Y-97627479D01*
X129752478Y-97627485D01*
X129577485Y-97802478D01*
X129577479Y-97802485D01*
X129426823Y-97998824D01*
X129426812Y-97998840D01*
X129303074Y-98213159D01*
X129303069Y-98213170D01*
X129208361Y-98441815D01*
X129144303Y-98680882D01*
X129112001Y-98926243D01*
X129112000Y-98926260D01*
X118388000Y-98926260D01*
X118388000Y-98926254D01*
X118355696Y-98680879D01*
X118291640Y-98441820D01*
X118196929Y-98213167D01*
X118196927Y-98213164D01*
X118196925Y-98213159D01*
X118073187Y-97998840D01*
X118073183Y-97998833D01*
X117966877Y-97860292D01*
X117922520Y-97802485D01*
X117922514Y-97802478D01*
X117747521Y-97627485D01*
X117747514Y-97627479D01*
X117551175Y-97476823D01*
X117551173Y-97476821D01*
X117551167Y-97476817D01*
X117551162Y-97476814D01*
X117551159Y-97476812D01*
X117336840Y-97353074D01*
X117336829Y-97353069D01*
X117108184Y-97258361D01*
X116869117Y-97194303D01*
X116623756Y-97162001D01*
X116623751Y-97162000D01*
X116623746Y-97162000D01*
X116376254Y-97162000D01*
X116376248Y-97162000D01*
X116376243Y-97162001D01*
X116130882Y-97194303D01*
X115891815Y-97258361D01*
X115663170Y-97353069D01*
X115663159Y-97353074D01*
X115448840Y-97476812D01*
X115448824Y-97476823D01*
X115252485Y-97627479D01*
X115252478Y-97627485D01*
X115077485Y-97802478D01*
X115077479Y-97802485D01*
X114926823Y-97998824D01*
X114926812Y-97998840D01*
X114803074Y-98213159D01*
X114803069Y-98213170D01*
X114708361Y-98441815D01*
X114644303Y-98680882D01*
X114612001Y-98926243D01*
X114612000Y-98926260D01*
X103888000Y-98926260D01*
X103888000Y-98926254D01*
X103855696Y-98680879D01*
X103791640Y-98441820D01*
X103696929Y-98213167D01*
X103696927Y-98213164D01*
X103696925Y-98213159D01*
X103573187Y-97998840D01*
X103573183Y-97998833D01*
X103466877Y-97860292D01*
X103422520Y-97802485D01*
X103422514Y-97802478D01*
X103247521Y-97627485D01*
X103247514Y-97627479D01*
X103051175Y-97476823D01*
X103051173Y-97476821D01*
X103051167Y-97476817D01*
X103051162Y-97476814D01*
X103051159Y-97476812D01*
X102870404Y-97372453D01*
X102836833Y-97353071D01*
X102836829Y-97353069D01*
X102639067Y-97271153D01*
X112199500Y-97271153D01*
X112199500Y-97428846D01*
X112230261Y-97583489D01*
X112230264Y-97583501D01*
X112290602Y-97729172D01*
X112290609Y-97729185D01*
X112378210Y-97860288D01*
X112378213Y-97860292D01*
X112489707Y-97971786D01*
X112489711Y-97971789D01*
X112620814Y-98059390D01*
X112620827Y-98059397D01*
X112766498Y-98119735D01*
X112766503Y-98119737D01*
X112921153Y-98150499D01*
X112921156Y-98150500D01*
X112921158Y-98150500D01*
X113078844Y-98150500D01*
X113078845Y-98150499D01*
X113233497Y-98119737D01*
X113379179Y-98059394D01*
X113510289Y-97971789D01*
X113621789Y-97860289D01*
X113709394Y-97729179D01*
X113769737Y-97583497D01*
X113800500Y-97428842D01*
X113800500Y-97271158D01*
X113800500Y-97271155D01*
X113800499Y-97271153D01*
X113769737Y-97116503D01*
X113769735Y-97116498D01*
X113709397Y-96970827D01*
X113709390Y-96970814D01*
X113621789Y-96839711D01*
X113621786Y-96839707D01*
X113510292Y-96728213D01*
X113510288Y-96728210D01*
X113379185Y-96640609D01*
X113379172Y-96640602D01*
X113233501Y-96580264D01*
X113233489Y-96580261D01*
X113078845Y-96549500D01*
X113078842Y-96549500D01*
X112921158Y-96549500D01*
X112921155Y-96549500D01*
X112766510Y-96580261D01*
X112766498Y-96580264D01*
X112620827Y-96640602D01*
X112620814Y-96640609D01*
X112489711Y-96728210D01*
X112489707Y-96728213D01*
X112378213Y-96839707D01*
X112378210Y-96839711D01*
X112290609Y-96970814D01*
X112290602Y-96970827D01*
X112230264Y-97116498D01*
X112230261Y-97116510D01*
X112199500Y-97271153D01*
X102639067Y-97271153D01*
X102608184Y-97258361D01*
X102369117Y-97194303D01*
X102123756Y-97162001D01*
X102123751Y-97162000D01*
X102123746Y-97162000D01*
X101876254Y-97162000D01*
X101876248Y-97162000D01*
X101876243Y-97162001D01*
X101630882Y-97194303D01*
X101391815Y-97258361D01*
X101163170Y-97353069D01*
X101163159Y-97353074D01*
X100948840Y-97476812D01*
X100948824Y-97476823D01*
X100752485Y-97627479D01*
X100752478Y-97627485D01*
X100577485Y-97802478D01*
X100577479Y-97802485D01*
X100426823Y-97998824D01*
X100426812Y-97998840D01*
X100303074Y-98213159D01*
X100303069Y-98213170D01*
X100208361Y-98441815D01*
X100144303Y-98680882D01*
X100112001Y-98926243D01*
X100112000Y-98926260D01*
X97000500Y-98926260D01*
X97000500Y-88931194D01*
X129077899Y-88931194D01*
X129116347Y-89124480D01*
X129116350Y-89124490D01*
X129191764Y-89306558D01*
X129191771Y-89306571D01*
X129301260Y-89470432D01*
X129301263Y-89470436D01*
X129440614Y-89609787D01*
X129440618Y-89609790D01*
X129604479Y-89719279D01*
X129604492Y-89719286D01*
X129786560Y-89794700D01*
X129786565Y-89794702D01*
X129786569Y-89794702D01*
X129786570Y-89794703D01*
X129979856Y-89833151D01*
X129979859Y-89833151D01*
X131276943Y-89833151D01*
X131406982Y-89807283D01*
X131470235Y-89794702D01*
X131652314Y-89719283D01*
X131816182Y-89609790D01*
X131955539Y-89470433D01*
X132065032Y-89306565D01*
X132140451Y-89124486D01*
X132178900Y-88931192D01*
X132178900Y-88734110D01*
X132178900Y-88734107D01*
X132140452Y-88540821D01*
X132140451Y-88540820D01*
X132140451Y-88540816D01*
X132135210Y-88528162D01*
X132065035Y-88358743D01*
X132065028Y-88358730D01*
X131955539Y-88194869D01*
X131955536Y-88194865D01*
X131816185Y-88055514D01*
X131811474Y-88051648D01*
X131812370Y-88050555D01*
X131772127Y-88002394D01*
X131763425Y-87933069D01*
X131782725Y-87884022D01*
X131851548Y-87781021D01*
X131913776Y-87630789D01*
X131945500Y-87471305D01*
X131945500Y-87308695D01*
X131945500Y-87308692D01*
X131913777Y-87149216D01*
X131913776Y-87149215D01*
X131913776Y-87149211D01*
X131913774Y-87149206D01*
X131851549Y-86998980D01*
X131851547Y-86998976D01*
X131761211Y-86863779D01*
X131761205Y-86863771D01*
X131646228Y-86748794D01*
X131646220Y-86748788D01*
X131511023Y-86658452D01*
X131511019Y-86658450D01*
X131360793Y-86596225D01*
X131360783Y-86596222D01*
X131201307Y-86564500D01*
X131201305Y-86564500D01*
X131038695Y-86564500D01*
X131038693Y-86564500D01*
X130879216Y-86596222D01*
X130879206Y-86596225D01*
X130728980Y-86658450D01*
X130728976Y-86658452D01*
X130593779Y-86748788D01*
X130593771Y-86748794D01*
X130478794Y-86863771D01*
X130478788Y-86863779D01*
X130388452Y-86998976D01*
X130388450Y-86998980D01*
X130326225Y-87149206D01*
X130326222Y-87149216D01*
X130294500Y-87308692D01*
X130294500Y-87308695D01*
X130294500Y-87471305D01*
X130294500Y-87471307D01*
X130294499Y-87471307D01*
X130326222Y-87630783D01*
X130326224Y-87630789D01*
X130338613Y-87660698D01*
X130346082Y-87730167D01*
X130314807Y-87792647D01*
X130254718Y-87828299D01*
X130224052Y-87832151D01*
X129979857Y-87832151D01*
X129786570Y-87870598D01*
X129786560Y-87870601D01*
X129604492Y-87946015D01*
X129604479Y-87946022D01*
X129440618Y-88055511D01*
X129440614Y-88055514D01*
X129301263Y-88194865D01*
X129301260Y-88194869D01*
X129191771Y-88358730D01*
X129191764Y-88358743D01*
X129116350Y-88540811D01*
X129116347Y-88540821D01*
X129077900Y-88734107D01*
X129077900Y-88734110D01*
X129077900Y-88931192D01*
X129077900Y-88931194D01*
X129077899Y-88931194D01*
X97000500Y-88931194D01*
X97000500Y-84376260D01*
X108262000Y-84376260D01*
X108262000Y-84623739D01*
X108262001Y-84623756D01*
X108294303Y-84869117D01*
X108358361Y-85108184D01*
X108453069Y-85336829D01*
X108453074Y-85336840D01*
X108576812Y-85551159D01*
X108576823Y-85551175D01*
X108727479Y-85747514D01*
X108727485Y-85747521D01*
X108902478Y-85922514D01*
X108902485Y-85922520D01*
X108996921Y-85994983D01*
X109098833Y-86073183D01*
X109098840Y-86073187D01*
X109313159Y-86196925D01*
X109313164Y-86196927D01*
X109313167Y-86196929D01*
X109541820Y-86291640D01*
X109780879Y-86355696D01*
X110026254Y-86388000D01*
X110026261Y-86388000D01*
X110273739Y-86388000D01*
X110273746Y-86388000D01*
X110519121Y-86355696D01*
X110758180Y-86291640D01*
X110986833Y-86196929D01*
X111201167Y-86073183D01*
X111397516Y-85922519D01*
X111572519Y-85747516D01*
X111723183Y-85551167D01*
X111846929Y-85336833D01*
X111941640Y-85108180D01*
X112005696Y-84869121D01*
X112038000Y-84623746D01*
X112038000Y-84376260D01*
X114612000Y-84376260D01*
X114612000Y-84623739D01*
X114612001Y-84623756D01*
X114644303Y-84869117D01*
X114708361Y-85108184D01*
X114803069Y-85336829D01*
X114803074Y-85336840D01*
X114926812Y-85551159D01*
X114926823Y-85551175D01*
X115077479Y-85747514D01*
X115077485Y-85747521D01*
X115252478Y-85922514D01*
X115252485Y-85922520D01*
X115346921Y-85994983D01*
X115448833Y-86073183D01*
X115448840Y-86073187D01*
X115663159Y-86196925D01*
X115663164Y-86196927D01*
X115663167Y-86196929D01*
X115891820Y-86291640D01*
X116130879Y-86355696D01*
X116376254Y-86388000D01*
X116376261Y-86388000D01*
X116623739Y-86388000D01*
X116623746Y-86388000D01*
X116869121Y-86355696D01*
X117108180Y-86291640D01*
X117336833Y-86196929D01*
X117551167Y-86073183D01*
X117747516Y-85922519D01*
X117922519Y-85747516D01*
X118073183Y-85551167D01*
X118196929Y-85336833D01*
X118291640Y-85108180D01*
X118355696Y-84869121D01*
X118388000Y-84623746D01*
X118388000Y-84376254D01*
X118355696Y-84130879D01*
X118291640Y-83891820D01*
X118196929Y-83663167D01*
X118196927Y-83663164D01*
X118196925Y-83663159D01*
X118073187Y-83448840D01*
X118073183Y-83448833D01*
X117922519Y-83252484D01*
X117922514Y-83252478D01*
X117747521Y-83077485D01*
X117747514Y-83077479D01*
X117730775Y-83064635D01*
X120962000Y-83064635D01*
X120962000Y-85935370D01*
X120962001Y-85935376D01*
X120968408Y-85994983D01*
X121018702Y-86129828D01*
X121018706Y-86129835D01*
X121104952Y-86245044D01*
X121104955Y-86245047D01*
X121220164Y-86331293D01*
X121220171Y-86331297D01*
X121355017Y-86381591D01*
X121355016Y-86381591D01*
X121361944Y-86382335D01*
X121414627Y-86388000D01*
X124285372Y-86387999D01*
X124344983Y-86381591D01*
X124479831Y-86331296D01*
X124595046Y-86245046D01*
X124681296Y-86129831D01*
X124731591Y-85994983D01*
X124738000Y-85935373D01*
X124737999Y-84639553D01*
X127967900Y-84639553D01*
X127967900Y-84797246D01*
X127998661Y-84951889D01*
X127998664Y-84951901D01*
X128059002Y-85097572D01*
X128059009Y-85097585D01*
X128146610Y-85228688D01*
X128146613Y-85228692D01*
X128258107Y-85340186D01*
X128258111Y-85340189D01*
X128389214Y-85427790D01*
X128389227Y-85427797D01*
X128534898Y-85488135D01*
X128534903Y-85488137D01*
X128689553Y-85518899D01*
X128689556Y-85518900D01*
X128689558Y-85518900D01*
X128847244Y-85518900D01*
X128847245Y-85518899D01*
X129001897Y-85488137D01*
X129147579Y-85427794D01*
X129278689Y-85340189D01*
X129390189Y-85228689D01*
X129477794Y-85097579D01*
X129538137Y-84951897D01*
X129568900Y-84797242D01*
X129568900Y-84639558D01*
X129568900Y-84639555D01*
X129568899Y-84639553D01*
X129561624Y-84602979D01*
X129538137Y-84484903D01*
X129493136Y-84376260D01*
X129477797Y-84339227D01*
X129477790Y-84339214D01*
X129390190Y-84208112D01*
X129390186Y-84208107D01*
X129327032Y-84144953D01*
X130550600Y-84144953D01*
X130550600Y-84302646D01*
X130581361Y-84457289D01*
X130581364Y-84457301D01*
X130641702Y-84602972D01*
X130641709Y-84602985D01*
X130729310Y-84734088D01*
X130729313Y-84734092D01*
X130840807Y-84845586D01*
X130840811Y-84845589D01*
X130971914Y-84933190D01*
X130971927Y-84933197D01*
X131117598Y-84993535D01*
X131117603Y-84993537D01*
X131272253Y-85024299D01*
X131272256Y-85024300D01*
X131272258Y-85024300D01*
X131429944Y-85024300D01*
X131429945Y-85024299D01*
X131584597Y-84993537D01*
X131730279Y-84933194D01*
X131861389Y-84845589D01*
X131972889Y-84734089D01*
X132060494Y-84602979D01*
X132120837Y-84457297D01*
X132151600Y-84302642D01*
X132151600Y-84144958D01*
X132151600Y-84144955D01*
X132151599Y-84144953D01*
X132148799Y-84130879D01*
X132120837Y-83990303D01*
X132103589Y-83948663D01*
X132060497Y-83844627D01*
X132060490Y-83844614D01*
X131972889Y-83713511D01*
X131972886Y-83713507D01*
X131861392Y-83602013D01*
X131861388Y-83602010D01*
X131730285Y-83514409D01*
X131730272Y-83514402D01*
X131584601Y-83454064D01*
X131584589Y-83454061D01*
X131429945Y-83423300D01*
X131429942Y-83423300D01*
X131272258Y-83423300D01*
X131272255Y-83423300D01*
X131117610Y-83454061D01*
X131117598Y-83454064D01*
X130971927Y-83514402D01*
X130971914Y-83514409D01*
X130840811Y-83602010D01*
X130840807Y-83602013D01*
X130729313Y-83713507D01*
X130729310Y-83713511D01*
X130641709Y-83844614D01*
X130641702Y-83844627D01*
X130581364Y-83990298D01*
X130581361Y-83990310D01*
X130550600Y-84144953D01*
X129327032Y-84144953D01*
X129278692Y-84096613D01*
X129278688Y-84096610D01*
X129147585Y-84009009D01*
X129147572Y-84009002D01*
X129001901Y-83948664D01*
X129001889Y-83948661D01*
X128847245Y-83917900D01*
X128847242Y-83917900D01*
X128689558Y-83917900D01*
X128689555Y-83917900D01*
X128534910Y-83948661D01*
X128534898Y-83948664D01*
X128389227Y-84009002D01*
X128389214Y-84009009D01*
X128258111Y-84096610D01*
X128258107Y-84096613D01*
X128146613Y-84208107D01*
X128146610Y-84208111D01*
X128059009Y-84339214D01*
X128059002Y-84339227D01*
X127998664Y-84484898D01*
X127998661Y-84484910D01*
X127967900Y-84639553D01*
X124737999Y-84639553D01*
X124737999Y-84484910D01*
X124737999Y-83064629D01*
X124737998Y-83064623D01*
X124737997Y-83064616D01*
X124731591Y-83005017D01*
X124702424Y-82926817D01*
X124681297Y-82870171D01*
X124681293Y-82870164D01*
X124595047Y-82754955D01*
X124595044Y-82754952D01*
X124479835Y-82668706D01*
X124479828Y-82668702D01*
X124344982Y-82618408D01*
X124344983Y-82618408D01*
X124285383Y-82612001D01*
X124285381Y-82612000D01*
X124285373Y-82612000D01*
X124285364Y-82612000D01*
X121414629Y-82612000D01*
X121414623Y-82612001D01*
X121355016Y-82618408D01*
X121220171Y-82668702D01*
X121220164Y-82668706D01*
X121104955Y-82754952D01*
X121104952Y-82754955D01*
X121018706Y-82870164D01*
X121018702Y-82870171D01*
X120968408Y-83005017D01*
X120962001Y-83064616D01*
X120962001Y-83064623D01*
X120962000Y-83064635D01*
X117730775Y-83064635D01*
X117551175Y-82926823D01*
X117551173Y-82926821D01*
X117551167Y-82926817D01*
X117551162Y-82926814D01*
X117551159Y-82926812D01*
X117336840Y-82803074D01*
X117336829Y-82803069D01*
X117108184Y-82708361D01*
X116869117Y-82644303D01*
X116623756Y-82612001D01*
X116623751Y-82612000D01*
X116623746Y-82612000D01*
X116376254Y-82612000D01*
X116376248Y-82612000D01*
X116376243Y-82612001D01*
X116130882Y-82644303D01*
X115891815Y-82708361D01*
X115663170Y-82803069D01*
X115663159Y-82803074D01*
X115448840Y-82926812D01*
X115448824Y-82926823D01*
X115252485Y-83077479D01*
X115252478Y-83077485D01*
X115077485Y-83252478D01*
X115077479Y-83252485D01*
X114926823Y-83448824D01*
X114926812Y-83448840D01*
X114803074Y-83663159D01*
X114803069Y-83663170D01*
X114708361Y-83891815D01*
X114644303Y-84130882D01*
X114612001Y-84376243D01*
X114612000Y-84376260D01*
X112038000Y-84376260D01*
X112038000Y-84376254D01*
X112005696Y-84130879D01*
X111941640Y-83891820D01*
X111846929Y-83663167D01*
X111846927Y-83663164D01*
X111846925Y-83663159D01*
X111723187Y-83448840D01*
X111723183Y-83448833D01*
X111572519Y-83252484D01*
X111572514Y-83252478D01*
X111397521Y-83077485D01*
X111397514Y-83077479D01*
X111201175Y-82926823D01*
X111201173Y-82926821D01*
X111201167Y-82926817D01*
X111201162Y-82926814D01*
X111201159Y-82926812D01*
X110986840Y-82803074D01*
X110986829Y-82803069D01*
X110758184Y-82708361D01*
X110519117Y-82644303D01*
X110273756Y-82612001D01*
X110273751Y-82612000D01*
X110273746Y-82612000D01*
X110026254Y-82612000D01*
X110026248Y-82612000D01*
X110026243Y-82612001D01*
X109780882Y-82644303D01*
X109541815Y-82708361D01*
X109313170Y-82803069D01*
X109313159Y-82803074D01*
X109098840Y-82926812D01*
X109098824Y-82926823D01*
X108902485Y-83077479D01*
X108902478Y-83077485D01*
X108727485Y-83252478D01*
X108727479Y-83252485D01*
X108576823Y-83448824D01*
X108576812Y-83448840D01*
X108453074Y-83663159D01*
X108453069Y-83663170D01*
X108358361Y-83891815D01*
X108294303Y-84130882D01*
X108262001Y-84376243D01*
X108262000Y-84376260D01*
X97000500Y-84376260D01*
X97000500Y-81921153D01*
X126699500Y-81921153D01*
X126699500Y-82078846D01*
X126730261Y-82233489D01*
X126730264Y-82233501D01*
X126790602Y-82379172D01*
X126790609Y-82379185D01*
X126878210Y-82510288D01*
X126878213Y-82510292D01*
X126989707Y-82621786D01*
X126989711Y-82621789D01*
X127120814Y-82709390D01*
X127120827Y-82709397D01*
X127266498Y-82769735D01*
X127266503Y-82769737D01*
X127421153Y-82800499D01*
X127421156Y-82800500D01*
X127421158Y-82800500D01*
X127578844Y-82800500D01*
X127578845Y-82800499D01*
X127733497Y-82769737D01*
X127879179Y-82709394D01*
X128010289Y-82621789D01*
X128121789Y-82510289D01*
X128209394Y-82379179D01*
X128269737Y-82233497D01*
X128300500Y-82078842D01*
X128300500Y-81921158D01*
X128300500Y-81921155D01*
X128300499Y-81921153D01*
X128286503Y-81850793D01*
X128269737Y-81766503D01*
X128238590Y-81691307D01*
X128209397Y-81620827D01*
X128209390Y-81620814D01*
X128121789Y-81489711D01*
X128121786Y-81489707D01*
X128010292Y-81378213D01*
X128010288Y-81378210D01*
X127879185Y-81290609D01*
X127879172Y-81290602D01*
X127733501Y-81230264D01*
X127733489Y-81230261D01*
X127578845Y-81199500D01*
X127578842Y-81199500D01*
X127421158Y-81199500D01*
X127421155Y-81199500D01*
X127266510Y-81230261D01*
X127266498Y-81230264D01*
X127120827Y-81290602D01*
X127120814Y-81290609D01*
X126989711Y-81378210D01*
X126989707Y-81378213D01*
X126878213Y-81489707D01*
X126878210Y-81489711D01*
X126790609Y-81620814D01*
X126790602Y-81620827D01*
X126730264Y-81766498D01*
X126730261Y-81766510D01*
X126699500Y-81921153D01*
X97000500Y-81921153D01*
X97000500Y-80240892D01*
X129081249Y-80240892D01*
X129119697Y-80434178D01*
X129119700Y-80434188D01*
X129195114Y-80616256D01*
X129195121Y-80616269D01*
X129304610Y-80780130D01*
X129304613Y-80780134D01*
X129443964Y-80919485D01*
X129443968Y-80919488D01*
X129607829Y-81028977D01*
X129607842Y-81028984D01*
X129740121Y-81083775D01*
X129789915Y-81104400D01*
X129789919Y-81104400D01*
X129789920Y-81104401D01*
X129983206Y-81142849D01*
X129983209Y-81142849D01*
X130234407Y-81142849D01*
X130301446Y-81162534D01*
X130347201Y-81215338D01*
X130357145Y-81284496D01*
X130348968Y-81314301D01*
X130326225Y-81369206D01*
X130326222Y-81369216D01*
X130294500Y-81528692D01*
X130294500Y-81528695D01*
X130294500Y-81691305D01*
X130294500Y-81691307D01*
X130294499Y-81691307D01*
X130326222Y-81850783D01*
X130326225Y-81850793D01*
X130388450Y-82001019D01*
X130388452Y-82001023D01*
X130478788Y-82136220D01*
X130478794Y-82136228D01*
X130593771Y-82251205D01*
X130593779Y-82251211D01*
X130728976Y-82341547D01*
X130728980Y-82341549D01*
X130879206Y-82403774D01*
X130879211Y-82403776D01*
X130879215Y-82403776D01*
X130879216Y-82403777D01*
X131038692Y-82435500D01*
X131038695Y-82435500D01*
X131201307Y-82435500D01*
X131308598Y-82414157D01*
X131360789Y-82403776D01*
X131511021Y-82341548D01*
X131511023Y-82341547D01*
X131578169Y-82296680D01*
X131646225Y-82251208D01*
X131761208Y-82136225D01*
X131851548Y-82001021D01*
X131913776Y-81850789D01*
X131924157Y-81798598D01*
X131945500Y-81691307D01*
X131945500Y-81528692D01*
X131913777Y-81369216D01*
X131913776Y-81369215D01*
X131913776Y-81369211D01*
X131878686Y-81284496D01*
X131851549Y-81218981D01*
X131838532Y-81199500D01*
X131772209Y-81100240D01*
X131751332Y-81033563D01*
X131769817Y-80966183D01*
X131806422Y-80928247D01*
X131819532Y-80919488D01*
X131958889Y-80780131D01*
X132068382Y-80616263D01*
X132143801Y-80434184D01*
X132182250Y-80240890D01*
X132182250Y-80043808D01*
X132182250Y-80043805D01*
X132143802Y-79850519D01*
X132143801Y-79850518D01*
X132143801Y-79850514D01*
X132143799Y-79850509D01*
X132068385Y-79668441D01*
X132068378Y-79668428D01*
X131958889Y-79504567D01*
X131958886Y-79504563D01*
X131819535Y-79365212D01*
X131819531Y-79365209D01*
X131655670Y-79255720D01*
X131655657Y-79255713D01*
X131473589Y-79180299D01*
X131473579Y-79180296D01*
X131280293Y-79141849D01*
X131280291Y-79141849D01*
X129983209Y-79141849D01*
X129983207Y-79141849D01*
X129789920Y-79180296D01*
X129789910Y-79180299D01*
X129607842Y-79255713D01*
X129607829Y-79255720D01*
X129443968Y-79365209D01*
X129443964Y-79365212D01*
X129304613Y-79504563D01*
X129304610Y-79504567D01*
X129195121Y-79668428D01*
X129195114Y-79668441D01*
X129119700Y-79850509D01*
X129119697Y-79850519D01*
X129081250Y-80043805D01*
X129081250Y-80043808D01*
X129081250Y-80240890D01*
X129081250Y-80240892D01*
X129081249Y-80240892D01*
X97000500Y-80240892D01*
X97000500Y-76521153D01*
X115699500Y-76521153D01*
X115699500Y-76678846D01*
X115730261Y-76833489D01*
X115730264Y-76833501D01*
X115790602Y-76979172D01*
X115790609Y-76979185D01*
X115878210Y-77110288D01*
X115878213Y-77110292D01*
X115989707Y-77221786D01*
X115989711Y-77221789D01*
X116120814Y-77309390D01*
X116120827Y-77309397D01*
X116266498Y-77369735D01*
X116266503Y-77369737D01*
X116421153Y-77400499D01*
X116421156Y-77400500D01*
X116421158Y-77400500D01*
X116578844Y-77400500D01*
X116578845Y-77400499D01*
X116733497Y-77369737D01*
X116879179Y-77309394D01*
X117010289Y-77221789D01*
X117121789Y-77110289D01*
X117209394Y-76979179D01*
X117269737Y-76833497D01*
X117300500Y-76678842D01*
X117300500Y-76521158D01*
X117300500Y-76521155D01*
X117300499Y-76521153D01*
X117274264Y-76389257D01*
X117270662Y-76371153D01*
X120449500Y-76371153D01*
X120449500Y-76528846D01*
X120480261Y-76683489D01*
X120480264Y-76683501D01*
X120540602Y-76829172D01*
X120540609Y-76829185D01*
X120628210Y-76960288D01*
X120628213Y-76960292D01*
X120739707Y-77071786D01*
X120739711Y-77071789D01*
X120870814Y-77159390D01*
X120870827Y-77159397D01*
X121016498Y-77219735D01*
X121016503Y-77219737D01*
X121171153Y-77250499D01*
X121171156Y-77250500D01*
X121171158Y-77250500D01*
X121328844Y-77250500D01*
X121328845Y-77250499D01*
X121483497Y-77219737D01*
X121629179Y-77159394D01*
X121760289Y-77071789D01*
X121871789Y-76960289D01*
X121959394Y-76829179D01*
X122019737Y-76683497D01*
X122050500Y-76528842D01*
X122050500Y-76371158D01*
X122050500Y-76371155D01*
X122050499Y-76371153D01*
X122032204Y-76279179D01*
X122019737Y-76216503D01*
X121985352Y-76133489D01*
X121959397Y-76070827D01*
X121959390Y-76070814D01*
X121871789Y-75939711D01*
X121871786Y-75939707D01*
X121760292Y-75828213D01*
X121760288Y-75828210D01*
X121629185Y-75740609D01*
X121629172Y-75740602D01*
X121578532Y-75719627D01*
X121483501Y-75680264D01*
X121483489Y-75680261D01*
X121328845Y-75649500D01*
X121328842Y-75649500D01*
X121171158Y-75649500D01*
X121171155Y-75649500D01*
X121016510Y-75680261D01*
X121016498Y-75680264D01*
X120870827Y-75740602D01*
X120870814Y-75740609D01*
X120739711Y-75828210D01*
X120739707Y-75828213D01*
X120628213Y-75939707D01*
X120628210Y-75939711D01*
X120540609Y-76070814D01*
X120540602Y-76070827D01*
X120480264Y-76216498D01*
X120480261Y-76216510D01*
X120449500Y-76371153D01*
X117270662Y-76371153D01*
X117269738Y-76366507D01*
X117269735Y-76366498D01*
X117209397Y-76220827D01*
X117209390Y-76220814D01*
X117121789Y-76089711D01*
X117121786Y-76089707D01*
X117010292Y-75978213D01*
X117010288Y-75978210D01*
X116879185Y-75890609D01*
X116879172Y-75890602D01*
X116733501Y-75830264D01*
X116733489Y-75830261D01*
X116578845Y-75799500D01*
X116578842Y-75799500D01*
X116421158Y-75799500D01*
X116421155Y-75799500D01*
X116266510Y-75830261D01*
X116266498Y-75830264D01*
X116120827Y-75890602D01*
X116120814Y-75890609D01*
X115989711Y-75978210D01*
X115989707Y-75978213D01*
X115878213Y-76089707D01*
X115878210Y-76089711D01*
X115790609Y-76220814D01*
X115790602Y-76220827D01*
X115730264Y-76366498D01*
X115730261Y-76366510D01*
X115699500Y-76521153D01*
X97000500Y-76521153D01*
X97000500Y-74589778D01*
X104362000Y-74589778D01*
X104362000Y-74810221D01*
X104396485Y-75027952D01*
X104464603Y-75237603D01*
X104464604Y-75237606D01*
X104564687Y-75434025D01*
X104694252Y-75612358D01*
X104694256Y-75612363D01*
X104850136Y-75768243D01*
X104850141Y-75768247D01*
X104932678Y-75828213D01*
X105028478Y-75897815D01*
X105110695Y-75939707D01*
X105224893Y-75997895D01*
X105224896Y-75997896D01*
X105329721Y-76031955D01*
X105434549Y-76066015D01*
X105652278Y-76100500D01*
X105652279Y-76100500D01*
X105872721Y-76100500D01*
X105872722Y-76100500D01*
X106090451Y-76066015D01*
X106300106Y-75997895D01*
X106496522Y-75897815D01*
X106674865Y-75768242D01*
X106830742Y-75612365D01*
X106960315Y-75434022D01*
X107060395Y-75237606D01*
X107128515Y-75027951D01*
X107163000Y-74810222D01*
X107163000Y-74589778D01*
X110762000Y-74589778D01*
X110762000Y-74810221D01*
X110796485Y-75027952D01*
X110864603Y-75237603D01*
X110864604Y-75237606D01*
X110964687Y-75434025D01*
X111094252Y-75612358D01*
X111094256Y-75612363D01*
X111250136Y-75768243D01*
X111250141Y-75768247D01*
X111332678Y-75828213D01*
X111428478Y-75897815D01*
X111510695Y-75939707D01*
X111624893Y-75997895D01*
X111624896Y-75997896D01*
X111729721Y-76031955D01*
X111834549Y-76066015D01*
X112052278Y-76100500D01*
X112052279Y-76100500D01*
X112272721Y-76100500D01*
X112272722Y-76100500D01*
X112490451Y-76066015D01*
X112700106Y-75997895D01*
X112896522Y-75897815D01*
X113074865Y-75768242D01*
X113230742Y-75612365D01*
X113231623Y-75611153D01*
X123379500Y-75611153D01*
X123379500Y-75768846D01*
X123410261Y-75923489D01*
X123410264Y-75923501D01*
X123470602Y-76069172D01*
X123470609Y-76069185D01*
X123558210Y-76200288D01*
X123558213Y-76200292D01*
X123669707Y-76311786D01*
X123669711Y-76311789D01*
X123800814Y-76399390D01*
X123800827Y-76399397D01*
X123946498Y-76459735D01*
X123946503Y-76459737D01*
X124101153Y-76490499D01*
X124101156Y-76490500D01*
X124101158Y-76490500D01*
X124258844Y-76490500D01*
X124258845Y-76490499D01*
X124413497Y-76459737D01*
X124559179Y-76399394D01*
X124690289Y-76311789D01*
X124801789Y-76200289D01*
X124889394Y-76069179D01*
X124949737Y-75923497D01*
X124962146Y-75861110D01*
X124970095Y-75821153D01*
X129949500Y-75821153D01*
X129949500Y-75978846D01*
X129980261Y-76133489D01*
X129980264Y-76133501D01*
X130040602Y-76279172D01*
X130040609Y-76279185D01*
X130128210Y-76410288D01*
X130128213Y-76410292D01*
X130239707Y-76521786D01*
X130239711Y-76521789D01*
X130370814Y-76609390D01*
X130370827Y-76609397D01*
X130516498Y-76669735D01*
X130516503Y-76669737D01*
X130671153Y-76700499D01*
X130671156Y-76700500D01*
X130671158Y-76700500D01*
X130828844Y-76700500D01*
X130828845Y-76700499D01*
X130983497Y-76669737D01*
X131129179Y-76609394D01*
X131260289Y-76521789D01*
X131371789Y-76410289D01*
X131459394Y-76279179D01*
X131519737Y-76133497D01*
X131550500Y-75978842D01*
X131550500Y-75821158D01*
X131550500Y-75821155D01*
X131550499Y-75821153D01*
X131540094Y-75768844D01*
X131519737Y-75666503D01*
X131512694Y-75649500D01*
X131459397Y-75520827D01*
X131459390Y-75520814D01*
X131371789Y-75389711D01*
X131371786Y-75389707D01*
X131260292Y-75278213D01*
X131260288Y-75278210D01*
X131129185Y-75190609D01*
X131129172Y-75190602D01*
X130983501Y-75130264D01*
X130983489Y-75130261D01*
X130828845Y-75099500D01*
X130828842Y-75099500D01*
X130671158Y-75099500D01*
X130671155Y-75099500D01*
X130516510Y-75130261D01*
X130516498Y-75130264D01*
X130370827Y-75190602D01*
X130370814Y-75190609D01*
X130239711Y-75278210D01*
X130239707Y-75278213D01*
X130128213Y-75389707D01*
X130128210Y-75389711D01*
X130040609Y-75520814D01*
X130040602Y-75520827D01*
X129980264Y-75666498D01*
X129980261Y-75666510D01*
X129949500Y-75821153D01*
X124970095Y-75821153D01*
X124976118Y-75790875D01*
X124980499Y-75768846D01*
X124980500Y-75768844D01*
X124980500Y-75611155D01*
X124980499Y-75611153D01*
X124949738Y-75456510D01*
X124949737Y-75456503D01*
X124949735Y-75456498D01*
X124889397Y-75310827D01*
X124889390Y-75310814D01*
X124801789Y-75179711D01*
X124801786Y-75179707D01*
X124690292Y-75068213D01*
X124690288Y-75068210D01*
X124559185Y-74980609D01*
X124559172Y-74980602D01*
X124413501Y-74920264D01*
X124413489Y-74920261D01*
X124258845Y-74889500D01*
X124258842Y-74889500D01*
X124101158Y-74889500D01*
X124101155Y-74889500D01*
X123946510Y-74920261D01*
X123946498Y-74920264D01*
X123800827Y-74980602D01*
X123800814Y-74980609D01*
X123669711Y-75068210D01*
X123669707Y-75068213D01*
X123558213Y-75179707D01*
X123558210Y-75179711D01*
X123470609Y-75310814D01*
X123470602Y-75310827D01*
X123410264Y-75456498D01*
X123410261Y-75456510D01*
X123379500Y-75611153D01*
X113231623Y-75611153D01*
X113360315Y-75434022D01*
X113460395Y-75237606D01*
X113528515Y-75027951D01*
X113563000Y-74810222D01*
X113563000Y-74589778D01*
X113528515Y-74372049D01*
X113483499Y-74233501D01*
X113460396Y-74162396D01*
X113460395Y-74162393D01*
X113363058Y-73971361D01*
X113363057Y-73971359D01*
X113360314Y-73965976D01*
X113327748Y-73921153D01*
X126699500Y-73921153D01*
X126699500Y-74078846D01*
X126730261Y-74233489D01*
X126730264Y-74233501D01*
X126790602Y-74379172D01*
X126790609Y-74379185D01*
X126878210Y-74510288D01*
X126878213Y-74510292D01*
X126989707Y-74621786D01*
X126989711Y-74621789D01*
X127120814Y-74709390D01*
X127120827Y-74709397D01*
X127266498Y-74769735D01*
X127266503Y-74769737D01*
X127421153Y-74800499D01*
X127421156Y-74800500D01*
X127421158Y-74800500D01*
X127578844Y-74800500D01*
X127578845Y-74800499D01*
X127733497Y-74769737D01*
X127879179Y-74709394D01*
X128010289Y-74621789D01*
X128121789Y-74510289D01*
X128209394Y-74379179D01*
X128269737Y-74233497D01*
X128300500Y-74078842D01*
X128300500Y-73921158D01*
X128300500Y-73921155D01*
X128300499Y-73921153D01*
X128269737Y-73766503D01*
X128269735Y-73766498D01*
X128209397Y-73620827D01*
X128209390Y-73620814D01*
X128121789Y-73489711D01*
X128121786Y-73489707D01*
X128010292Y-73378213D01*
X128010288Y-73378210D01*
X127879185Y-73290609D01*
X127879172Y-73290602D01*
X127733501Y-73230264D01*
X127733489Y-73230261D01*
X127578845Y-73199500D01*
X127578842Y-73199500D01*
X127421158Y-73199500D01*
X127421155Y-73199500D01*
X127266510Y-73230261D01*
X127266498Y-73230264D01*
X127120827Y-73290602D01*
X127120814Y-73290609D01*
X126989711Y-73378210D01*
X126989707Y-73378213D01*
X126878213Y-73489707D01*
X126878210Y-73489711D01*
X126790609Y-73620814D01*
X126790602Y-73620827D01*
X126730264Y-73766498D01*
X126730261Y-73766510D01*
X126699500Y-73921153D01*
X113327748Y-73921153D01*
X113230747Y-73787641D01*
X113230743Y-73787636D01*
X113074863Y-73631756D01*
X113074858Y-73631752D01*
X112896525Y-73502187D01*
X112896524Y-73502186D01*
X112896522Y-73502185D01*
X112833596Y-73470122D01*
X112700106Y-73402104D01*
X112700103Y-73402103D01*
X112490452Y-73333985D01*
X112381586Y-73316742D01*
X112272722Y-73299500D01*
X112052278Y-73299500D01*
X111979701Y-73310995D01*
X111834547Y-73333985D01*
X111624896Y-73402103D01*
X111624893Y-73402104D01*
X111428474Y-73502187D01*
X111250141Y-73631752D01*
X111250136Y-73631756D01*
X111094256Y-73787636D01*
X111094252Y-73787641D01*
X110964687Y-73965974D01*
X110864604Y-74162393D01*
X110864603Y-74162396D01*
X110796485Y-74372047D01*
X110762000Y-74589778D01*
X107163000Y-74589778D01*
X107128515Y-74372049D01*
X107083499Y-74233501D01*
X107060396Y-74162396D01*
X107060395Y-74162393D01*
X107017823Y-74078842D01*
X106960315Y-73965978D01*
X106927748Y-73921153D01*
X106830747Y-73787641D01*
X106830743Y-73787636D01*
X106674863Y-73631756D01*
X106674858Y-73631752D01*
X106496525Y-73502187D01*
X106496524Y-73502186D01*
X106496522Y-73502185D01*
X106433596Y-73470122D01*
X106300106Y-73402104D01*
X106300103Y-73402103D01*
X106090452Y-73333985D01*
X105981586Y-73316742D01*
X105872722Y-73299500D01*
X105652278Y-73299500D01*
X105579701Y-73310995D01*
X105434547Y-73333985D01*
X105224896Y-73402103D01*
X105224893Y-73402104D01*
X105028474Y-73502187D01*
X104850141Y-73631752D01*
X104850136Y-73631756D01*
X104694256Y-73787636D01*
X104694252Y-73787641D01*
X104564687Y-73965974D01*
X104464604Y-74162393D01*
X104464603Y-74162396D01*
X104396485Y-74372047D01*
X104362000Y-74589778D01*
X97000500Y-74589778D01*
X97000500Y-69521153D01*
X118449500Y-69521153D01*
X118449500Y-69678846D01*
X118480261Y-69833489D01*
X118480264Y-69833501D01*
X118540602Y-69979172D01*
X118540609Y-69979185D01*
X118628210Y-70110288D01*
X118628213Y-70110292D01*
X118739707Y-70221786D01*
X118739711Y-70221789D01*
X118870814Y-70309390D01*
X118870827Y-70309397D01*
X119016498Y-70369735D01*
X119016503Y-70369737D01*
X119165251Y-70399325D01*
X119171153Y-70400499D01*
X119171156Y-70400500D01*
X119171158Y-70400500D01*
X119328844Y-70400500D01*
X119328845Y-70400499D01*
X119483497Y-70369737D01*
X119629179Y-70309394D01*
X119629184Y-70309390D01*
X119629187Y-70309389D01*
X119656108Y-70291401D01*
X119722785Y-70270522D01*
X119790165Y-70289006D01*
X119793892Y-70291401D01*
X119820812Y-70309389D01*
X119820827Y-70309397D01*
X119966498Y-70369735D01*
X119966503Y-70369737D01*
X120115251Y-70399325D01*
X120121153Y-70400499D01*
X120121156Y-70400500D01*
X120121158Y-70400500D01*
X120278844Y-70400500D01*
X120278845Y-70400499D01*
X120433497Y-70369737D01*
X120579179Y-70309394D01*
X120689796Y-70235481D01*
X120756473Y-70214604D01*
X120806137Y-70224022D01*
X120916503Y-70269737D01*
X121025415Y-70291401D01*
X121071153Y-70300499D01*
X121071156Y-70300500D01*
X121071158Y-70300500D01*
X121228844Y-70300500D01*
X121228845Y-70300499D01*
X121383497Y-70269737D01*
X121529179Y-70209394D01*
X121660289Y-70121789D01*
X121771789Y-70010289D01*
X121859394Y-69879179D01*
X121919737Y-69733497D01*
X121950500Y-69578842D01*
X121950500Y-69421158D01*
X121950500Y-69421155D01*
X121950499Y-69421153D01*
X121946492Y-69401007D01*
X121919737Y-69266503D01*
X121900812Y-69220814D01*
X121859397Y-69120827D01*
X121859390Y-69120814D01*
X121771789Y-68989711D01*
X121771786Y-68989707D01*
X121660292Y-68878213D01*
X121660288Y-68878210D01*
X121529185Y-68790609D01*
X121529172Y-68790602D01*
X121383501Y-68730264D01*
X121383489Y-68730261D01*
X121228845Y-68699500D01*
X121228842Y-68699500D01*
X121071158Y-68699500D01*
X121071155Y-68699500D01*
X120916510Y-68730261D01*
X120916498Y-68730264D01*
X120770827Y-68790602D01*
X120770814Y-68790609D01*
X120660204Y-68864517D01*
X120593526Y-68885395D01*
X120543861Y-68875976D01*
X120433501Y-68830264D01*
X120433489Y-68830261D01*
X120278845Y-68799500D01*
X120278842Y-68799500D01*
X120121158Y-68799500D01*
X120121155Y-68799500D01*
X119966510Y-68830261D01*
X119966498Y-68830264D01*
X119820828Y-68890602D01*
X119820814Y-68890610D01*
X119793888Y-68908601D01*
X119727210Y-68929477D01*
X119659831Y-68910991D01*
X119656112Y-68908601D01*
X119629185Y-68890610D01*
X119629184Y-68890609D01*
X119629179Y-68890606D01*
X119629175Y-68890604D01*
X119629171Y-68890602D01*
X119483501Y-68830264D01*
X119483489Y-68830261D01*
X119328845Y-68799500D01*
X119328842Y-68799500D01*
X119171158Y-68799500D01*
X119171155Y-68799500D01*
X119016510Y-68830261D01*
X119016498Y-68830264D01*
X118870827Y-68890602D01*
X118870814Y-68890609D01*
X118739711Y-68978210D01*
X118739707Y-68978213D01*
X118628213Y-69089707D01*
X118628210Y-69089711D01*
X118540609Y-69220814D01*
X118540602Y-69220827D01*
X118480264Y-69366498D01*
X118480261Y-69366510D01*
X118449500Y-69521153D01*
X97000500Y-69521153D01*
X97000500Y-66921153D01*
X107699500Y-66921153D01*
X107699500Y-67078846D01*
X107730261Y-67233489D01*
X107730264Y-67233501D01*
X107790602Y-67379172D01*
X107790609Y-67379185D01*
X107878210Y-67510288D01*
X107878213Y-67510292D01*
X107989707Y-67621786D01*
X107989711Y-67621789D01*
X108120814Y-67709390D01*
X108120827Y-67709397D01*
X108266498Y-67769735D01*
X108266503Y-67769737D01*
X108421153Y-67800499D01*
X108421156Y-67800500D01*
X108421158Y-67800500D01*
X108578844Y-67800500D01*
X108578845Y-67800499D01*
X108733497Y-67769737D01*
X108879179Y-67709394D01*
X109010289Y-67621789D01*
X109121789Y-67510289D01*
X109209394Y-67379179D01*
X109269737Y-67233497D01*
X109300500Y-67078842D01*
X109300500Y-67071153D01*
X115149500Y-67071153D01*
X115149500Y-67228846D01*
X115180261Y-67383489D01*
X115180264Y-67383501D01*
X115240602Y-67529172D01*
X115240609Y-67529185D01*
X115328210Y-67660288D01*
X115328213Y-67660292D01*
X115439707Y-67771786D01*
X115439711Y-67771789D01*
X115570814Y-67859390D01*
X115570827Y-67859397D01*
X115716498Y-67919735D01*
X115716503Y-67919737D01*
X115851255Y-67946541D01*
X115871153Y-67950499D01*
X115871156Y-67950500D01*
X115871158Y-67950500D01*
X116028844Y-67950500D01*
X116028845Y-67950499D01*
X116183497Y-67919737D01*
X116329179Y-67859394D01*
X116460289Y-67771789D01*
X116571789Y-67660289D01*
X116659394Y-67529179D01*
X116662854Y-67520827D01*
X116717163Y-67389711D01*
X116719737Y-67383497D01*
X116750500Y-67228842D01*
X116750500Y-67071158D01*
X116750500Y-67071155D01*
X116750499Y-67071153D01*
X116744005Y-67038504D01*
X116719737Y-66916503D01*
X116704296Y-66879225D01*
X116659397Y-66770827D01*
X116659390Y-66770814D01*
X116571789Y-66639711D01*
X116571786Y-66639707D01*
X116460292Y-66528213D01*
X116460288Y-66528210D01*
X116329185Y-66440609D01*
X116329172Y-66440602D01*
X116183501Y-66380264D01*
X116183489Y-66380261D01*
X116028845Y-66349500D01*
X116028842Y-66349500D01*
X115871158Y-66349500D01*
X115871155Y-66349500D01*
X115716510Y-66380261D01*
X115716498Y-66380264D01*
X115570827Y-66440602D01*
X115570814Y-66440609D01*
X115439711Y-66528210D01*
X115439707Y-66528213D01*
X115328213Y-66639707D01*
X115328210Y-66639711D01*
X115240609Y-66770814D01*
X115240602Y-66770827D01*
X115180264Y-66916498D01*
X115180261Y-66916510D01*
X115149500Y-67071153D01*
X109300500Y-67071153D01*
X109300500Y-66921158D01*
X109300500Y-66921155D01*
X109300499Y-66921153D01*
X109299573Y-66916498D01*
X109269737Y-66766503D01*
X109269735Y-66766498D01*
X109209397Y-66620827D01*
X109209390Y-66620814D01*
X109121789Y-66489711D01*
X109121786Y-66489707D01*
X109010292Y-66378213D01*
X109010288Y-66378210D01*
X108879185Y-66290609D01*
X108879172Y-66290602D01*
X108733501Y-66230264D01*
X108733489Y-66230261D01*
X108578845Y-66199500D01*
X108578842Y-66199500D01*
X108421158Y-66199500D01*
X108421155Y-66199500D01*
X108266510Y-66230261D01*
X108266498Y-66230264D01*
X108120827Y-66290602D01*
X108120814Y-66290609D01*
X107989711Y-66378210D01*
X107989707Y-66378213D01*
X107878213Y-66489707D01*
X107878210Y-66489711D01*
X107790609Y-66620814D01*
X107790602Y-66620827D01*
X107730264Y-66766498D01*
X107730261Y-66766510D01*
X107699500Y-66921153D01*
X97000500Y-66921153D01*
X97000500Y-65097992D01*
X102026481Y-65097992D01*
X102026481Y-65255685D01*
X102057242Y-65410328D01*
X102057245Y-65410340D01*
X102117583Y-65556011D01*
X102117590Y-65556024D01*
X102205191Y-65687127D01*
X102205194Y-65687131D01*
X102316688Y-65798625D01*
X102316692Y-65798628D01*
X102447795Y-65886229D01*
X102447808Y-65886236D01*
X102521817Y-65916891D01*
X102576221Y-65960731D01*
X102591728Y-65997228D01*
X102593284Y-65996756D01*
X102595054Y-66002592D01*
X102655393Y-66148265D01*
X102655400Y-66148278D01*
X102743001Y-66279381D01*
X102743004Y-66279385D01*
X102854498Y-66390879D01*
X102854502Y-66390882D01*
X102985605Y-66478483D01*
X102985618Y-66478490D01*
X103105657Y-66528211D01*
X103131294Y-66538830D01*
X103285944Y-66569592D01*
X103285947Y-66569593D01*
X103285949Y-66569593D01*
X103443635Y-66569593D01*
X103443636Y-66569592D01*
X103598288Y-66538830D01*
X103743970Y-66478487D01*
X103875080Y-66390882D01*
X103986580Y-66279382D01*
X104074185Y-66148272D01*
X104077819Y-66139500D01*
X104107844Y-66067011D01*
X104134528Y-66002590D01*
X104165291Y-65847935D01*
X104165291Y-65690251D01*
X104165291Y-65690248D01*
X104165290Y-65690246D01*
X104153258Y-65629758D01*
X104134528Y-65535596D01*
X104134526Y-65535591D01*
X104074188Y-65389920D01*
X104074181Y-65389907D01*
X103986580Y-65258804D01*
X103986577Y-65258800D01*
X103875083Y-65147306D01*
X103875079Y-65147303D01*
X103743976Y-65059702D01*
X103743967Y-65059697D01*
X103669953Y-65029040D01*
X103615550Y-64985199D01*
X103600052Y-64948702D01*
X103598488Y-64949177D01*
X103596717Y-64943340D01*
X103536378Y-64797666D01*
X103536371Y-64797653D01*
X103448770Y-64666550D01*
X103448767Y-64666546D01*
X103337273Y-64555052D01*
X103337269Y-64555049D01*
X103206166Y-64467448D01*
X103206153Y-64467441D01*
X103060482Y-64407103D01*
X103060470Y-64407100D01*
X102905826Y-64376339D01*
X102905823Y-64376339D01*
X102748139Y-64376339D01*
X102748136Y-64376339D01*
X102593491Y-64407100D01*
X102593479Y-64407103D01*
X102447808Y-64467441D01*
X102447795Y-64467448D01*
X102316692Y-64555049D01*
X102316688Y-64555052D01*
X102205194Y-64666546D01*
X102205191Y-64666550D01*
X102117590Y-64797653D01*
X102117583Y-64797666D01*
X102057245Y-64943337D01*
X102057242Y-64943349D01*
X102026481Y-65097992D01*
X97000500Y-65097992D01*
X97000500Y-61721153D01*
X100724500Y-61721153D01*
X100724500Y-61878846D01*
X100755261Y-62033489D01*
X100755264Y-62033501D01*
X100815602Y-62179172D01*
X100815609Y-62179185D01*
X100903210Y-62310288D01*
X100903213Y-62310292D01*
X101014707Y-62421786D01*
X101014711Y-62421789D01*
X101145814Y-62509390D01*
X101145827Y-62509397D01*
X101279420Y-62564732D01*
X101291503Y-62569737D01*
X101446153Y-62600499D01*
X101446156Y-62600500D01*
X101446158Y-62600500D01*
X101603844Y-62600500D01*
X101603845Y-62600499D01*
X101758497Y-62569737D01*
X101871166Y-62523067D01*
X101904172Y-62509397D01*
X101904172Y-62509396D01*
X101904179Y-62509394D01*
X101961411Y-62471153D01*
X109399500Y-62471153D01*
X109399500Y-62628846D01*
X109430261Y-62783489D01*
X109430264Y-62783501D01*
X109490602Y-62929172D01*
X109490609Y-62929185D01*
X109578210Y-63060288D01*
X109578213Y-63060292D01*
X109689707Y-63171786D01*
X109689711Y-63171789D01*
X109820814Y-63259390D01*
X109820827Y-63259397D01*
X109966498Y-63319735D01*
X109966503Y-63319737D01*
X110110852Y-63348450D01*
X110121153Y-63350499D01*
X110121156Y-63350500D01*
X110121158Y-63350500D01*
X110278844Y-63350500D01*
X110278845Y-63350499D01*
X110433497Y-63319737D01*
X110579179Y-63259394D01*
X110710289Y-63171789D01*
X110821789Y-63060289D01*
X110909394Y-62929179D01*
X110969737Y-62783497D01*
X111000500Y-62628842D01*
X111000500Y-62471158D01*
X111000500Y-62471155D01*
X111000499Y-62471153D01*
X110974264Y-62339257D01*
X110970662Y-62321153D01*
X111449500Y-62321153D01*
X111449500Y-62478846D01*
X111480261Y-62633488D01*
X111480264Y-62633501D01*
X111540602Y-62779172D01*
X111540609Y-62779185D01*
X111628210Y-62910288D01*
X111628213Y-62910292D01*
X111739707Y-63021786D01*
X111739711Y-63021789D01*
X111870814Y-63109390D01*
X111870827Y-63109397D01*
X111966050Y-63148839D01*
X112016503Y-63169737D01*
X112171153Y-63200499D01*
X112171156Y-63200500D01*
X112171158Y-63200500D01*
X112328844Y-63200500D01*
X112328845Y-63200499D01*
X112483497Y-63169737D01*
X112629179Y-63109394D01*
X112760289Y-63021789D01*
X112811192Y-62970886D01*
X112872515Y-62937400D01*
X112942207Y-62942384D01*
X112998140Y-62984255D01*
X113020491Y-63034374D01*
X113030261Y-63083491D01*
X113030264Y-63083501D01*
X113090602Y-63229172D01*
X113090609Y-63229185D01*
X113178210Y-63360288D01*
X113178213Y-63360292D01*
X113289707Y-63471786D01*
X113289711Y-63471789D01*
X113420814Y-63559390D01*
X113420827Y-63559397D01*
X113558710Y-63616509D01*
X113566503Y-63619737D01*
X113671041Y-63640531D01*
X113721153Y-63650499D01*
X113721156Y-63650500D01*
X113721158Y-63650500D01*
X113878843Y-63650500D01*
X113928959Y-63640531D01*
X113960263Y-63634304D01*
X114029854Y-63640531D01*
X114085032Y-63683393D01*
X114087532Y-63686993D01*
X114132635Y-63754495D01*
X114153212Y-63785291D01*
X114166828Y-63798907D01*
X114200313Y-63860230D01*
X114195329Y-63929922D01*
X114193709Y-63934039D01*
X114180263Y-63966501D01*
X114180261Y-63966505D01*
X114149500Y-64121153D01*
X114149500Y-64278846D01*
X114180261Y-64433489D01*
X114180264Y-64433501D01*
X114240602Y-64579172D01*
X114240609Y-64579185D01*
X114328210Y-64710288D01*
X114328213Y-64710292D01*
X114439707Y-64821786D01*
X114439711Y-64821789D01*
X114570814Y-64909390D01*
X114570827Y-64909397D01*
X114666866Y-64949177D01*
X114716503Y-64969737D01*
X114719766Y-64970386D01*
X114721316Y-64971197D01*
X114722338Y-64971507D01*
X114722279Y-64971700D01*
X114781677Y-65002767D01*
X114816255Y-65063481D01*
X114817197Y-65067813D01*
X114830261Y-65133489D01*
X114830266Y-65133508D01*
X114831265Y-65135919D01*
X114831411Y-65137281D01*
X114832031Y-65139324D01*
X114831643Y-65139441D01*
X114838728Y-65205389D01*
X114807447Y-65267865D01*
X114747355Y-65303512D01*
X114677530Y-65301012D01*
X114647809Y-65286463D01*
X114579184Y-65240609D01*
X114579172Y-65240602D01*
X114433501Y-65180264D01*
X114433489Y-65180261D01*
X114278845Y-65149500D01*
X114278842Y-65149500D01*
X114121158Y-65149500D01*
X114121155Y-65149500D01*
X113966510Y-65180261D01*
X113966498Y-65180264D01*
X113820827Y-65240602D01*
X113820814Y-65240609D01*
X113689711Y-65328210D01*
X113689707Y-65328213D01*
X113578213Y-65439707D01*
X113578210Y-65439711D01*
X113489545Y-65572407D01*
X113435932Y-65617212D01*
X113366607Y-65625919D01*
X113303580Y-65595764D01*
X113271882Y-65550969D01*
X113259795Y-65521789D01*
X113259394Y-65520821D01*
X113259392Y-65520818D01*
X113259390Y-65520814D01*
X113171789Y-65389711D01*
X113171786Y-65389707D01*
X113060292Y-65278213D01*
X113060288Y-65278210D01*
X112929185Y-65190609D01*
X112929172Y-65190602D01*
X112783501Y-65130264D01*
X112783489Y-65130261D01*
X112628845Y-65099500D01*
X112628842Y-65099500D01*
X112471158Y-65099500D01*
X112471155Y-65099500D01*
X112316510Y-65130261D01*
X112316498Y-65130264D01*
X112170827Y-65190602D01*
X112170814Y-65190609D01*
X112039711Y-65278210D01*
X112039707Y-65278213D01*
X111928213Y-65389707D01*
X111928210Y-65389711D01*
X111840609Y-65520814D01*
X111840602Y-65520827D01*
X111780264Y-65666498D01*
X111780261Y-65666510D01*
X111749500Y-65821153D01*
X111749500Y-65978846D01*
X111780261Y-66133489D01*
X111780264Y-66133501D01*
X111840602Y-66279172D01*
X111840609Y-66279185D01*
X111928210Y-66410288D01*
X111928213Y-66410292D01*
X112039707Y-66521786D01*
X112039711Y-66521789D01*
X112170814Y-66609390D01*
X112170827Y-66609397D01*
X112316498Y-66669735D01*
X112316503Y-66669737D01*
X112471153Y-66700499D01*
X112471156Y-66700500D01*
X112471158Y-66700500D01*
X112628844Y-66700500D01*
X112628845Y-66700499D01*
X112783497Y-66669737D01*
X112901592Y-66620821D01*
X112929172Y-66609397D01*
X112929172Y-66609396D01*
X112929179Y-66609394D01*
X113060289Y-66521789D01*
X113171789Y-66410289D01*
X113246131Y-66299028D01*
X113260454Y-66277593D01*
X113314066Y-66232787D01*
X113383391Y-66224080D01*
X113446418Y-66254234D01*
X113478116Y-66299028D01*
X113490603Y-66329173D01*
X113490609Y-66329185D01*
X113578210Y-66460288D01*
X113578213Y-66460292D01*
X113689707Y-66571786D01*
X113689711Y-66571789D01*
X113820814Y-66659390D01*
X113820827Y-66659397D01*
X113920060Y-66700500D01*
X113966503Y-66719737D01*
X114121153Y-66750499D01*
X114121156Y-66750500D01*
X114121158Y-66750500D01*
X114278844Y-66750500D01*
X114278845Y-66750499D01*
X114433497Y-66719737D01*
X114579179Y-66659394D01*
X114710289Y-66571789D01*
X114821789Y-66460289D01*
X114909394Y-66329179D01*
X114969737Y-66183497D01*
X115000500Y-66028842D01*
X115000500Y-65871158D01*
X115000500Y-65871155D01*
X115000499Y-65871153D01*
X114990553Y-65821153D01*
X114969737Y-65716503D01*
X114969735Y-65716498D01*
X114969734Y-65716494D01*
X114968737Y-65714087D01*
X114968590Y-65712724D01*
X114967969Y-65710676D01*
X114968357Y-65710558D01*
X114961270Y-65644618D01*
X114992547Y-65582140D01*
X115052637Y-65546489D01*
X115122462Y-65548985D01*
X115152186Y-65563533D01*
X115220821Y-65609394D01*
X115220823Y-65609395D01*
X115220827Y-65609397D01*
X115358683Y-65666498D01*
X115366503Y-65669737D01*
X115487214Y-65693748D01*
X115521153Y-65700499D01*
X115521156Y-65700500D01*
X115521158Y-65700500D01*
X115678844Y-65700500D01*
X115678845Y-65700499D01*
X115833497Y-65669737D01*
X115979179Y-65609394D01*
X116110289Y-65521789D01*
X116221789Y-65410289D01*
X116309394Y-65279179D01*
X116369737Y-65133497D01*
X116400500Y-64978842D01*
X116400500Y-64821158D01*
X116400500Y-64821155D01*
X116400499Y-64821153D01*
X116395826Y-64797660D01*
X116369737Y-64666503D01*
X116333569Y-64579185D01*
X116309397Y-64520827D01*
X116309390Y-64520814D01*
X116221789Y-64389711D01*
X116221786Y-64389707D01*
X116110292Y-64278213D01*
X116110288Y-64278210D01*
X115979185Y-64190609D01*
X115979172Y-64190602D01*
X115833499Y-64130263D01*
X115833491Y-64130261D01*
X115830227Y-64129612D01*
X115828674Y-64128799D01*
X115827663Y-64128493D01*
X115827721Y-64128301D01*
X115768316Y-64097227D01*
X115733742Y-64036511D01*
X115732811Y-64032232D01*
X115719737Y-63966503D01*
X115674584Y-63857493D01*
X115659397Y-63820827D01*
X115659390Y-63820814D01*
X115571790Y-63689712D01*
X115565471Y-63683393D01*
X115558170Y-63676092D01*
X115524686Y-63614772D01*
X115529668Y-63545081D01*
X115531271Y-63541006D01*
X115544737Y-63508497D01*
X115575500Y-63353842D01*
X115575500Y-63196158D01*
X115575500Y-63196155D01*
X115575499Y-63196153D01*
X115570245Y-63169738D01*
X115544737Y-63041503D01*
X115544735Y-63041498D01*
X115484397Y-62895827D01*
X115484390Y-62895814D01*
X115396789Y-62764711D01*
X115396786Y-62764707D01*
X115285292Y-62653213D01*
X115285288Y-62653210D01*
X115154185Y-62565609D01*
X115154172Y-62565602D01*
X115008501Y-62505264D01*
X115008489Y-62505261D01*
X114853845Y-62474500D01*
X114853842Y-62474500D01*
X114696158Y-62474500D01*
X114696153Y-62474500D01*
X114614736Y-62490695D01*
X114545144Y-62484468D01*
X114489967Y-62441605D01*
X114487443Y-62437969D01*
X114421789Y-62339710D01*
X114310292Y-62228213D01*
X114310288Y-62228210D01*
X114179185Y-62140609D01*
X114179172Y-62140602D01*
X114033501Y-62080264D01*
X114033489Y-62080261D01*
X113878845Y-62049500D01*
X113878842Y-62049500D01*
X113721158Y-62049500D01*
X113721155Y-62049500D01*
X113566510Y-62080261D01*
X113566498Y-62080264D01*
X113420827Y-62140602D01*
X113420814Y-62140609D01*
X113289711Y-62228210D01*
X113289706Y-62228214D01*
X113238805Y-62279115D01*
X113177482Y-62312599D01*
X113107790Y-62307614D01*
X113051857Y-62265743D01*
X113029508Y-62215624D01*
X113020596Y-62170821D01*
X113019737Y-62166503D01*
X113013578Y-62151633D01*
X112959397Y-62020827D01*
X112959390Y-62020814D01*
X112871789Y-61889711D01*
X112871786Y-61889707D01*
X112760292Y-61778213D01*
X112760288Y-61778210D01*
X112629185Y-61690609D01*
X112629172Y-61690602D01*
X112483501Y-61630264D01*
X112483489Y-61630261D01*
X112328845Y-61599500D01*
X112328842Y-61599500D01*
X112171158Y-61599500D01*
X112171155Y-61599500D01*
X112016510Y-61630261D01*
X112016498Y-61630264D01*
X111870827Y-61690602D01*
X111870814Y-61690609D01*
X111739711Y-61778210D01*
X111739707Y-61778213D01*
X111628213Y-61889707D01*
X111628210Y-61889711D01*
X111540609Y-62020814D01*
X111540602Y-62020827D01*
X111480264Y-62166498D01*
X111480261Y-62166510D01*
X111449500Y-62321153D01*
X110970662Y-62321153D01*
X110969738Y-62316507D01*
X110969735Y-62316498D01*
X110909397Y-62170827D01*
X110909390Y-62170814D01*
X110821789Y-62039711D01*
X110821786Y-62039707D01*
X110710292Y-61928213D01*
X110710288Y-61928210D01*
X110579185Y-61840609D01*
X110579172Y-61840602D01*
X110433501Y-61780264D01*
X110433489Y-61780261D01*
X110278845Y-61749500D01*
X110278842Y-61749500D01*
X110121158Y-61749500D01*
X110121155Y-61749500D01*
X109966510Y-61780261D01*
X109966498Y-61780264D01*
X109820827Y-61840602D01*
X109820814Y-61840609D01*
X109689711Y-61928210D01*
X109689707Y-61928213D01*
X109578213Y-62039707D01*
X109578210Y-62039711D01*
X109490609Y-62170814D01*
X109490602Y-62170827D01*
X109430264Y-62316498D01*
X109430261Y-62316510D01*
X109399500Y-62471153D01*
X101961411Y-62471153D01*
X102035289Y-62421789D01*
X102035292Y-62421786D01*
X102079694Y-62377385D01*
X102146786Y-62310292D01*
X102146789Y-62310289D01*
X102234394Y-62179179D01*
X102237854Y-62170827D01*
X102257024Y-62124544D01*
X102294737Y-62033497D01*
X102325500Y-61878842D01*
X102325500Y-61721158D01*
X102325500Y-61721155D01*
X102325499Y-61721153D01*
X102314129Y-61663994D01*
X102294737Y-61566503D01*
X102267167Y-61499943D01*
X102234397Y-61420827D01*
X102234390Y-61420814D01*
X102146789Y-61289711D01*
X102146786Y-61289707D01*
X102035292Y-61178213D01*
X102035288Y-61178210D01*
X101904185Y-61090609D01*
X101904172Y-61090602D01*
X101758501Y-61030264D01*
X101758489Y-61030261D01*
X101603845Y-60999500D01*
X101603842Y-60999500D01*
X101446158Y-60999500D01*
X101446155Y-60999500D01*
X101291510Y-61030261D01*
X101291498Y-61030264D01*
X101145827Y-61090602D01*
X101145814Y-61090609D01*
X101014711Y-61178210D01*
X101014707Y-61178213D01*
X100903213Y-61289707D01*
X100903210Y-61289711D01*
X100815609Y-61420814D01*
X100815602Y-61420827D01*
X100755264Y-61566498D01*
X100755261Y-61566510D01*
X100724500Y-61721153D01*
X97000500Y-61721153D01*
X97000500Y-59104211D01*
X108032558Y-59104211D01*
X108032558Y-59261904D01*
X108063319Y-59416547D01*
X108063322Y-59416559D01*
X108123660Y-59562230D01*
X108123667Y-59562243D01*
X108211268Y-59693346D01*
X108211271Y-59693350D01*
X108322765Y-59804844D01*
X108322769Y-59804847D01*
X108453872Y-59892448D01*
X108453885Y-59892455D01*
X108592639Y-59949928D01*
X108599561Y-59952795D01*
X108735399Y-59979815D01*
X108754211Y-59983557D01*
X108754214Y-59983558D01*
X108754216Y-59983558D01*
X108911902Y-59983558D01*
X108911903Y-59983557D01*
X109066555Y-59952795D01*
X109179224Y-59906125D01*
X109212230Y-59892455D01*
X109212230Y-59892454D01*
X109212237Y-59892452D01*
X109343347Y-59804847D01*
X109454847Y-59693347D01*
X109542452Y-59562237D01*
X109602795Y-59416555D01*
X109633558Y-59261900D01*
X109633558Y-59104216D01*
X109633558Y-59104213D01*
X109633557Y-59104211D01*
X109623050Y-59051389D01*
X109602795Y-58949561D01*
X109587186Y-58911877D01*
X109542455Y-58803885D01*
X109542448Y-58803872D01*
X109454847Y-58672769D01*
X109454844Y-58672765D01*
X109343352Y-58561273D01*
X109343345Y-58561267D01*
X109212243Y-58473667D01*
X109212230Y-58473660D01*
X109206177Y-58471153D01*
X113349500Y-58471153D01*
X113349500Y-58628846D01*
X113380261Y-58783489D01*
X113380264Y-58783501D01*
X113440602Y-58929172D01*
X113440609Y-58929185D01*
X113528210Y-59060288D01*
X113528213Y-59060292D01*
X113639707Y-59171786D01*
X113639711Y-59171789D01*
X113770814Y-59259390D01*
X113770827Y-59259397D01*
X113918608Y-59320609D01*
X113973012Y-59364449D01*
X113995077Y-59430743D01*
X113985717Y-59482622D01*
X113930264Y-59616498D01*
X113930261Y-59616510D01*
X113899500Y-59771153D01*
X113899500Y-59928846D01*
X113930261Y-60083489D01*
X113930264Y-60083501D01*
X113990602Y-60229172D01*
X113990609Y-60229185D01*
X114078210Y-60360288D01*
X114078213Y-60360292D01*
X114189707Y-60471786D01*
X114189711Y-60471789D01*
X114320814Y-60559390D01*
X114320827Y-60559397D01*
X114430082Y-60604651D01*
X114466503Y-60619737D01*
X114466506Y-60619737D01*
X114469774Y-60620729D01*
X114471278Y-60621714D01*
X114472131Y-60622068D01*
X114472063Y-60622229D01*
X114528212Y-60659027D01*
X114548338Y-60691937D01*
X114605181Y-60829172D01*
X114605188Y-60829185D01*
X114692789Y-60960288D01*
X114692792Y-60960292D01*
X114804286Y-61071786D01*
X114804290Y-61071789D01*
X114935393Y-61159390D01*
X114935406Y-61159397D01*
X115081077Y-61219735D01*
X115081082Y-61219737D01*
X115223269Y-61248020D01*
X115235732Y-61250499D01*
X115235735Y-61250500D01*
X115371982Y-61250500D01*
X115439021Y-61270185D01*
X115475081Y-61305605D01*
X115478211Y-61310289D01*
X115478213Y-61310291D01*
X115478217Y-61310296D01*
X115589707Y-61421786D01*
X115589711Y-61421789D01*
X115720814Y-61509390D01*
X115720827Y-61509397D01*
X115858683Y-61566498D01*
X115866503Y-61569737D01*
X116016131Y-61599500D01*
X116021153Y-61600499D01*
X116021156Y-61600500D01*
X116021158Y-61600500D01*
X116178844Y-61600500D01*
X116178845Y-61600499D01*
X116333497Y-61569737D01*
X116455237Y-61519311D01*
X116479172Y-61509397D01*
X116479172Y-61509396D01*
X116479179Y-61509394D01*
X116610289Y-61421789D01*
X116721789Y-61310289D01*
X116809394Y-61179179D01*
X116869737Y-61033497D01*
X116900500Y-60878842D01*
X116900500Y-60721158D01*
X116900500Y-60721155D01*
X116900499Y-60721153D01*
X116870733Y-60571506D01*
X116870731Y-60571500D01*
X116869737Y-60566504D01*
X116869735Y-60566498D01*
X116864306Y-60553392D01*
X121074500Y-60553392D01*
X121074500Y-60711085D01*
X121105261Y-60865728D01*
X121105264Y-60865740D01*
X121165602Y-61011411D01*
X121165609Y-61011424D01*
X121253210Y-61142527D01*
X121253213Y-61142531D01*
X121364707Y-61254025D01*
X121364711Y-61254028D01*
X121495814Y-61341629D01*
X121495827Y-61341636D01*
X121637879Y-61400475D01*
X121641503Y-61401976D01*
X121796153Y-61432738D01*
X121796156Y-61432739D01*
X121796158Y-61432739D01*
X121953844Y-61432739D01*
X121953845Y-61432738D01*
X122108497Y-61401976D01*
X122254179Y-61341633D01*
X122385289Y-61254028D01*
X122496789Y-61142528D01*
X122584394Y-61011418D01*
X122644737Y-60865736D01*
X122675500Y-60711081D01*
X122675500Y-60553397D01*
X122675500Y-60553394D01*
X122675499Y-60553392D01*
X122649130Y-60420827D01*
X122644737Y-60398742D01*
X122637391Y-60381007D01*
X122584397Y-60253066D01*
X122584390Y-60253053D01*
X122496789Y-60121950D01*
X122496786Y-60121946D01*
X122385292Y-60010452D01*
X122385288Y-60010449D01*
X122254185Y-59922848D01*
X122254172Y-59922841D01*
X122108501Y-59862503D01*
X122108489Y-59862500D01*
X121953845Y-59831739D01*
X121953842Y-59831739D01*
X121796158Y-59831739D01*
X121796155Y-59831739D01*
X121641510Y-59862500D01*
X121641498Y-59862503D01*
X121495827Y-59922841D01*
X121495814Y-59922848D01*
X121364711Y-60010449D01*
X121364707Y-60010452D01*
X121253213Y-60121946D01*
X121253210Y-60121950D01*
X121165609Y-60253053D01*
X121165602Y-60253066D01*
X121105264Y-60398737D01*
X121105261Y-60398749D01*
X121074500Y-60553392D01*
X116864306Y-60553392D01*
X116809397Y-60420827D01*
X116809390Y-60420814D01*
X116721789Y-60289711D01*
X116721786Y-60289707D01*
X116610292Y-60178213D01*
X116610288Y-60178210D01*
X116479185Y-60090609D01*
X116479172Y-60090602D01*
X116333501Y-60030264D01*
X116333489Y-60030261D01*
X116178845Y-59999500D01*
X116178842Y-59999500D01*
X116042597Y-59999500D01*
X115975558Y-59979815D01*
X115939493Y-59944388D01*
X115936367Y-59939709D01*
X115824871Y-59828213D01*
X115824867Y-59828210D01*
X115693764Y-59740609D01*
X115693751Y-59740602D01*
X115548068Y-59680259D01*
X115544793Y-59679266D01*
X115543289Y-59678280D01*
X115542448Y-59677932D01*
X115542514Y-59677772D01*
X115486359Y-59640962D01*
X115466241Y-59608062D01*
X115409397Y-59470827D01*
X115409390Y-59470814D01*
X115321789Y-59339711D01*
X115321786Y-59339707D01*
X115210292Y-59228213D01*
X115210288Y-59228210D01*
X115079185Y-59140609D01*
X115079172Y-59140602D01*
X114987198Y-59102506D01*
X114987197Y-59102506D01*
X114931390Y-59079390D01*
X114876987Y-59035549D01*
X114863169Y-58994032D01*
X118006045Y-58994032D01*
X118006045Y-59151725D01*
X118036806Y-59306368D01*
X118036809Y-59306380D01*
X118097147Y-59452051D01*
X118097154Y-59452064D01*
X118184755Y-59583167D01*
X118184758Y-59583171D01*
X118296252Y-59694665D01*
X118296256Y-59694668D01*
X118427359Y-59782269D01*
X118427372Y-59782276D01*
X118546788Y-59831739D01*
X118573048Y-59842616D01*
X118727698Y-59873378D01*
X118727701Y-59873379D01*
X118873853Y-59873379D01*
X118940892Y-59893064D01*
X118986647Y-59945868D01*
X118988402Y-59949899D01*
X118998077Y-59973255D01*
X119007547Y-59996120D01*
X119007551Y-59996127D01*
X119095152Y-60127230D01*
X119095155Y-60127234D01*
X119206649Y-60238728D01*
X119206653Y-60238731D01*
X119337756Y-60326332D01*
X119337769Y-60326339D01*
X119469737Y-60381001D01*
X119483445Y-60386679D01*
X119638095Y-60417441D01*
X119638098Y-60417442D01*
X119638100Y-60417442D01*
X119795786Y-60417442D01*
X119795787Y-60417441D01*
X119950439Y-60386679D01*
X120096121Y-60326336D01*
X120227231Y-60238731D01*
X120338731Y-60127231D01*
X120426336Y-59996121D01*
X120486679Y-59850439D01*
X120517442Y-59695784D01*
X120517442Y-59538100D01*
X120517442Y-59538097D01*
X120517441Y-59538095D01*
X120504566Y-59473368D01*
X120486679Y-59383445D01*
X120474147Y-59353189D01*
X120426339Y-59237769D01*
X120426332Y-59237756D01*
X120338731Y-59106653D01*
X120338728Y-59106649D01*
X120227234Y-58995155D01*
X120227230Y-58995152D01*
X120096127Y-58907551D01*
X120096114Y-58907544D01*
X119950443Y-58847206D01*
X119950431Y-58847203D01*
X119795787Y-58816442D01*
X119795784Y-58816442D01*
X119649634Y-58816442D01*
X119582595Y-58796757D01*
X119536840Y-58743953D01*
X119535073Y-58739894D01*
X119515942Y-58693707D01*
X119515941Y-58693706D01*
X119515939Y-58693700D01*
X119472604Y-58628844D01*
X119428334Y-58562589D01*
X119316837Y-58451092D01*
X119316833Y-58451089D01*
X119185730Y-58363488D01*
X119185717Y-58363481D01*
X119040046Y-58303143D01*
X119040034Y-58303140D01*
X118885390Y-58272379D01*
X118885387Y-58272379D01*
X118727703Y-58272379D01*
X118727700Y-58272379D01*
X118573055Y-58303140D01*
X118573043Y-58303143D01*
X118427372Y-58363481D01*
X118427359Y-58363488D01*
X118296256Y-58451089D01*
X118296252Y-58451092D01*
X118184758Y-58562586D01*
X118184755Y-58562590D01*
X118097154Y-58693693D01*
X118097147Y-58693706D01*
X118036809Y-58839377D01*
X118036806Y-58839389D01*
X118006045Y-58994032D01*
X114863169Y-58994032D01*
X114854922Y-58969255D01*
X114864281Y-58917379D01*
X114919737Y-58783497D01*
X114950500Y-58628842D01*
X114950500Y-58471158D01*
X114950500Y-58471155D01*
X114950499Y-58471153D01*
X114946508Y-58451089D01*
X114919737Y-58316503D01*
X114914202Y-58303140D01*
X114859397Y-58170827D01*
X114859390Y-58170814D01*
X114771789Y-58039711D01*
X114771786Y-58039707D01*
X114660292Y-57928213D01*
X114660288Y-57928210D01*
X114529185Y-57840609D01*
X114529172Y-57840602D01*
X114383501Y-57780264D01*
X114383489Y-57780261D01*
X114228845Y-57749500D01*
X114228842Y-57749500D01*
X114071158Y-57749500D01*
X114071155Y-57749500D01*
X113916510Y-57780261D01*
X113916498Y-57780264D01*
X113770827Y-57840602D01*
X113770814Y-57840609D01*
X113639711Y-57928210D01*
X113639707Y-57928213D01*
X113528213Y-58039707D01*
X113528210Y-58039711D01*
X113440609Y-58170814D01*
X113440602Y-58170827D01*
X113380264Y-58316498D01*
X113380261Y-58316510D01*
X113349500Y-58471153D01*
X109206177Y-58471153D01*
X109066559Y-58413322D01*
X109066547Y-58413319D01*
X108911903Y-58382558D01*
X108911900Y-58382558D01*
X108754216Y-58382558D01*
X108754213Y-58382558D01*
X108599568Y-58413319D01*
X108599556Y-58413322D01*
X108453885Y-58473660D01*
X108453872Y-58473667D01*
X108322769Y-58561268D01*
X108322765Y-58561271D01*
X108211271Y-58672765D01*
X108211268Y-58672769D01*
X108123667Y-58803872D01*
X108123660Y-58803885D01*
X108063322Y-58949556D01*
X108063319Y-58949568D01*
X108032558Y-59104211D01*
X97000500Y-59104211D01*
X97000500Y-55016781D01*
X97020185Y-54949742D01*
X97072989Y-54903987D01*
X97142147Y-54894043D01*
X97205703Y-54923068D01*
X97220353Y-54938116D01*
X97314453Y-55052777D01*
X97547222Y-55285546D01*
X97547227Y-55285550D01*
X97547228Y-55285551D01*
X97801702Y-55494393D01*
X98075421Y-55677286D01*
X98075430Y-55677291D01*
X98075432Y-55677292D01*
X98116829Y-55699419D01*
X98365749Y-55832469D01*
X98669889Y-55958448D01*
X98984913Y-56054010D01*
X98984919Y-56054011D01*
X98984922Y-56054012D01*
X98984933Y-56054015D01*
X99165361Y-56089903D01*
X99307787Y-56118233D01*
X99635400Y-56150500D01*
X99635403Y-56150500D01*
X99964597Y-56150500D01*
X99964600Y-56150500D01*
X100292213Y-56118233D01*
X100469760Y-56082916D01*
X100615066Y-56054015D01*
X100615077Y-56054012D01*
X100615077Y-56054011D01*
X100615087Y-56054010D01*
X100930111Y-55958448D01*
X101234251Y-55832469D01*
X101524579Y-55677286D01*
X101798298Y-55494393D01*
X102052772Y-55285551D01*
X102285551Y-55052772D01*
X102494393Y-54798298D01*
X102677286Y-54524579D01*
X102832469Y-54234251D01*
X102958448Y-53930111D01*
X103054010Y-53615087D01*
X103054012Y-53615077D01*
X103054015Y-53615066D01*
X103087203Y-53448211D01*
X103118233Y-53292213D01*
X103150500Y-52964600D01*
X103150500Y-52635400D01*
X103118233Y-52307787D01*
X103074872Y-52089792D01*
X103054015Y-51984933D01*
X103054012Y-51984922D01*
X103054011Y-51984919D01*
X103054010Y-51984913D01*
X102958448Y-51669889D01*
X102832469Y-51365749D01*
X102677286Y-51075421D01*
X102494393Y-50801702D01*
X102285551Y-50547228D01*
X102285550Y-50547227D01*
X102285546Y-50547222D01*
X102052777Y-50314453D01*
X101938116Y-50220353D01*
X101898782Y-50162607D01*
X101896911Y-50092763D01*
X101933099Y-50032994D01*
X101995855Y-50002279D01*
X102016781Y-50000500D01*
X103780242Y-50000500D01*
X103847281Y-50020185D01*
G37*
%TD.AperFunction*%
%TD*%
M02*
