%TF.GenerationSoftware,KiCad,Pcbnew,10.0.5*%
%TF.CreationDate,2026-08-14T15:53:09-04:00*%
%TF.ProjectId,sedsna,73656473-6e61-42e6-9b69-6361645f7063,rev?*%
%TF.SameCoordinates,Original*%
%TF.FileFunction,Soldermask,Top*%
%TF.FilePolarity,Negative*%
%FSLAX46Y46*%
G04 Gerber Fmt 4.6, Leading zero omitted, Abs format (unit mm)*
G04 Created by KiCad (PCBNEW 10.0.5) date 2026-08-14 15:53:09*
%MOMM*%
%LPD*%
G01*
G04 APERTURE LIST*
G04 Aperture macros list*
%AMRoundRect*
0 Rectangle with rounded corners*
0 $1 Rounding radius*
0 $2 $3 $4 $5 $6 $7 $8 $9 X,Y pos of 4 corners*
0 Add a 4 corners polygon primitive as box body*
4,1,4,$2,$3,$4,$5,$6,$7,$8,$9,$2,$3,0*
0 Add four circle primitives for the rounded corners*
1,1,$1+$1,$2,$3*
1,1,$1+$1,$4,$5*
1,1,$1+$1,$6,$7*
1,1,$1+$1,$8,$9*
0 Add four rect primitives between the rounded corners*
20,1,$1+$1,$2,$3,$4,$5,0*
20,1,$1+$1,$4,$5,$6,$7,0*
20,1,$1+$1,$6,$7,$8,$9,0*
20,1,$1+$1,$8,$9,$2,$3,0*%
%AMRotRect*
0 Rectangle, with rotation*
0 The origin of the aperture is its center*
0 $1 length*
0 $2 width*
0 $3 Rotation angle, in degrees counterclockwise*
0 Add horizontal line*
21,1,$1,$2,0,0,$3*%
G04 Aperture macros list end*
%ADD10RoundRect,0.067500X0.682500X-0.157500X0.682500X0.157500X-0.682500X0.157500X-0.682500X-0.157500X0*%
%ADD11R,2.775000X2.775000*%
%ADD12C,2.775000*%
%ADD13C,1.800000*%
%ADD14RoundRect,0.102000X0.565685X-0.035355X-0.035355X0.565685X-0.565685X0.035355X0.035355X-0.565685X0*%
%ADD15C,5.700000*%
%ADD16R,0.900800X1.549400*%
%ADD17R,3.200400X1.549400*%
%ADD18RoundRect,0.160000X-0.044194X-0.270468X0.270468X0.044194X0.044194X0.270468X-0.270468X-0.044194X0*%
%ADD19R,1.295400X1.104900*%
%ADD20O,1.800000X1.000000*%
%ADD21O,2.100000X1.000000*%
%ADD22C,0.650000*%
%ADD23R,1.143000X0.542100*%
%ADD24R,1.143000X0.584200*%
%ADD25R,1.143000X0.252400*%
%ADD26R,1.135700X0.252400*%
%ADD27R,1.135700X0.252398*%
%ADD28R,1.143000X0.252399*%
%ADD29R,1.143000X0.252401*%
%ADD30R,0.254000X0.279400*%
%ADD31R,0.254000X0.254000*%
%ADD32RoundRect,0.250000X0.600000X-0.600000X0.600000X0.600000X-0.600000X0.600000X-0.600000X-0.600000X0*%
%ADD33C,1.700000*%
%ADD34RotRect,0.254000X0.762000X315.000000*%
%ADD35RotRect,0.254000X0.762000X225.000000*%
%ADD36RotRect,3.759200X3.759200X225.000000*%
%ADD37RoundRect,0.100000X-0.224506X0.083085X0.083085X-0.224506X0.224506X-0.083085X-0.083085X0.224506X0*%
%ADD38RoundRect,0.237500X-0.344715X0.008839X0.008839X-0.344715X0.344715X-0.008839X-0.008839X0.344715X0*%
%ADD39C,2.529000*%
%ADD40C,2.829000*%
%ADD41RoundRect,0.155000X0.259862X-0.040659X-0.040659X0.259862X-0.259862X0.040659X0.040659X-0.259862X0*%
%ADD42RoundRect,0.100000X0.224506X-0.083085X-0.083085X0.224506X-0.224506X0.083085X0.083085X-0.224506X0*%
%ADD43C,3.098800*%
%ADD44C,1.955800*%
%ADD45C,2.159000*%
%ADD46R,0.482600X0.254000*%
%ADD47R,0.254000X0.482600*%
G04 APERTURE END LIST*
D10*
%TO.C,U4*%
X112512500Y-70805000D03*
X112512500Y-69535000D03*
X112512500Y-68265000D03*
X112512500Y-66995000D03*
X106512500Y-66995000D03*
X106512500Y-68265000D03*
X106512500Y-69535000D03*
X106512500Y-70805000D03*
%TD*%
D11*
%TO.C,J7*%
X102000000Y-111750000D03*
D12*
X102000000Y-105400000D03*
X102000000Y-99050000D03*
%TD*%
D13*
%TO.C,RESET1*%
X105762500Y-74700000D03*
X112162500Y-74700000D03*
%TD*%
D14*
%TO.C,XTAL1*%
X124754594Y-69954594D03*
X123800000Y-69000000D03*
X123057538Y-69742462D03*
X124012132Y-70697056D03*
%TD*%
D15*
%TO.C,H1*%
X99800000Y-52800000D03*
%TD*%
D16*
%TO.C,U6*%
X116500000Y-77975800D03*
X118800000Y-77975800D03*
X121100000Y-77975800D03*
D17*
X118800000Y-71524200D03*
%TD*%
D18*
%TO.C,L1*%
X124845181Y-62654819D03*
X125654819Y-61845181D03*
%TD*%
D19*
%TO.C,PWR1*%
X125500000Y-75747750D03*
X125500000Y-73652250D03*
%TD*%
D20*
%TO.C,J5*%
X134808400Y-88820002D03*
X134808400Y-80179998D03*
D21*
X130628400Y-88832651D03*
X130631750Y-80142349D03*
D22*
X131120000Y-87390000D03*
X131120000Y-81610000D03*
D23*
X130053400Y-87678950D03*
D24*
X130053400Y-86900001D03*
D25*
X130053400Y-85723800D03*
D26*
X130057050Y-84723800D03*
D25*
X130053400Y-84223800D03*
X130053400Y-83223800D03*
D23*
X130053400Y-81278950D03*
X130053400Y-82078950D03*
D27*
X130057050Y-82723801D03*
D25*
X130053400Y-83723800D03*
D28*
X130053400Y-85223800D03*
D29*
X130053400Y-86223799D03*
%TD*%
D30*
%TO.C,B1*%
X111839499Y-64910302D03*
X112339499Y-64910302D03*
D31*
X112862500Y-64650000D03*
X112862500Y-64150001D03*
X112862500Y-63650002D03*
D30*
X112339499Y-63389700D03*
X111839499Y-63389700D03*
D31*
X111316498Y-63650002D03*
X111316498Y-64150001D03*
X111316498Y-64650000D03*
%TD*%
D32*
%TO.C,J1*%
X104780000Y-56290000D03*
D33*
X104780000Y-53750000D03*
X104780000Y-51210000D03*
D32*
X107320000Y-56290000D03*
D33*
X107320000Y-53750000D03*
X107320000Y-51210000D03*
D32*
X109860000Y-56290000D03*
D33*
X109860000Y-53750000D03*
X109860000Y-51210000D03*
D32*
X112400000Y-56290000D03*
D33*
X112400000Y-53750000D03*
X112400000Y-51210000D03*
%TD*%
D34*
%TO.C,U2*%
X122916379Y-64583621D03*
X122562826Y-64230068D03*
X122209273Y-63876515D03*
X121855719Y-63522961D03*
X121502166Y-63169408D03*
X121148612Y-62815854D03*
X120795059Y-62462301D03*
X120441506Y-62108748D03*
D35*
X119450000Y-62108748D03*
X119096447Y-62462301D03*
X118742894Y-62815854D03*
X118389340Y-63169408D03*
X118035787Y-63522961D03*
X117682233Y-63876515D03*
X117328680Y-64230068D03*
X116975127Y-64583621D03*
D34*
X116975127Y-65575127D03*
X117328680Y-65928680D03*
X117682233Y-66282233D03*
X118035787Y-66635787D03*
X118389340Y-66989340D03*
X118742894Y-67342894D03*
X119096447Y-67696447D03*
X119450000Y-68050000D03*
D35*
X120441506Y-68050000D03*
X120795059Y-67696447D03*
X121148612Y-67342894D03*
X121502166Y-66989340D03*
X121855719Y-66635787D03*
X122209273Y-66282233D03*
X122562826Y-65928680D03*
X122916379Y-65575127D03*
D36*
X119945753Y-65079374D03*
%TD*%
D11*
%TO.C,J11*%
X122850000Y-84500000D03*
D12*
X116500000Y-84500000D03*
X110150000Y-84500000D03*
%TD*%
D11*
%TO.C,J6*%
X131000000Y-111750000D03*
D12*
X131000000Y-105400000D03*
X131000000Y-99050000D03*
%TD*%
D37*
%TO.C,C9*%
X124161854Y-63361854D03*
X124738146Y-63938146D03*
%TD*%
D15*
%TO.C,H2*%
X133300000Y-52800000D03*
%TD*%
D38*
%TO.C,R2*%
X125554765Y-67004765D03*
X126845235Y-68295235D03*
%TD*%
D39*
%TO.C,AE1*%
X131940000Y-60490000D03*
D40*
X129400000Y-57950000D03*
X134480000Y-57950000D03*
X129400000Y-63030000D03*
X134480000Y-63030000D03*
%TD*%
D41*
%TO.C,C1*%
X125601283Y-68951283D03*
X124798717Y-68148717D03*
%TD*%
D42*
%TO.C,C8*%
X126338146Y-61188146D03*
X125761854Y-60611854D03*
%TD*%
D43*
%TO.C,J3*%
X110000000Y-138349900D03*
X122999999Y-138349900D03*
D44*
X110000000Y-120000000D03*
X116500000Y-120000000D03*
X122999999Y-120000000D03*
X110000000Y-126550000D03*
X116500000Y-126550000D03*
X122999999Y-126550000D03*
D45*
X105795000Y-134810001D03*
X127205000Y-134810001D03*
%TD*%
D19*
%TO.C,STAT1*%
X129400000Y-75747750D03*
X129400000Y-73652250D03*
%TD*%
D46*
%TO.C,U5*%
X115344300Y-56749999D03*
X115344300Y-57250000D03*
X115344300Y-57750000D03*
X115344300Y-58250001D03*
D47*
X116000001Y-58414400D03*
X116500000Y-58414400D03*
X116999999Y-58414400D03*
D46*
X117655700Y-58250001D03*
X117655700Y-57750000D03*
X117655700Y-57250000D03*
X117655700Y-56749999D03*
D47*
X116999999Y-56585600D03*
X116500000Y-56585600D03*
X116000001Y-56585600D03*
%TD*%
D11*
%TO.C,J4*%
X116500000Y-111750000D03*
D12*
X116500000Y-105400000D03*
X116500000Y-99050000D03*
%TD*%
D41*
%TO.C,C2*%
X123001283Y-71551283D03*
X122198717Y-70748717D03*
%TD*%
D15*
%TO.C,H3*%
X99700000Y-137300000D03*
%TD*%
%TO.C,H4*%
X133300000Y-137300000D03*
%TD*%
M02*
