M48
; DRILL file KiCad 10.0.5 date 2026-08-14T15:53:19
; FORMAT={-:-/ absolute / metric / decimal}
; #@! TF.CreationDate,2026-08-14T15:53:19-04:00
; #@! TF.GenerationSoftware,Kicad,Pcbnew,10.0.5
; #@! TF.FileFunction,Plated,1,4,PTH
FMAT,2
METRIC
; #@! TA.AperFunction,Plated,PTH,ViaDrill
T1C0.200
; #@! TA.AperFunction,Plated,PTH,ViaDrill
T2C0.300
; #@! TA.AperFunction,Plated,PTH,ComponentDrill
T3C0.550
; #@! TA.AperFunction,Plated,PTH,ComponentDrill
T4C0.600
; #@! TA.AperFunction,Plated,PTH,ComponentDrill
T5C1.000
; #@! TA.AperFunction,Plated,PTH,ComponentDrill
T6C1.200
; #@! TA.AperFunction,Plated,PTH,ComponentDrill
T7C1.448
; #@! TA.AperFunction,Plated,PTH,ComponentDrill
T8C1.550
; #@! TA.AperFunction,Plated,PTH,ComponentDrill
T9C1.651
; #@! TA.AperFunction,Plated,PTH,ComponentDrill
T10C1.750
; #@! TA.AperFunction,Plated,PTH,ComponentDrill
T11C1.850
; #@! TA.AperFunction,Plated,PTH,ComponentDrill
T12C3.200
%
G90
G05
T1
X123.131Y-63.581
X123.343Y-65.009
X123.437Y-63.24
X123.676Y-62.833
X123.693Y-64.659
X124.052Y-62.49
X124.076Y-64.276
X124.367Y-62.114
X124.4Y-64.74
X124.43Y-66.93
X124.823Y-61.827
X124.92Y-66.42
X124.982Y-60.383
X125.098Y-61.384
X125.259Y-60.858
X125.31Y-64.51
X125.31Y-63.208
X125.393Y-60.017
X125.4Y-65.95
X125.428Y-70.448
X125.583Y-63.686
X125.662Y-62.735
X125.844Y-60.033
X125.89Y-70.05
X126.094Y-62.424
X126.1Y-66.25
X126.21Y-60.32
X126.22Y-69.47
X126.463Y-62.037
X126.667Y-60.251
X126.821Y-69.779
X126.84Y-66.84
X126.875Y-61.839
X127.076Y-60.054
X127.083Y-61.361
X127.45Y-67.5
X127.53Y-61.125
X127.552Y-59.92
X127.776Y-68.754
X127.95Y-67.93
X128.015Y-59.872
X128.07Y-61.031
X128.483Y-59.87
X128.511Y-61.03
X128.94Y-59.87
X128.97Y-61.03
X129.39Y-59.87
X129.45Y-61.03
X129.83Y-59.87
X129.91Y-61.03
X130.26Y-59.87
X130.35Y-61.03
T2
X101.525Y-61.8
X102.827Y-65.177
X103.365Y-65.769
X106.5Y-78.0
X108.5Y-67.0
X108.833Y-59.183
X109.5Y-70.0
X110.2Y-62.55
X110.5Y-64.5
X111.55Y-65.6
X112.25Y-62.4
X112.55Y-65.9
X113.0Y-97.35
X113.8Y-62.85
X114.15Y-58.55
X114.2Y-65.95
X114.7Y-59.85
X114.75Y-54.07
X114.775Y-63.275
X114.95Y-64.2
X115.058Y-59.134
X115.315Y-60.45
X115.6Y-64.9
X115.95Y-67.15
X116.1Y-60.8
X116.4Y-57.55
X116.5Y-76.6
X116.6Y-66.65
X117.2Y-55.6
X117.6Y-61.85
X118.6Y-58.3
X118.7Y-56.2
X118.807Y-59.073
X119.05Y-75.15
X119.25Y-69.6
X119.717Y-59.617
X120.05Y-57.5
X120.2Y-69.6
X120.834Y-55.668
X121.15Y-69.5
X121.25Y-76.45
X121.526Y-56.315
X121.875Y-60.632
X121.887Y-59.558
X122.301Y-56.515
X123.15Y-67.9
X123.2Y-61.7
X123.8Y-66.82
X124.15Y-72.7
X124.18Y-75.69
X127.5Y-74.0
X127.5Y-82.0
X128.768Y-84.718
X130.75Y-75.9
X131.351Y-84.224
T3
X131.12Y-81.61
X131.12Y-87.39
T5
X104.78Y-51.21
X104.78Y-53.75
X104.78Y-56.29
X107.32Y-51.21
X107.32Y-53.75
X107.32Y-56.29
X109.86Y-51.21
X109.86Y-53.75
X109.86Y-56.29
X112.4Y-51.21
X112.4Y-53.75
X112.4Y-56.29
T6
X105.762Y-74.7
X112.162Y-74.7
T7
X110.0Y-120.0
X110.0Y-126.55
X116.5Y-120.0
X116.5Y-126.55
X123.0Y-120.0
X123.0Y-126.55
T8
X131.94Y-60.49
T9
X105.795Y-134.81
X127.205Y-134.81
T10
X129.4Y-57.95
X129.4Y-63.03
X134.48Y-57.95
X134.48Y-63.03
T11
X102.0Y-99.05
X102.0Y-105.4
X102.0Y-111.75
X110.15Y-84.5
X116.5Y-84.5
X116.5Y-99.05
X116.5Y-105.4
X116.5Y-111.75
X122.85Y-84.5
X131.0Y-99.05
X131.0Y-105.4
X131.0Y-111.75
T12
X99.7Y-137.3
X99.8Y-52.8
X133.3Y-52.8
X133.3Y-137.3
T4
G00X130.078Y-88.833
M15
G01X131.178Y-88.833
M16
G05
G00X130.082Y-80.142
M15
G01X131.182Y-80.142
M16
G05
G00X134.408Y-80.18
M15
G01X135.208Y-80.18
M16
G05
G00X134.408Y-88.82
M15
G01X135.208Y-88.82
M16
G05
M30
