%TF.GenerationSoftware,KiCad,Pcbnew,10.0.5*%
%TF.CreationDate,2026-08-14T15:53:09-04:00*%
%TF.ProjectId,sedsna,73656473-6e61-42e6-9b69-6361645f7063,rev?*%
%TF.SameCoordinates,Original*%
%TF.FileFunction,Soldermask,Bot*%
%TF.FilePolarity,Negative*%
%FSLAX46Y46*%
G04 Gerber Fmt 4.6, Leading zero omitted, Abs format (unit mm)*
G04 Created by KiCad (PCBNEW 10.0.5) date 2026-08-14 15:53:09*
%MOMM*%
%LPD*%
G01*
G04 APERTURE LIST*
G04 Aperture macros list*
%AMRoundRect*
0 Rectangle with rounded corners*
0 $1 Rounding radius*
0 $2 $3 $4 $5 $6 $7 $8 $9 X,Y pos of 4 corners*
0 Add a 4 corners polygon primitive as box body*
4,1,4,$2,$3,$4,$5,$6,$7,$8,$9,$2,$3,0*
0 Add four circle primitives for the rounded corners*
1,1,$1+$1,$2,$3*
1,1,$1+$1,$4,$5*
1,1,$1+$1,$6,$7*
1,1,$1+$1,$8,$9*
0 Add four rect primitives between the rounded corners*
20,1,$1+$1,$2,$3,$4,$5,0*
20,1,$1+$1,$4,$5,$6,$7,0*
20,1,$1+$1,$6,$7,$8,$9,0*
20,1,$1+$1,$8,$9,$2,$3,0*%
G04 Aperture macros list end*
%ADD10R,2.775000X2.775000*%
%ADD11C,2.775000*%
%ADD12C,1.800000*%
%ADD13C,5.700000*%
%ADD14O,1.800000X1.000000*%
%ADD15O,2.100000X1.000000*%
%ADD16C,0.650000*%
%ADD17RoundRect,0.250000X0.600000X-0.600000X0.600000X0.600000X-0.600000X0.600000X-0.600000X-0.600000X0*%
%ADD18C,1.700000*%
%ADD19C,2.529000*%
%ADD20C,2.829000*%
%ADD21C,3.098800*%
%ADD22C,1.955800*%
%ADD23C,2.159000*%
%ADD24RoundRect,0.237500X0.250000X0.237500X-0.250000X0.237500X-0.250000X-0.237500X0.250000X-0.237500X0*%
%ADD25R,0.605600X0.500000*%
%ADD26R,0.500000X0.605600*%
%ADD27RoundRect,0.237500X0.237500X-0.250000X0.237500X0.250000X-0.237500X0.250000X-0.237500X-0.250000X0*%
%ADD28RoundRect,0.250000X-0.250000X-0.475000X0.250000X-0.475000X0.250000X0.475000X-0.250000X0.475000X0*%
%ADD29RoundRect,0.225000X-0.225000X-0.250000X0.225000X-0.250000X0.225000X0.250000X-0.225000X0.250000X0*%
%ADD30RoundRect,0.237500X-0.250000X-0.237500X0.250000X-0.237500X0.250000X0.237500X-0.250000X0.237500X0*%
%ADD31RoundRect,0.225000X0.250000X-0.225000X0.250000X0.225000X-0.250000X0.225000X-0.250000X-0.225000X0*%
%ADD32RoundRect,0.250000X0.325000X0.650000X-0.325000X0.650000X-0.325000X-0.650000X0.325000X-0.650000X0*%
%ADD33RoundRect,0.102000X0.642500X0.735000X-0.642500X0.735000X-0.642500X-0.735000X0.642500X-0.735000X0*%
G04 APERTURE END LIST*
D10*
%TO.C,J7*%
X102000000Y-111750000D03*
D11*
X102000000Y-105400000D03*
X102000000Y-99050000D03*
%TD*%
D12*
%TO.C,RESET1*%
X105762500Y-74700000D03*
X112162500Y-74700000D03*
%TD*%
D13*
%TO.C,H1*%
X99800000Y-52800000D03*
%TD*%
D14*
%TO.C,J5*%
X134808400Y-88820002D03*
X134808400Y-80179998D03*
D15*
X130628400Y-88832651D03*
X130631750Y-80142349D03*
D16*
X131120000Y-87390000D03*
X131120000Y-81610000D03*
%TD*%
D17*
%TO.C,J1*%
X104780000Y-56290000D03*
D18*
X104780000Y-53750000D03*
X104780000Y-51210000D03*
D17*
X107320000Y-56290000D03*
D18*
X107320000Y-53750000D03*
X107320000Y-51210000D03*
D17*
X109860000Y-56290000D03*
D18*
X109860000Y-53750000D03*
X109860000Y-51210000D03*
D17*
X112400000Y-56290000D03*
D18*
X112400000Y-53750000D03*
X112400000Y-51210000D03*
%TD*%
D10*
%TO.C,J11*%
X122850000Y-84500000D03*
D11*
X116500000Y-84500000D03*
X110150000Y-84500000D03*
%TD*%
D10*
%TO.C,J6*%
X131000000Y-111750000D03*
D11*
X131000000Y-105400000D03*
X131000000Y-99050000D03*
%TD*%
D13*
%TO.C,H2*%
X133300000Y-52800000D03*
%TD*%
D19*
%TO.C,AE1*%
X131940000Y-60490000D03*
D20*
X129400000Y-57950000D03*
X134480000Y-57950000D03*
X129400000Y-63030000D03*
X134480000Y-63030000D03*
%TD*%
D21*
%TO.C,J3*%
X110000000Y-138349900D03*
X122999999Y-138349900D03*
D22*
X110000000Y-120000000D03*
X116500000Y-120000000D03*
X122999999Y-120000000D03*
X110000000Y-126550000D03*
X116500000Y-126550000D03*
X122999999Y-126550000D03*
D23*
X105795000Y-134810001D03*
X127205000Y-134810001D03*
%TD*%
D10*
%TO.C,J4*%
X116500000Y-111750000D03*
D11*
X116500000Y-105400000D03*
X116500000Y-99050000D03*
%TD*%
D13*
%TO.C,H3*%
X99700000Y-137300000D03*
%TD*%
%TO.C,H4*%
X133300000Y-137300000D03*
%TD*%
D24*
%TO.C,R18*%
X122862500Y-60650000D03*
X121037500Y-60650000D03*
%TD*%
D25*
%TO.C,C19*%
X122552800Y-62500000D03*
X121447200Y-62500000D03*
%TD*%
D26*
%TO.C,C24*%
X109700000Y-64652800D03*
X109700000Y-63547200D03*
%TD*%
D27*
%TO.C,R12*%
X113250000Y-61562500D03*
X113250000Y-59737500D03*
%TD*%
D28*
%TO.C,C5*%
X117700000Y-77950000D03*
X119600000Y-77950000D03*
%TD*%
D29*
%TO.C,C15*%
X108187500Y-74700000D03*
X109737500Y-74700000D03*
%TD*%
D30*
%TO.C,R19*%
X117187500Y-60650000D03*
X119012500Y-60650000D03*
%TD*%
D27*
%TO.C,R17*%
X129400000Y-75612500D03*
X129400000Y-73787500D03*
%TD*%
D31*
%TO.C,C3*%
X127250000Y-77925000D03*
X127250000Y-76375000D03*
%TD*%
D26*
%TO.C,C4*%
X121250000Y-77947200D03*
X121250000Y-79052800D03*
%TD*%
%TO.C,C23*%
X111800000Y-63547200D03*
X111800000Y-64652800D03*
%TD*%
%TO.C,C17*%
X115100000Y-58402800D03*
X115100000Y-57297200D03*
%TD*%
D27*
%TO.C,R16*%
X125500000Y-75612500D03*
X125500000Y-73787500D03*
%TD*%
D25*
%TO.C,C18*%
X117652800Y-58400000D03*
X116547200Y-58400000D03*
%TD*%
D26*
%TO.C,C7*%
X108362500Y-68297200D03*
X108362500Y-69402800D03*
%TD*%
D32*
%TO.C,C6*%
X121250000Y-71550000D03*
X118300000Y-71550000D03*
%TD*%
D27*
%TO.C,R8*%
X111500000Y-61562500D03*
X111500000Y-59737500D03*
%TD*%
D33*
%TO.C,FB1*%
X125173000Y-77950000D03*
X123227000Y-77950000D03*
%TD*%
D30*
%TO.C,R7*%
X108037500Y-76750000D03*
X109862500Y-76750000D03*
%TD*%
M02*
